<?xml version="1.0" encoding="iso-8859-1"?>
<!-- Generator: Adobe Illustrator 18.0.0, SVG Export Plug-In . SVG Version: 6.00 Build 0)  -->
<!DOCTYPE svg PUBLIC "-//W3C//DTD SVG 1.1//EN" "http://www.w3.org/Graphics/SVG/1.1/DTD/svg11.dtd">
<svg version="1.1" id="Capa_1" xmlns="http://www.w3.org/2000/svg" xmlns:xlink="http://www.w3.org/1999/xlink" x="0px" y="0px"
	 viewBox="0 0 420.807 420.807" style="enable-background:new 0 0 420.807 420.807;" xml:space="preserve">
<g>
	<circle cx="123.548" cy="246.565" r="15.703"/>
	<circle cx="297.27" cy="246.565" r="15.703"/>
	<g>
		<path d="M95.669,209.892c-0.933,0-1.88-0.164-2.805-0.51c-4.138-1.549-6.236-6.16-4.686-10.297
			c6.135-16.381,24.452-24.717,40.833-18.582l5.698,2.134c8.93,3.344,19.058,1.148,25.801-5.595c3.125-3.123,8.19-3.124,11.314,0
			c3.124,3.125,3.124,8.189,0,11.314c-11.167,11.166-27.938,14.803-42.726,9.264l-5.698-2.134
			c-8.117-3.04-17.197,1.091-20.239,9.209C101.958,207.909,98.908,209.892,95.669,209.892z"/>
	</g>
	<g>
		<path d="M325.149,209.892c-3.24,0-6.289-1.982-7.493-5.196c-3.04-8.118-12.119-12.252-20.238-9.21l-5.698,2.134
			c-14.787,5.538-31.559,1.902-42.726-9.265c-3.124-3.124-3.124-8.189,0-11.313c3.125-3.124,8.189-3.124,11.314,0
			c6.744,6.744,16.872,8.938,25.8,5.594l5.698-2.134c16.379-6.134,34.698,2.201,40.834,18.582c1.549,4.138-0.549,8.748-4.687,10.298
			C327.03,209.728,326.082,209.892,325.149,209.892z"/>
	</g>
	<g>
		<path d="M151.192,317.903c-3.888,0-7.828-0.951-11.468-2.955c-3.871-2.131-5.281-6.996-3.15-10.867
			c2.132-3.87,6.997-5.279,10.867-3.15c3.796,2.091,8.588,0.703,10.679-3.095l1.912-3.474c6.346-11.526,20.886-15.74,32.412-9.395
			l6.253,3.443c3.871,2.131,5.281,6.996,3.149,10.866c-2.13,3.871-6.995,5.282-10.866,3.149l-6.253-3.443
			c-1.839-1.012-3.961-1.248-5.98-0.664c-2.017,0.584-3.686,1.92-4.699,3.759l-1.912,3.474
			C167.794,313.439,159.616,317.903,151.192,317.903z"/>
		<path d="M269.626,317.903c-8.424,0-16.602-4.463-20.944-12.349l-1.913-3.476c-2.091-3.797-6.883-5.187-10.679-3.094l-6.253,3.442
			c-3.869,2.132-8.735,0.721-10.866-3.149c-2.131-3.87-0.721-8.735,3.149-10.866l6.253-3.443
			c11.527-6.346,26.067-2.131,32.412,9.395l1.913,3.475c2.089,3.796,6.879,5.186,10.679,3.095c3.872-2.131,8.736-0.721,10.866,3.149
			c2.131,3.87,0.721,8.735-3.149,10.866C277.454,316.952,273.513,317.903,269.626,317.903z"/>
	</g>
	<path d="M210.409,363.425c-8.756,0-15.782-0.509-21.609-2.991c-5.709-2.433-12.516-7.839-12.516-19.777
		c0-17.811,15.308-32.302,34.125-32.302s34.124,14.491,34.124,32.302c0,11.938-6.806,17.344-12.516,19.777
		C226.191,362.916,219.165,363.425,210.409,363.425z M210.409,324.355c-9.994,0-18.125,7.313-18.125,16.302
		c0,3.781,0,6.768,18.125,6.768c18.124,0,18.124-2.987,18.124-6.768C228.533,331.668,220.402,324.355,210.409,324.355z"/>
	<path d="M406.101,228.923c0-11.252-4.054-21.572-10.772-29.587v-14.411C395.329,82.957,312.371,0,210.403,0
		S25.478,82.957,25.478,184.925v14.411c-6.718,8.016-10.772,18.335-10.772,29.587c0,22.878,16.743,41.911,38.617,45.512
		c7.73,33.852,34.765,72.788,80.693,116.084c21.421,20.193,48.902,30.287,76.392,30.287c27.483,0,54.976-10.098,76.392-30.286
		c45.929-43.298,72.964-82.235,80.694-116.087C389.363,270.828,406.101,251.798,406.101,228.923z M210.404,16
		c93.146,0,168.925,75.78,168.925,168.925v2.138c-5.614-2.607-11.834-4.114-18.388-4.251c-6.464-25.849-16.386-50.826-29.575-74.141
		c0,0,0,0-0.001-0.001l-1.222-2.16c-6.925-12.242-19.451-20.109-33.506-21.044c-13.916-0.915-27.227,5.135-35.614,16.222
		l-0.323,0.432c-11.958,16.063-30.291,25.277-50.297,25.277c-20.001,0-38.336-9.217-50.312-25.299l-0.325-0.432
		c-8.38-11.075-21.695-17.131-35.607-16.205c-14.055,0.937-26.579,8.806-33.502,21.05l-1.232,2.18
		C76.246,132,66.329,156.969,59.87,182.813c-6.556,0.136-12.777,1.643-18.392,4.251v-2.138C41.478,91.78,117.258,16,210.404,16z
		 M30.706,228.923c0-15.065,11.112-27.583,25.569-29.79c-3.495,18.29-5.285,36.927-5.285,55.647c0,0.873,0.031,1.755,0.06,2.636
		C39.227,253.342,30.706,242.113,30.706,228.923z M275.825,378.878c-36.682,34.58-94.151,34.58-130.833,0
		C93.963,330.773,66.99,287.861,66.99,254.753c0-48.332,12.574-96.116,36.362-138.187l1.232-2.18
		c4.262-7.538,11.978-12.383,20.639-12.96c0.601-0.04,1.198-0.06,1.791-0.06c7.948,0,15.16,3.567,20.004,9.969l0.247,0.329
		c14.796,19.87,38.399,31.733,63.137,31.733c24.744,0,48.344-11.859,63.131-31.723l0.258-0.345
		c5.193-6.866,13.138-10.478,21.783-9.898c8.662,0.576,16.378,5.42,20.643,12.958l1.222,2.16
		c23.805,42.083,36.387,89.882,36.387,138.231C353.827,287.86,326.854,330.772,275.825,378.878z M369.767,257.413
		c0.029-0.88,0.06-1.76,0.06-2.632c0-18.717-1.791-37.354-5.289-55.646c14.454,2.21,25.562,14.726,25.562,29.789
		C390.101,242.108,381.585,253.335,369.767,257.413z"/>
</g>
<g>
</g>
<g>
</g>
<g>
</g>
<g>
</g>
<g>
</g>
<g>
</g>
<g>
</g>
<g>
</g>
<g>
</g>
<g>
</g>
<g>
</g>
<g>
</g>
<g>
</g>
<g>
</g>
<g>
</g>
</svg>
