<?xml version="1.0" encoding="iso-8859-1"?>
<!-- Generator: Adobe Illustrator 18.0.0, SVG Export Plug-In . SVG Version: 6.00 Build 0)  -->
<!DOCTYPE svg PUBLIC "-//W3C//DTD SVG 1.1//EN" "http://www.w3.org/Graphics/SVG/1.1/DTD/svg11.dtd">
<svg version="1.1" id="Capa_1" xmlns="http://www.w3.org/2000/svg" xmlns:xlink="http://www.w3.org/1999/xlink" x="0px" y="0px"
	 viewBox="0 0 420.807 420.807" style="enable-background:new 0 0 420.807 420.807;" xml:space="preserve">
<g>
	<path d="M122.427,191.063c2.965-2.935,6.889-4.548,11.058-4.548c0.027,0,0.056,0,0.083,0c4.2,0.021,8.14,1.677,11.095,4.662
		l18.944,19.141c1.564,1.581,3.624,2.373,5.686,2.373c2.033,0,4.068-0.771,5.628-2.314c3.14-3.108,3.166-8.173,0.058-11.313
		l-18.944-19.142c-5.961-6.022-13.91-9.363-22.383-9.407c-8.513-0.016-16.456,3.215-22.479,9.176
		c-3.14,3.108-3.166,8.173-0.058,11.313C114.221,194.146,119.286,194.171,122.427,191.063z"/>
	<path d="M264.784,179.923l-18.944,19.141c-3.108,3.14-3.082,8.206,0.058,11.313c1.56,1.543,3.594,2.314,5.628,2.314
		c2.061,0,4.121-0.792,5.686-2.373l18.944-19.141c6.098-6.162,16.074-6.215,22.236-0.115c3.14,3.107,8.205,3.083,11.313-0.059
		c3.108-3.14,3.082-8.206-0.058-11.313C297.215,167.388,277.089,167.492,264.784,179.923z"/>
	<path d="M184.727,279.135l6.253,3.443c3.871,2.131,8.735,0.722,10.866-3.149c2.131-3.87,0.721-8.735-3.149-10.866l-6.253-3.443
		c-5.583-3.075-12.028-3.791-18.151-2.016c-6.122,1.775-11.187,5.827-14.26,11.41l-1.913,3.475
		c-1.013,1.839-2.682,3.174-4.698,3.759s-4.141,0.35-5.98-0.664c-3.868-2.13-8.735-0.722-10.866,3.149
		c-2.131,3.87-0.721,8.735,3.149,10.866c3.575,1.969,7.504,2.97,11.475,2.97c2.23,0,4.475-0.316,6.677-0.955
		c6.122-1.774,11.187-5.827,14.26-11.41l1.913-3.475c1.013-1.839,2.682-3.174,4.698-3.759
		C180.763,277.887,182.887,278.124,184.727,279.135z"/>
	<path d="M273.377,281.084c-3.797,2.089-8.59,0.702-10.679-3.095l-1.913-3.476c-6.347-11.525-20.888-15.741-32.412-9.394
		l-6.253,3.443c-3.87,2.131-5.28,6.996-3.149,10.866c2.131,3.871,6.997,5.281,10.866,3.149l6.253-3.442
		c3.797-2.092,8.589-0.702,10.679,3.094l1.913,3.476c4.342,7.886,12.52,12.349,20.943,12.349c3.889,0,7.829-0.951,11.469-2.955
		c3.87-2.131,5.28-6.996,3.149-10.866C282.113,280.363,277.249,278.953,273.377,281.084z"/>
	<path d="M169.987,244.907c1.238-2.989,0.555-6.43-1.733-8.718l-29.44-29.441c-3.124-3.124-8.188-3.124-11.314,0
		c-3.124,3.124-3.124,8.189,0,11.313l15.784,15.784h-23.586c-4.418,0-8,3.582-8,8s3.582,8,8,8h42.899
		C165.832,249.846,168.749,247.896,169.987,244.907z"/>
	<path d="M301.12,233.846h-23.586l15.785-15.784c3.124-3.124,3.124-8.189,0-11.313c-3.123-3.124-8.188-3.124-11.314,0
		l-29.441,29.441c-2.288,2.288-2.972,5.729-1.733,8.718s4.155,4.938,7.391,4.938h42.899c4.418,0,8-3.582,8-8
		S305.538,233.846,301.12,233.846z"/>
	<path d="M213.236,291.045h-5.655c-17.23,0-31.248,14.018-31.248,31.249v25.955c0,17.231,14.018,31.249,31.248,31.249h5.655
		c17.23,0,31.249-14.018,31.249-31.249v-25.955C244.485,305.063,230.467,291.045,213.236,291.045z M207.581,307.045h5.655
		c6.59,0,12.201,4.21,14.327,10.077h-34.308C195.38,311.255,200.99,307.045,207.581,307.045z M213.236,363.498h-5.655
		c-8.408,0-15.248-6.841-15.248-15.249v-15.127h36.152v15.127C228.485,356.657,221.644,363.498,213.236,363.498z"/>
	<path d="M395.329,199.336v-14.411C395.329,82.957,312.371,0,210.403,0S25.478,82.957,25.478,184.925v14.411
		c-6.718,8.016-10.772,18.335-10.772,29.587c0,22.878,16.743,41.911,38.617,45.512c7.73,33.852,34.766,72.788,80.693,116.084
		c21.421,20.193,48.902,30.287,76.392,30.287c27.483,0,54.976-10.098,76.392-30.286c45.929-43.298,72.964-82.235,80.694-116.087
		c21.869-3.606,38.606-22.636,38.606-45.51C406.101,217.671,402.046,207.352,395.329,199.336z M50.99,254.781
		c0,0.873,0.031,1.755,0.06,2.636c-11.823-4.074-20.344-15.304-20.344-28.493c0-15.065,11.112-27.583,25.569-29.79
		C52.781,217.424,50.99,236.061,50.99,254.781z M275.825,378.878c-36.682,34.58-94.151,34.58-130.833,0
		C93.963,330.773,66.99,287.861,66.99,254.753c0-48.332,12.574-96.116,36.362-138.187l1.232-2.18
		c4.262-7.538,11.978-12.383,20.639-12.96c0.601-0.04,1.198-0.06,1.791-0.06c7.948,0,15.16,3.567,20.004,9.969l0.247,0.329
		c14.796,19.87,38.399,31.733,63.137,31.733c24.744,0,48.344-11.859,63.131-31.723l0.258-0.345
		c5.193-6.866,13.138-10.478,21.783-9.898c8.662,0.576,16.378,5.42,20.643,12.958l1.222,2.16
		c23.805,42.083,36.387,89.882,36.387,138.231C353.827,287.86,326.854,330.772,275.825,378.878z M331.366,108.672
		C331.366,108.672,331.366,108.671,331.366,108.672l-1.223-2.161c-6.925-12.242-19.451-20.109-33.506-21.044
		c-13.916-0.915-27.227,5.135-35.614,16.222l-0.323,0.432c-11.958,16.063-30.291,25.277-50.297,25.277
		c-20.001,0-38.336-9.217-50.312-25.299l-0.325-0.432c-8.38-11.075-21.695-17.131-35.607-16.205
		c-14.055,0.937-26.579,8.806-33.502,21.05l-1.232,2.18C76.246,132,66.329,156.969,59.87,182.813
		c-6.556,0.136-12.778,1.643-18.393,4.251v-2.138C41.478,91.78,117.258,16,210.404,16c93.146,0,168.925,75.78,168.925,168.925v2.138
		c-5.614-2.607-11.834-4.114-18.387-4.251C354.478,156.964,344.555,131.987,331.366,108.672z M369.767,257.413
		c0.029-0.88,0.06-1.76,0.06-2.632c0-18.717-1.792-37.354-5.289-55.646c14.454,2.21,25.562,14.726,25.562,29.789
		C390.101,242.108,381.585,253.335,369.767,257.413z"/>
</g>
<g>
</g>
<g>
</g>
<g>
</g>
<g>
</g>
<g>
</g>
<g>
</g>
<g>
</g>
<g>
</g>
<g>
</g>
<g>
</g>
<g>
</g>
<g>
</g>
<g>
</g>
<g>
</g>
<g>
</g>
</svg>
