<?xml version="1.0" encoding="iso-8859-1"?>
<!-- Generator: Adobe Illustrator 18.0.0, SVG Export Plug-In . SVG Version: 6.00 Build 0)  -->
<!DOCTYPE svg PUBLIC "-//W3C//DTD SVG 1.1//EN" "http://www.w3.org/Graphics/SVG/1.1/DTD/svg11.dtd">
<svg version="1.1" id="Capa_1" xmlns="http://www.w3.org/2000/svg" xmlns:xlink="http://www.w3.org/1999/xlink" x="0px" y="0px"
	 viewBox="0 0 387.039 387.039" style="enable-background:new 0 0 387.039 387.039;" xml:space="preserve">
<g>
	<path d="M209.69,262.514c-5.194,0.261-10.565,0.531-16.171,0.531s-10.977-0.27-16.172-0.531
		c-15.733-0.791-28.158-1.415-36.031,6.073c-4.037,3.839-6.084,9.229-6.084,16.019c0,12.303,6.413,23.691,18.059,32.065
		c10.848,7.8,25.134,12.096,40.229,12.096s29.381-4.296,40.229-12.096c11.645-8.374,18.058-19.761,18.058-32.064
		c0-6.79-2.047-12.18-6.084-16.019C237.849,261.099,225.421,261.724,209.69,262.514z M193.52,312.767
		c-22.922,0-42.287-12.896-42.287-28.161c0-1.537,0.192-3.552,1.109-4.425c1.727-1.641,6.435-2.104,12.068-2.104
		c3.832,0,8.093,0.214,12.135,0.417c5.141,0.258,10.967,0.551,16.975,0.551s11.834-0.293,16.975-0.551
		c9.984-0.501,21.304-1.07,24.202,1.687c0.917,0.873,1.109,2.888,1.109,4.425C235.806,299.871,216.441,312.767,193.52,312.767z"/>
	<path d="M387.039,226.647c0-22.261-16.136-40.811-37.324-44.602v-6.717c0-86.127-70.069-156.196-156.195-156.196
		c-86.127,0-156.196,70.069-156.196,156.196v6.717C16.136,185.837,0,204.387,0,226.647c0,22.453,16.414,41.134,37.871,44.7
		c3.02,34.414,18.765,59.834,46.942,75.653c25.058,14.068,60.615,20.906,108.707,20.906c48.091,0,83.649-6.839,108.707-20.906
		c28.176-15.819,43.921-41.238,46.941-75.653C370.625,267.782,387.039,249.1,387.039,226.647z M16,226.647
		c0-13.395,9.032-24.713,21.323-28.205v56.41C25.032,251.361,16,240.043,16,226.647z M333.715,258.757
		c0,35.135-12.862,59.436-39.321,74.291c-22.603,12.69-55.599,18.858-100.874,18.858s-78.272-6.168-100.874-18.858
		c-26.46-14.855-39.322-39.156-39.322-74.291v-83.429c0-63.309,42.185-116.941,99.918-134.29
		c43.983,0.556,67.407,32.306,67.407,55.296c0,17.608-14.325,31.934-31.934,31.934c-13.204,0-23.947-10.743-23.947-23.947
		c0-9.681,7.876-17.558,17.558-17.558c4.418,0,8-3.582,8-8s-3.582-8-8-8c-18.504,0-33.558,15.054-33.558,33.558
		c0,22.027,17.92,39.947,39.947,39.947c26.431,0,47.934-21.503,47.934-47.934c0-16.605-8.343-34.47-22.317-47.79
		c-5.592-5.33-11.955-9.806-18.897-13.388c76.424,1.03,138.281,63.507,138.281,140.171V258.757z M349.715,254.853v-56.41
		c12.292,3.492,21.324,14.81,21.324,28.205S362.006,251.361,349.715,254.853z"/>
	<path d="M166.234,200.565c0-8.35-3.252-16.2-9.156-22.104c-5.904-5.904-13.754-9.156-22.104-9.156
		c-5.902,0-11.555,1.625-16.447,4.663c-4.892-3.038-10.544-4.663-16.447-4.663c-8.35,0-16.199,3.251-22.104,9.156
		c-5.905,5.904-9.157,13.754-9.157,22.104s3.252,16.2,9.156,22.104l32.895,32.895c1.501,1.5,3.535,2.343,5.657,2.343
		s4.156-0.843,5.657-2.343l32.894-32.895C162.982,216.765,166.234,208.915,166.234,200.565z M145.764,211.355l-27.237,27.238
		l-27.238-27.238c-2.882-2.882-4.47-6.714-4.47-10.79s1.588-7.908,4.471-10.79c2.882-2.882,6.714-4.47,10.79-4.47
		s7.908,1.587,10.79,4.469c1.5,1.5,3.535,2.343,5.657,2.343s4.156-0.843,5.657-2.343c2.882-2.882,6.714-4.47,10.79-4.47
		s7.908,1.587,10.791,4.47c2.882,2.882,4.47,6.714,4.47,10.79C150.234,204.641,148.646,208.473,145.764,211.355z"/>
	<path d="M268.512,173.968c-4.893-3.038-10.545-4.663-16.447-4.663c-8.351,0-16.2,3.252-22.104,9.156
		c-5.905,5.904-9.157,13.754-9.157,22.104s3.252,16.2,9.156,22.104l32.895,32.895c1.501,1.5,3.535,2.343,5.657,2.343
		s4.156-0.843,5.657-2.343l32.894-32.895c5.905-5.904,9.157-13.754,9.157-22.104s-3.252-16.2-9.156-22.104
		c-5.904-5.904-13.754-9.156-22.104-9.156C279.057,169.305,273.404,170.93,268.512,173.968z M300.22,200.565
		c0,4.076-1.588,7.908-4.471,10.791l-27.237,27.238l-27.238-27.238c-2.882-2.882-4.47-6.714-4.47-10.79s1.588-7.908,4.471-10.791
		c2.882-2.882,6.714-4.469,10.79-4.469s7.908,1.587,10.79,4.47c3.125,3.124,8.189,3.124,11.314,0c2.882-2.882,6.714-4.47,10.79-4.47
		s7.908,1.587,10.791,4.47C298.632,192.657,300.22,196.489,300.22,200.565z"/>
</g>
<g>
</g>
<g>
</g>
<g>
</g>
<g>
</g>
<g>
</g>
<g>
</g>
<g>
</g>
<g>
</g>
<g>
</g>
<g>
</g>
<g>
</g>
<g>
</g>
<g>
</g>
<g>
</g>
<g>
</g>
</svg>
