<?xml version="1.0" encoding="iso-8859-1"?>
<!-- Generator: Adobe Illustrator 18.0.0, SVG Export Plug-In . SVG Version: 6.00 Build 0)  -->
<!DOCTYPE svg PUBLIC "-//W3C//DTD SVG 1.1//EN" "http://www.w3.org/Graphics/SVG/1.1/DTD/svg11.dtd">
<svg version="1.1" id="Capa_1" xmlns="http://www.w3.org/2000/svg" xmlns:xlink="http://www.w3.org/1999/xlink" x="0px" y="0px"
	 viewBox="0 0 387.039 387.039" style="enable-background:new 0 0 387.039 387.039;" xml:space="preserve">
<g>
	<path d="M130.581,228.125c3.125-3.124,3.125-8.189,0-11.313c-12.172-12.172-31.977-12.172-44.149,0
		c-3.125,3.124-3.125,8.189,0,11.313c3.124,3.125,8.189,3.125,11.313,0c5.934-5.933,15.588-5.934,21.522,0
		c1.562,1.562,3.609,2.343,5.657,2.343S129.019,229.687,130.581,228.125z"/>
	<path d="M256.457,216.811c-3.124,3.124-3.124,8.189,0,11.313c3.125,3.125,8.189,3.125,11.314,0
		c2.874-2.874,6.695-4.457,10.761-4.457c4.064,0,7.886,1.583,10.76,4.457c1.563,1.563,3.609,2.344,5.657,2.344
		c2.047,0,4.095-0.781,5.656-2.343c3.125-3.124,3.125-8.189,0.001-11.314c-5.896-5.897-13.735-9.144-22.074-9.144
		S262.354,210.915,256.457,216.811z"/>
	<path d="M241.735,256.071c-12.981-9.335-30.104-14.476-48.216-14.476c-18.112,0-35.235,5.141-48.216,14.475
		c-13.778,9.908-21.367,23.336-21.367,37.809c0,7.804,2.319,13.966,6.892,18.315c6.358,6.046,15.554,7.494,26.96,7.494
		c4.89,0,10.186-0.266,15.837-0.55c6.383-0.321,12.984-0.653,19.894-0.653s13.511,0.332,19.894,0.653
		c18.838,0.946,33.714,1.694,42.797-6.944c4.573-4.349,6.892-10.511,6.892-18.315C263.102,279.406,255.514,265.979,241.735,256.071z
		 M245.184,300.6c-4.11,3.908-17.766,3.222-30.967,2.558c-6.274-0.315-13.386-0.673-20.697-0.673
		c-7.312,0-14.423,0.357-20.697,0.673c-13.204,0.664-26.858,1.35-30.968-2.558c-0.475-0.451-1.918-1.824-1.918-6.721
		c0-9.184,5.223-17.998,14.708-24.819c5.499-3.954,12.012-6.948,19.138-8.887v9.555c0,4.418,3.582,8,8,8s8-3.582,8-8v-12.035
		c1.239-0.058,2.483-0.098,3.737-0.098c14.787,0,28.593,4.072,38.874,11.466c9.484,6.82,14.708,15.634,14.708,24.819
		C247.102,298.777,245.658,300.149,245.184,300.6z"/>
	<path d="M387.039,226.647c0-22.261-16.136-40.811-37.323-44.602v-6.717c0-86.127-70.069-156.196-156.197-156.196
		c-86.126,0-156.196,70.069-156.196,156.196v6.717C16.136,185.837,0,204.387,0,226.647c0,22.453,16.414,41.134,37.871,44.7
		c3.02,34.414,18.765,59.834,46.942,75.653c25.057,14.068,60.616,20.906,108.707,20.906c48.092,0,83.649-6.839,108.707-20.906
		c28.177-15.819,43.922-41.238,46.942-75.653C370.625,267.781,387.039,249.1,387.039,226.647z M16,226.647
		c0-13.395,9.032-24.713,21.323-28.205v56.41C25.032,251.361,16,240.043,16,226.647z M333.716,258.757
		c0,35.135-12.862,59.436-39.322,74.291c-22.602,12.69-55.599,18.858-100.874,18.858h0c-45.275,0-78.271-6.168-100.874-18.858
		c-26.459-14.855-39.322-39.156-39.322-74.291v-83.429c0-63.309,42.185-116.941,99.918-134.29
		c43.983,0.556,67.407,32.306,67.407,55.296c0,17.608-14.325,31.934-31.934,31.934c-13.205,0-23.947-10.743-23.947-23.947
		c0-9.681,7.876-17.558,17.558-17.558c4.418,0,8-3.582,8-8s-3.582-8-8-8c-18.504,0-33.558,15.054-33.558,33.558
		c0,22.027,17.92,39.947,39.947,39.947c26.431,0,47.934-21.503,47.934-47.934c0-16.605-8.343-34.47-22.317-47.79
		c-5.59-5.328-11.95-9.807-18.889-13.387c76.421,1.034,138.274,63.51,138.274,140.171V258.757z M349.716,254.853v-56.41
		c12.291,3.492,21.323,14.81,21.323,28.205S362.007,251.361,349.716,254.853z"/>
</g>
<g>
</g>
<g>
</g>
<g>
</g>
<g>
</g>
<g>
</g>
<g>
</g>
<g>
</g>
<g>
</g>
<g>
</g>
<g>
</g>
<g>
</g>
<g>
</g>
<g>
</g>
<g>
</g>
<g>
</g>
</svg>
