<?xml version="1.0" encoding="iso-8859-1"?>
<!-- Generator: Adobe Illustrator 18.0.0, SVG Export Plug-In . SVG Version: 6.00 Build 0)  -->
<!DOCTYPE svg PUBLIC "-//W3C//DTD SVG 1.1//EN" "http://www.w3.org/Graphics/SVG/1.1/DTD/svg11.dtd">
<svg version="1.1" id="Capa_1" xmlns="http://www.w3.org/2000/svg" xmlns:xlink="http://www.w3.org/1999/xlink" x="0px" y="0px"
	 viewBox="0 0 424.239 424.239" style="enable-background:new 0 0 424.239 424.239;" xml:space="preserve">
<g>
	<path d="M139.627,249.841c3.125,3.124,8.189,3.124,11.314,0c3.124-3.124,3.124-8.189,0-11.314
		c-5.784-5.784-13.475-8.969-21.654-8.969s-15.87,3.185-21.653,8.969c-3.124,3.125-3.124,8.19,0.001,11.314
		c1.562,1.562,3.608,2.343,5.656,2.343s4.095-0.781,5.657-2.343c2.762-2.762,6.434-4.283,10.339-4.283
		C133.193,245.558,136.865,247.079,139.627,249.841z"/>
	<path d="M294.952,229.558c-8.18,0-15.87,3.185-21.653,8.969c-3.124,3.125-3.124,8.19,0.001,11.314
		c1.562,1.562,3.608,2.343,5.656,2.343s4.095-0.781,5.657-2.343c2.762-2.762,6.434-4.283,10.339-4.283
		c3.906,0,7.578,1.521,10.34,4.283c3.125,3.124,8.189,3.124,11.314,0c3.124-3.124,3.124-8.189,0-11.314
		C310.822,232.743,303.132,229.558,294.952,229.558z"/>
	<path d="M400.882,254.178c0-21.731-15.71-39.851-36.366-43.63V76.715c0-17.362-8.638-33.458-23.104-43.057
		c-13.588-9.015-30.458-11.062-45.711-5.686l-50.225-17.048C206.879-2.177,166.253-3.521,127.992,7.036
		C77.899,20.857,49.181,50.084,44.749,91.628c-3.923,5.174-7.039,10.985-9.157,17.254l-3.896,11.531
		c-2.092,6.191,0.215,12.697,5.738,16.189s12.391,2.784,17.085-1.759c1.604-1.553,3.358-2.861,5.204-3.955v79.66
		c-20.657,3.779-36.366,21.898-36.366,43.63c0,22.601,16.991,41.296,38.868,44.014c5.494,30.336,19.931,58.319,42.007,80.712
		c28.82,29.236,67.135,45.336,107.888,45.336c0.005,0,0.011,0,0.016,0c40.701-0.004,78.966-15.856,107.745-44.635
		c22.481-22.481,37.073-50.749,42.385-81.445C384.021,295.329,400.882,276.692,400.882,254.178z M332.565,46.991
		c10.137,6.725,15.95,17.559,15.95,29.724v104.689c-24.831-3.859-43.897-25.383-43.897-51.279l-0.662-87.96
		C313.725,39.59,323.911,41.25,332.565,46.991z M49.195,118.605l1.555-4.601c4.073-12.055,13.117-21.841,24.814-26.85
		c11.698-5.008,25.022-4.8,36.557,0.572c24.228,11.284,53.513,5.184,71.22-14.833l1.982-2.241c2.927-3.309,2.618-8.365-0.691-11.292
		c-3.312-2.928-8.365-2.618-11.293,0.691l-1.982,2.241c-13.049,14.751-34.629,19.244-52.48,10.93
		c-15.654-7.291-33.737-7.574-49.608-0.777c-1.446,0.619-2.851,1.31-4.234,2.034c9.298-24.791,31.805-42.249,67.215-52.019
		c35.159-9.701,72.536-8.451,108.085,3.615l47.622,16.165l0.624,41.337c-21.205,28.831-52.131,48.348-87.373,55.059
		c-36.085,6.872-72.899-0.4-103.663-20.474C82.512,108.354,63.562,108.772,49.195,118.605z M39.357,254.178
		c0-12.863,8.609-23.747,20.366-27.21v43.362c0,3.746,0.135,7.471,0.398,11.172C48.161,278.169,39.357,267.186,39.357,254.178z
		 M308.566,368.29c-25.757,25.758-60.005,39.945-96.433,39.949c-0.007,0-0.007,0-0.014,0c-36.433,0-70.705-14.409-96.494-40.568
		c-25.731-26.102-39.902-60.672-39.902-97.342V127.116c4.531,0.338,9.028,1.804,13.075,4.445
		c34.246,22.347,75.227,30.442,115.4,22.792c32.608-6.21,61.902-22.263,84.419-45.938v21.709c0,34.731,26.218,63.437,59.897,67.41
		v74.308C348.515,308.276,334.328,342.528,308.566,368.29z M364.206,281.476c0.198-3.194,0.309-6.405,0.309-9.633v-44.876
		c11.757,3.463,20.366,14.347,20.366,27.21C384.882,267.153,376.121,278.114,364.206,281.476z"/>
	<path d="M238.692,289.043c-8.516,0.428-17.322,0.87-26.572,0.87s-18.057-0.443-26.573-0.87c-24.404-1.226-43.68-2.195-54.935,8.508
		c-5.534,5.264-8.341,12.812-8.341,22.434c0,18.366,9.696,35.453,27.302,48.114c16.81,12.087,39.021,18.744,62.547,18.744
		c23.524,0,45.737-6.657,62.546-18.744c17.606-12.661,27.303-29.748,27.303-48.114c0-9.623-2.807-17.171-8.341-22.434
		C282.374,286.848,263.101,287.816,238.692,289.043z M141.638,309.144c3.982-3.787,12.631-4.811,23.255-4.811
		c6.132,0,12.921,0.341,19.851,0.689c8.308,0.417,17.724,0.891,27.376,0.891s19.068-0.473,27.376-0.891
		c18.938-0.952,36.824-1.851,43.105,4.122c0.833,0.792,3.367,3.202,3.367,10.84c0,1.165-0.078,2.317-0.19,3.462
		c-11.47-5.076-27.834-4.258-47.096-3.292c-8.512,0.427-17.313,0.869-26.559,0.869c-9.248,0-18.052-0.442-26.566-0.869
		c-19.263-0.966-35.627-1.783-47.096,3.291c-0.112-1.145-0.19-2.297-0.19-3.461C138.271,312.347,140.805,309.936,141.638,309.144z
		 M212.12,370.842c-31.043,0-57.654-13.265-68.559-31.992c7.455-4.406,23.284-3.615,41.194-2.716
		c8.306,0.417,17.719,0.889,27.368,0.889c9.646,0,19.058-0.472,27.36-0.889c17.913-0.899,33.742-1.69,41.193,2.718
		C269.772,357.578,243.162,370.842,212.12,370.842z"/>
</g>
<g>
</g>
<g>
</g>
<g>
</g>
<g>
</g>
<g>
</g>
<g>
</g>
<g>
</g>
<g>
</g>
<g>
</g>
<g>
</g>
<g>
</g>
<g>
</g>
<g>
</g>
<g>
</g>
<g>
</g>
</svg>
