<?xml version="1.0" encoding="iso-8859-1"?>
<!-- Generator: Adobe Illustrator 18.0.0, SVG Export Plug-In . SVG Version: 6.00 Build 0)  -->
<!DOCTYPE svg PUBLIC "-//W3C//DTD SVG 1.1//EN" "http://www.w3.org/Graphics/SVG/1.1/DTD/svg11.dtd">
<svg version="1.1" id="Capa_1" xmlns="http://www.w3.org/2000/svg" xmlns:xlink="http://www.w3.org/1999/xlink" x="0px" y="0px"
	 viewBox="0 0 424.239 424.239" style="enable-background:new 0 0 424.239 424.239;" xml:space="preserve">
<g>
	<circle cx="129.287" cy="261.896" r="14.974"/>
	<circle cx="294.952" cy="261.896" r="14.974"/>
	<path d="M139.627,210.836c1.562,1.562,3.609,2.343,5.657,2.343s4.095-0.781,5.657-2.343c3.125-3.124,3.125-8.189,0-11.314
		c-11.938-11.939-31.367-11.94-43.307,0c-3.125,3.124-3.125,8.189,0,11.314c3.124,3.124,8.189,3.125,11.313,0
		C124.648,205.134,133.926,205.135,139.627,210.836z"/>
	<path d="M273.298,199.522c-3.124,3.124-3.124,8.189,0,11.314c3.124,3.124,8.188,3.125,11.314,0c5.701-5.7,14.978-5.702,20.679,0
		c1.563,1.562,3.609,2.343,5.657,2.343s4.095-0.781,5.657-2.343c3.124-3.124,3.124-8.189,0-11.314
		C304.664,187.582,285.239,187.584,273.298,199.522z"/>
	<path d="M400.881,254.178c0-21.731-15.71-39.851-36.366-43.63V76.715c0-17.362-8.637-33.458-23.104-43.057
		c-13.589-9.015-30.459-11.062-45.711-5.686l-50.225-17.048C206.881-2.177,166.256-3.521,127.992,7.036
		C77.9,20.857,49.182,50.084,44.749,91.627c-3.923,5.174-7.04,10.985-9.158,17.255l-3.895,11.53
		c-2.092,6.191,0.213,12.697,5.737,16.189c5.522,3.492,12.39,2.786,17.086-1.759c1.604-1.553,3.358-2.861,5.204-3.955v79.66
		c-20.656,3.779-36.366,21.898-36.366,43.63c0,22.601,16.991,41.296,38.868,44.014c5.494,30.336,19.931,58.319,42.006,80.712
		c28.821,29.236,67.135,45.336,107.888,45.336c0.004,0,0.01,0,0.015,0c40.701-0.004,78.966-15.856,107.745-44.635
		c22.481-22.481,37.073-50.748,42.385-81.445C384.021,295.329,400.881,276.691,400.881,254.178z M332.565,46.991
		c10.137,6.725,15.95,17.559,15.95,29.724v104.689c-24.831-3.859-43.897-25.383-43.897-51.279l-0.662-87.96
		C313.725,39.59,323.91,41.25,332.565,46.991z M49.195,118.604l1.554-4.601c4.073-12.055,13.118-21.842,24.815-26.85
		c11.696-5.008,25.021-4.8,36.556,0.573c24.226,11.283,53.513,5.184,71.22-14.833l1.983-2.241c2.927-3.309,2.618-8.365-0.691-11.292
		c-3.311-2.927-8.366-2.618-11.292,0.691l-1.982,2.241c-13.049,14.75-34.629,19.244-52.481,10.93
		c-15.653-7.291-33.736-7.574-49.609-0.777c-1.446,0.619-2.85,1.31-4.233,2.033c9.299-24.791,31.805-42.249,67.215-52.019
		c35.161-9.702,72.535-8.451,108.084,3.615l47.622,16.165l0.624,41.337c-21.205,28.831-52.131,48.348-87.373,55.059
		c-36.086,6.871-72.9-0.4-103.663-20.474C82.512,108.354,63.563,108.772,49.195,118.604z M39.357,254.178
		c0-12.863,8.609-23.747,20.366-27.21v43.362c0,3.746,0.135,7.471,0.398,11.172C48.162,278.169,39.357,267.186,39.357,254.178z
		 M308.566,368.29c-25.757,25.758-60.005,39.945-96.433,39.949c-0.007,0-0.007,0-0.014,0c-36.433,0-70.705-14.409-96.494-40.568
		c-25.731-26.102-39.902-60.672-39.902-97.342V127.116c4.531,0.338,9.028,1.804,13.075,4.445
		c34.246,22.347,75.228,30.442,115.4,22.792c32.609-6.21,61.902-22.263,84.419-45.938v21.709c0,34.731,26.218,63.437,59.897,67.41
		v74.308C348.515,308.277,334.328,342.529,308.566,368.29z M364.206,281.476c0.198-3.194,0.309-6.405,0.309-9.633v-44.876
		c11.757,3.463,20.366,14.347,20.366,27.21C384.881,267.153,376.121,278.114,364.206,281.476z"/>
	<path d="M259.218,314.395c-12.683-9.12-29.409-14.143-47.099-14.143c-17.69,0-34.417,5.023-47.1,14.143
		c-13.48,9.694-20.904,22.836-20.904,37.006c0,7.662,2.281,13.716,6.779,17.994c8.913,8.478,23.449,7.747,41.851,6.822
		c6.217-0.313,12.646-0.635,19.374-0.635c6.728,0,13.156,0.323,19.373,0.635c5.512,0.277,10.675,0.536,15.445,0.536
		c11.157,0,20.161-1.42,26.406-7.359c4.498-4.278,6.778-10.332,6.778-17.994C280.123,337.231,272.699,324.089,259.218,314.395z
		 M262.318,357.801c-3.94,3.748-17.199,3.081-30.022,2.437c-6.115-0.307-13.046-0.656-20.176-0.656
		c-7.129,0-14.061,0.348-20.176,0.656c-12.822,0.645-26.082,1.311-30.022-2.437c-0.446-0.425-1.805-1.716-1.805-6.4
		c0-8.881,5.059-17.41,14.245-24.015c9.983-7.179,23.393-11.133,37.758-11.133s27.774,3.954,37.758,11.133
		c9.187,6.606,14.245,15.135,14.245,24.015C264.123,356.084,262.764,357.376,262.318,357.801z"/>
</g>
<g>
</g>
<g>
</g>
<g>
</g>
<g>
</g>
<g>
</g>
<g>
</g>
<g>
</g>
<g>
</g>
<g>
</g>
<g>
</g>
<g>
</g>
<g>
</g>
<g>
</g>
<g>
</g>
<g>
</g>
</svg>
