<?xml version="1.0" encoding="iso-8859-1"?>
<!-- Generator: Adobe Illustrator 18.0.0, SVG Export Plug-In . SVG Version: 6.00 Build 0)  -->
<!DOCTYPE svg PUBLIC "-//W3C//DTD SVG 1.1//EN" "http://www.w3.org/Graphics/SVG/1.1/DTD/svg11.dtd">
<svg version="1.1" id="Capa_1" xmlns="http://www.w3.org/2000/svg" xmlns:xlink="http://www.w3.org/1999/xlink" x="0px" y="0px"
	 viewBox="0 0 433.398 433.398" style="enable-background:new 0 0 433.398 433.398;" xml:space="preserve">
<g>
	<path d="M406.343,256.221c0-11.042-3.964-21.393-11.219-29.545c2.932-60,4.509-100.1-14.466-137.038
		c-12.926-25.167-33.849-46.2-62.188-62.513C285.422,8.1,247.728-1.229,209.444,0.13c-33.635,1.2-64.944,16.909-86.49,43.256
		c-27.857,1.572-53.221,16.695-66.845,40.109c-1.165,2.002-2.296,4.069-3.361,6.142C33.76,126.601,35.34,166.702,38.271,226.711
		c-6.971,7.865-11.217,18.198-11.217,29.509c0,23.325,18.025,42.508,40.875,44.381c9.515,30.659,34.724,65.399,75.327,103.677
		c20.594,19.416,47.015,29.122,73.444,29.12c26.423-0.002,52.855-9.709,73.445-29.12c40.601-38.277,65.81-73.017,75.325-103.676
		C388.32,298.726,406.343,279.545,406.343,256.221z M210.014,16.12c35.292-1.258,70.025,7.343,100.474,24.871
		c25.624,14.75,44.444,33.577,55.938,55.957c15.979,31.105,15.764,64.966,12.898,125.181l-17.87,0.985
		c-120.415,3.944-186.972-52.02-206.742-71.985l-19.252-97.75C154.087,30.684,181.062,17.152,210.014,16.12z M66.979,96.95
		c0.938-1.826,1.934-3.645,2.96-5.408c10.375-17.831,29.339-29.669,50.446-31.904l18.612,94.499
		c-12.727,29.203-34.477,44.558-68.265,48.24c-4.059,0.442-7.133,3.87-7.133,7.953v2.079c-3.432,0.625-6.728,1.641-9.84,3.007
		C51.215,159.382,51.598,126.891,66.979,96.95z M43.055,256.22c0-12.962,8.688-23.927,20.544-27.395v45.143
		c0,3.219,0.219,6.497,0.632,9.827C52.052,280.537,43.055,269.411,43.055,256.22z M279.171,392.636
		c-35.031,33.025-89.911,33.023-124.938,0c-48.826-46.03-74.634-87.065-74.634-118.668l0.002-56.644
		c32.577-5.238,55.676-21.259,70.194-48.724c12.308,11.313,32.47,27.045,61.074,40.811c42.525,20.465,90.579,30.515,142.934,29.876
		v34.68C353.803,305.572,327.995,346.607,279.171,392.636z M369.171,283.795c0.413-3.33,0.632-6.608,0.632-9.827v-35.291
		l13.893-0.765c4.304,5.126,6.647,11.514,6.647,18.309C390.343,269.411,381.348,280.536,369.171,283.795z"/>
	<circle cx="294.02" cy="260.329" r="15.048"/>
	<circle cx="139.377" cy="260.329" r="15.048"/>
	<path d="M216.698,328.081c-18.215,0-33.034,14.036-33.034,31.288c0,4.418,3.582,8,8,8s8-3.582,8-8
		c0-8.43,7.642-15.288,17.034-15.288c9.394,0,17.035,6.858,17.035,15.288c0,4.418,3.582,8,8,8s8-3.582,8-8
		C249.734,342.117,234.914,328.081,216.698,328.081z"/>
	<path d="M299.551,288.245c-1.501-1.5-3.536-2.343-5.657-2.343c-2.122,0-4.156,0.843-5.657,2.343l-13.088,13.088
		c-5.007,5.007-7.764,11.664-7.764,18.745c0,7.081,2.757,13.738,7.764,18.745c5.168,5.168,11.957,7.752,18.745,7.752
		c6.789,0,13.578-2.584,18.746-7.752c10.334-10.335,10.334-27.153,0-37.489L299.551,288.245z M301.325,327.51
		c-4.099,4.099-10.766,4.097-14.862,0c-4.098-4.098-4.098-10.765,0-14.863l7.431-7.432l7.432,7.431
		C305.423,316.745,305.423,323.412,301.325,327.51z"/>
</g>
<g>
</g>
<g>
</g>
<g>
</g>
<g>
</g>
<g>
</g>
<g>
</g>
<g>
</g>
<g>
</g>
<g>
</g>
<g>
</g>
<g>
</g>
<g>
</g>
<g>
</g>
<g>
</g>
<g>
</g>
</svg>
