<?xml version="1.0" encoding="iso-8859-1"?>
<!-- Generator: Adobe Illustrator 18.0.0, SVG Export Plug-In . SVG Version: 6.00 Build 0)  -->
<!DOCTYPE svg PUBLIC "-//W3C//DTD SVG 1.1//EN" "http://www.w3.org/Graphics/SVG/1.1/DTD/svg11.dtd">
<svg version="1.1" id="Capa_1" xmlns="http://www.w3.org/2000/svg" xmlns:xlink="http://www.w3.org/1999/xlink" x="0px" y="0px"
	 viewBox="0 0 420.707 420.707" style="enable-background:new 0 0 420.707 420.707;" xml:space="preserve">
<g>
	<path d="M287.815,187.311c-9.416,0-18.268,3.667-24.925,10.324c-3.124,3.125-3.124,8.189,0.001,11.314
		c3.123,3.124,8.188,3.125,11.313,0c3.635-3.635,8.469-5.638,13.61-5.638s9.975,2.002,13.611,5.638
		c1.562,1.562,3.608,2.343,5.656,2.343s4.095-0.781,5.657-2.343c3.124-3.125,3.124-8.189-0.001-11.314
		C306.081,190.978,297.23,187.311,287.815,187.311z"/>
	<path d="M132.929,203.311c5.142,0,9.976,2.002,13.61,5.638c1.563,1.563,3.609,2.343,5.657,2.343c2.047,0,4.095-0.781,5.656-2.343
		c3.125-3.125,3.125-8.189,0.001-11.314c-6.657-6.658-15.509-10.324-24.925-10.324c-9.415,0-18.267,3.667-24.924,10.324
		c-3.125,3.125-3.125,8.189-0.001,11.314s8.189,3.125,11.313,0C122.954,205.314,127.787,203.311,132.929,203.311z"/>
	<path d="M276.028,282.86c-3.122-3.123-8.188-3.124-11.313,0c-5.951,5.952-9.32,13.52-10.117,21.305
		c-29.037,6.886-59.358,6.96-88.408,0.212c-0.775-8.128-4.313-15.669-10.16-21.517c-3.125-3.124-8.189-3.124-11.314,0
		c-3.124,3.124-3.124,8.189,0,11.313c3.636,3.636,5.639,8.47,5.639,13.611s-2.003,9.975-5.638,13.61
		c-3.125,3.125-3.125,8.189-0.001,11.314c1.563,1.563,3.609,2.343,5.657,2.343c2.047,0,4.095-0.781,5.656-2.343
		c3.587-3.587,6.297-7.814,8.042-12.419c15.086,3.387,30.474,5.097,45.868,5.097c15.67,0,31.339-1.772,46.69-5.28
		c1.708,4.598,4.397,8.912,8.087,12.602c1.563,1.563,3.609,2.343,5.657,2.343c2.047,0,4.095-0.781,5.656-2.343
		c3.125-3.125,3.125-8.189,0.001-11.314c-7.505-7.505-7.505-19.717,0-27.222C279.153,291.05,279.153,285.984,276.028,282.86z"/>
	<circle cx="132.929" cy="246.494" r="14"/>
	<circle cx="287.814" cy="246.494" r="14"/>
	<path d="M409.798,214.164c0-11.093-4.861-21.401-12.86-28.48c7.495-7.024,11.931-16.928,11.931-27.689
		c0-11.319-4.95-21.781-13.326-28.904c2.822-5.395,4.326-11.425,4.326-17.596c0-16.228-10.147-30.137-24.574-35.565
		c1.37-3.955,2.074-8.135,2.074-12.425c0-20.953-17.047-38-38-38c-1.872,0-3.729,0.135-5.56,0.404
		c-6.522-12.151-19.176-19.904-33.44-19.904c-7.359,0-14.355,2.058-20.377,5.91c-7.092-7.499-17.05-11.91-27.623-11.91
		c-7.232,0-14.231,2.05-20.261,5.864c-6.031-3.814-13.036-5.864-20.279-5.864c-0.499,0-0.99,0.009-1.479,0.03
		c-7.734-0.327-15.315,1.762-21.757,5.833c-6.024-3.813-13.024-5.863-20.264-5.863c-10.579,0-20.544,4.42-27.637,11.934
		c-6.044-3.831-13.122-5.934-20.363-5.934c-14.26,0-26.909,7.752-33.432,19.905c-1.832-0.27-3.688-0.405-5.559-0.405
		c-20.953,0-38,17.047-38,38c0,4.293,0.703,8.475,2.071,12.426c-14.425,5.428-24.571,19.336-24.571,35.564
		c0,6.17,1.504,12.2,4.326,17.594c-8.377,7.121-13.326,17.583-13.326,28.906c0,10.763,4.435,20.667,11.929,27.689
		c-7.998,7.079-12.858,17.386-12.858,28.48c0,11.372,5.104,22.016,13.653,29.161c-1.184,3.876-1.825,7.986-1.825,12.244
		c0,20.423,14.655,37.479,34,41.227v33.75c0,17.505,7.192,34.695,19.733,47.162c12.331,12.258,28.472,18.995,45.49,18.995
		c0.127,0,0.256,0,0.382-0.001c11.261-0.066,22.041-2.948,31.653-8.406c11.548,19.959,32.766,32.411,56.378,32.411
		s44.829-12.452,56.377-32.411c9.612,5.458,20.393,8.34,31.653,8.406c0.127,0,0.253,0.001,0.381,0.001
		c17.018,0,33.161-6.737,45.492-18.996c12.54-12.466,19.732-29.656,19.732-47.161v-33.75c19.345-3.747,34-20.804,34-41.227
		c0-4.271-0.645-8.393-1.835-12.279C404.704,236.147,409.798,225.515,409.798,214.164z M38.736,255.569
		c0-12.241,8.505-22.527,19.916-25.274c-1.183,16.656-1.816,33.344-1.893,50.017C46.313,276.936,38.736,267.123,38.736,255.569z
		 M348.008,330.546c0,13.276-5.472,26.33-15.013,35.814c-9.312,9.256-21.451,14.343-34.215,14.343c-0.094,0-0.189,0-0.284-0.001
		c-10.977-0.064-21.351-3.677-29.998-10.447c-1.987-1.555-4.591-2.08-7.024-1.422c-2.435,0.66-4.415,2.429-5.345,4.774
		c-7.487,18.892-25.447,31.1-45.757,31.1s-38.271-12.208-45.758-31.1c-0.93-2.345-2.91-4.114-5.345-4.774
		c-0.69-0.187-1.394-0.278-2.093-0.278c-1.768,0-3.508,0.586-4.932,1.701c-8.647,6.77-19.021,10.382-29.999,10.447
		c-12.825,0.063-25.119-5.017-34.498-14.341c-9.541-9.485-15.013-22.539-15.013-35.815v-46.758
		c0-49.588,5.021-99.344,14.928-147.923c6.839,11.522,19.157,18.589,32.669,18.589c7.236,0,14.313-2.103,20.358-5.934
		c7.093,7.513,17.06,11.933,27.64,11.933c7.233,0,14.232-2.05,20.262-5.863c6.029,3.813,13.036,5.863,20.282,5.863
		c0.495,0,0.987-0.012,1.478-0.031c0.489,0.019,0.981,0.031,1.477,0.031c7.245,0,14.252-2.05,20.282-5.864
		c6.028,3.813,13.027,5.864,20.261,5.864c10.581,0,20.547-4.419,27.641-11.933c6.045,3.83,13.121,5.934,20.357,5.934
		c13.515,0,25.835-7.069,32.672-18.594c9.932,48.647,14.967,98.468,14.967,148.115V330.546z M363.985,280.312
		c-0.082-16.675-0.719-33.364-1.906-50.02c11.417,2.742,19.929,13.031,19.929,25.277
		C382.008,267.123,374.43,276.937,363.985,280.312z M360.73,213.841c-2.615-28.073-6.783-56.006-12.502-83.564
		c-1.247-6.002-6.151-10.653-12.191-11.572c-0.172-0.027-0.343-0.055-0.514-0.084c-6.31-1.112-12.578,2.069-15.599,7.915
		c-3.798,7.352-11.291,11.918-19.555,11.918c-6.102,0-11.777-2.448-15.981-6.894c-1.75-1.85-4.274-2.757-6.803-2.441
		c-2.526,0.315-4.753,1.814-5.994,4.038c-3.892,6.968-11.257,11.297-19.22,11.297c-5.506,0-10.78-2.058-14.852-5.793
		c-3.062-2.809-7.762-2.808-10.819,0.001c-4.068,3.735-9.351,5.792-14.872,5.792c-0.368,0-0.732-0.012-1.096-0.029
		c-0.255-0.012-0.51-0.012-0.765,0c-0.362,0.017-0.727,0.029-1.094,0.029c-5.522,0-10.804-2.057-14.871-5.792
		c-3.06-2.809-7.759-2.81-10.82-0.001c-4.071,3.736-9.346,5.793-14.853,5.793c-7.963,0-15.327-4.329-19.219-11.297
		c-1.241-2.223-3.467-3.723-5.994-4.038c-2.521-0.316-5.053,0.591-6.803,2.441c-4.204,4.446-9.88,6.894-15.982,6.894
		c-8.263,0-15.756-4.567-19.554-11.917c-3.021-5.846-9.288-9.029-15.611-7.914c-0.161,0.029-0.324,0.055-0.486,0.08
		c-6.058,0.922-10.963,5.578-12.203,11.572l-0.038,0.184c-5.693,27.499-9.841,55.372-12.444,83.385
		c-11.04,1.246-20.797,6.783-27.554,14.906c-3.508-3.966-5.533-9.133-5.533-14.586c0-9.281,5.873-17.609,14.615-20.724
		c3.141-1.119,5.258-4.069,5.313-7.403c0.056-3.333-1.962-6.352-5.063-7.575c-8.466-3.339-13.936-11.373-13.936-20.468
		c0-8.318,4.62-15.836,12.058-19.62c2.2-1.119,3.76-3.191,4.229-5.614c0.468-2.423-0.21-4.927-1.835-6.784
		c-3.516-4.018-5.451-9.161-5.451-14.482c0-11.751,9.188-21.401,20.918-21.969c2.961-0.144,5.601-1.914,6.857-4.599
		c1.258-2.686,0.926-5.846-0.86-8.212c-2.889-3.826-4.415-8.394-4.415-13.21c0-12.131,9.869-22,22-22
		c2.589,0,5.126,0.446,7.541,1.326c2.064,0.754,4.351,0.623,6.317-0.361c1.967-0.984,3.442-2.734,4.079-4.838
		c2.783-9.201,11.44-15.627,21.053-15.627c6.107,0,11.784,2.448,15.984,6.894c1.751,1.852,4.275,2.761,6.805,2.444
		c2.527-0.315,4.755-1.815,5.996-4.039c3.891-6.97,11.253-11.299,19.215-11.299c5.513,0,10.784,2.056,14.846,5.79
		c3.058,2.812,7.761,2.814,10.822,0.005c4.073-3.737,9.358-5.795,14.882-5.795c0.328,0,0.657,0.005,0.985,0.025
		c0.324,0.02,0.647,0.02,0.972,0c0.328-0.02,0.657-0.025,0.993-0.025c5.518,0,10.8,2.058,14.871,5.794
		c3.061,2.808,7.758,2.808,10.818,0c4.071-3.737,9.346-5.794,14.851-5.794c7.968,0,15.334,4.33,19.225,11.299
		c1.241,2.224,3.469,3.724,5.996,4.039c2.533,0.317,5.056-0.593,6.805-2.444c4.2-4.446,9.873-6.894,15.975-6.894
		c9.771,0,18.235,6.28,21.063,15.626c0.637,2.106,2.113,3.857,4.082,4.841c1.97,0.984,4.255,1.112,6.322,0.357
		c2.402-0.878,4.937-1.324,7.533-1.324c12.131,0,22,9.869,22,22c0,4.807-1.528,9.377-4.421,13.218
		c-1.782,2.367-2.11,5.526-0.853,8.209c1.258,2.683,3.896,4.451,6.855,4.594c11.729,0.569,20.918,10.219,20.918,21.969
		c0,5.322-1.936,10.465-5.45,14.482c-1.625,1.857-2.302,4.36-1.835,6.783c0.468,2.423,2.026,4.495,4.226,5.614
		c7.438,3.788,12.06,11.307,12.06,19.621c0,9.092-5.471,17.126-13.938,20.468c-3.101,1.224-5.117,4.242-5.062,7.575
		s2.172,6.282,5.312,7.401c8.743,3.118,14.617,11.446,14.617,20.725c0,5.44-2.021,10.598-5.519,14.559
		C381.519,220.61,371.764,215.082,360.73,213.841z"/>
</g>
<g>
</g>
<g>
</g>
<g>
</g>
<g>
</g>
<g>
</g>
<g>
</g>
<g>
</g>
<g>
</g>
<g>
</g>
<g>
</g>
<g>
</g>
<g>
</g>
<g>
</g>
<g>
</g>
<g>
</g>
</svg>
