<?xml version="1.0" encoding="iso-8859-1"?>
<!-- Generator: Adobe Illustrator 18.0.0, SVG Export Plug-In . SVG Version: 6.00 Build 0)  -->
<!DOCTYPE svg PUBLIC "-//W3C//DTD SVG 1.1//EN" "http://www.w3.org/Graphics/SVG/1.1/DTD/svg11.dtd">
<svg version="1.1" id="Capa_1" xmlns="http://www.w3.org/2000/svg" xmlns:xlink="http://www.w3.org/1999/xlink" x="0px" y="0px"
	 viewBox="0 0 466.024 466.024" style="enable-background:new 0 0 466.024 466.024;" xml:space="preserve">
<g>
	<path d="M447.106,266.299c0-8.495-2.517-16.408-6.83-23.053c1.749-10.947,2.645-22.142,2.645-33.333
		C442.922,94.167,348.755,0,233.009,0S23.096,94.167,23.096,209.913c0,11.194,0.896,22.391,2.646,33.341
		c-4.31,6.643-6.824,14.553-6.824,23.044c0,21.148,15.54,38.731,35.799,41.941c10.811,88.782,86.642,157.785,178.295,157.785
		s167.485-69.002,178.295-157.785C431.567,305.03,447.106,287.447,447.106,266.299z M34.918,266.299
		c0-11.807,7.772-21.83,18.468-25.23l0,45.331c0,1.725,0.03,3.443,0.079,5.156C42.729,288.181,34.918,278.135,34.918,266.299z
		 M233.013,450.024c-90.224,0-163.626-73.402-163.626-163.625l-0.001-82.724c0-12.358,6.48-23.291,17.337-29.246
		c5.061-2.775,10.521-4.156,15.96-4.156c6.116,0,12.204,1.748,17.655,5.222c33.637,21.44,72.598,32.773,112.671,32.773
		c40.074,0,79.037-11.333,112.677-32.774c10.296-6.563,22.861-6.962,33.611-1.066c10.856,5.954,17.339,16.887,17.339,29.245
		l0.003,82.727C396.639,376.622,323.236,450.024,233.013,450.024z M386.991,160.399c-15.952-8.748-34.607-8.149-49.905,1.603
		c-31.066,19.801-67.056,30.267-104.077,30.267c-37.021,0-73.008-10.466-104.071-30.266c-15.3-9.753-33.96-10.351-49.909-1.602
		c-16.058,8.808-25.644,24.984-25.643,43.274l0,20.921c-4.76,0.911-9.237,2.62-13.293,4.981c-0.656-6.516-0.997-13.09-0.997-19.665
		C39.096,102.989,126.085,16,233.009,16s193.913,86.989,193.913,193.913c0,6.574-0.341,13.146-0.996,19.661
		c-4.055-2.36-8.531-4.067-13.289-4.979l-0.001-20.923C412.635,185.383,403.048,169.206,386.991,160.399z M412.56,291.556
		c0.049-1.713,0.079-3.431,0.079-5.156l-0.002-45.331c10.697,3.399,18.469,13.423,18.469,25.23
		C431.106,278.135,423.297,288.181,412.56,291.556z"/>
	<circle cx="159.805" cy="286.835" r="13.462"/>
	<circle cx="308.733" cy="286.835" r="13.461"/>
	<path d="M138.606,268.44c1.152,0,2.323-0.25,3.434-0.779l30.287-14.422c3.989-1.899,5.683-6.673,3.783-10.662
		c-1.899-3.988-6.672-5.688-10.662-3.783l-30.287,14.422c-3.989,1.899-5.683,6.673-3.783,10.662
		C132.749,266.757,135.616,268.44,138.606,268.44z"/>
	<path d="M293.696,253.239l30.287,14.422c1.11,0.529,2.281,0.779,3.434,0.779c2.99,0,5.858-1.684,7.229-4.563
		c1.899-3.989,0.206-8.763-3.783-10.662l-30.287-14.422c-3.993-1.904-8.764-0.205-10.662,3.783
		C288.014,246.566,289.707,251.34,293.696,253.239z"/>
	<path d="M325.471,324.281c-20.366,12.442-43.746,19.019-67.61,19.019h-49.696c-23.864,0-47.244-6.576-67.612-19.019
		c-3.769-2.301-8.694-1.114-10.997,2.657c-2.303,3.77-1.113,8.693,2.657,10.997c22.88,13.977,49.144,21.364,75.952,21.364h49.696
		c26.809,0,53.072-7.388,75.952-21.364c3.771-2.304,4.959-7.228,2.656-10.998C334.166,323.169,329.242,321.979,325.471,324.281z"/>
	<path d="M257.86,367.817h-49.696c-4.418,0-8,3.582-8,8s3.582,8,8,8h49.696c4.418,0,8-3.582,8-8S262.278,367.817,257.86,367.817z"/>
</g>
<g>
</g>
<g>
</g>
<g>
</g>
<g>
</g>
<g>
</g>
<g>
</g>
<g>
</g>
<g>
</g>
<g>
</g>
<g>
</g>
<g>
</g>
<g>
</g>
<g>
</g>
<g>
</g>
<g>
</g>
</svg>
