<?xml version="1.0" encoding="iso-8859-1"?>
<!-- Generator: Adobe Illustrator 18.0.0, SVG Export Plug-In . SVG Version: 6.00 Build 0)  -->
<!DOCTYPE svg PUBLIC "-//W3C//DTD SVG 1.1//EN" "http://www.w3.org/Graphics/SVG/1.1/DTD/svg11.dtd">
<svg version="1.1" id="Capa_1" xmlns="http://www.w3.org/2000/svg" xmlns:xlink="http://www.w3.org/1999/xlink" x="0px" y="0px"
	 viewBox="0 0 466.024 466.024" style="enable-background:new 0 0 466.024 466.024;" xml:space="preserve">
<g>
	<path d="M447.106,266.299c0-8.495-2.517-16.408-6.83-23.053c1.749-10.947,2.645-22.142,2.645-33.333
		C442.922,94.167,348.755,0,233.009,0C117.262,0,23.095,94.167,23.095,209.913c0,11.194,0.896,22.392,2.646,33.342
		c-4.309,6.643-6.823,14.553-6.823,23.043c0,21.148,15.54,38.731,35.799,41.941c10.811,88.782,86.642,157.785,178.295,157.785
		s167.485-69.002,178.295-157.785C431.567,305.03,447.106,287.447,447.106,266.299z M34.918,266.299
		c0-11.807,7.772-21.83,18.468-25.23l0,45.331c0,1.725,0.03,3.443,0.079,5.156C42.728,288.181,34.918,278.135,34.918,266.299z
		 M233.012,450.024c-90.224,0-163.625-73.402-163.625-163.625l-0.001-82.724c0-12.358,6.481-23.292,17.337-29.246
		c5.06-2.775,10.521-4.156,15.959-4.156c6.116,0,12.204,1.747,17.655,5.222c33.637,21.44,72.599,32.773,112.671,32.773
		c40.074,0,79.037-11.333,112.677-32.774c10.297-6.563,22.861-6.962,33.611-1.066c10.856,5.954,17.339,16.887,17.339,29.245
		l0.003,82.727C396.638,376.622,323.236,450.024,233.012,450.024z M386.991,160.399c-15.952-8.748-34.607-8.149-49.905,1.603
		c-31.066,19.801-67.056,30.267-104.077,30.267c-37.021,0-73.008-10.466-104.072-30.266c-15.299-9.75-33.957-10.352-49.908-1.602
		c-16.057,8.807-25.644,24.984-25.643,43.274l0,20.921c-4.76,0.911-9.237,2.62-13.293,4.981c-0.656-6.516-0.997-13.09-0.997-19.665
		C39.095,102.989,126.085,16,233.009,16s193.913,86.989,193.913,193.913c0,6.574-0.341,13.146-0.996,19.661
		c-4.055-2.36-8.531-4.067-13.289-4.979l-0.001-20.923C412.635,185.383,403.048,169.206,386.991,160.399z M412.56,291.556
		c0.049-1.713,0.079-3.431,0.079-5.156l-0.002-45.331c10.697,3.399,18.469,13.423,18.469,25.23
		C431.106,278.135,423.297,288.181,412.56,291.556z"/>
	<path d="M171.021,272.024c-4.771,0.934-9.62-0.046-13.654-2.758c-4.034-2.714-6.771-6.835-7.705-11.605
		c-0.85-4.337-5.056-7.165-9.389-6.313c-4.336,0.849-7.163,5.052-6.313,9.388c1.669,8.522,6.403,15.938,13.379,21.029
		c-0.638,1.566-0.996,3.276-0.996,5.071c0,7.435,6.027,13.462,13.461,13.462c7.083,0,12.876-5.474,13.409-12.42
		c0.294-0.05,0.589-0.093,0.883-0.151c4.336-0.849,7.163-5.053,6.313-9.389C179.56,274.002,175.354,271.174,171.021,272.024z"/>
	<path d="M325.75,251.348c-4.338-0.848-8.539,1.978-9.389,6.313c-1.93,9.849-11.51,16.295-21.358,14.364
		c-4.338-0.848-8.54,1.978-9.389,6.313c-0.85,4.336,1.977,8.54,6.313,9.389c1.142,0.224,2.281,0.385,3.415,0.491
		c0.692,6.786,6.423,12.08,13.391,12.08c7.435,0,13.462-6.027,13.462-13.462c0-2.367-0.615-4.588-1.688-6.521
		c5.774-4.85,9.997-11.619,11.556-19.578C332.912,256.4,330.086,252.196,325.75,251.348z"/>
	<path d="M208.828,328.335c-3.124,3.124-3.125,8.189,0,11.313c3.124,3.125,8.189,3.125,11.313,0.001
		c7.097-7.096,18.643-7.096,25.741,0c1.562,1.562,3.608,2.343,5.656,2.343s4.095-0.781,5.657-2.344
		c3.124-3.124,3.124-8.189-0.001-11.313C243.861,315.001,222.163,315.001,208.828,328.335z"/>
</g>
<g>
</g>
<g>
</g>
<g>
</g>
<g>
</g>
<g>
</g>
<g>
</g>
<g>
</g>
<g>
</g>
<g>
</g>
<g>
</g>
<g>
</g>
<g>
</g>
<g>
</g>
<g>
</g>
<g>
</g>
</svg>
