<?xml version="1.0" encoding="iso-8859-1"?>
<!-- Generator: Adobe Illustrator 18.0.0, SVG Export Plug-In . SVG Version: 6.00 Build 0)  -->
<!DOCTYPE svg PUBLIC "-//W3C//DTD SVG 1.1//EN" "http://www.w3.org/Graphics/SVG/1.1/DTD/svg11.dtd">
<svg version="1.1" id="Capa_1" xmlns="http://www.w3.org/2000/svg" xmlns:xlink="http://www.w3.org/1999/xlink" x="0px" y="0px"
	 viewBox="0 0 466.024 466.024" style="enable-background:new 0 0 466.024 466.024;" xml:space="preserve">
<g>
	<path d="M447.106,266.299c0-8.495-2.516-16.408-6.829-23.053c1.749-10.95,2.645-22.145,2.645-33.333
		C442.922,94.167,348.755,0,233.009,0S23.095,94.167,23.095,209.913c0,11.194,0.896,22.392,2.646,33.342
		c-4.309,6.643-6.824,14.553-6.824,23.043c0,21.148,15.54,38.731,35.799,41.941c10.811,88.782,86.642,157.785,178.295,157.785
		s167.484-69.002,178.295-157.785C431.567,305.03,447.106,287.447,447.106,266.299z M34.918,266.299
		c0-11.807,7.772-21.83,18.467-25.229l0.001,45.33c0,1.725,0.03,3.443,0.079,5.156C42.728,288.181,34.918,278.135,34.918,266.299z
		 M233.012,450.024c-90.224,0-163.625-73.402-163.625-163.625l-0.001-82.724c0-12.358,6.481-23.291,17.338-29.246
		c10.75-5.897,23.315-5.499,33.614,1.065c33.637,21.44,72.599,32.773,112.671,32.773c40.074,0,79.037-11.333,112.676-32.774
		c10.297-6.563,22.862-6.963,33.613-1.066c10.856,5.954,17.338,16.888,17.338,29.245l0.002,82.727
		C396.638,376.622,323.236,450.024,233.012,450.024z M386.991,160.399c-15.951-8.75-34.608-8.149-49.906,1.603
		c-31.066,19.801-67.055,30.267-104.077,30.267c-37.021,0-73.008-10.466-104.072-30.266c-15.299-9.752-33.958-10.35-49.909-1.602
		c-16.057,8.807-25.644,24.984-25.643,43.274l0,20.921c-4.76,0.911-9.237,2.62-13.293,4.981c-0.656-6.516-0.997-13.09-0.997-19.665
		C39.095,102.989,126.085,16,233.009,16s193.913,86.989,193.913,193.913c0,6.573-0.341,13.146-0.997,19.661
		c-4.055-2.36-8.53-4.067-13.288-4.978l0-20.923C412.635,185.383,403.049,169.206,386.991,160.399z M412.559,291.556
		c0.049-1.713,0.079-3.431,0.079-5.156l-0.001-45.331c10.697,3.399,18.469,13.423,18.469,25.23
		C431.106,278.135,423.296,288.181,412.559,291.556z"/>
	<circle cx="159.805" cy="286.835" r="13.462"/>
	<circle cx="308.733" cy="286.835" r="13.462"/>
	<path d="M284.549,224.869c-3.124,3.124-3.125,8.189,0,11.313c3.125,3.125,8.19,3.125,11.314,0.001
		c7.097-7.096,18.644-7.096,25.74,0c1.563,1.562,3.609,2.343,5.657,2.343s4.095-0.781,5.657-2.344c3.124-3.124,3.124-8.189,0-11.313
		C319.581,211.535,297.884,211.535,284.549,224.869z"/>
	<path d="M172.675,236.184c1.562,1.562,3.609,2.343,5.657,2.343s4.095-0.781,5.657-2.344c3.125-3.124,3.124-8.189,0-11.313
		c-13.334-13.334-35.031-13.334-48.367,0c-3.124,3.124-3.125,8.189,0,11.313c3.125,3.125,8.19,3.125,11.314,0.001
		C154.032,229.089,165.578,229.089,172.675,236.184z"/>
	<path d="M286.398,355.708c-6.72-23.147-28.102-40.121-53.386-40.121c-25.211,0-46.542,16.874-53.328,39.917
		c-0.121,0.333-0.214,0.674-0.29,1.02c-1.279,4.673-1.975,9.584-1.975,14.658c0,9.597,2.459,16.624,7.517,21.485
		c8.446,8.116,21.106,7.613,35.766,7.028c3.981-0.158,8.098-0.322,12.312-0.322s8.33,0.164,12.312,0.322
		c3.699,0.147,7.268,0.29,10.677,0.29c10.101,0,18.773-1.25,25.089-7.318c5.058-4.861,7.517-11.889,7.517-21.485
		c0-5.114-0.708-10.063-2.007-14.769C286.542,356.175,286.475,355.94,286.398,355.708z M254.431,337.909
		c-6.922-1.788-14.098-2.717-21.416-2.717c-7.321,0-14.499,0.929-21.422,2.716c6.18-3.992,13.53-6.319,21.418-6.319
		C240.9,331.588,248.251,333.916,254.431,337.909z M270.002,381.13c-3.533,3.396-13.494,2.999-24.043,2.578
		c-4.137-0.165-8.416-0.335-12.948-0.335s-8.811,0.17-12.948,0.335c-10.547,0.421-20.51,0.817-24.043-2.578
		c-1.727-1.659-2.603-5.007-2.603-9.948c0-2.79,0.294-5.512,0.845-8.14c11.451-7.762,24.788-11.85,38.753-11.85
		c13.958,0,27.293,4.091,38.746,11.857c0.55,2.626,0.844,5.346,0.844,8.133C272.605,376.123,271.729,379.471,270.002,381.13z"/>
</g>
<g>
</g>
<g>
</g>
<g>
</g>
<g>
</g>
<g>
</g>
<g>
</g>
<g>
</g>
<g>
</g>
<g>
</g>
<g>
</g>
<g>
</g>
<g>
</g>
<g>
</g>
<g>
</g>
<g>
</g>
</svg>
