<?xml version="1.0" encoding="iso-8859-1"?>
<!-- Generator: Adobe Illustrator 18.0.0, SVG Export Plug-In . SVG Version: 6.00 Build 0)  -->
<!DOCTYPE svg PUBLIC "-//W3C//DTD SVG 1.1//EN" "http://www.w3.org/Graphics/SVG/1.1/DTD/svg11.dtd">
<svg version="1.1" id="Capa_1" xmlns="http://www.w3.org/2000/svg" xmlns:xlink="http://www.w3.org/1999/xlink" x="0px" y="0px"
	 viewBox="0 0 466.024 466.024" style="enable-background:new 0 0 466.024 466.024;" xml:space="preserve">
<g>
	<path d="M447.106,266.299c0-8.495-2.517-16.408-6.83-23.053c1.749-10.947,2.645-22.142,2.645-33.333
		C442.922,94.167,348.755,0,233.009,0S23.096,94.167,23.096,209.913c0,11.194,0.896,22.391,2.646,33.341
		c-4.31,6.643-6.824,14.553-6.824,23.044c0,21.148,15.54,38.731,35.799,41.941c10.811,88.782,86.642,157.785,178.295,157.785
		s167.485-69.002,178.295-157.785C431.567,305.03,447.106,287.447,447.106,266.299z M34.918,266.299
		c0-11.807,7.772-21.83,18.468-25.23l0,45.331c0,1.725,0.03,3.443,0.079,5.156C42.729,288.181,34.918,278.135,34.918,266.299z
		 M233.013,450.024c-90.224,0-163.626-73.402-163.626-163.625l-0.001-82.724c0-12.358,6.48-23.291,17.337-29.246
		c5.061-2.775,10.521-4.156,15.96-4.156c6.116,0,12.204,1.748,17.655,5.222c33.637,21.44,72.598,32.773,112.671,32.773
		c40.074,0,79.037-11.333,112.677-32.774c10.296-6.563,22.861-6.962,33.611-1.066c10.856,5.954,17.339,16.887,17.339,29.245
		l0.003,82.727C396.639,376.622,323.236,450.024,233.013,450.024z M386.991,160.399c-15.952-8.748-34.607-8.149-49.905,1.603
		c-31.066,19.801-67.056,30.267-104.077,30.267c-37.021,0-73.008-10.466-104.071-30.266c-15.301-9.753-33.96-10.351-49.909-1.602
		c-16.058,8.808-25.644,24.984-25.643,43.274l0,20.921c-4.76,0.911-9.238,2.62-13.293,4.981c-0.656-6.516-0.997-13.09-0.997-19.665
		C39.096,102.989,126.085,16,233.009,16s193.913,86.989,193.913,193.913c0,6.574-0.341,13.146-0.997,19.661
		c-4.055-2.36-8.531-4.067-13.289-4.979l-0.001-20.923C412.635,185.383,403.048,169.206,386.991,160.399z M412.56,291.556
		c0.049-1.713,0.079-3.431,0.079-5.156l-0.001-45.331c10.697,3.399,18.469,13.423,18.469,25.23
		C431.106,278.135,423.297,288.181,412.56,291.556z"/>
	<path d="M266.927,325.281c-3.125-3.123-8.189-3.123-11.314,0c-4.029,4.029-6.9,8.903-8.46,14.219
		c-10.282-3.112-20.917-3.112-31.2,0c-1.56-5.315-4.431-10.189-8.46-14.219c-3.125-3.123-8.189-3.123-11.314,0
		c-3.124,3.125-3.124,8.189,0,11.314c6.823,6.822,6.823,17.924,0,24.746c-3.124,3.125-3.124,8.189,0,11.314
		c1.563,1.562,3.609,2.343,5.657,2.343s4.095-0.781,5.657-2.343c4.565-4.566,7.643-10.218,9.009-16.368
		c9.912-4.18,20.19-4.18,30.102,0c1.366,6.15,4.443,11.802,9.009,16.368c1.563,1.562,3.609,2.343,5.657,2.343
		s4.095-0.781,5.657-2.343c3.124-3.125,3.124-8.189,0-11.314c-6.823-6.822-6.823-17.924,0-24.746
		C270.051,333.471,270.051,328.406,266.927,325.281z"/>
	<path d="M183.916,273.368l-33.215-18.966c-3.839-2.192-8.724-0.855-10.914,2.98c-2.19,3.837-0.856,8.724,2.98,10.914l16.443,9.389
		l-17.18,4.691c-4.263,1.164-6.773,5.563-5.61,9.825c0.972,3.557,4.195,5.895,7.713,5.895c0.697,0,1.407-0.092,2.112-0.284
		l35.811-9.779c3.121-0.853,5.422-3.502,5.829-6.712S186.726,274.973,183.916,273.368z"/>
	<path d="M323.992,282.377l-17.179-4.691l16.443-9.389c3.837-2.19,5.171-7.077,2.98-10.914c-2.191-3.838-7.079-5.173-10.914-2.98
		l-33.215,18.966c-2.81,1.604-4.377,4.743-3.97,7.953s2.708,5.859,5.829,6.712l35.81,9.779c0.705,0.192,1.414,0.284,2.112,0.284
		c3.518,0,6.741-2.338,7.713-5.895C330.767,287.94,328.255,283.541,323.992,282.377z"/>
</g>
<g>
</g>
<g>
</g>
<g>
</g>
<g>
</g>
<g>
</g>
<g>
</g>
<g>
</g>
<g>
</g>
<g>
</g>
<g>
</g>
<g>
</g>
<g>
</g>
<g>
</g>
<g>
</g>
<g>
</g>
</svg>
