<?xml version="1.0" encoding="iso-8859-1"?>
<!-- Generator: Adobe Illustrator 18.0.0, SVG Export Plug-In . SVG Version: 6.00 Build 0)  -->
<!DOCTYPE svg PUBLIC "-//W3C//DTD SVG 1.1//EN" "http://www.w3.org/Graphics/SVG/1.1/DTD/svg11.dtd">
<svg version="1.1" id="Capa_1" xmlns="http://www.w3.org/2000/svg" xmlns:xlink="http://www.w3.org/1999/xlink" x="0px" y="0px"
	 viewBox="0 0 421.561 421.561" style="enable-background:new 0 0 421.561 421.561;" xml:space="preserve">
<g>
	<path d="M391.823,397.883c-18.742-20.753-19.533-73.633-17.314-128.344c8.163-7.667,13.275-18.544,13.275-30.6
		c0-10.586-3.945-20.263-10.432-27.658c2.727-55.803,4.172-93.122-13.53-127.581c-12.076-23.513-31.615-43.158-58.076-58.39
		C274.908,7.56,239.727-1.155,204.012,0.123c-31.375,1.118-60.584,15.735-80.725,40.26C97.28,41.93,73.62,56.084,60.889,77.963
		c-1.099,1.89-2.155,3.821-3.14,5.738c-17.71,34.475-16.265,71.791-13.54,127.589c-6.483,7.394-10.426,17.068-10.426,27.651
		c0,12.052,5.111,22.928,13.27,30.594c2.218,54.716,1.425,107.598-17.315,128.349c-1.772,1.962-2.46,4.674-1.838,7.244
		c0.622,2.57,2.474,4.667,4.947,5.602C53.94,418.7,74.368,421.55,92.805,421.55c19.152,0,36.156-3.078,49.506-6.688
		c23.195-6.272,39.555-15.076,45.138-18.324c7.596,1.252,15.389,1.914,23.335,1.914c7.944,0,15.735-0.662,23.33-1.914
		c5.584,3.25,21.943,12.052,45.135,18.324c17.807,4.815,34.314,6.698,49.249,6.698c24.877,0,45.383-5.227,60.215-10.832
		c2.474-0.935,4.325-3.031,4.947-5.602C394.283,402.557,393.595,399.846,391.823,397.883z M353.784,255.453v-39.69
		c0.003-0.122,0.003-0.244,0-0.367v-1.192c10.433,3.383,18,13.19,18,24.735c0,11.637-7.685,21.513-18.247,24.819
		C353.695,261.01,353.784,258.242,353.784,255.453z M71.983,91.01c0.858-1.672,1.779-3.356,2.737-5.003
		c10.537-18.11,30.69-29.514,52.693-29.764c2.434-0.047,4.714-1.199,6.195-3.132c17.264-22.521,43.133-36.007,70.974-37
		c32.712-1.167,64.941,6.81,93.181,23.066c23.745,13.668,41.182,31.108,51.826,51.833c14.168,27.58,14.589,57.582,12.266,109.131
		c-2.572-1.069-5.273-1.887-8.071-2.429v-8.135c0-4.418-3.582-8-8-8s-8,3.582-8,8v18.169c-1.184,0.013-2.365,0.019-3.537,0.019
		c-107.912,0-166.488-52.099-182.235-68.527c-1.872-1.953-4.6-2.828-7.264-2.325c-2.658,0.503-4.882,2.316-5.911,4.819
		c-11.625,28.278-31.936,43.073-63.92,46.559c-4.059,0.442-7.133,3.87-7.133,7.953v1.468c-2.801,0.542-5.504,1.361-8.078,2.432
		C57.384,148.605,57.807,118.605,71.983,91.01z M68.031,263.759c-10.562-3.306-18.247-13.182-18.247-24.819
		c0-11.546,7.567-21.353,18-24.735v41.249C67.784,258.242,67.873,261.01,68.031,263.759z M48.488,399.144
		c14.266-24.35,16.74-64.828,14.927-120.065c2.124,0.656,4.321,1.139,6.573,1.452c9.099,51.228,45.568,93.105,93.696,109.943
		C140.537,400.434,96.726,413.632,48.488,399.144z M83.784,255.454l0.002-52.227c30.003-4.937,51.365-19.707,64.905-44.909
		c11.525,10.515,30.161,24.936,56.426,37.575c39.49,19.004,84.082,28.377,132.667,27.858v31.703c0,70.028-56.972,127-127,127
		S83.784,325.481,83.784,255.454z M283.952,399.559c-10.258-2.742-19.109-6.055-26.097-9.075
		c48.142-16.83,84.624-58.715,93.725-109.953c2.25-0.312,4.445-0.795,6.567-1.45c-1.815,55.242,0.657,95.721,14.931,120.071
		C344.826,407.686,314.896,407.831,283.952,399.559z"/>
	<path d="M235.603,266.052c-7.956,0.4-16.183,0.813-24.818,0.813s-16.862-0.414-24.818-0.813
		c-22.939-1.152-41.061-2.063-51.744,8.097c-5.281,5.023-7.96,12.207-7.96,21.352c0,17.343,9.142,33.468,25.742,45.405
		c15.803,11.364,36.678,17.622,58.78,17.622s42.978-6.258,58.78-17.622c16.601-11.938,25.742-28.063,25.742-45.405
		c0-9.145-2.679-16.329-7.96-21.352C276.663,263.988,258.543,264.899,235.603,266.052z M279.307,295.501
		c0,2.365-0.262,4.688-0.755,6.96c-5.479-2.151-12.007-3.014-19.408-3.223v-17.786c7.856,0.26,14.101,1.365,17.177,4.291
		C277.059,286.445,279.307,288.583,279.307,295.501z M178.427,315.514c2.211,0.099,4.46,0.212,6.725,0.326
		c5.458,0.275,11.433,0.572,17.634,0.727v25.63c-8.72-0.699-16.947-2.519-24.358-5.256V315.514z M218.786,316.567
		c6.197-0.155,12.169-0.452,17.625-0.726c2.268-0.114,4.519-0.227,6.733-0.326v21.427c-7.411,2.737-15.638,4.557-24.358,5.256
		V316.567z M236.406,282.032c2.27-0.114,4.522-0.227,6.738-0.326v17.792c-2.452,0.108-4.963,0.234-7.537,0.363
		c-5.461,0.275-11.062,0.546-16.821,0.696v-17.8C224.981,282.603,230.951,282.306,236.406,282.032z M202.786,282.757v17.8
		c-5.763-0.149-11.367-0.421-16.83-0.696c-2.571-0.129-5.079-0.255-7.528-0.363v-17.792c2.216,0.099,4.467,0.211,6.736,0.325
		C190.618,282.306,196.589,282.603,202.786,282.757z M145.249,285.743c3.077-2.926,9.323-4.029,17.179-4.29v17.784
		c-7.402,0.209-13.93,1.072-19.41,3.223c-0.493-2.272-0.755-4.595-0.755-6.96C142.262,288.583,144.51,286.445,145.249,285.743z
		 M149.879,317.007c3.283-1.082,7.597-1.582,12.549-1.747v13.526C157.403,325.347,153.165,321.372,149.879,317.007z
		 M259.144,328.785v-13.524c4.951,0.164,9.265,0.664,12.547,1.746C268.406,321.371,264.168,325.346,259.144,328.785z"/>
	<path d="M147.506,248.32c1.562,1.563,3.608,2.343,5.656,2.343s4.095-0.781,5.657-2.343c3.124-3.125,3.124-8.189-0.001-11.314
		c-13.691-13.691-35.973-13.691-49.664,0c-3.125,3.125-3.125,8.189-0.001,11.314c3.125,3.125,8.19,3.125,11.313,0
		C127.922,240.867,140.051,240.867,147.506,248.32z"/>
	<path d="M274.063,248.32c3.611-3.611,8.413-5.6,13.52-5.6c5.107,0,9.908,1.989,13.519,5.6c1.563,1.563,3.609,2.343,5.657,2.343
		c2.047,0,4.095-0.781,5.656-2.343c3.125-3.124,3.125-8.189,0.001-11.313c-6.633-6.633-15.452-10.286-24.833-10.286
		c-9.38,0-18.199,3.653-24.832,10.286c-3.125,3.125-3.125,8.189-0.001,11.314C265.875,251.444,270.94,251.445,274.063,248.32z"/>
</g>
<g>
</g>
<g>
</g>
<g>
</g>
<g>
</g>
<g>
</g>
<g>
</g>
<g>
</g>
<g>
</g>
<g>
</g>
<g>
</g>
<g>
</g>
<g>
</g>
<g>
</g>
<g>
</g>
<g>
</g>
</svg>
