<?xml version="1.0" encoding="iso-8859-1"?>
<!-- Generator: Adobe Illustrator 18.0.0, SVG Export Plug-In . SVG Version: 6.00 Build 0)  -->
<!DOCTYPE svg PUBLIC "-//W3C//DTD SVG 1.1//EN" "http://www.w3.org/Graphics/SVG/1.1/DTD/svg11.dtd">
<svg version="1.1" id="Capa_1" xmlns="http://www.w3.org/2000/svg" xmlns:xlink="http://www.w3.org/1999/xlink" x="0px" y="0px"
	 viewBox="0 0 455.68 455.68" style="enable-background:new 0 0 455.68 455.68;" xml:space="preserve">
<g>
	<path d="M127.615,262.563c-3.124,3.124-3.125,8.189,0,11.313c3.125,3.125,8.19,3.125,11.314,0c7.505-7.505,19.717-7.505,27.222,0
		c1.562,1.562,3.609,2.343,5.657,2.343s4.095-0.781,5.657-2.343c3.125-3.124,3.125-8.189,0-11.313
		C163.72,248.82,141.358,248.82,127.615,262.563z"/>
	<path d="M316.751,273.877c1.562,1.562,3.609,2.343,5.657,2.343s4.095-0.781,5.657-2.343c3.125-3.124,3.125-8.189,0-11.313
		c-13.744-13.744-36.105-13.744-49.849,0c-3.124,3.124-3.125,8.189,0,11.313c3.125,3.125,8.19,3.125,11.314,0
		C297.034,266.372,309.246,266.372,316.751,273.877z"/>
	<path d="M245.389,322.971c-4.418,0-8,3.582-8,8s3.582,8,8,8c4.143,0,7.514,3.371,7.514,7.514s-3.371,7.514-7.514,7.514
		c-4.418,0-8,3.582-8,8s3.582,8,8,8c4.143,0,7.514,3.371,7.514,7.514s-3.371,7.514-7.514,7.514c-4.418,0-8,3.582-8,8s3.582,8,8,8
		c12.965,0,23.514-10.548,23.514-23.514c0-5.939-2.213-11.371-5.858-15.514c3.645-4.143,5.858-9.575,5.858-15.514
		C268.903,333.52,258.355,322.971,245.389,322.971z"/>
	<path d="M378.18,295.596c20.37-3.772,35.85-21.655,35.85-43.096c0-15.63-8.26-29.869-21.448-37.69
		c0.542-14.097,0.748-46.325,0.748-49.31c0-13.753-1.697-27.116-4.874-39.9c22.995-9.416,38.464-31.977,38.464-57.372
		c0-34.187-27.813-62-62-62c-17.881,0-34.715,7.691-46.409,20.895C292.451,9.987,261.292,0,227.84,0
		c-33.452,0-64.611,9.987-90.672,27.123C125.475,13.919,108.641,6.229,90.76,6.229c-34.187,0-62,27.813-62,62
		c0,25.394,15.469,47.956,38.464,57.372c-3.176,12.784-4.874,26.147-4.874,39.9c0,0.381,0.378,34.01,1.256,48.993
		c-13.508,7.74-21.956,22.084-21.956,38.007c0,11.72,4.563,22.729,12.844,30.997c6.364,6.364,14.34,10.531,23.007,12.119v3.204
		c0,36.164,26.566,79.455,78.963,128.672c20.013,18.792,45.694,28.188,71.376,28.188c25.683,0,51.365-9.396,71.378-28.189
		c6.843-6.428,13.231-12.751,19.189-18.974l20.834,20.834c1.562,1.562,3.609,2.343,5.657,2.343s4.095-0.781,5.657-2.343
		l43.465-43.465c15.102-15.103,15.102-39.676,0-54.779c-5.377-5.376-11.955-8.836-18.877-10.384
		c2.009-7.563,3.039-14.872,3.039-21.904V295.596z M398.03,252.5c0,12.572-8.381,23.219-19.85,26.664v-52.711
		c3.312,0.678,6.473,2.031,9.14,4.109C393.98,235.751,398.03,243.781,398.03,252.5z M382.264,25.634
		c16.791,6.862,28.656,23.364,28.656,42.595c0,9.985-3.228,19.376-8.795,27.042C384.157,73.315,382.066,41.402,382.264,25.634z
		 M364.92,22.229c0.462,0,0.919,0.021,1.378,0.035c-0.606,16.842,0.804,56.459,24.287,84.158c-2.13,1.434-4.395,2.693-6.775,3.763
		c-10.36-29.128-28.657-54.52-52.281-73.566C340.152,27.512,352.172,22.229,364.92,22.229z M44.76,68.229
		c0-19.121,11.73-35.55,28.369-42.481c0.186,15.762-1.927,47.438-19.713,69.336C47.934,87.453,44.76,78.132,44.76,68.229z
		 M64.915,106.296c23.377-27.689,24.784-67.204,24.179-84.025c0.554-0.02,1.107-0.042,1.666-0.042
		c12.748,0,24.768,5.283,33.389,14.389c-23.624,19.046-41.921,44.438-52.281,73.567C69.421,109.084,67.098,107.78,64.915,106.296z
		 M77.5,279.177c-4.372-1.304-8.379-3.68-11.698-6.999c-5.257-5.249-8.152-12.238-8.152-19.679c0-7.976,3.336-15.329,8.953-20.49
		c3.787,15.15,9.048,28.386,10.897,32.84V279.177z M79.416,210.903c-0.515-11.427-0.933-33.418-1.066-45.403
		C78.35,83.065,145.41,16,227.84,16c20.583,0,40.208,4.183,58.069,11.741c11.39,24.643,4.043,73.622-1.154,96.981
		c-13.908,0.748-48.805,3.899-86.682,17.15c-28.426,9.944-52.576,23.547-71.78,40.43c-18.254,16.048-32.019,35.055-41.101,56.705
		C83.185,232.554,79.571,214.346,79.416,210.903z M288.263,415.828c-33.883,31.816-86.965,31.817-120.846,0
		C119.06,370.406,93.5,329.945,93.5,298.82v-10.48c0-29.719,10.519-58.616,30.185-80.897c4.003-4.535,8.337-8.861,12.999-12.972
		c17.588-15.508,39.885-28.077,66.271-37.355c36.12-12.701,70.218-15.711,82.974-16.415c6.921,15.28,29.933,58.712,76.25,81.078
		v77.042c0,6.837-1.247,14.129-3.69,21.822c-4.781,1.02-9.406,2.947-13.593,5.787c-15.062-10.216-35.785-8.657-49.122,4.679
		c-15.102,15.103-15.102,39.676,0,54.779l11.301,11.301C301.242,403.299,294.986,409.513,288.263,415.828z M382.705,374.573
		l-37.808,37.808l-37.808-37.808c-8.864-8.864-8.864-23.288,0-32.152c4.294-4.294,10.003-6.659,16.076-6.659
		s11.782,2.365,16.076,6.659c3.124,3.124,8.189,3.124,11.313,0c4.294-4.294,10.003-6.659,16.076-6.659s11.782,2.365,16.076,6.659
		C391.569,351.286,391.569,365.709,382.705,374.573z M376.737,209.826c-2.896-0.593-5.718-1.527-8.369-2.834
		c-43.443-21.419-64.416-64.967-68.838-75.151c2.762-11.738,12.902-59.01,6.108-93.953c42.961,26.292,71.691,73.659,71.691,127.613
		C377.329,171.339,377.103,196.07,376.737,209.826z"/>
</g>
<g>
</g>
<g>
</g>
<g>
</g>
<g>
</g>
<g>
</g>
<g>
</g>
<g>
</g>
<g>
</g>
<g>
</g>
<g>
</g>
<g>
</g>
<g>
</g>
<g>
</g>
<g>
</g>
<g>
</g>
</svg>
