<?xml version="1.0" encoding="iso-8859-1"?>
<!-- Generator: Adobe Illustrator 18.0.0, SVG Export Plug-In . SVG Version: 6.00 Build 0)  -->
<!DOCTYPE svg PUBLIC "-//W3C//DTD SVG 1.1//EN" "http://www.w3.org/Graphics/SVG/1.1/DTD/svg11.dtd">
<svg version="1.1" id="Capa_1" xmlns="http://www.w3.org/2000/svg" xmlns:xlink="http://www.w3.org/1999/xlink" x="0px" y="0px"
	 viewBox="0 0 455.68 455.68" style="enable-background:new 0 0 455.68 455.68;" xml:space="preserve">
<g>
	<path d="M166.151,267.877c1.562,1.563,3.609,2.343,5.657,2.343s4.095-0.781,5.657-2.343c3.124-3.125,3.124-8.189,0-11.313
		c-13.744-13.743-36.106-13.743-49.849,0c-3.125,3.124-3.125,8.189,0,11.313c3.124,3.124,8.189,3.124,11.313,0
		C146.433,260.372,158.646,260.372,166.151,267.877z"/>
	<path d="M328.065,267.877c3.125-3.124,3.125-8.189,0-11.313c-13.744-13.744-36.105-13.744-49.849,0
		c-3.124,3.124-3.125,8.189,0,11.313c3.124,3.125,8.189,3.125,11.313,0c7.505-7.505,19.718-7.505,27.222,0
		c1.562,1.562,3.609,2.343,5.657,2.343S326.503,269.439,328.065,267.877z"/>
	<path d="M274.665,314.23h-93.65c-11.938,0-22.73,6.134-28.867,16.409c-6.054,10.135-6.345,22.355-0.78,32.691
		c15.18,28.189,44.482,45.701,76.472,45.701c31.99,0,61.292-17.512,76.472-45.701c5.565-10.335,5.273-22.556-0.78-32.691
		C297.395,320.364,286.603,314.23,274.665,314.23z M273.668,330.23c-12.761,6.919-29.089,10.86-46.088,10.86
		c-16.99,0-33.32-3.94-46.094-10.86H273.668z M290.224,355.744c-12.384,23-36.289,37.287-62.384,37.287
		c-26.095,0-50-14.288-62.384-37.287c-2.839-5.271-2.754-11.255,0.201-16.493c16.204,11.411,38.277,17.839,61.922,17.839
		c23.845,0,46.065-6.539,62.286-18.121C292.979,344.273,293.114,350.378,290.224,355.744z"/>
	<path d="M414.03,252.5c0-15.63-8.26-29.869-21.448-37.69c0.542-14.097,0.748-46.325,0.748-49.31c0-13.753-1.697-27.116-4.874-39.9
		c22.995-9.416,38.464-31.977,38.464-57.372c0-34.187-27.813-62-62-62c-17.881,0-34.715,7.691-46.409,20.895
		C292.451,9.987,261.292,0,227.84,0c-33.452,0-64.611,9.987-90.672,27.123C125.475,13.919,108.641,6.229,90.76,6.229
		c-34.187,0-62,27.813-62,62c0,25.394,15.469,47.956,38.464,57.372c-3.176,12.784-4.874,26.147-4.874,39.9
		c0,0.381,0.378,34.01,1.256,48.993c-13.508,7.74-21.956,22.084-21.956,38.007c0,11.72,4.563,22.729,12.844,30.997
		c5.904,5.904,13.196,9.913,21.139,11.73c-7.002,3.654-12.76,9.301-16.601,16.402c-5.082,9.398-6.2,20.213-3.148,30.453
		c5.168,17.34,21.119,28.579,38.353,28.579c3.424,0,6.898-0.469,10.348-1.397c12.798,18.329,30.091,37.762,51.878,58.228
		c20.013,18.792,45.694,28.188,71.376,28.188c25.683,0,51.365-9.396,71.378-28.189c21.784-20.462,39.087-39.896,51.888-58.224
		c3.448,0.926,6.916,1.395,10.338,1.395c17.232,0,33.185-11.24,38.353-28.579c3.052-10.239,1.934-21.054-3.148-30.453
		c-3.846-7.111-9.615-12.764-16.63-16.417C399.474,290.735,414.03,273.291,414.03,252.5z M382.264,25.634
		c16.791,6.862,28.656,23.364,28.656,42.595c0,9.985-3.228,19.376-8.795,27.042C384.157,73.315,382.066,41.402,382.264,25.634z
		 M364.92,22.229c0.462,0,0.919,0.021,1.378,0.035c-0.606,16.842,0.804,56.459,24.287,84.158c-2.13,1.434-4.395,2.693-6.775,3.763
		c-10.36-29.128-28.657-54.52-52.281-73.566C340.152,27.512,352.172,22.229,364.92,22.229z M305.638,37.887
		c42.961,26.292,71.691,73.659,71.691,127.613c0,5.839-0.227,30.57-0.593,44.326c-2.896-0.593-5.718-1.527-8.369-2.834
		c-43.443-21.419-64.416-64.967-68.838-75.151C302.292,120.102,312.432,72.83,305.638,37.887z M227.84,16
		c20.583,0,40.208,4.183,58.069,11.741c11.39,24.643,4.043,73.622-1.154,96.981c-13.908,0.748-48.805,3.899-86.682,17.15
		c-28.426,9.944-52.576,23.547-71.78,40.43c-18.254,16.048-32.019,35.055-41.101,56.705c-2.008-6.453-5.621-24.662-5.776-28.104
		c-0.515-11.427-0.933-33.418-1.066-45.403C78.35,83.065,145.41,16,227.84,16z M44.76,68.229c0-19.121,11.73-35.55,28.369-42.481
		c0.186,15.762-1.927,47.438-19.713,69.336C47.934,87.453,44.76,78.132,44.76,68.229z M64.915,106.296
		c23.377-27.689,24.784-67.204,24.179-84.025c0.554-0.02,1.107-0.042,1.666-0.042c12.748,0,24.768,5.283,33.389,14.389
		c-23.624,19.046-41.921,44.438-52.281,73.567C69.421,109.084,67.098,107.78,64.915,106.296z M57.65,252.5
		c0-7.976,3.336-15.329,8.953-20.49c3.787,15.15,9.048,28.386,10.897,32.84v14.328c-4.372-1.304-8.379-3.68-11.698-6.999
		C60.545,266.93,57.65,259.941,57.65,252.5z M71.217,337.512c-1.831-6.144-1.16-12.633,1.889-18.271
		c3.049-5.639,8.112-9.753,14.255-11.584l23-6.855l6.855,23c3.78,12.682-3.463,26.076-16.145,29.856S74.997,350.194,71.217,337.512z
		 M288.263,415.828c-33.883,31.816-86.965,31.817-120.846,0c-20.14-18.917-36.308-36.97-48.339-53.85
		c12.404-9.872,18.27-26.649,13.472-42.748l-9.141-30.667c-1.262-4.235-5.719-6.647-9.952-5.381L93.5,289.132v-0.792
		c0-29.719,10.519-58.616,30.185-80.897c4.003-4.535,8.337-8.861,12.999-12.972c17.588-15.508,39.885-28.077,66.271-37.355
		c36.12-12.701,70.218-15.711,82.974-16.415c6.921,15.28,29.933,58.712,76.25,81.078v67.354l-19.958-5.949
		c-4.235-1.266-8.69,1.147-9.952,5.381l-9.141,30.667c-4.798,16.097,1.067,32.873,13.468,42.745
		C324.567,378.857,308.404,396.909,288.263,415.828z M384.463,337.512c-3.78,12.683-17.173,19.925-29.855,16.145
		c-12.682-3.78-19.925-17.174-16.145-29.856l6.855-23l23,6.855c6.144,1.831,11.207,5.945,14.256,11.584
		C385.623,324.88,386.294,331.369,384.463,337.512z M378.18,279.164v-52.711c3.312,0.678,6.473,2.031,9.14,4.109
		c6.66,5.189,10.71,13.22,10.71,21.938C398.03,265.072,389.648,275.719,378.18,279.164z"/>
</g>
<g>
</g>
<g>
</g>
<g>
</g>
<g>
</g>
<g>
</g>
<g>
</g>
<g>
</g>
<g>
</g>
<g>
</g>
<g>
</g>
<g>
</g>
<g>
</g>
<g>
</g>
<g>
</g>
<g>
</g>
</svg>
