<?xml version="1.0" encoding="iso-8859-1"?>
<!-- Generator: Adobe Illustrator 18.0.0, SVG Export Plug-In . SVG Version: 6.00 Build 0)  -->
<!DOCTYPE svg PUBLIC "-//W3C//DTD SVG 1.1//EN" "http://www.w3.org/Graphics/SVG/1.1/DTD/svg11.dtd">
<svg version="1.1" id="Capa_1" xmlns="http://www.w3.org/2000/svg" xmlns:xlink="http://www.w3.org/1999/xlink" x="0px" y="0px"
	 viewBox="0 0 455.68 455.68" style="enable-background:new 0 0 455.68 455.68;" xml:space="preserve">
<g>
	<path d="M280.359,265.286c-3.125,3.124-3.125,8.189-0.001,11.313c3.125,3.125,8.19,3.125,11.313,0
		c3.637-3.635,8.47-5.638,13.611-5.638s9.976,2.002,13.61,5.638c1.563,1.563,3.609,2.343,5.657,2.343
		c2.047,0,4.095-0.781,5.656-2.343c3.125-3.124,3.125-8.189,0.001-11.313c-6.657-6.658-15.509-10.324-24.925-10.324
		C295.867,254.962,287.016,258.628,280.359,265.286z"/>
	<path d="M169.665,278.943c2.048,0,4.095-0.781,5.657-2.343c3.124-3.125,3.124-8.189-0.001-11.313
		c-13.742-13.743-36.106-13.742-49.849,0c-3.125,3.124-3.125,8.189-0.001,11.313c3.124,3.125,8.189,3.125,11.313,0
		c7.506-7.504,19.718-7.505,27.224,0C165.571,278.162,167.618,278.943,169.665,278.943z"/>
	<path d="M285.22,330.96H170.46c-4.418,0-8,3.582-8,8c0,36.051,29.329,65.38,65.38,65.38s65.38-29.329,65.38-65.38
		C293.22,334.542,289.638,330.96,285.22,330.96z M227.84,388.34c-24.504,0-44.897-17.943-48.732-41.38h97.465
		C272.738,370.396,252.344,388.34,227.84,388.34z"/>
	<path d="M392.582,214.81c0.542-14.097,0.748-46.325,0.748-49.31c0-13.753-1.697-27.116-4.874-39.9
		c22.995-9.416,38.464-31.977,38.464-57.372c0-34.187-27.813-62-62-62c-17.881,0-34.715,7.691-46.409,20.895
		C292.451,9.987,261.292,0,227.84,0c-33.452,0-64.611,9.987-90.671,27.123C125.475,13.919,108.641,6.229,90.76,6.229
		c-34.187,0-62,27.813-62,62c0,25.394,15.469,47.956,38.463,57.372c-3.176,12.784-4.874,26.147-4.874,39.9
		c0,0.381,0.378,34.01,1.256,48.993c-13.508,7.74-21.956,22.084-21.956,38.007c0,11.72,4.563,22.729,12.844,30.997
		c6.364,6.364,14.34,10.531,23.007,12.119v3.204c0,36.164,26.566,79.455,78.963,128.672c20.013,18.792,45.694,28.188,71.376,28.188
		c25.683,0,51.365-9.396,71.378-28.189c52.396-49.217,78.963-92.508,78.963-128.671v-3.224c20.37-3.772,35.85-21.655,35.85-43.096
		C414.03,236.87,405.77,222.631,392.582,214.81z M382.264,25.634c16.791,6.862,28.656,23.364,28.656,42.595
		c0,9.985-3.228,19.376-8.795,27.042C384.157,73.315,382.066,41.402,382.264,25.634z M44.76,68.229
		c0-19.121,11.73-35.55,28.369-42.481c0.186,15.762-1.927,47.438-19.713,69.336C47.934,87.453,44.76,78.132,44.76,68.229z
		 M64.915,106.296c23.377-27.689,24.783-67.204,24.179-84.025c0.554-0.02,1.107-0.042,1.666-0.042
		c12.748,0,24.768,5.283,33.389,14.389c-23.624,19.046-41.921,44.438-52.281,73.567C69.421,109.084,67.098,107.78,64.915,106.296z
		 M77.5,279.177c-4.372-1.304-8.379-3.68-11.698-6.999c-5.257-5.249-8.152-12.238-8.152-19.679c0-7.976,3.336-15.329,8.953-20.49
		c3.787,15.15,9.048,28.386,10.897,32.84V279.177z M79.416,210.903c-0.515-11.427-0.933-33.418-1.066-45.403
		C78.35,83.065,145.41,16,227.84,16c20.583,0,40.208,4.183,58.069,11.741c11.39,24.643,4.043,73.622-1.154,96.981
		c-13.908,0.748-48.805,3.899-86.682,17.15c-21.856,7.646-41.179,17.458-57.674,29.259l-7.553-7.553
		c-3.125-3.124-8.189-3.124-11.314,0l-19.571,19.571c-10.317,10.318-12.974,25.432-7.987,38.229
		c-3.295,5.663-6.227,11.539-8.782,17.628C83.185,232.554,79.571,214.346,79.416,210.903z M113.276,194.464l13.914-13.915
		l13.914,13.915c7.673,7.672,7.673,20.156,0.001,27.828c-7.674,7.674-20.159,7.671-27.829,0
		C105.603,214.62,105.603,202.136,113.276,194.464z M362.18,298.82c0,31.125-25.561,71.586-73.917,117.008
		c-33.883,31.816-86.965,31.817-120.846,0C119.06,370.406,93.5,329.945,93.5,298.82v-10.48c0-18.108,3.924-35.903,11.425-52.089
		c6.486,5.188,14.372,7.788,22.264,7.788c9.135,0,18.273-3.478,25.229-10.433c13.91-13.911,13.91-36.544,0-50.455l-0.527-0.526
		c14.677-10.169,31.769-18.724,51.065-25.509c36.12-12.701,70.218-15.711,82.974-16.415c6.921,15.28,29.933,58.712,76.25,81.078
		V298.82z M376.737,209.826c-2.896-0.593-5.718-1.527-8.369-2.834c-43.443-21.419-64.416-64.967-68.838-75.151
		c2.762-11.738,12.902-59.01,6.108-93.953c42.961,26.292,71.691,73.659,71.691,127.613
		C377.329,171.339,377.103,196.07,376.737,209.826z M331.531,36.618c8.622-9.106,20.642-14.39,33.39-14.39
		c0.462,0,0.919,0.021,1.378,0.035c-0.606,16.842,0.804,56.459,24.287,84.158c-2.13,1.434-4.395,2.693-6.775,3.763
		C373.451,81.057,355.154,55.665,331.531,36.618z M378.18,279.164v-52.711c3.313,0.678,6.473,2.031,9.14,4.109
		c6.66,5.189,10.71,13.22,10.71,21.938C398.03,265.072,389.648,275.719,378.18,279.164z"/>
</g>
<g>
</g>
<g>
</g>
<g>
</g>
<g>
</g>
<g>
</g>
<g>
</g>
<g>
</g>
<g>
</g>
<g>
</g>
<g>
</g>
<g>
</g>
<g>
</g>
<g>
</g>
<g>
</g>
<g>
</g>
</svg>
