<?xml version="1.0" encoding="iso-8859-1"?>
<!-- Generator: Adobe Illustrator 18.0.0, SVG Export Plug-In . SVG Version: 6.00 Build 0)  -->
<!DOCTYPE svg PUBLIC "-//W3C//DTD SVG 1.1//EN" "http://www.w3.org/Graphics/SVG/1.1/DTD/svg11.dtd">
<svg version="1.1" id="Capa_1" xmlns="http://www.w3.org/2000/svg" xmlns:xlink="http://www.w3.org/1999/xlink" x="0px" y="0px"
	 viewBox="0 0 423.236 423.236" style="enable-background:new 0 0 423.236 423.236;" xml:space="preserve">
<g>
	<path d="M298.384,241.432l-35.811,9.779c-3.122,0.852-5.422,3.501-5.829,6.711c-0.407,3.21,1.16,6.349,3.97,7.954l33.215,18.965
		c1.251,0.714,2.615,1.054,3.959,1.054c2.778,0,5.479-1.449,6.955-4.035c2.191-3.837,0.856-8.723-2.98-10.914l-16.442-9.389
		l17.179-4.691c4.262-1.164,6.774-5.563,5.61-9.825C307.044,242.779,302.643,240.267,298.384,241.432z"/>
	<path d="M166.491,257.922c-0.407-3.21-2.708-5.859-5.829-6.711l-35.81-9.779c-4.259-1.164-8.661,1.348-9.825,5.61
		c-1.164,4.262,1.348,8.661,5.61,9.825l17.179,4.691l-16.442,9.389c-3.837,2.191-5.171,7.077-2.98,10.914
		c1.477,2.585,4.176,4.035,6.955,4.035c1.345,0,2.708-0.34,3.959-1.054l33.214-18.965
		C165.331,264.271,166.898,261.132,166.491,257.922z"/>
	<path d="M260.801,314.413h-95.995c-4.418,0-8,3.582-8,8s3.582,8,8,8h12.998v17.497c0,19.299,15.701,35,35,35s35-15.701,35-35
		v-17.497h12.998c4.418,0,8-3.582,8-8S265.219,314.413,260.801,314.413z M231.803,347.91c0,10.477-8.523,19-19,19s-19-8.523-19-19
		v-17.497h11v15.999c0,4.418,3.582,8,8,8s8-3.582,8-8v-15.999h11V347.91z"/>
	<path d="M412.845,337.907c-12.236-30.709-39.929-49.281-50.776-55.609c18.073-4.689,31.458-21.14,31.458-40.659
		c0-8.506-2.593-16.792-7.356-23.742c2.722-12.537,4.116-25.409,4.116-38.328C390.288,80.555,309.737,0,210.727,0
		C111.713,0,31.158,80.555,31.158,179.57c0,13.64,1.555,27.209,4.587,40.399c-3.83,6.332-6.038,13.749-6.038,21.674
		c0,19.518,13.384,35.968,31.456,40.658c-10.849,6.329-38.538,24.901-50.772,55.607C-4.676,375.72,9.925,416.291,10.553,418
		c0.784,2.13,2.438,3.828,4.547,4.668c0.952,0.38,1.957,0.568,2.961,0.568c1.219,0,2.435-0.278,3.55-0.831
		c1.632-0.808,40.132-20.221,55.198-58.033v0c2.691-6.752,4.431-13.592,5.478-20.284c5.215,9.391,11.468,18.253,18.708,26.404
		c28.065,31.603,68.386,49.728,110.622,49.728c42.235,0,82.556-18.125,110.621-49.727c7.241-8.152,13.494-17.015,18.709-26.406
		c1.047,6.692,2.788,13.532,5.478,20.285c15.065,37.813,53.566,57.226,55.198,58.034c1.116,0.552,2.331,0.831,3.55,0.831
		c1.003,0,2.009-0.188,2.961-0.568c2.109-0.84,3.763-2.538,4.547-4.668C413.311,416.291,427.912,375.72,412.845,337.907z
		 M359.528,266.375v-16.816c2.332,0.453,4.687,0.883,7.093,1.261c0.417,0.065,0.833,0.098,1.245,0.098
		c2.964,0,5.731-1.651,7.116-4.351l2.544-4.962c0,0.012,0.001,0.023,0.001,0.035C377.528,253.185,369.961,262.992,359.528,266.375z
		 M210.727,16c90.188,0,163.561,73.377,163.561,163.57c0,12.946-1.518,25.84-4.507,38.312c-0.006,0.026-0.012,0.052-0.019,0.077
		c-1.172,4.842-6.335,16.076-6.335,16.076c-38.891-7.317-71.653-26.149-97.449-56.031c-20.353-23.577-28.507-45.588-28.583-45.795
		c-1.112-3.083-3.993-5.177-7.27-5.282c-3.309-0.09-6.285,1.801-7.593,4.806c-0.598,1.376-12.801,30.23-0.22,61.721
		c-23.529-3.389-45.487-15.691-65.438-36.698c-18.162-19.124-27.701-38.616-27.792-38.803c-1.799-3.738-6.205-5.541-10.204-3.95
		c-3.068,1.221-5,4.312-5.005,7.614c-0.076,50.587-30.102,70.473-41.04,76.039c-2.151,1.095-17.722,4.812-23.514,8.476
		c-1.428-8.75-2.164-17.637-2.164-26.561C47.158,89.377,120.535,16,210.727,16z M45.707,241.642
		c0-11.546,7.567-21.353,18.001-24.736v49.471C53.274,262.995,45.707,253.188,45.707,241.642z M61.946,358.449
		c-8.816,22.126-27.943,37.288-39.028,44.599c-3.021-12.936-6.479-37.095,2.336-59.219c8.815-22.125,27.942-37.287,39.028-44.598
		C67.303,312.167,70.76,336.326,61.946,358.449z M310.276,359.868c-25.032,28.186-60.991,44.352-98.658,44.352
		s-73.627-16.166-98.659-44.353c-21.442-24.14-33.251-55.238-33.251-87.567v-60.234c5.388-2.743,14.143-8.057,22.827-17.015
		c9.475-9.772,20.33-25.518,25.003-48.979c4.579,6.503,10.377,13.911,17.395,21.342c26.571,28.134,58.017,43.005,90.937,43.005
		c2.92,0,5.607-1.591,7.013-4.15s1.305-5.681-0.264-8.145c-8.875-13.947-10.557-28.148-9.866-39.237
		c4.885,8.395,11.657,18.541,20.667,29.051c17.457,20.366,46.525,45.442,90.108,57.811V272.3
		C343.528,304.629,331.719,335.728,310.276,359.868z M400.313,403.07c-11.072-7.276-30.165-22.39-39.023-44.621
		c-8.815-22.125-5.357-46.287-2.337-59.218c11.09,7.313,30.214,22.475,39.029,44.598
		C406.803,365.969,403.335,390.145,400.313,403.07z"/>
</g>
<g>
</g>
<g>
</g>
<g>
</g>
<g>
</g>
<g>
</g>
<g>
</g>
<g>
</g>
<g>
</g>
<g>
</g>
<g>
</g>
<g>
</g>
<g>
</g>
<g>
</g>
<g>
</g>
<g>
</g>
</svg>
