<?xml version="1.0" encoding="iso-8859-1"?>
<!-- Generator: Adobe Illustrator 18.0.0, SVG Export Plug-In . SVG Version: 6.00 Build 0)  -->
<!DOCTYPE svg PUBLIC "-//W3C//DTD SVG 1.1//EN" "http://www.w3.org/Graphics/SVG/1.1/DTD/svg11.dtd">
<svg version="1.1" id="Capa_1" xmlns="http://www.w3.org/2000/svg" xmlns:xlink="http://www.w3.org/1999/xlink" x="0px" y="0px"
	 viewBox="0 0 423.236 423.236" style="enable-background:new 0 0 423.236 423.236;" xml:space="preserve">
<g>
	<path d="M211.618,309.26c-20.953,0-38,17.047-38,38c0,6.674,1.792,11.455,5.478,14.617c5.698,4.888,13.33,3.713,20.711,2.577
		c3.813-0.587,7.755-1.194,11.812-1.194s7.999,0.607,11.812,1.194c3.232,0.498,6.513,1.002,9.658,1.002
		c4.036,0,7.851-0.832,11.053-3.579c3.686-3.162,5.478-7.943,5.478-14.617C249.618,326.307,232.571,309.26,211.618,309.26z
		 M233.469,349.484c-1.749,0.062-5.067-0.454-7.604-0.845c-4.202-0.646-8.965-1.38-14.246-1.38s-10.044,0.733-14.246,1.38
		c-2.536,0.391-5.851,0.906-7.604,0.845c-0.078-0.475-0.149-1.192-0.149-2.225c0-12.131,9.869-22,22-22s22,9.869,22,22
		C233.618,348.292,233.547,349.01,233.469,349.484z"/>
	<path d="M412.845,337.907c-12.236-30.709-39.929-49.281-50.776-55.609c18.073-4.689,31.458-21.14,31.458-40.659
		c0-8.506-2.593-16.792-7.356-23.742c2.722-12.537,4.116-25.409,4.116-38.328C390.288,80.555,309.737,0,210.727,0
		C111.713,0,31.158,80.555,31.158,179.57c0,13.64,1.555,27.209,4.587,40.399c-3.83,6.332-6.038,13.749-6.038,21.674
		c0,19.518,13.384,35.968,31.456,40.658c-10.849,6.329-38.538,24.901-50.772,55.607C-4.676,375.72,9.925,416.291,10.553,418
		c0.784,2.13,2.438,3.828,4.547,4.668c0.952,0.38,1.957,0.568,2.961,0.568c1.219,0,2.435-0.278,3.55-0.831
		c1.632-0.808,40.132-20.221,55.198-58.033v0c2.691-6.752,4.431-13.592,5.478-20.284c5.215,9.391,11.468,18.253,18.708,26.404
		c28.065,31.603,68.386,49.728,110.622,49.728c42.235,0,82.556-18.125,110.621-49.727c7.241-8.152,13.494-17.015,18.709-26.406
		c1.047,6.692,2.788,13.532,5.478,20.285c15.065,37.813,53.566,57.226,55.198,58.034c1.116,0.552,2.331,0.831,3.55,0.831
		c1.003,0,2.009-0.188,2.961-0.568c2.109-0.84,3.763-2.538,4.547-4.668C413.311,416.291,427.912,375.72,412.845,337.907z
		 M377.527,241.605c0,0.012,0.001,0.023,0.001,0.035c0,11.546-7.567,21.353-18,24.735v-16.816c2.332,0.453,4.687,0.883,7.093,1.261
		c0.417,0.065,0.833,0.098,1.245,0.098c2.964,0,5.731-1.651,7.116-4.351L377.527,241.605z M45.707,241.642
		c0-11.546,7.567-21.353,18.001-24.736v49.471C53.274,262.995,45.707,253.188,45.707,241.642z M61.946,358.449
		c-8.816,22.126-27.943,37.288-39.028,44.599c-3.021-12.936-6.479-37.095,2.336-59.219c8.815-22.125,27.942-37.287,39.028-44.598
		C67.303,312.167,70.76,336.326,61.946,358.449z M131.138,339.968c-0.021-0.076-0.041-0.151-0.063-0.227
		c-0.883-2.975-1.33-6.068-1.33-9.194c0-3.638,0.611-7.238,1.811-10.686c1.805-5.151,2.72-10.526,2.72-15.975
		c0-4.645-0.673-9.271-1.998-13.748c-1.941-6.568-1.776-13.446,0.48-19.893l3.299-9.443c0.087-0.001,0.173-0.013,0.26-0.013
		c1.928,0,3.812,0.282,5.607,0.825l-2.385,9.273c-2.214,8.581-2.028,17.609,0.54,26.119l2.041,6.731
		c1.72,5.672,1.847,11.721,0.37,17.477l-1.764,6.823c-2.203,8.586-2.013,17.609,0.552,26.096l2.038,6.733
		c1.719,5.694,1.847,11.746,0.372,17.492l-1.56,6.053c-4.722-2.925-9.266-6.157-13.605-9.675l1.846-5.277
		C133.709,359.886,133.973,349.693,131.138,339.968z M279.55,378.368c-1.478-5.754-1.35-11.805,0.368-17.493l2.041-6.743
		c2.563-8.484,2.754-17.506,0.547-26.107l-1.757-6.796c-1.48-5.769-1.354-11.816,0.367-17.491l2.042-6.738
		c2.567-8.501,2.753-17.53,0.54-26.105l-2.387-9.278c1.794-0.543,3.679-0.825,5.606-0.825c0.088,0,0.174,0.012,0.261,0.013
		l3.3,9.447c2.255,6.443,2.421,13.321,0.48,19.886c-1.327,4.482-2,9.109-2,13.751c0,5.447,0.915,10.822,2.715,15.959
		c1.205,3.461,1.815,7.062,1.815,10.701c0,3.129-0.447,6.222-1.329,9.193c-0.022,0.075-0.044,0.15-0.063,0.226
		c-2.835,9.724-2.57,19.918,0.771,29.503l1.844,5.271c-4.339,3.518-8.883,6.749-13.604,9.674L279.55,378.368z M343.528,272.3
		c0,32.329-11.809,63.428-33.252,87.568c-0.892,1.004-1.801,1.988-2.72,2.961c-1.823-6.061-1.863-12.434-0.057-18.528
		c0.021-0.073,0.043-0.147,0.063-0.221c1.279-4.384,1.928-8.936,1.928-13.533c0-5.434-0.91-10.804-2.71-15.975
		c-1.208-3.449-1.82-7.044-1.82-10.686c0-3.104,0.451-6.202,1.343-9.213c2.522-8.535,2.658-17.422,0.431-25.929
		c1.861-0.127,3.686-0.895,5.108-2.317c3.125-3.124,3.125-8.189,0.001-11.313c-6.657-6.658-15.509-10.324-24.925-10.324
		c-9.415,0-18.267,3.667-24.924,10.324c-3.125,3.124-3.125,8.189-0.001,11.313c1.297,1.297,2.93,2.047,4.618,2.268l1.593,6.191
		c1.482,5.744,1.357,11.792-0.36,17.479l-2.04,6.73c-2.569,8.477-2.761,17.505-0.549,26.124l1.757,6.796
		c1.477,5.755,1.35,11.802-0.368,17.484l-2.041,6.745c-2.564,8.492-2.754,17.518-0.549,26.109l2.535,9.84
		c-17.072,7.83-35.798,12.027-54.971,12.027s-37.899-4.197-54.971-12.027l2.538-9.848c2.202-8.584,2.013-17.609-0.552-26.106
		l-2.039-6.736c-1.719-5.685-1.846-11.732-0.373-17.474l1.764-6.823c2.208-8.606,2.018-17.635-0.553-26.109l-2.037-6.721
		c-1.72-5.697-1.845-11.745-0.361-17.495l1.591-6.185c1.688-0.22,3.321-0.97,4.617-2.267c3.125-3.124,3.125-8.189,0.001-11.313
		c-6.657-6.658-15.509-10.324-24.925-10.324c-9.415,0-18.267,3.667-24.924,10.324c-3.125,3.124-3.125,8.189-0.001,11.313
		c1.423,1.423,3.249,2.19,5.11,2.318c-2.227,8.509-2.091,17.396,0.432,25.933c0.89,3.004,1.341,6.103,1.341,9.208
		c0,3.643-0.612,7.238-1.825,10.701c-1.795,5.158-2.705,10.527-2.705,15.959c0,4.593,0.648,9.143,1.927,13.529
		c0.021,0.075,0.041,0.15,0.063,0.225c1.807,6.098,1.768,12.473-0.057,18.528c-0.919-0.973-1.828-1.958-2.72-2.962
		c-21.442-24.14-33.251-55.238-33.251-87.567v-60.234c5.388-2.743,14.143-8.057,22.827-17.015
		c9.475-9.772,20.33-25.518,25.003-48.979c4.579,6.503,10.377,13.911,17.396,21.342c26.571,28.134,58.017,43.005,90.937,43.005
		c2.92,0,5.607-1.591,7.013-4.15s1.305-5.681-0.264-8.145c-8.875-13.947-10.557-28.148-9.866-39.237
		c4.885,8.395,11.657,18.541,20.667,29.051c17.457,20.366,46.525,45.442,90.108,57.811V272.3z M265.978,178.003
		c-20.353-23.577-28.507-45.588-28.583-45.795c-1.112-3.083-3.993-5.177-7.27-5.282c-3.309-0.09-6.285,1.801-7.593,4.806
		c-0.598,1.376-12.801,30.23-0.22,61.721c-23.529-3.389-45.487-15.691-65.438-36.698c-18.162-19.124-27.701-38.616-27.792-38.803
		c-1.799-3.738-6.205-5.541-10.204-3.95c-3.068,1.221-5,4.312-5.005,7.614c-0.076,50.587-30.102,70.473-41.04,76.039
		c-2.151,1.095-17.722,4.813-23.514,8.477c-1.428-8.75-2.164-17.637-2.164-26.561C47.158,89.377,120.535,16,210.727,16
		c90.188,0,163.561,73.377,163.561,163.57c0,12.946-1.518,25.84-4.507,38.312c-0.006,0.026-0.012,0.052-0.019,0.077
		c-1.172,4.842-6.335,16.076-6.335,16.076C324.537,226.717,291.774,207.885,265.978,178.003z M400.313,403.07
		c-11.072-7.276-30.165-22.39-39.023-44.621c-8.815-22.125-5.357-46.287-2.337-59.218c11.09,7.313,30.214,22.475,39.029,44.598
		C406.803,365.969,403.335,390.145,400.313,403.07z"/>
</g>
<g>
</g>
<g>
</g>
<g>
</g>
<g>
</g>
<g>
</g>
<g>
</g>
<g>
</g>
<g>
</g>
<g>
</g>
<g>
</g>
<g>
</g>
<g>
</g>
<g>
</g>
<g>
</g>
<g>
</g>
</svg>
