<?xml version="1.0" encoding="iso-8859-1"?>
<!-- Generator: Adobe Illustrator 18.0.0, SVG Export Plug-In . SVG Version: 6.00 Build 0)  -->
<!DOCTYPE svg PUBLIC "-//W3C//DTD SVG 1.1//EN" "http://www.w3.org/Graphics/SVG/1.1/DTD/svg11.dtd">
<svg version="1.1" id="Capa_1" xmlns="http://www.w3.org/2000/svg" xmlns:xlink="http://www.w3.org/1999/xlink" x="0px" y="0px"
	 viewBox="0 0 425.275 425.275" style="enable-background:new 0 0 425.275 425.275;" xml:space="preserve">
<g>
	<path d="M276.469,216.916c3.637-3.635,8.47-5.638,13.611-5.638s9.976,2.002,13.61,5.638c1.563,1.563,3.609,2.343,5.657,2.343
		c2.047,0,4.095-0.781,5.656-2.343c3.125-3.124,3.125-8.189,0.001-11.313c-6.657-6.658-15.509-10.324-24.925-10.324
		c-9.415,0-18.267,3.667-24.924,10.324c-3.125,3.124-3.125,8.189-0.001,11.313C268.281,220.041,273.346,220.041,276.469,216.916z"/>
	<path d="M135.195,195.278c-9.415,0-18.267,3.667-24.924,10.324c-3.125,3.124-3.125,8.189-0.001,11.313
		c3.124,3.125,8.189,3.125,11.313,0c3.637-3.635,8.47-5.638,13.611-5.638s9.976,2.002,13.61,5.638
		c1.563,1.563,3.609,2.343,5.657,2.343c2.047,0,4.095-0.781,5.656-2.343c3.125-3.124,3.125-8.189,0.001-11.313
		C153.462,198.944,144.611,195.278,135.195,195.278z"/>
	<path d="M271.675,310.554c-2.105-1.707-4.934-2.233-7.509-1.394c-33.712,10.953-69.347,10.952-103.057,0
		c-2.574-0.838-5.403-0.313-7.509,1.393c-2.105,1.707-3.204,4.363-2.918,7.058c1.999,18.886,6.238,37.857,12.598,56.387
		c0.933,2.72,3.254,4.729,6.079,5.264c14.358,2.717,28.818,4.076,43.278,4.076s28.92-1.359,43.278-4.076
		c2.825-0.535,5.146-2.544,6.079-5.264c6.358-18.525,10.597-37.497,12.598-56.387C274.879,314.917,273.781,312.26,271.675,310.554z
		 M257.106,327.837c-0.436,2.744-0.928,5.487-1.463,8.228c-28.214,7.538-57.795,7.538-86.009,0
		c-0.535-2.741-1.028-5.485-1.463-8.228C197.475,335.227,227.801,335.228,257.106,327.837z M176.935,364.361
		c-1.159-3.595-2.223-7.207-3.212-10.827c12.832,2.801,25.873,4.212,38.915,4.212c13.042,0,26.083-1.41,38.915-4.212
		c-0.989,3.621-2.052,7.232-3.212,10.827C224.626,368.329,200.648,368.329,176.935,364.361z"/>
	<path d="M358.625,72.814c-16.678-22.118-38.504-40.439-63.12-52.985C269.69,6.671,241.809,0,212.637,0
		c-29.362,0-57.406,6.755-83.353,20.079c-24.744,12.705-46.626,31.241-63.282,53.602c-23.62,31.7-36.105,69.413-36.105,109.06
		v187.495c0,4.418,3.582,8,8,8h66.261c27.935,29.939,67.147,47.04,108.169,47.04c41.022,0,80.235-17.102,108.169-47.04h66.88
		c4.418,0,8-3.582,8-8V182.74C395.378,142.706,382.669,104.694,358.625,72.814z M310.986,364.923
		c-25.032,28.186-60.991,44.352-98.658,44.352c-37.667,0-73.626-16.166-98.659-44.353c-21.442-24.14-33.251-55.238-33.251-87.567
		v-21.092h6.877l7.663,35.003c0.804,3.672,4.056,6.289,7.814,6.289h81.73c3.759,0,7.011-2.617,7.815-6.29l3.017-13.786
		c1.767-8.068,9.044-13.924,17.303-13.924s15.535,5.856,17.302,13.924l3.019,13.787c0.804,3.672,4.056,6.289,7.814,6.289h81.73
		c3.759,0,7.011-2.617,7.814-6.289l7.663-35.003h6.257v21.092C344.238,309.684,332.429,340.783,310.986,364.923z M342.076,237.555
		h2.161v2.708h-2.754L342.076,237.555z M344.238,221.555h-8.6h-246h-9.22v-25.666c86.681-21.893,177.12-21.94,263.82-0.151V221.555z
		 M109.211,281.555l-9.633-44h33.573l-17.6,44H109.211z M150.384,237.555h9.939l-17.6,44h-9.939L150.384,237.555z M177.556,237.555
		h92.24l-17.6,44h-4.986l-1.642-7.498c-3.361-15.356-17.211-26.502-32.931-26.502s-29.57,11.146-32.933,26.503l-1.641,7.497h-18.109
		L177.556,237.555z M287.029,237.555h8.143l-17.6,44h-8.143L287.029,237.555z M312.404,237.555h13.294l-9.633,44h-21.261
		L312.404,237.555z M80.418,237.555h2.782l0.593,2.708h-3.375V237.555z M379.378,362.235h-45.906
		c17.356-24.75,26.766-54.326,26.766-84.88v-77.321c1.052,0.299,2.106,0.582,3.157,0.887c0.746,0.216,1.497,0.319,2.235,0.319
		c3.468,0,6.663-2.273,7.679-5.77c1.233-4.243-1.208-8.682-5.45-9.914c-11.086-3.221-22.245-6.069-33.455-8.586
		c1.647-14.775,1.889-47.102-20.841-76.327c-2.713-3.488-7.739-4.115-11.227-1.403c-3.487,2.713-4.116,7.739-1.403,11.227
		c18.373,23.622,18.814,50.318,17.677,63.184c-48.738-9.473-98.355-12.348-147.629-8.637c0.461-13.934,4.331-35.346,6.099-43.824
		c0.902-4.325-1.873-8.563-6.198-9.465c-4.322-0.904-8.562,1.872-9.465,6.196c-0.724,3.468-6.218,30.37-6.458,48.524
		c-13.014,1.36-25.993,3.181-38.917,5.465c0.59-16.349,4.17-50.663,23.054-70.896c3.015-3.23,2.84-8.292-0.39-11.307
		c-3.23-3.014-8.292-2.84-11.307,0.39c-24.227,25.958-27.259,68.354-27.469,84.918c-14.261,2.955-28.444,6.455-42.513,10.542
		c-4.243,1.232-6.683,5.671-5.45,9.914c1.232,4.242,5.669,6.682,9.914,5.451c0.844-0.245,1.692-0.472,2.537-0.713v77.147
		c0,30.554,9.409,60.13,26.766,84.88H45.898V182.74c0-36.176,11.389-70.583,32.936-99.501
		c15.205-20.414,35.178-37.333,57.759-48.927C160.257,22.161,185.842,16,212.637,16c26.622,0,52.059,6.084,75.603,18.084
		c22.464,11.45,42.385,28.173,57.61,48.363c21.934,29.083,33.527,63.763,33.527,100.293V362.235z"/>
</g>
<g>
</g>
<g>
</g>
<g>
</g>
<g>
</g>
<g>
</g>
<g>
</g>
<g>
</g>
<g>
</g>
<g>
</g>
<g>
</g>
<g>
</g>
<g>
</g>
<g>
</g>
<g>
</g>
<g>
</g>
</svg>
