<?xml version="1.0" encoding="iso-8859-1"?>
<!-- Generator: Adobe Illustrator 18.0.0, SVG Export Plug-In . SVG Version: 6.00 Build 0)  -->
<!DOCTYPE svg PUBLIC "-//W3C//DTD SVG 1.1//EN" "http://www.w3.org/Graphics/SVG/1.1/DTD/svg11.dtd">
<svg version="1.1" id="Capa_1" xmlns="http://www.w3.org/2000/svg" xmlns:xlink="http://www.w3.org/1999/xlink" x="0px" y="0px"
	 viewBox="0 0 387.039 387.039" style="enable-background:new 0 0 387.039 387.039;" xml:space="preserve">
<g>
	<circle cx="112.809" cy="233.169" r="15.368"/>
	<circle cx="274.229" cy="233.169" r="15.368"/>
	<path d="M387.039,226.647c0-22.261-16.136-40.811-37.323-44.602v-6.717c0-86.127-70.069-156.196-156.196-156.196
		c-86.126,0-156.196,70.069-156.196,156.196v6.717C16.136,185.836,0,204.387,0,226.647c0,22.453,16.414,41.134,37.871,44.7
		c3.02,34.414,18.765,59.834,46.942,75.653c25.057,14.068,60.616,20.906,108.707,20.906s83.649-6.839,108.707-20.906
		c28.177-15.819,43.922-41.238,46.942-75.653C370.624,267.781,387.039,249.1,387.039,226.647z M16,226.647
		c0-13.395,9.032-24.713,21.323-28.205v56.41C25.032,251.361,16,240.043,16,226.647z M333.715,258.757
		c0,35.135-12.862,59.436-39.322,74.291c-22.603,12.69-55.599,18.858-100.874,18.858h0c-45.275,0-78.271-6.168-100.874-18.858
		c-26.459-14.855-39.322-39.156-39.322-74.291v-83.429c0-63.309,42.185-116.941,99.918-134.29
		c43.983,0.556,67.407,32.306,67.407,55.296c0,17.608-14.325,31.934-31.934,31.934c-13.205,0-23.947-10.743-23.947-23.947
		c0-9.681,7.876-17.558,17.558-17.558c4.418,0,8-3.582,8-8s-3.582-8-8-8c-18.504,0-33.558,15.054-33.558,33.558
		c0,22.027,17.92,39.947,39.947,39.947c26.431,0,47.934-21.503,47.934-47.934c0-16.605-8.343-34.47-22.317-47.79
		c-5.592-5.33-11.955-9.806-18.897-13.388c76.424,1.03,138.281,63.507,138.281,140.171V258.757z M349.715,254.852v-56.41
		c12.291,3.492,21.323,14.81,21.323,28.205S362.007,251.361,349.715,254.852z"/>
	<path d="M245.275,265.915H141.764c-4.418,0-8,3.582-8,8c0,32.949,26.806,59.756,59.755,59.756c32.95,0,59.756-26.806,59.756-59.756
		C253.275,269.497,249.693,265.915,245.275,265.915z M193.519,317.671c-21.395,0-39.253-15.436-43.022-35.756h28.155v7.573
		c0,4.418,3.582,8,8,8s8-3.582,8-8v-7.573h41.891C232.772,302.235,214.915,317.671,193.519,317.671z"/>
</g>
<g>
</g>
<g>
</g>
<g>
</g>
<g>
</g>
<g>
</g>
<g>
</g>
<g>
</g>
<g>
</g>
<g>
</g>
<g>
</g>
<g>
</g>
<g>
</g>
<g>
</g>
<g>
</g>
<g>
</g>
</svg>
