<?xml version="1.0" encoding="iso-8859-1"?>
<!-- Generator: Adobe Illustrator 18.0.0, SVG Export Plug-In . SVG Version: 6.00 Build 0)  -->
<!DOCTYPE svg PUBLIC "-//W3C//DTD SVG 1.1//EN" "http://www.w3.org/Graphics/SVG/1.1/DTD/svg11.dtd">
<svg version="1.1" id="Capa_1" xmlns="http://www.w3.org/2000/svg" xmlns:xlink="http://www.w3.org/1999/xlink" x="0px" y="0px"
	 viewBox="0 0 421.561 421.561" style="enable-background:new 0 0 421.561 421.561;" xml:space="preserve">
<g>
	<path d="M391.822,397.883c-18.74-20.752-19.533-73.631-17.314-128.344c8.162-7.667,13.275-18.544,13.275-30.6
		c0-10.586-3.945-20.263-10.432-27.658c2.727-55.803,4.172-93.122-13.53-127.581c-12.076-23.513-31.615-43.158-58.076-58.39
		C274.908,7.56,239.737-1.155,204.011,0.123c-31.374,1.118-60.583,15.735-80.725,40.26C97.28,41.93,73.62,56.084,60.891,77.96
		c-1.09,1.873-2.147,3.805-3.141,5.74c-17.711,34.476-16.266,71.791-13.54,127.589c-6.483,7.394-10.426,17.067-10.426,27.65
		c0,12.052,5.111,22.928,13.27,30.594c2.218,54.716,1.424,107.598-17.315,128.349c-1.772,1.962-2.46,4.674-1.838,7.244
		c0.622,2.57,2.474,4.667,4.947,5.602C53.94,418.7,74.368,421.55,92.805,421.55c19.153,0,36.157-3.078,49.506-6.688
		c23.195-6.272,39.555-15.076,45.137-18.325c7.597,1.252,15.39,1.915,23.336,1.915c7.944,0,15.735-0.662,23.33-1.913
		c5.584,3.25,21.943,12.052,45.135,18.324c17.807,4.815,34.314,6.698,49.249,6.698c24.877,0,45.383-5.227,60.215-10.832
		c2.474-0.935,4.325-3.031,4.947-5.602C394.282,402.557,393.595,399.846,391.822,397.883z M353.783,255.453v-39.69
		c0.003-0.122,0.003-0.244,0-0.367v-1.192c10.433,3.383,18,13.19,18,24.735c0,11.637-7.685,21.513-18.247,24.819
		C353.694,261.01,353.783,258.242,353.783,255.453z M71.982,91.011c0.867-1.688,1.788-3.372,2.738-5.004
		c10.538-18.11,30.69-29.514,52.594-29.762c0.025,0,0.085-0.001,0.111-0.002c2.43-0.051,4.704-1.203,6.183-3.131
		c17.265-22.521,43.134-36.007,70.974-37c32.717-1.167,64.942,6.81,93.181,23.066c23.745,13.668,41.182,31.108,51.826,51.833
		c14.168,27.58,14.589,57.582,12.266,109.131c-2.572-1.069-5.273-1.887-8.071-2.429v-8.135c0-4.418-3.582-8-8-8s-8,3.582-8,8v18.169
		c-1.184,0.013-2.364,0.019-3.536,0.019c-107.912,0-166.49-52.099-182.237-68.527c-1.872-1.953-4.601-2.828-7.264-2.325
		c-2.658,0.503-4.882,2.316-5.911,4.819c-11.625,28.278-31.935,43.073-63.918,46.559c-4.059,0.442-7.133,3.87-7.133,7.953v1.468
		c-2.801,0.543-5.504,1.361-8.078,2.432C57.383,148.605,57.806,118.605,71.982,91.011z M68.031,263.759
		c-10.562-3.306-18.247-13.182-18.247-24.819c0-11.546,7.567-21.353,18-24.735v41.248C67.784,258.242,67.873,261.01,68.031,263.759z
		 M137.609,399.559c-30.944,8.272-60.874,8.127-89.126-0.407c14.272-24.349,16.745-64.829,14.931-120.073
		c2.124,0.656,4.322,1.14,6.574,1.452c9.101,51.237,45.581,93.12,93.721,109.952C156.721,393.503,147.868,396.816,137.609,399.559z
		 M210.783,382.453c-70.028,0-127-56.972-127-127l0.001-52.227c30.003-4.937,51.365-19.707,64.905-44.909
		c11.526,10.515,30.162,24.936,56.426,37.575c39.49,19.004,84.066,28.377,132.667,27.858v31.703
		C337.783,325.481,280.812,382.453,210.783,382.453z M283.951,399.559c-10.258-2.742-19.109-6.055-26.096-9.075
		c48.142-16.83,84.624-58.715,93.724-109.953c2.25-0.312,4.445-0.795,6.567-1.45c-1.815,55.243,0.658,95.722,14.931,120.071
		C344.825,407.685,314.897,407.831,283.951,399.559z"/>
	<path d="M162.037,232.034H109.54c-4.418,0-8,3.582-8,8s3.582,8,8,8h52.497c4.418,0,8-3.582,8-8S166.455,232.034,162.037,232.034z"
		/>
	<path d="M320.03,240.034c0-4.418-3.582-8-8-8h-52.497c-4.418,0-8,3.582-8,8s3.582,8,8,8h52.497
		C316.447,248.034,320.03,244.452,320.03,240.034z"/>
	<path d="M238.327,286.252c-17.9-4.298-36.824-4.298-54.726,0c-4.296,1.031-6.943,5.35-5.911,9.646
		c1.031,4.295,5.346,6.944,9.646,5.911c15.458-3.71,31.797-3.71,47.256,0c0.627,0.151,1.256,0.223,1.874,0.223
		c3.613,0,6.892-2.466,7.772-6.134C245.271,291.602,242.624,287.283,238.327,286.252z"/>
</g>
<g>
</g>
<g>
</g>
<g>
</g>
<g>
</g>
<g>
</g>
<g>
</g>
<g>
</g>
<g>
</g>
<g>
</g>
<g>
</g>
<g>
</g>
<g>
</g>
<g>
</g>
<g>
</g>
<g>
</g>
</svg>
