<?xml version="1.0" encoding="iso-8859-1"?>
<!-- Generator: Adobe Illustrator 18.0.0, SVG Export Plug-In . SVG Version: 6.00 Build 0)  -->
<!DOCTYPE svg PUBLIC "-//W3C//DTD SVG 1.1//EN" "http://www.w3.org/Graphics/SVG/1.1/DTD/svg11.dtd">
<svg version="1.1" id="Capa_1" xmlns="http://www.w3.org/2000/svg" xmlns:xlink="http://www.w3.org/1999/xlink" x="0px" y="0px"
	 viewBox="0 0 420.807 420.807" style="enable-background:new 0 0 420.807 420.807;" xml:space="preserve">
<g>
	<path d="M406.101,228.923c0-11.252-4.054-21.572-10.772-29.587v-14.411C395.329,82.957,312.371,0,210.403,0
		S25.478,82.957,25.478,184.925v14.411c-6.718,8.016-10.772,18.335-10.772,29.587c0,22.878,16.743,41.911,38.617,45.512
		c7.73,33.852,34.765,72.788,80.693,116.084c21.421,20.193,48.902,30.287,76.392,30.287c27.483,0,54.976-10.098,76.392-30.286
		c45.929-43.298,72.964-82.235,80.694-116.087C389.363,270.828,406.101,251.798,406.101,228.923z M210.404,16
		c93.146,0,168.925,75.78,168.925,168.925v2.138c-5.614-2.607-11.834-4.114-18.388-4.251c-6.464-25.849-16.386-50.826-29.575-74.141
		c0,0,0,0-0.001-0.001l-1.222-2.16c-6.925-12.242-19.451-20.109-33.506-21.044c-13.916-0.915-27.227,5.135-35.614,16.222
		l-0.323,0.432c-11.958,16.063-30.291,25.277-50.297,25.277c-20.001,0-38.336-9.217-50.312-25.299l-0.325-0.432
		c-8.38-11.075-21.695-17.131-35.607-16.205c-14.055,0.937-26.579,8.806-33.502,21.05l-1.232,2.18
		C76.246,132,66.329,156.969,59.87,182.813c-6.556,0.136-12.777,1.643-18.392,4.251v-2.138C41.478,91.78,117.258,16,210.404,16z
		 M30.706,228.923c0-15.065,11.112-27.583,25.569-29.79c-3.495,18.29-5.285,36.927-5.285,55.647c0,0.873,0.031,1.755,0.06,2.636
		C39.227,253.342,30.706,242.113,30.706,228.923z M275.825,378.878c-36.682,34.58-94.151,34.58-130.833,0
		C93.963,330.773,66.99,287.861,66.99,254.753c0-48.332,12.574-96.116,36.362-138.187l1.232-2.18
		c4.262-7.538,11.978-12.383,20.639-12.96c0.601-0.04,1.198-0.06,1.791-0.06c7.948,0,15.16,3.567,20.004,9.969l0.247,0.329
		c14.796,19.87,38.399,31.733,63.137,31.733c24.744,0,48.344-11.859,63.131-31.723l0.258-0.345
		c5.193-6.866,13.138-10.478,21.783-9.898c8.662,0.576,16.378,5.42,20.643,12.958l1.222,2.16
		c23.805,42.083,36.387,89.882,36.387,138.231C353.827,287.86,326.854,330.772,275.825,378.878z M369.767,257.413
		c0.029-0.88,0.06-1.76,0.06-2.632c0-18.717-1.791-37.354-5.289-55.646c14.454,2.21,25.562,14.726,25.562,29.789
		C390.101,242.108,381.585,253.335,369.767,257.413z"/>
	<path d="M223.448,326.296c-3.483,3.483-8.114,5.401-13.04,5.401c-4.925,0-9.556-1.918-13.039-5.401
		c-3.124-3.125-8.189-3.124-11.314,0c-3.124,3.124-3.125,8.189,0,11.313c6.505,6.505,15.154,10.087,24.353,10.087
		s17.848-3.583,24.353-10.087c3.125-3.124,3.125-8.189,0-11.313C231.637,323.172,226.572,323.172,223.448,326.296z"/>
	<circle cx="123.548" cy="246.564" r="15.703"/>
	<circle cx="297.27" cy="246.564" r="15.703"/>
	<path d="M291.806,178.883l-25.22,9.445c-4.138,1.549-6.236,6.16-4.686,10.297c1.549,4.138,6.159,6.235,10.297,4.686l25.22-9.445
		c8.121-3.041,17.198,1.091,20.239,9.209c1.203,3.213,4.252,5.196,7.493,5.196c0.932,0,1.88-0.164,2.805-0.51
		c4.138-1.549,6.236-6.16,4.686-10.297c-2.972-7.936-8.856-14.238-16.569-17.748S299.74,175.911,291.806,178.883z"/>
	<path d="M123.4,193.867l25.22,9.445c4.136,1.549,8.748-0.548,10.297-4.686c1.55-4.138-0.548-8.748-4.686-10.297l-25.22-9.445
		c-7.936-2.973-16.553-2.676-24.265,0.833c-7.713,3.51-13.597,9.813-16.569,17.748c-1.55,4.137,0.548,8.748,4.686,10.297
		c0.924,0.346,1.872,0.51,2.805,0.51c3.24,0,6.29-1.983,7.493-5.196C106.202,194.958,115.28,190.827,123.4,193.867z"/>
	<path d="M190.98,307.366c3.873,2.13,8.737,0.72,10.867-3.15c2.131-3.871,0.72-8.736-3.15-10.867l-6.253-3.442
		c-5.583-3.075-12.03-3.79-18.151-2.016c-6.122,1.774-11.187,5.827-14.26,11.41l-1.913,3.474c-2.09,3.797-6.88,5.188-10.679,3.095
		c-3.871-2.13-8.735-0.72-10.867,3.15c-2.131,3.871-0.721,8.736,3.15,10.867c3.64,2.004,7.581,2.955,11.468,2.955
		c8.424,0,16.602-4.463,20.943-12.35l1.913-3.474c1.013-1.84,2.681-3.175,4.698-3.759c2.017-0.585,4.141-0.35,5.98,0.664
		L190.98,307.366z"/>
	<path d="M273.377,305.871c-3.798,2.092-8.589,0.702-10.679-3.095l-1.912-3.474c-3.074-5.583-8.139-9.636-14.261-11.41
		c-6.122-1.774-12.569-1.058-18.151,2.015l-6.253,3.442c-3.87,2.131-5.281,6.996-3.15,10.867c2.131,3.87,6.995,5.28,10.867,3.15
		l6.253-3.443c1.839-1.012,3.964-1.249,5.98-0.664c2.017,0.584,3.686,1.919,4.699,3.759l1.912,3.474
		c4.342,7.887,12.519,12.351,20.944,12.35c3.887,0,7.829-0.951,11.468-2.955c3.871-2.131,5.281-6.996,3.15-10.867
		C282.112,305.151,277.249,303.741,273.377,305.871z"/>
</g>
<g>
</g>
<g>
</g>
<g>
</g>
<g>
</g>
<g>
</g>
<g>
</g>
<g>
</g>
<g>
</g>
<g>
</g>
<g>
</g>
<g>
</g>
<g>
</g>
<g>
</g>
<g>
</g>
<g>
</g>
</svg>
