<?xml version="1.0" encoding="iso-8859-1"?>
<!-- Generator: Adobe Illustrator 18.0.0, SVG Export Plug-In . SVG Version: 6.00 Build 0)  -->
<!DOCTYPE svg PUBLIC "-//W3C//DTD SVG 1.1//EN" "http://www.w3.org/Graphics/SVG/1.1/DTD/svg11.dtd">
<svg version="1.1" id="Capa_1" xmlns="http://www.w3.org/2000/svg" xmlns:xlink="http://www.w3.org/1999/xlink" x="0px" y="0px"
	 viewBox="0 0 420.807 420.807" style="enable-background:new 0 0 420.807 420.807;" xml:space="preserve">
<g>
	<path d="M208.721,313.821c-16.19,0-31.412,6.305-42.859,17.753c-3.125,3.124-3.125,8.189,0,11.313
		c3.124,3.125,8.189,3.124,11.313,0c8.426-8.426,19.629-13.067,31.546-13.067s23.12,4.641,31.546,13.067
		c1.562,1.562,3.609,2.343,5.657,2.343s4.095-0.781,5.657-2.343c3.125-3.124,3.125-8.189,0-11.313
		C240.133,320.126,224.912,313.821,208.721,313.821z"/>
	<circle cx="123.548" cy="246.564" r="15.703"/>
	<circle cx="297.27" cy="246.564" r="15.703"/>
	<path d="M291.806,176.148l-25.22,9.445c-4.138,1.549-6.236,6.16-4.686,10.297c1.549,4.137,6.16,6.235,10.297,4.686l25.22-9.445
		c8.12-3.04,17.199,1.091,20.239,9.209c1.203,3.213,4.252,5.196,7.493,5.196c0.932,0,1.88-0.164,2.805-0.51
		c4.138-1.549,6.236-6.16,4.686-10.297c-2.972-7.936-8.856-14.238-16.569-17.748S299.74,173.176,291.806,176.148z"/>
	<path d="M123.4,223.497l25.22,9.445c4.137,1.549,8.748-0.548,10.297-4.686c1.55-4.138-0.548-8.748-4.686-10.297l-25.22-9.445
		c-7.936-2.973-16.553-2.676-24.265,0.833c-7.713,3.51-13.597,9.813-16.569,17.748c-1.55,4.137,0.548,8.748,4.686,10.297
		c0.924,0.346,1.872,0.51,2.805,0.51c3.24,0,6.29-1.983,7.493-5.196C106.202,224.587,115.281,220.455,123.4,223.497z"/>
	<path d="M395.329,199.336v-14.411C395.329,82.957,312.371,0,210.403,0S25.478,82.957,25.478,184.925v14.411
		c-6.718,8.016-10.772,18.335-10.772,29.587c0,22.878,16.743,41.911,38.617,45.512c7.73,33.852,34.765,72.788,80.693,116.084
		c21.421,20.193,48.902,30.287,76.392,30.287c27.483,0,54.976-10.098,76.392-30.286c45.929-43.298,72.964-82.235,80.694-116.087
		c21.869-3.606,38.606-22.636,38.606-45.51C406.101,217.671,402.046,207.352,395.329,199.336z M50.99,254.781
		c0,0.873,0.031,1.755,0.06,2.636c-11.823-4.074-20.344-15.304-20.344-28.493c0-15.065,11.112-27.583,25.569-29.79
		C52.781,217.424,50.99,236.061,50.99,254.781z M275.825,378.878c-36.682,34.58-94.151,34.58-130.833,0
		C93.963,330.773,66.99,287.861,66.99,254.753c0-48.332,12.574-96.116,36.362-138.187l1.232-2.18
		c4.262-7.538,11.978-12.383,20.639-12.96c0.601-0.04,1.198-0.06,1.791-0.06c7.948,0,15.16,3.567,20.004,9.969l0.247,0.329
		c14.796,19.87,38.399,31.733,63.137,31.733c24.744,0,48.344-11.859,63.131-31.723l0.258-0.345
		c5.193-6.866,13.138-10.478,21.783-9.898c8.662,0.576,16.378,5.42,20.643,12.958l1.222,2.16
		c23.805,42.083,36.387,89.882,36.387,138.231C353.827,287.86,326.854,330.772,275.825,378.878z M331.366,108.672
		C331.366,108.672,331.366,108.671,331.366,108.672l-1.223-2.161c-6.925-12.242-19.451-20.109-33.506-21.044
		c-13.916-0.915-27.227,5.135-35.614,16.222l-0.323,0.432c-11.958,16.063-30.291,25.277-50.297,25.277
		c-20.001,0-38.336-9.217-50.312-25.299l-0.325-0.432c-8.38-11.075-21.695-17.131-35.607-16.205
		c-14.055,0.937-26.579,8.806-33.502,21.05l-1.232,2.18C76.246,132,66.329,156.969,59.87,182.813
		c-6.556,0.136-12.777,1.643-18.392,4.251v-2.138C41.478,91.78,117.258,16,210.404,16c93.146,0,168.925,75.78,168.925,168.925v2.138
		c-5.614-2.607-11.834-4.114-18.388-4.251C354.478,156.964,344.555,131.987,331.366,108.672z M369.767,257.413
		c0.029-0.88,0.06-1.76,0.06-2.632c0-18.717-1.791-37.354-5.289-55.646c14.454,2.21,25.562,14.726,25.562,29.789
		C390.101,242.108,381.585,253.335,369.767,257.413z"/>
	<path d="M172.136,305.553l1.912-3.474c1.013-1.839,2.682-3.175,4.699-3.759c2.019-0.584,4.142-0.348,5.98,0.664l6.253,3.443
		c3.871,2.132,8.736,0.721,10.866-3.149c2.131-3.87,0.721-8.735-3.149-10.866l-6.253-3.443c-11.527-6.346-26.066-2.132-32.412,9.395
		l-1.912,3.474c-2.091,3.798-6.883,5.187-10.679,3.095c-3.87-2.129-8.735-0.72-10.867,3.15c-2.131,3.871-0.721,8.736,3.15,10.867
		c3.64,2.004,7.58,2.955,11.468,2.955C159.616,317.903,167.794,313.439,172.136,305.553z"/>
	<path d="M273.377,300.932c-3.798,2.092-8.588,0.702-10.679-3.095l-1.913-3.474c-3.074-5.583-8.138-9.635-14.26-11.41
		c-6.124-1.774-12.569-1.058-18.152,2.016l-6.253,3.443c-3.871,2.131-5.281,6.996-3.149,10.866c2.131,3.87,6.996,5.281,10.866,3.149
		l6.253-3.443c3.798-2.091,8.589-0.702,10.679,3.096l1.913,3.474c4.342,7.887,12.519,12.35,20.943,12.35
		c3.887,0,7.829-0.951,11.468-2.955c3.871-2.131,5.281-6.996,3.15-10.867C282.112,300.211,277.248,298.801,273.377,300.932z"/>
</g>
<g>
</g>
<g>
</g>
<g>
</g>
<g>
</g>
<g>
</g>
<g>
</g>
<g>
</g>
<g>
</g>
<g>
</g>
<g>
</g>
<g>
</g>
<g>
</g>
<g>
</g>
<g>
</g>
<g>
</g>
</svg>
