<?xml version="1.0" encoding="iso-8859-1"?>
<!-- Generator: Adobe Illustrator 18.0.0, SVG Export Plug-In . SVG Version: 6.00 Build 0)  -->
<!DOCTYPE svg PUBLIC "-//W3C//DTD SVG 1.1//EN" "http://www.w3.org/Graphics/SVG/1.1/DTD/svg11.dtd">
<svg version="1.1" id="Capa_1" xmlns="http://www.w3.org/2000/svg" xmlns:xlink="http://www.w3.org/1999/xlink" x="0px" y="0px"
	 viewBox="0 0 433.396 433.396" style="enable-background:new 0 0 433.396 433.396;" xml:space="preserve">
<g>
	<path d="M406.342,256.218c0-11.044-3.966-21.396-11.222-29.549c2.932-60.004,4.51-100.099-14.467-137.039
		c-12.921-25.158-33.844-46.19-62.188-62.513C285.408,8.094,247.697-1.231,209.439,0.13c-17.127,0.61-34.281,5.167-49.61,13.181
		c-14.065,7.359-26.744,17.709-36.869,30.067C95.101,44.95,69.736,60.074,56.109,83.482c-1.164,1.998-2.297,4.066-3.365,6.146
		c-18.99,36.966-17.409,77.069-14.476,137.082c-6.97,7.864-11.214,18.196-11.214,29.506c0,23.324,18.024,42.506,40.873,44.38
		c9.515,30.664,34.725,65.403,75.331,103.673c20.592,19.42,47.013,29.126,73.441,29.126c26.424,0,52.856-9.71,73.448-29.125
		c40.6-38.275,65.807-73.014,75.322-103.673C388.319,298.723,406.342,279.542,406.342,256.218z M167.243,27.49
		c13.223-6.913,28.01-10.844,42.766-11.369c35.272-1.258,70.019,7.337,100.475,24.862c25.627,14.758,44.447,33.584,55.938,55.957
		c15.98,31.106,15.765,64.967,12.898,125.181l-17.87,0.985c-11.814,0.384-23.506,0.199-34.807-0.536
		c-8.758-7.578-20.16-12.177-32.622-12.177c-7.215,0-14.07,1.55-20.269,4.315c-65.438-15.617-104.037-48.403-119.04-63.584
		L135.46,53.378C144.207,42.74,155.13,33.828,167.243,27.49z M327.953,260.326c0,18.711-15.223,33.934-33.934,33.934
		c-18.712,0-33.935-15.223-33.935-33.934c0-3.185,0.451-6.265,1.275-9.19h17.636c0.257,8.085,6.876,14.565,15.023,14.565
		s14.766-6.48,15.023-14.565h17.636C327.503,254.061,327.953,257.141,327.953,260.326z M216.698,236.803
		c-10.799,0-21.009,3.41-29.397,9.533c-6.066-20.743-25.248-35.943-47.926-35.943c-21.752,0-40.289,13.986-47.119,33.434
		l-12.66-12.66v-13.849c32.58-5.239,55.678-21.258,70.195-48.726c17.973,16.507,53.166,42.835,107.199,58.271
		c-4.99,5.515-8.756,12.15-10.897,19.473C237.707,240.212,227.497,236.803,216.698,236.803z M173.311,260.326
		c0,18.711-15.223,33.934-33.935,33.934c-18.711,0-33.934-15.223-33.934-33.934c0-3.185,0.451-6.265,1.275-9.19h17.636
		c0.257,8.085,6.876,14.565,15.023,14.565c8.148,0,14.766-6.48,15.023-14.565h17.636
		C172.86,254.061,173.311,257.141,173.311,260.326z M116.667,235.136c6.019-5.431,13.984-8.744,22.709-8.744
		c8.726,0,16.692,3.313,22.71,8.744H116.667z M271.31,235.136c6.019-5.431,13.984-8.744,22.71-8.744
		c8.726,0,16.691,3.313,22.709,8.744H271.31z M341.139,243.826c-0.561-1.596-1.198-3.156-1.912-4.674
		c2.147,0.058,4.303,0.097,6.467,0.118L341.139,243.826z M66.977,96.938c0.938-1.829,1.933-3.645,2.957-5.401
		c10.374-17.821,29.325-29.656,50.45-31.904l18.611,94.492c-12.727,29.205-34.476,44.562-68.264,48.244
		c-4.059,0.443-7.133,3.87-7.133,7.953v2.083c-3.433,0.625-6.73,1.642-9.842,3.008C51.21,159.376,51.592,126.884,66.977,96.938z
		 M43.054,256.216c0-12.962,8.687-23.926,20.543-27.395v45.142c0,3.22,0.219,6.498,0.632,9.828
		C52.05,280.533,43.054,269.408,43.054,256.216z M279.172,392.629c-35.031,33.03-89.91,33.032-124.938-0.001
		c-48.828-46.02-74.638-87.053-74.638-118.665v-20.169l9.978,9.978c1.778,25.931,23.428,46.488,49.801,46.488
		c25.113,0,45.946-18.637,49.417-42.804c6.345-9.2,16.652-14.653,27.905-14.653c11.253,0,21.559,5.452,27.904,14.651
		c3.471,24.168,24.304,42.806,49.417,42.806c26.374,0,48.023-20.557,49.801-46.488l9.98-9.98v20.171
		C353.801,305.568,327.995,346.601,279.172,392.629z M369.169,283.792c0.413-3.33,0.632-6.609,0.632-9.829V238.67l13.89-0.765
		c4.306,5.127,6.651,11.516,6.651,18.313C390.342,269.409,381.346,280.533,369.169,283.792z"/>
	<path d="M241.279,325.379c-7.537-3.683-16.037-5.63-24.582-5.63c-8.544,0-17.044,1.947-24.581,5.63
		c-11.73,5.732-17.626,18.17-14.67,30.951c2.991,12.934,13.879,21.623,27.094,21.623h24.315c13.215,0,24.103-8.69,27.094-21.624
		C258.904,343.549,253.009,331.111,241.279,325.379z M240.361,352.724c-1.031,4.461-4.596,9.229-11.505,9.229H204.54
		c-6.909,0-10.474-4.767-11.505-9.228c-1.004-4.338,0.074-10.023,6.106-12.971c5.361-2.62,11.433-4.005,17.556-4.005
		c6.124,0,12.195,1.385,17.557,4.005C240.286,342.702,241.363,348.387,240.361,352.724z"/>
</g>
<g>
</g>
<g>
</g>
<g>
</g>
<g>
</g>
<g>
</g>
<g>
</g>
<g>
</g>
<g>
</g>
<g>
</g>
<g>
</g>
<g>
</g>
<g>
</g>
<g>
</g>
<g>
</g>
<g>
</g>
</svg>
