<?xml version="1.0" encoding="iso-8859-1"?>
<!-- Generator: Adobe Illustrator 18.0.0, SVG Export Plug-In . SVG Version: 6.00 Build 0)  -->
<!DOCTYPE svg PUBLIC "-//W3C//DTD SVG 1.1//EN" "http://www.w3.org/Graphics/SVG/1.1/DTD/svg11.dtd">
<svg version="1.1" id="Capa_1" xmlns="http://www.w3.org/2000/svg" xmlns:xlink="http://www.w3.org/1999/xlink" x="0px" y="0px"
	 viewBox="0 0 425.275 425.275" style="enable-background:new 0 0 425.275 425.275;" xml:space="preserve">
<g>
	<g>
		<path d="M137.337,228.256c-9.416,0-18.267,3.667-24.924,10.324c-3.125,3.125-3.124,8.189,0,11.313
			c3.124,3.125,8.189,3.124,11.313,0c3.636-3.636,8.469-5.638,13.611-5.638s9.976,2.002,13.611,5.638
			c1.562,1.562,3.609,2.343,5.657,2.343s4.095-0.781,5.657-2.343c3.125-3.124,3.125-8.189,0-11.313
			C155.604,231.923,146.753,228.256,137.337,228.256z"/>
		<path d="M307.206,252.237c2.047,0,4.095-0.781,5.657-2.343c3.124-3.124,3.125-8.189,0-11.313
			c-6.658-6.658-15.509-10.324-24.925-10.324s-18.267,3.667-24.925,10.324c-3.125,3.124-3.125,8.189,0,11.313
			c3.124,3.124,8.189,3.124,11.313,0c3.636-3.636,8.47-5.638,13.611-5.638s9.975,2.002,13.61,5.638
			C303.111,251.457,305.158,252.237,307.206,252.237z"/>
	</g>
	<path d="M251.611,297.747c-4.418,0-8,3.582-8,8c0,6.333-5.153,11.486-11.487,11.486s-11.487-5.153-11.487-11.486
		c0-4.418-3.582-8-8-8s-8,3.582-8,8c0,6.333-5.153,11.486-11.486,11.486c-6.334,0-11.487-5.153-11.487-11.486c0-4.418-3.582-8-8-8
		s-8,3.582-8,8c0,15.156,12.331,27.486,27.487,27.486c7.608,0,14.504-3.107,19.486-8.12c4.982,5.013,11.878,8.12,19.487,8.12
		c15.156,0,27.487-12.33,27.487-27.486C259.611,301.328,256.03,297.747,251.611,297.747z"/>
	<g>
		<path d="M118.892,269.235h-17.999c-4.418,0-8,3.582-8,8s3.582,8,8,8h17.999c4.418,0,8-3.582,8-8S123.311,269.235,118.892,269.235z
			"/>
		<path d="M332.382,277.235c0-4.418-3.582-8-8-8h-17.999c-4.418,0-8,3.582-8,8s3.582,8,8,8h17.999
			C328.801,285.235,332.382,281.654,332.382,277.235z"/>
	</g>
	<path d="M358.625,72.814c-16.678-22.118-38.504-40.439-63.12-52.985C269.69,6.671,241.809,0,212.637,0
		c-29.362,0-57.406,6.755-83.353,20.079c-24.744,12.705-46.626,31.241-63.282,53.602c-23.62,31.7-36.105,69.413-36.105,109.06
		v187.495c0,4.418,3.582,8,8,8h66.261c27.935,29.939,67.147,47.04,108.169,47.04c41.023,0,80.235-17.102,108.169-47.04h66.88
		c4.418,0,8-3.582,8-8V182.74C395.378,142.706,382.669,104.694,358.625,72.814z M212.328,409.275
		c-37.667,0-73.626-16.166-98.659-44.353c-21.442-24.14-33.251-55.238-33.251-87.567v-81.466
		c86.681-21.893,177.12-21.94,263.82-0.151v81.617c0,32.329-11.809,63.427-33.252,87.568
		C285.954,393.109,249.994,409.275,212.328,409.275z M379.378,362.235h-45.906c17.356-24.75,26.766-54.326,26.766-84.88v-77.321
		c1.052,0.299,2.106,0.582,3.157,0.887c0.746,0.216,1.497,0.319,2.235,0.319c3.468,0,6.663-2.273,7.679-5.77
		c1.233-4.243-1.208-8.682-5.45-9.914c-11.086-3.221-22.245-6.069-33.455-8.586c1.647-14.775,1.889-47.102-20.841-76.327
		c-2.713-3.488-7.739-4.115-11.227-1.403c-3.487,2.713-4.116,7.739-1.403,11.227c18.373,23.622,18.814,50.318,17.677,63.184
		c-48.738-9.473-98.355-12.348-147.629-8.637c0.461-13.934,4.331-35.346,6.099-43.824c0.902-4.325-1.873-8.563-6.198-9.465
		c-4.322-0.904-8.562,1.872-9.465,6.196c-0.724,3.468-6.218,30.37-6.458,48.524c-13.013,1.36-25.993,3.181-38.917,5.465
		c0.59-16.349,4.17-50.663,23.054-70.896c3.015-3.23,2.84-8.292-0.39-11.307c-3.23-3.014-8.292-2.84-11.307,0.39
		c-24.227,25.958-27.259,68.354-27.469,84.918c-14.261,2.955-28.444,6.455-42.513,10.542c-4.243,1.232-6.683,5.671-5.45,9.914
		c1.232,4.242,5.669,6.682,9.914,5.451c0.844-0.245,1.692-0.472,2.537-0.713v77.147c0,30.554,9.409,60.13,26.766,84.88H45.898
		V182.74c0-36.176,11.389-70.583,32.936-99.501c15.205-20.414,35.178-37.333,57.759-48.927C160.257,22.161,185.842,16,212.637,16
		c26.622,0,52.059,6.084,75.603,18.084c22.464,11.45,42.385,28.173,57.61,48.363c21.934,29.083,33.527,63.763,33.527,100.293
		V362.235z"/>
</g>
<g>
</g>
<g>
</g>
<g>
</g>
<g>
</g>
<g>
</g>
<g>
</g>
<g>
</g>
<g>
</g>
<g>
</g>
<g>
</g>
<g>
</g>
<g>
</g>
<g>
</g>
<g>
</g>
<g>
</g>
</svg>
