<?xml version="1.0" encoding="iso-8859-1"?>
<!-- Generator: Adobe Illustrator 18.0.0, SVG Export Plug-In . SVG Version: 6.00 Build 0)  -->
<!DOCTYPE svg PUBLIC "-//W3C//DTD SVG 1.1//EN" "http://www.w3.org/Graphics/SVG/1.1/DTD/svg11.dtd">
<svg version="1.1" id="Capa_1" xmlns="http://www.w3.org/2000/svg" xmlns:xlink="http://www.w3.org/1999/xlink" x="0px" y="0px"
	 viewBox="0 0 423.236 423.236" style="enable-background:new 0 0 423.236 423.236;" xml:space="preserve">
<g>
	<circle cx="134.174" cy="278.906" r="14"/>
	<circle cx="289.059" cy="278.906" r="14"/>
	<path d="M109.249,208.252c-3.125,3.124-3.125,8.189,0,11.313c3.124,3.124,8.189,3.124,11.313,0c7.505-7.505,19.717-7.505,27.222,0
		c1.562,1.563,3.609,2.343,5.657,2.343s4.095-0.781,5.657-2.343c3.124-3.125,3.124-8.189,0-11.313
		C145.354,194.509,122.992,194.509,109.249,208.252z"/>
	<path d="M264.135,241.271c-3.124,3.124-3.125,8.189,0,11.313c3.125,3.125,8.19,3.125,11.314,0c7.505-7.505,19.717-7.505,27.222,0
		c1.562,1.562,3.609,2.343,5.657,2.343s4.095-0.781,5.657-2.343c3.125-3.124,3.125-8.189,0-11.313
		C300.24,227.528,277.878,227.528,264.135,241.271z"/>
	<path d="M241.121,345.688c-1.484-15.264-14.168-26.775-29.504-26.775c-15.336,0-28.02,11.511-29.503,26.775l-2.899,29.829
		c-0.411,4.223,0.989,8.447,3.841,11.589c2.851,3.142,6.92,4.944,11.163,4.944h34.798c4.243,0,8.312-1.802,11.163-4.944
		c2.852-3.142,4.251-7.366,3.841-11.589L241.121,345.688z M195.238,376.05l2.801-28.815c0.683-7.025,6.52-12.323,13.579-12.323
		s12.896,5.298,13.579,12.323l2.801,28.815H195.238z"/>
	<path d="M412.845,337.907c-12.236-30.709-39.929-49.281-50.776-55.609c18.073-4.689,31.458-21.14,31.458-40.659
		c0-8.506-2.593-16.792-7.356-23.742c2.722-12.537,4.116-25.409,4.116-38.328C390.288,80.555,309.737,0,210.727,0
		C111.713,0,31.158,80.555,31.158,179.57c0,13.64,1.555,27.209,4.587,40.399c-3.83,6.332-6.038,13.749-6.038,21.674
		c0,19.518,13.384,35.968,31.456,40.658c-10.849,6.329-38.538,24.901-50.772,55.607C-4.676,375.72,9.925,416.291,10.553,418
		c0.784,2.13,2.438,3.828,4.547,4.668c0.952,0.38,1.957,0.568,2.961,0.568c1.219,0,2.435-0.278,3.55-0.831
		c1.632-0.808,40.132-20.221,55.198-58.033v0c2.691-6.752,4.431-13.592,5.478-20.284c5.215,9.391,11.468,18.253,18.708,26.404
		c28.065,31.603,68.386,49.728,110.622,49.728c42.235,0,82.556-18.125,110.621-49.727c7.241-8.152,13.494-17.015,18.709-26.406
		c1.047,6.692,2.788,13.532,5.478,20.285c15.065,37.813,53.566,57.226,55.198,58.034c1.116,0.552,2.331,0.831,3.55,0.831
		c1.003,0,2.009-0.188,2.961-0.568c2.109-0.84,3.763-2.538,4.547-4.668C413.311,416.291,427.912,375.72,412.845,337.907z
		 M359.528,266.375v-16.816c2.332,0.453,4.687,0.883,7.093,1.261c0.417,0.065,0.833,0.098,1.245,0.098
		c2.964,0,5.731-1.651,7.116-4.351l2.544-4.962c0,0.012,0.001,0.023,0.001,0.035C377.528,253.185,369.961,262.992,359.528,266.375z
		 M210.727,16c90.188,0,163.561,73.377,163.561,163.57c0,12.946-1.518,25.84-4.507,38.312c-0.006,0.026-0.012,0.052-0.019,0.077
		c-1.172,4.842-6.335,16.076-6.335,16.076c-38.891-7.317-71.653-26.149-97.449-56.031c-20.353-23.577-28.507-45.588-28.583-45.795
		c-1.112-3.083-3.993-5.177-7.27-5.282c-3.309-0.09-6.285,1.801-7.593,4.806c-0.598,1.376-12.801,30.23-0.22,61.721
		c-23.529-3.389-45.487-15.691-65.438-36.698c-18.162-19.124-27.701-38.616-27.792-38.803c-1.799-3.738-6.205-5.541-10.204-3.95
		c-3.068,1.221-5,4.312-5.005,7.614c-0.076,50.587-30.102,70.473-41.04,76.039c-2.151,1.095-17.722,4.812-23.514,8.476
		c-1.428-8.75-2.164-17.637-2.164-26.561C47.158,89.377,120.535,16,210.727,16z M45.707,241.642
		c0-11.546,7.567-21.353,18.001-24.736v49.471C53.274,262.995,45.707,253.188,45.707,241.642z M61.946,358.449
		c-8.816,22.126-27.943,37.288-39.028,44.599c-3.021-12.936-6.479-37.095,2.336-59.219c8.815-22.125,27.942-37.287,39.028-44.598
		C67.303,312.167,70.76,336.326,61.946,358.449z M310.276,359.868c-25.032,28.186-60.991,44.352-98.658,44.352
		s-73.627-16.166-98.659-44.353c-21.442-24.14-33.251-55.238-33.251-87.567v-60.234c5.388-2.743,14.143-8.057,22.827-17.015
		c9.475-9.772,20.33-25.518,25.003-48.979c4.579,6.503,10.377,13.911,17.396,21.342c26.571,28.134,58.017,43.005,90.937,43.005
		c2.92,0,5.607-1.591,7.013-4.15s1.305-5.681-0.264-8.145c-8.875-13.947-10.557-28.148-9.866-39.237
		c4.885,8.395,11.657,18.541,20.667,29.051c17.457,20.366,46.525,45.442,90.108,57.811V272.3
		C343.528,304.629,331.719,335.728,310.276,359.868z M400.313,403.07c-11.072-7.276-30.165-22.39-39.023-44.621
		c-8.815-22.125-5.357-46.287-2.337-59.218c11.09,7.313,30.214,22.475,39.029,44.598
		C406.803,365.969,403.335,390.145,400.313,403.07z"/>
</g>
<g>
</g>
<g>
</g>
<g>
</g>
<g>
</g>
<g>
</g>
<g>
</g>
<g>
</g>
<g>
</g>
<g>
</g>
<g>
</g>
<g>
</g>
<g>
</g>
<g>
</g>
<g>
</g>
<g>
</g>
</svg>
