<?xml version="1.0" encoding="iso-8859-1"?>
<!-- Generator: Adobe Illustrator 18.0.0, SVG Export Plug-In . SVG Version: 6.00 Build 0)  -->
<!DOCTYPE svg PUBLIC "-//W3C//DTD SVG 1.1//EN" "http://www.w3.org/Graphics/SVG/1.1/DTD/svg11.dtd">
<svg version="1.1" id="Capa_1" xmlns="http://www.w3.org/2000/svg" xmlns:xlink="http://www.w3.org/1999/xlink" x="0px" y="0px"
	 viewBox="0 0 420.707 420.707" style="enable-background:new 0 0 420.707 420.707;" xml:space="preserve">
<g>
	<path d="M157.854,251.337c-3.124-3.124-8.189-3.124-11.313,0c-3.636,3.636-8.47,5.638-13.611,5.638
		c-5.142,0-9.975-2.002-13.611-5.638c-3.123-3.124-8.188-3.125-11.313,0c-3.124,3.124-3.125,8.189,0,11.313
		c6.657,6.658,15.509,10.324,24.924,10.324s18.267-3.667,24.925-10.324C160.979,259.527,160.979,254.461,157.854,251.337z"/>
	<path d="M301.425,251.337c-3.636,3.636-8.469,5.638-13.61,5.638s-9.976-2.002-13.61-5.638c-3.124-3.123-8.189-3.124-11.313,0
		c-3.125,3.124-3.125,8.189-0.001,11.314c6.657,6.658,15.509,10.324,24.925,10.324c9.415,0,18.267-3.667,24.925-10.324
		c3.124-3.124,3.124-8.189,0-11.313C309.615,248.213,304.55,248.213,301.425,251.337z"/>
	<path d="M409.798,214.164c0-11.093-4.861-21.401-12.86-28.48c7.495-7.024,11.931-16.928,11.931-27.689
		c0-11.319-4.95-21.781-13.326-28.904c2.822-5.395,4.326-11.425,4.326-17.596c0-16.228-10.147-30.137-24.574-35.565
		c1.37-3.955,2.074-8.135,2.074-12.425c0-20.953-17.047-38-38-38c-1.872,0-3.729,0.135-5.56,0.404
		c-6.522-12.151-19.176-19.904-33.44-19.904c-7.359,0-14.355,2.058-20.377,5.91c-7.092-7.499-17.05-11.91-27.623-11.91
		c-7.232,0-14.231,2.05-20.261,5.864c-6.031-3.814-13.036-5.864-20.279-5.864c-0.499,0-0.99,0.009-1.48,0.03
		c-7.738-0.329-15.317,1.762-21.756,5.833c-6.024-3.813-13.024-5.863-20.264-5.863c-10.579,0-20.544,4.421-27.636,11.934
		c-6.044-3.831-13.123-5.934-20.364-5.934c-14.26,0-26.91,7.752-33.432,19.905c-1.832-0.269-3.688-0.405-5.558-0.405
		c-20.953,0-38,17.047-38,38c0,4.294,0.703,8.475,2.071,12.426c-14.425,5.428-24.571,19.336-24.571,35.564
		c0,6.17,1.504,12.2,4.326,17.594c-8.376,7.121-13.326,17.582-13.326,28.906c0,10.763,4.435,20.666,11.928,27.689
		c-7.998,7.079-12.858,17.386-12.858,28.48c0,11.372,5.104,22.016,13.653,29.161c-1.184,3.876-1.825,7.986-1.825,12.244
		c0,20.423,14.656,37.479,34,41.227v33.75c0,17.505,7.192,34.695,19.733,47.162c12.424,12.35,28.731,19.088,45.874,18.994
		c11.26-0.066,22.04-2.948,31.653-8.407c11.548,19.959,32.765,32.412,56.377,32.412s44.829-12.452,56.377-32.411
		c9.612,5.458,20.393,8.34,31.653,8.406c0.127,0,0.253,0.001,0.381,0.001c17.018,0,33.161-6.737,45.492-18.996
		c12.54-12.466,19.732-29.656,19.732-47.161v-33.75c19.345-3.747,34-20.804,34-41.227c0-4.271-0.645-8.393-1.835-12.279
		C404.704,236.148,409.798,225.516,409.798,214.164z M38.736,255.569c0-12.241,8.506-22.527,19.916-25.274
		c-1.183,16.656-1.816,33.344-1.894,50.017C46.313,276.936,38.736,267.123,38.736,255.569z M348.008,330.546
		c0,13.276-5.472,26.33-15.013,35.814c-9.312,9.256-21.451,14.343-34.215,14.343c-0.094,0-0.189,0-0.284-0.001
		c-10.977-0.064-21.351-3.677-29.998-10.447c-1.987-1.555-4.592-2.08-7.024-1.422c-2.435,0.66-4.415,2.429-5.345,4.774
		c-7.487,18.892-25.447,31.1-45.757,31.1s-38.271-12.208-45.758-31.1c-0.929-2.345-2.91-4.114-5.344-4.774
		c-0.69-0.187-1.393-0.278-2.092-0.278c-1.768,0-3.508,0.586-4.932,1.7c-8.648,6.77-19.022,10.383-29.999,10.447
		c-12.885,0.059-25.119-5.017-34.499-14.341c-9.541-9.484-15.013-22.539-15.013-35.814v-46.758
		c0-49.576,5.021-99.331,14.928-147.923c6.838,11.522,19.157,18.589,32.669,18.589c7.236,0,14.312-2.103,20.357-5.934
		c7.093,7.513,17.06,11.933,27.64,11.933c7.233,0,14.232-2.05,20.261-5.863c6.03,3.813,13.036,5.863,20.282,5.863
		c0.495,0,0.988-0.011,1.478-0.031c0.49,0.02,0.982,0.031,1.477,0.031c7.245,0,14.252-2.05,20.282-5.864
		c6.028,3.813,13.027,5.864,20.261,5.864c10.581,0,20.547-4.419,27.641-11.933c6.045,3.83,13.121,5.934,20.357,5.934
		c13.515,0,25.835-7.069,32.672-18.594c9.932,48.647,14.967,98.468,14.967,148.115V330.546z M363.985,280.313
		c-0.081-16.675-0.719-33.364-1.906-50.02c11.417,2.742,19.929,13.031,19.929,25.277
		C382.008,267.124,374.43,276.937,363.985,280.313z M360.73,213.842c-2.615-28.073-6.783-56.006-12.502-83.564
		c-1.247-6.002-6.151-10.653-12.191-11.572c-0.172-0.027-0.343-0.055-0.514-0.084c-6.308-1.112-12.578,2.069-15.599,7.915
		c-3.798,7.352-11.291,11.918-19.555,11.918c-6.102,0-11.777-2.448-15.981-6.894c-1.749-1.85-4.274-2.757-6.803-2.441
		c-2.526,0.315-4.753,1.814-5.994,4.038c-3.892,6.968-11.257,11.297-19.22,11.297c-5.506,0-10.78-2.058-14.852-5.793
		c-3.062-2.809-7.762-2.808-10.819,0.001c-4.068,3.735-9.351,5.792-14.872,5.792c-0.368,0-0.732-0.012-1.096-0.029
		c-0.255-0.013-0.51-0.013-0.765,0c-0.362,0.017-0.727,0.029-1.094,0.029c-5.522,0-10.803-2.057-14.871-5.792
		c-3.059-2.81-7.76-2.81-10.819-0.002c-4.072,3.736-9.347,5.794-14.853,5.794c-7.963,0-15.328-4.329-19.219-11.297
		c-1.241-2.224-3.467-3.723-5.994-4.038c-2.527-0.317-5.053,0.592-6.803,2.442c-4.204,4.445-9.879,6.894-15.981,6.894
		c-8.263,0-15.756-4.567-19.555-11.919c-3.02-5.845-9.291-9.025-15.606-7.913c-0.162,0.029-0.325,0.055-0.491,0.081
		c-6.057,0.922-10.961,5.577-12.207,11.593l-0.034,0.163c-5.693,27.499-9.841,55.373-12.443,83.385
		c-11.04,1.246-20.797,6.783-27.555,14.906c-3.507-3.966-5.533-9.133-5.533-14.586c0-9.281,5.874-17.61,14.615-20.724
		c3.141-1.119,5.258-4.069,5.314-7.402c0.056-3.334-1.962-6.353-5.064-7.576c-8.465-3.339-13.935-11.373-13.935-20.468
		c0-8.318,4.62-15.836,12.058-19.62c2.2-1.119,3.76-3.191,4.228-5.614c0.468-2.423-0.209-4.927-1.834-6.784
		c-3.515-4.017-5.451-9.16-5.451-14.482c0-11.751,9.188-21.401,20.917-21.969c2.961-0.144,5.601-1.914,6.858-4.599
		c1.257-2.686,0.926-5.846-0.86-8.212c-2.888-3.825-4.415-8.393-4.415-13.21c0-12.131,9.869-22,22-22
		c2.588,0,5.125,0.446,7.541,1.326c2.065,0.754,4.351,0.623,6.318-0.361c1.967-0.983,3.442-2.733,4.079-4.838
		c2.783-9.201,11.44-15.626,21.053-15.626c6.108,0,11.785,2.448,15.985,6.894c1.75,1.852,4.274,2.764,6.804,2.444
		c2.528-0.315,4.754-1.815,5.996-4.039c3.891-6.97,11.253-11.299,19.214-11.299c5.513,0,10.785,2.056,14.846,5.79
		c3.059,2.812,7.763,2.813,10.823,0.005c4.072-3.737,9.357-5.794,14.881-5.794c0.328,0,0.656,0.005,0.984,0.025
		c0.324,0.02,0.646,0.02,0.972,0c0.329-0.02,0.658-0.025,0.994-0.025c5.518,0,10.8,2.058,14.871,5.794
		c3.061,2.808,7.758,2.808,10.818,0c4.071-3.737,9.346-5.794,14.851-5.794c7.968,0,15.334,4.33,19.225,11.299
		c1.241,2.224,3.469,3.724,5.996,4.039c2.53,0.317,5.054-0.593,6.805-2.444c4.2-4.446,9.873-6.894,15.975-6.894
		c9.771,0,18.235,6.28,21.063,15.626c0.637,2.106,2.113,3.857,4.082,4.841c1.97,0.984,4.255,1.112,6.322,0.357
		c2.402-0.878,4.937-1.324,7.533-1.324c12.131,0,22,9.869,22,22c0,4.807-1.528,9.377-4.421,13.218
		c-1.782,2.367-2.11,5.526-0.853,8.209c1.258,2.683,3.896,4.451,6.855,4.594c11.729,0.569,20.918,10.219,20.918,21.969
		c0,5.322-1.936,10.465-5.45,14.482c-1.625,1.857-2.302,4.36-1.835,6.783c0.468,2.423,2.026,4.495,4.226,5.614
		c7.438,3.788,12.06,11.307,12.06,19.621c0,9.092-5.471,17.126-13.938,20.468c-3.101,1.224-5.117,4.242-5.062,7.575
		s2.172,6.282,5.313,7.401c8.742,3.118,14.616,11.446,14.616,20.725c0,5.44-2.021,10.598-5.519,14.559
		C381.519,220.611,371.765,215.083,360.73,213.842z"/>
	<path d="M210.372,290.491c-33.643,0-59.997,16.251-59.997,36.999c0,22.722,29.016,26.168,47.642,26.812v0.683
		c0,11.306,9.198,20.504,20.504,20.504s20.504-9.198,20.504-20.504v-2.084c12.333-1.762,31.346-6.969,31.346-25.41
		C270.37,306.742,244.015,290.491,210.372,290.491z M230.322,337.764c-4.13,0.364-7.298,3.823-7.298,7.969v9.25
		c0,2.483-2.021,4.504-4.504,4.504s-4.504-2.021-4.504-4.504v-8.522c0-4.381-3.524-7.948-7.906-8
		c-14.65-0.173-24.638-1.288-31.433-3.51c-8.303-2.715-8.303-5.922-8.303-7.463c0-4.647,4.055-9.575,11.126-13.518
		c8.524-4.754,20.505-7.48,32.871-7.48c12.366,0,24.348,2.727,32.872,7.48c7.07,3.943,11.126,8.871,11.126,13.518
		C254.37,332.902,246.279,336.359,230.322,337.764z"/>
</g>
<g>
</g>
<g>
</g>
<g>
</g>
<g>
</g>
<g>
</g>
<g>
</g>
<g>
</g>
<g>
</g>
<g>
</g>
<g>
</g>
<g>
</g>
<g>
</g>
<g>
</g>
<g>
</g>
<g>
</g>
</svg>
