<?xml version="1.0" encoding="iso-8859-1"?>
<!-- Generator: Adobe Illustrator 18.0.0, SVG Export Plug-In . SVG Version: 6.00 Build 0)  -->
<!DOCTYPE svg PUBLIC "-//W3C//DTD SVG 1.1//EN" "http://www.w3.org/Graphics/SVG/1.1/DTD/svg11.dtd">
<svg version="1.1" id="Capa_1" xmlns="http://www.w3.org/2000/svg" xmlns:xlink="http://www.w3.org/1999/xlink" x="0px" y="0px"
	 viewBox="0 0 424.239 424.239" style="enable-background:new 0 0 424.239 424.239;" xml:space="preserve">
<g>
	<path d="M305.292,229.279c-2.762,2.762-6.434,4.283-10.34,4.283c-3.905,0-7.577-1.521-10.339-4.282
		c-3.124-3.124-8.189-3.125-11.313,0c-3.125,3.124-3.125,8.189-0.001,11.314c5.783,5.784,13.474,8.969,21.653,8.969
		s15.87-3.185,21.654-8.969c3.124-3.124,3.124-8.189,0-11.314C313.482,226.155,308.418,226.155,305.292,229.279z"/>
	<path d="M139.627,229.279c-2.762,2.762-6.434,4.283-10.34,4.283c-3.905,0-7.577-1.521-10.339-4.282
		c-3.123-3.124-8.188-3.125-11.313,0c-3.125,3.124-3.125,8.189-0.001,11.314c5.783,5.784,13.474,8.969,21.653,8.969
		s15.87-3.185,21.654-8.969c3.124-3.124,3.124-8.189,0-11.314C147.817,226.155,142.753,226.155,139.627,229.279z"/>
	<path d="M400.882,254.178c0-21.731-15.709-39.851-36.366-43.63V76.715c0-17.362-8.638-33.458-23.104-43.057
		c-13.588-9.015-30.458-11.062-45.711-5.686l-50.225-17.048C206.88-2.177,166.254-3.521,127.992,7.036
		C77.899,20.857,49.181,50.084,44.749,91.628c-3.923,5.174-7.039,10.985-9.157,17.254l-3.896,11.531
		c-2.092,6.191,0.215,12.697,5.738,16.189c5.524,3.492,12.39,2.784,17.085-1.759c1.604-1.553,3.358-2.861,5.204-3.955v79.66
		c-20.657,3.779-36.366,21.898-36.366,43.63c0,22.601,16.991,41.296,38.868,44.014c5.494,30.336,19.931,58.319,42.007,80.712
		c28.82,29.236,67.135,45.336,107.888,45.336c0.005,0,0.011,0,0.016,0c40.701-0.004,78.966-15.856,107.745-44.635
		c22.48-22.481,37.073-50.749,42.385-81.445C384.021,295.329,400.882,276.692,400.882,254.178z M332.565,46.991
		c10.137,6.725,15.95,17.559,15.95,29.724v104.689c-24.831-3.859-43.897-25.383-43.897-51.279V86.121c0-0.041-0.009-0.08-0.01-0.12
		l0.009,0l-0.661-43.835C313.726,39.59,323.911,41.25,332.565,46.991z M49.195,118.605l1.555-4.601
		c4.073-12.055,13.117-21.841,24.814-26.85c11.698-5.008,25.021-4.8,36.557,0.572c24.227,11.284,53.513,5.184,71.22-14.833
		l1.982-2.241c2.927-3.309,2.618-8.365-0.691-11.292c-3.311-2.928-8.366-2.618-11.293,0.691l-1.982,2.241
		c-13.048,14.751-34.63,19.244-52.48,10.93c-15.654-7.291-33.737-7.574-49.608-0.777c-1.446,0.619-2.851,1.31-4.234,2.034
		c9.299-24.791,31.805-42.249,67.215-52.019c35.159-9.701,72.536-8.451,108.085,3.615l47.622,16.165l0.624,41.337
		c-21.205,28.831-52.131,48.348-87.373,55.059c-36.085,6.872-72.899-0.4-103.663-20.474
		C82.512,108.354,63.562,108.772,49.195,118.605z M39.357,254.178c0-12.863,8.609-23.747,20.366-27.21v43.362
		c0,3.746,0.135,7.471,0.398,11.172C48.161,278.169,39.357,267.186,39.357,254.178z M308.566,368.29
		c-25.757,25.758-60.005,39.945-96.433,39.949c-0.007,0-0.007,0-0.014,0c-36.433,0-70.705-14.409-96.494-40.568
		c-25.731-26.102-39.902-60.672-39.902-97.342V127.116c4.531,0.338,9.028,1.804,13.075,4.445
		c34.246,22.347,75.227,30.442,115.4,22.792c32.608-6.21,61.902-22.263,84.419-45.938v21.709c0,34.731,26.218,63.437,59.897,67.41
		v74.308C348.515,308.276,334.328,342.528,308.566,368.29z M364.206,281.476c0.198-3.194,0.309-6.405,0.309-9.633v-44.876
		c11.757,3.463,20.366,14.347,20.366,27.21C384.882,267.153,376.121,278.114,364.206,281.476z"/>
	<path d="M212.12,293.554c-20.116,0-36.482,16.366-36.482,36.482c0,8.761,3.555,29.14,36.482,29.14
		c22.844,0,36.481-10.894,36.481-29.14C248.601,309.92,232.236,293.554,212.12,293.554z M212.12,343.176
		c-20.482,0-20.482-9.546-20.482-13.14c0-11.294,9.188-20.482,20.482-20.482s20.481,9.188,20.481,20.482
		C232.601,333.629,232.601,343.176,212.12,343.176z"/>
</g>
<g>
</g>
<g>
</g>
<g>
</g>
<g>
</g>
<g>
</g>
<g>
</g>
<g>
</g>
<g>
</g>
<g>
</g>
<g>
</g>
<g>
</g>
<g>
</g>
<g>
</g>
<g>
</g>
<g>
</g>
</svg>
