<?xml version="1.0" encoding="iso-8859-1"?>
<!-- Generator: Adobe Illustrator 18.0.0, SVG Export Plug-In . SVG Version: 6.00 Build 0)  -->
<!DOCTYPE svg PUBLIC "-//W3C//DTD SVG 1.1//EN" "http://www.w3.org/Graphics/SVG/1.1/DTD/svg11.dtd">
<svg version="1.1" id="Capa_1" xmlns="http://www.w3.org/2000/svg" xmlns:xlink="http://www.w3.org/1999/xlink" x="0px" y="0px"
	 viewBox="0 0 421.561 421.561" style="enable-background:new 0 0 421.561 421.561;" xml:space="preserve">
<g>
	<path d="M228.649,306.562c-8.198,3.275-16.51,3.275-24.706,0c-4.103-1.639-8.758,0.359-10.396,4.461
		c-1.64,4.103,0.357,8.758,4.461,10.397c5.982,2.39,12.134,3.585,18.288,3.585c6.152,0,12.308-1.195,18.289-3.585
		c4.104-1.639,6.101-6.294,4.461-10.397C237.407,306.921,232.751,304.923,228.649,306.562z"/>
	<path d="M391.823,397.883c-18.74-20.752-19.533-73.631-17.314-128.344c8.162-7.667,13.275-18.544,13.275-30.6
		c0-10.586-3.945-20.263-10.432-27.658c2.727-55.803,4.172-93.122-13.53-127.581c-12.076-23.513-31.615-43.158-58.076-58.39
		C274.908,7.56,239.734-1.155,204.012,0.123c-31.375,1.118-60.584,15.735-80.725,40.26C97.28,41.93,73.62,56.084,60.889,77.963
		c-1.099,1.89-2.155,3.821-3.14,5.738c-17.71,34.475-16.265,71.791-13.54,127.589c-6.483,7.394-10.426,17.068-10.426,27.651
		c0,12.052,5.111,22.928,13.27,30.594c2.218,54.716,1.425,107.598-17.315,128.349c-1.772,1.962-2.46,4.674-1.838,7.244
		c0.622,2.57,2.474,4.667,4.947,5.602C53.94,418.7,74.368,421.55,92.805,421.55c19.152,0,36.156-3.078,49.506-6.688
		c23.195-6.272,39.555-15.076,45.138-18.324c7.596,1.252,15.389,1.914,23.335,1.914c7.944,0,15.735-0.662,23.33-1.914
		c5.584,3.25,21.943,12.052,45.135,18.324c17.807,4.815,34.314,6.698,49.249,6.698c24.877,0,45.383-5.227,60.215-10.832
		c2.474-0.935,4.325-3.031,4.947-5.602C394.283,402.557,393.595,399.846,391.823,397.883z M353.784,255.453v-39.69
		c0.003-0.122,0.003-0.244,0-0.367v-1.192c10.433,3.383,18,13.19,18,24.735c0,11.637-7.685,21.513-18.247,24.819
		C353.695,261.01,353.784,258.242,353.784,255.453z M71.983,91.01c0.858-1.672,1.779-3.356,2.737-5.003
		c10.537-18.11,30.69-29.514,52.693-29.764c2.434-0.047,4.714-1.199,6.195-3.132c17.264-22.521,43.133-36.007,70.974-37
		c32.714-1.167,64.941,6.81,93.181,23.066c23.745,13.668,41.182,31.108,51.826,51.833c14.168,27.58,14.589,57.582,12.266,109.131
		c-2.572-1.069-5.273-1.887-8.071-2.429v-8.135c0-4.418-3.582-8-8-8s-8,3.582-8,8v18.169
		c-110.176,1.201-169.854-51.901-185.772-68.509c-1.872-1.953-4.599-2.828-7.264-2.325c-2.658,0.503-4.882,2.316-5.911,4.819
		c-11.625,28.278-31.936,43.073-63.92,46.559c-4.059,0.442-7.133,3.87-7.133,7.953v1.468c-2.801,0.542-5.504,1.361-8.078,2.432
		C57.384,148.605,57.807,118.605,71.983,91.01z M303.093,243.784c0,13.371-10.878,24.249-24.248,24.249
		c-13.371,0-24.249-10.878-24.249-24.249c0-13.371,10.878-24.249,24.249-24.249C292.215,219.535,303.093,230.413,303.093,243.784z
		 M68.031,263.759c-10.562-3.306-18.247-13.182-18.247-24.819c0-11.546,7.567-21.353,18-24.735v41.249
		C67.784,258.242,67.873,261.01,68.031,263.759z M48.488,399.144c14.266-24.35,16.74-64.828,14.927-120.065
		c2.124,0.656,4.321,1.139,6.573,1.452c9.099,51.228,45.568,93.105,93.696,109.943C140.536,400.434,96.725,413.632,48.488,399.144z
		 M83.784,255.454l0.002-52.227c30.003-4.937,51.365-19.707,64.905-44.909c11.525,10.515,30.161,24.936,56.426,37.575
		c15.063,7.249,30.871,13.092,47.358,17.524c-8.493,7.385-13.878,18.256-13.878,30.367c0,22.193,18.056,40.249,40.249,40.249
		c22.192,0,40.248-18.056,40.248-40.249c0-7.537-2.087-14.593-5.706-20.63c8.015,0.481,16.147,0.685,24.397,0.597v31.703
		c0,70.028-56.972,127-127,127S83.784,325.481,83.784,255.454z M283.952,399.559c-10.258-2.742-19.109-6.055-26.097-9.075
		c48.142-16.83,84.624-58.715,93.725-109.953c2.25-0.312,4.445-0.795,6.567-1.45c-1.815,55.243,0.658,95.722,14.931,120.071
		C344.827,407.685,314.896,407.831,283.952,399.559z"/>
	<path d="M142.724,203.535c-22.192,0-40.248,18.056-40.248,40.249s18.056,40.249,40.248,40.249
		c22.193,0,40.249-18.056,40.249-40.249S164.918,203.535,142.724,203.535z M142.724,268.032c-13.37,0-24.248-10.878-24.248-24.249
		c0-13.371,10.878-24.249,24.248-24.249c13.371,0,24.249,10.878,24.249,24.249C166.973,257.154,156.095,268.032,142.724,268.032z"/>
	<circle cx="142.724" cy="243.784" r="13.486"/>
	<circle cx="278.845" cy="243.784" r="13.486"/>
	<path d="M122.489,286.031H108.99c-4.418,0-8,3.582-8,8s3.582,8,8,8h13.499c4.418,0,8-3.582,8-8S126.907,286.031,122.489,286.031z"
		/>
	<path d="M320.58,294.031c0-4.418-3.582-8-8-8h-13.499c-4.418,0-8,3.582-8,8s3.582,8,8,8h13.499
		C316.998,302.031,320.58,298.45,320.58,294.031z"/>
</g>
<g>
</g>
<g>
</g>
<g>
</g>
<g>
</g>
<g>
</g>
<g>
</g>
<g>
</g>
<g>
</g>
<g>
</g>
<g>
</g>
<g>
</g>
<g>
</g>
<g>
</g>
<g>
</g>
<g>
</g>
</svg>
