<?xml version="1.0" encoding="iso-8859-1"?>
<!-- Generator: Adobe Illustrator 18.0.0, SVG Export Plug-In . SVG Version: 6.00 Build 0)  -->
<!DOCTYPE svg PUBLIC "-//W3C//DTD SVG 1.1//EN" "http://www.w3.org/Graphics/SVG/1.1/DTD/svg11.dtd">
<svg version="1.1" id="Capa_1" xmlns="http://www.w3.org/2000/svg" xmlns:xlink="http://www.w3.org/1999/xlink" x="0px" y="0px"
	 viewBox="0 0 420.807 420.807" style="enable-background:new 0 0 420.807 420.807;" xml:space="preserve">
<g>
	<path d="M292.524,178.883l-25.22,9.445c-4.138,1.549-6.235,6.16-4.687,10.297c1.551,4.138,6.165,6.235,10.298,4.686l25.22-9.445
		c3.934-1.473,8.203-1.327,12.027,0.414c3.822,1.739,6.738,4.863,8.211,8.796c1.204,3.213,4.253,5.196,7.493,5.196
		c0.933,0,1.88-0.164,2.805-0.51c4.138-1.549,6.235-6.16,4.687-10.297c-2.972-7.935-8.856-14.238-16.568-17.748
		C309.076,176.207,300.459,175.912,292.524,178.883z"/>
	<path d="M124.118,193.867l25.221,9.445c4.139,1.549,8.747-0.547,10.298-4.686c1.549-4.138-0.549-8.748-4.687-10.297l-25.221-9.445
		c-16.381-6.134-34.697,2.201-40.834,18.581c-1.549,4.138,0.549,8.748,4.687,10.298c0.924,0.346,1.872,0.51,2.805,0.51
		c3.24,0,6.289-1.983,7.493-5.196C106.92,194.958,115.997,190.827,124.118,193.867z"/>
	<path d="M148.916,261.993c8.672,0,15.703-7.03,15.703-15.703c0-1.087-0.111-2.149-0.321-3.174h1.53c4.418,0,8-3.582,8-8
		s-3.582-8-8-8h-50.471c-4.418,0-8,3.582-8,8s3.582,8,8,8h18.178c-0.21,1.025-0.321,2.086-0.321,3.174
		C133.213,254.962,140.244,261.993,148.916,261.993z"/>
	<path d="M172.135,305.554l1.913-3.475c1.013-1.84,2.682-3.175,4.698-3.759c2.017-0.585,4.142-0.349,5.98,0.664l6.253,3.443
		c3.87,2.132,8.735,0.722,10.866-3.149c2.131-3.87,0.721-8.735-3.149-10.866l-6.253-3.443c-5.583-3.075-12.028-3.791-18.151-2.016
		c-6.122,1.775-11.187,5.827-14.26,11.41l-1.913,3.475c-1.013,1.839-2.682,3.174-4.698,3.759c-2.017,0.585-4.142,0.349-5.98-0.664
		c-3.869-2.131-8.735-0.722-10.866,3.149c-2.131,3.87-0.721,8.735,3.149,10.866c3.575,1.969,7.503,2.97,11.475,2.97
		c2.23,0,4.475-0.316,6.677-0.954C163.998,315.188,169.062,311.136,172.135,305.554z"/>
	<path d="M273.377,300.932c-3.799,2.091-8.591,0.701-10.679-3.095l-1.913-3.476c-6.347-11.525-20.887-15.74-32.412-9.394
		l-6.253,3.443c-3.87,2.131-5.28,6.996-3.149,10.866c2.131,3.871,6.997,5.282,10.866,3.149l6.253-3.442
		c3.797-2.092,8.589-0.702,10.679,3.094l1.913,3.476c4.343,7.886,12.521,12.349,20.944,12.349c3.888,0,7.828-0.951,11.468-2.955
		c3.87-2.131,5.28-6.996,3.149-10.866C282.113,300.211,277.249,298.801,273.377,300.932z"/>
	<path d="M251.053,321.02c-13.828-8.509-31.009-8.509-44.837,0c-8.656,5.327-19.41,5.327-28.066-0.001
		c-3.765-2.316-8.691-1.142-11.006,2.62c-2.316,3.763-1.144,8.69,2.619,11.006c6.915,4.256,14.667,6.384,22.421,6.384
		c7.751,0,15.505-2.127,22.418-6.382c8.656-5.327,19.41-5.326,28.066,0c3.765,2.315,8.691,1.141,11.006-2.621
		C255.99,328.263,254.816,323.335,251.053,321.02z"/>
	<path d="M305.461,227.116h-50.47c-4.418,0-8,3.582-8,8s3.582,8,8,8h23.087c-0.21,1.025-0.321,2.086-0.321,3.174
		c0,8.672,7.03,15.703,15.703,15.703s15.703-7.03,15.703-15.703c0-1.33-0.183-2.614-0.495-3.847c2.82-1.237,4.793-4.049,4.793-7.326
		C313.461,230.698,309.879,227.116,305.461,227.116z"/>
	<path d="M395.329,199.336v-14.411C395.329,82.957,312.371,0,210.403,0S25.478,82.957,25.478,184.925v14.411
		c-6.718,8.016-10.772,18.335-10.772,29.587c0,22.878,16.743,41.911,38.618,45.512c7.73,33.852,34.765,72.788,80.693,116.084
		c21.421,20.193,48.902,30.287,76.392,30.287c27.483,0,54.976-10.098,76.392-30.286c45.929-43.298,72.964-82.235,80.694-116.087
		c21.869-3.606,38.606-22.636,38.606-45.51C406.101,217.671,402.046,207.352,395.329,199.336z M50.99,254.781
		c0,0.873,0.031,1.755,0.06,2.636c-11.823-4.074-20.344-15.304-20.344-28.493c0-15.065,11.112-27.583,25.569-29.79
		C52.781,217.424,50.99,236.061,50.99,254.781z M275.825,378.878c-36.682,34.58-94.151,34.58-130.833,0
		C93.963,330.773,66.99,287.861,66.99,254.753c0-48.332,12.574-96.116,36.362-138.187l1.232-2.18
		c4.262-7.538,11.978-12.383,20.639-12.96c0.601-0.04,1.198-0.06,1.791-0.06c7.948,0,15.16,3.567,20.004,9.969l0.247,0.329
		c14.796,19.87,38.399,31.733,63.137,31.733c24.744,0,48.344-11.859,63.131-31.723l0.258-0.345
		c5.193-6.866,13.138-10.478,21.783-9.898c8.662,0.576,16.378,5.42,20.643,12.958l1.222,2.16
		c23.805,42.083,36.387,89.882,36.387,138.231C353.827,287.86,326.854,330.772,275.825,378.878z M331.366,108.672
		C331.366,108.672,331.366,108.671,331.366,108.672l-1.223-2.161c-6.925-12.242-19.451-20.109-33.506-21.044
		c-13.916-0.915-27.227,5.135-35.614,16.222l-0.323,0.432c-11.958,16.063-30.291,25.277-50.297,25.277
		c-20.001,0-38.336-9.217-50.312-25.299l-0.325-0.432c-8.38-11.075-21.695-17.131-35.607-16.205
		c-14.055,0.937-26.579,8.806-33.502,21.05l-1.232,2.18C76.246,132,66.329,156.969,59.87,182.813
		c-6.556,0.136-12.777,1.643-18.392,4.251v-2.138C41.478,91.78,117.258,16,210.404,16c93.146,0,168.925,75.78,168.925,168.925v2.138
		c-5.614-2.607-11.834-4.114-18.387-4.251C354.478,156.964,344.555,131.987,331.366,108.672z M369.767,257.413
		c0.029-0.88,0.06-1.76,0.06-2.632c0-18.717-1.792-37.354-5.289-55.646c14.454,2.21,25.562,14.726,25.562,29.789
		C390.101,242.108,381.585,253.335,369.767,257.413z"/>
</g>
<g>
</g>
<g>
</g>
<g>
</g>
<g>
</g>
<g>
</g>
<g>
</g>
<g>
</g>
<g>
</g>
<g>
</g>
<g>
</g>
<g>
</g>
<g>
</g>
<g>
</g>
<g>
</g>
<g>
</g>
</svg>
