<?xml version="1.0" encoding="iso-8859-1"?>
<!-- Generator: Adobe Illustrator 18.0.0, SVG Export Plug-In . SVG Version: 6.00 Build 0)  -->
<!DOCTYPE svg PUBLIC "-//W3C//DTD SVG 1.1//EN" "http://www.w3.org/Graphics/SVG/1.1/DTD/svg11.dtd">
<svg version="1.1" id="Capa_1" xmlns="http://www.w3.org/2000/svg" xmlns:xlink="http://www.w3.org/1999/xlink" x="0px" y="0px"
	 viewBox="0 0 433.398 433.398" style="enable-background:new 0 0 433.398 433.398;" xml:space="preserve">
<g>
	<path d="M157.809,269.044c3.125-3.124,3.125-8.189,0-11.313c-11.982-11.982-31.48-11.983-43.463,0
		c-3.125,3.124-3.125,8.189,0,11.313c3.124,3.124,8.189,3.124,11.313,0c5.746-5.744,15.092-5.743,20.836,0
		c1.562,1.562,3.609,2.343,5.657,2.343S156.247,270.606,157.809,269.044z"/>
	<path d="M275.588,257.731c-3.124,3.124-3.124,8.189,0,11.313c3.125,3.124,8.189,3.124,11.314,0c5.745-5.745,15.092-5.744,20.835,0
		c1.563,1.562,3.609,2.343,5.657,2.343s4.095-0.781,5.657-2.343c3.124-3.124,3.124-8.189,0-11.313
		C307.067,245.747,287.572,245.746,275.588,257.731z"/>
	<path d="M280.588,296.868c-1.926-1.517-4.438-2.069-6.822-1.495c-8.973,2.157-18.127,3.812-27.22,4.921
		c-19.807,2.439-39.889,2.44-59.704-0.001c-9.082-1.107-18.237-2.762-27.211-4.919c-2.381-0.573-4.897-0.021-6.821,1.495
		c-1.925,1.517-3.048,3.833-3.048,6.283v9.22c0,19.297,11.078,36.65,28.113,44.91v15.707c0,21.408,17.417,38.825,38.825,38.825
		c21.408,0,38.825-17.417,38.825-38.825v-15.706c17.034-8.26,28.112-25.613,28.112-44.91v-9.22
		C283.635,300.701,282.512,298.385,280.588,296.868z M255.523,338.343v-1.889c0-4.418-3.582-8-8-8s-8,3.582-8,8v36.534
		c0,12.585-10.239,22.825-22.825,22.825s-22.825-10.239-22.825-22.825v-36.534c0-4.418-3.582-8-8-8s-8,3.582-8,8v1.889
		c-7.338-6.165-11.893-15.289-12.105-25.242c6.359,1.268,12.762,2.297,19.127,3.073c21.104,2.599,42.502,2.6,63.595,0.001
		c6.373-0.777,12.777-1.807,19.137-3.075C267.416,323.054,262.861,332.178,255.523,338.343z"/>
	<path d="M406.343,256.221c0-11.042-3.964-21.393-11.219-29.545c2.932-59.998,4.51-100.097-14.466-137.038
		c-12.926-25.167-33.849-46.2-62.188-62.513C285.422,8.1,247.724-1.229,209.443,0.13c-33.635,1.2-64.945,16.909-86.49,43.256
		c-27.858,1.572-53.221,16.695-66.846,40.111c-1.173,2.017-2.304,4.083-3.361,6.141c-18.989,36.965-17.409,77.065-14.475,137.073
		c-6.972,7.865-11.217,18.198-11.217,29.509c0,23.326,18.025,42.508,40.875,44.381c9.515,30.659,34.724,65.399,75.326,103.677
		c20.592,19.413,47.019,29.12,73.445,29.12c26.427,0,52.853-9.707,73.445-29.12c40.601-38.277,65.81-73.017,75.325-103.676
		C388.32,298.727,406.343,279.545,406.343,256.221z M210.013,16.12c35.281-1.259,70.025,7.343,100.474,24.871
		c25.624,14.75,44.444,33.577,55.938,55.957c15.979,31.108,15.765,64.968,12.898,125.181l-17.87,0.985
		c-120.433,3.928-186.975-52.022-206.743-71.986L135.46,53.379C154.086,30.684,181.061,17.152,210.013,16.12z M66.979,96.948
		c0.93-1.811,1.926-3.63,2.958-5.406c10.375-17.832,29.34-29.669,50.447-31.904l18.611,94.498
		c-12.726,29.203-34.476,44.558-68.264,48.241c-4.059,0.442-7.133,3.87-7.133,7.953v2.079c-3.432,0.625-6.728,1.641-9.84,3.007
		C51.214,159.384,51.597,126.893,66.979,96.948z M43.054,256.22c0-12.962,8.688-23.927,20.544-27.395v45.143
		c0,3.219,0.219,6.497,0.632,9.827C52.052,280.537,43.054,269.411,43.054,256.22z M279.171,392.637
		c-35.03,33.023-89.909,33.024-124.939,0c-48.825-46.03-74.633-87.065-74.633-118.668l0.001-56.644
		c32.578-5.238,55.677-21.259,70.194-48.724c12.308,11.313,32.47,27.045,61.074,40.811c42.526,20.465,90.561,30.515,142.934,29.876
		v34.68C353.802,305.572,327.995,346.607,279.171,392.637z M369.17,283.795c0.413-3.33,0.632-6.608,0.632-9.827v-35.291
		l13.893-0.765c4.305,5.126,6.648,11.514,6.648,18.309C390.343,269.411,381.347,280.536,369.17,283.795z"/>
	<path d="M216.698,329.493c-4.418,0-8,3.582-8,8v39.605c0,4.418,3.582,8,8,8s8-3.582,8-8v-39.605
		C224.698,333.074,221.117,329.493,216.698,329.493z"/>
</g>
<g>
</g>
<g>
</g>
<g>
</g>
<g>
</g>
<g>
</g>
<g>
</g>
<g>
</g>
<g>
</g>
<g>
</g>
<g>
</g>
<g>
</g>
<g>
</g>
<g>
</g>
<g>
</g>
<g>
</g>
</svg>
