<?xml version="1.0" encoding="iso-8859-1"?>
<!-- Generator: Adobe Illustrator 18.0.0, SVG Export Plug-In . SVG Version: 6.00 Build 0)  -->
<!DOCTYPE svg PUBLIC "-//W3C//DTD SVG 1.1//EN" "http://www.w3.org/Graphics/SVG/1.1/DTD/svg11.dtd">
<svg version="1.1" id="Capa_1" xmlns="http://www.w3.org/2000/svg" xmlns:xlink="http://www.w3.org/1999/xlink" x="0px" y="0px"
	 viewBox="0 0 455.68 455.68" style="enable-background:new 0 0 455.68 455.68;" xml:space="preserve">
<g>
	<path d="M280.358,274.928c-3.124,3.124-3.124,8.189,0,11.313c3.102,3.101,8.112,3.12,11.242,0.065
		c1.355,6.315,6.963,11.052,13.683,11.052s12.328-4.736,13.683-11.052c1.553,1.516,3.567,2.278,5.585,2.278
		c2.047,0,4.095-0.781,5.656-2.343c3.125-3.124,3.125-8.189,0.001-11.314c-6.657-6.658-15.509-10.324-24.925-10.324
		C295.867,264.604,287.016,268.27,280.358,274.928z"/>
	<path d="M125.472,274.928c-3.124,3.124-3.124,8.189,0,11.313c3.102,3.101,8.112,3.12,11.242,0.065
		c1.355,6.315,6.963,11.052,13.683,11.052s12.328-4.737,13.683-11.052c1.553,1.516,3.568,2.278,5.585,2.278
		c2.048,0,4.095-0.781,5.657-2.343c3.124-3.124,3.124-8.189,0-11.313C161.577,261.183,139.215,261.185,125.472,274.928z"/>
	<path d="M392.582,214.81c0.542-14.097,0.748-46.325,0.748-49.31c0-13.753-1.697-27.116-4.874-39.9
		c22.995-9.416,38.464-31.977,38.464-57.372c0-34.187-27.813-62-62-62c-17.881,0-34.715,7.691-46.409,20.895
		C292.451,9.987,261.292,0,227.84,0c-33.452,0-64.611,9.987-90.672,27.123C125.475,13.919,108.641,6.229,90.76,6.229
		c-34.187,0-62,27.813-62,62c0,25.394,15.469,47.956,38.464,57.372c-3.176,12.784-4.874,26.147-4.874,39.9
		c0,0.381,0.378,34.01,1.256,48.993c-13.508,7.74-21.956,22.084-21.956,38.007c0,11.72,4.563,22.729,12.844,30.997
		c6.364,6.364,14.34,10.531,23.007,12.119v3.204c0,36.164,26.566,79.455,78.963,128.672c20.013,18.792,45.694,28.188,71.376,28.188
		c25.683,0,51.365-9.396,71.378-28.189c52.396-49.217,78.963-92.508,78.963-128.671v-3.224c20.37-3.772,35.85-21.655,35.85-43.096
		C414.03,236.87,405.77,222.631,392.582,214.81z M305.638,37.887c42.961,26.292,71.691,73.659,71.691,127.613
		c0,5.839-0.227,30.57-0.593,44.326l0,0c-2.896-0.593-5.718-1.527-8.369-2.835c-43.443-21.419-64.416-64.966-68.838-75.151
		C302.292,120.102,312.432,72.83,305.638,37.887z M410.92,68.229c0,9.985-3.228,19.376-8.795,27.042
		c-17.968-21.956-20.059-53.869-19.861-69.637C399.054,32.496,410.92,48.998,410.92,68.229z M364.92,22.229
		c0.462,0,0.919,0.021,1.378,0.035c-0.606,16.842,0.804,56.459,24.287,84.158c-2.13,1.434-4.395,2.693-6.775,3.763
		c-10.36-29.128-28.657-54.52-52.281-73.566C340.152,27.512,352.172,22.229,364.92,22.229z M285.909,27.741
		c11.39,24.643,4.043,73.622-1.154,96.981c-13.908,0.748-48.805,3.899-86.682,17.15c-28.426,9.944-52.576,23.547-71.78,40.43
		c-18.254,16.048-32.019,35.055-41.101,56.705c-2.008-6.453-5.621-24.662-5.776-28.104c-0.515-11.427-0.933-33.418-1.066-45.403
		C78.35,83.065,145.41,16,227.84,16C248.423,16,268.048,20.183,285.909,27.741z M44.76,68.229c0-19.121,11.73-35.55,28.369-42.481
		c0.186,15.762-1.927,47.438-19.713,69.336C47.934,87.453,44.76,78.132,44.76,68.229z M64.915,106.296
		c23.377-27.689,24.784-67.204,24.179-84.025c0.554-0.02,1.107-0.042,1.666-0.042c12.748,0,24.768,5.283,33.389,14.389
		c-23.624,19.046-41.921,44.438-52.281,73.567C69.421,109.084,67.098,107.78,64.915,106.296z M65.802,272.179
		c-5.257-5.249-8.152-12.238-8.152-19.679c0-7.976,3.336-15.329,8.953-20.49c3.787,15.15,9.048,28.386,10.897,32.84v14.328
		C73.128,277.873,69.121,275.498,65.802,272.179z M362.18,298.82c0,31.125-25.561,71.586-73.917,117.008
		c-33.883,31.816-86.965,31.817-120.846,0C119.06,370.406,93.5,329.945,93.5,298.82v-10.48v0c0-29.719,10.519-58.616,30.185-80.897
		c4.003-4.535,8.337-8.861,12.999-12.972c17.588-15.508,39.885-28.077,66.271-37.355c36.12-12.701,70.218-15.711,82.974-16.415
		c6.921,15.28,29.933,58.712,76.25,81.078V298.82z M378.18,279.164v-52.711l0,0c3.312,0.678,6.473,2.031,9.14,4.109
		c6.66,5.189,10.71,13.22,10.71,21.938C398.03,265.072,389.648,275.719,378.18,279.164z"/>
	<path d="M228.259,346.323c-0.14,0-0.28,0-0.42,0.002c-0.14-0.001-0.279-0.002-0.419-0.002c-16.896,0-33.119,9.772-40.486,24.441
		c-1.982,3.948-0.39,8.756,3.559,10.739c1.152,0.579,2.378,0.853,3.585,0.853c2.929,0,5.751-1.615,7.155-4.412
		c4.637-9.234,15.372-15.622,26.192-15.622c0.106,0,0.214,0,0.32,0.002c0.063,0.001,0.125,0.001,0.188,0
		c0.107-0.001,0.215-0.002,0.322-0.002c10.819,0,21.555,6.389,26.191,15.622c1.982,3.949,6.792,5.542,10.739,3.559
		c3.949-1.982,5.542-6.791,3.56-10.739C261.378,356.095,245.156,346.323,228.259,346.323z"/>
</g>
<g>
</g>
<g>
</g>
<g>
</g>
<g>
</g>
<g>
</g>
<g>
</g>
<g>
</g>
<g>
</g>
<g>
</g>
<g>
</g>
<g>
</g>
<g>
</g>
<g>
</g>
<g>
</g>
<g>
</g>
</svg>
