<?xml version="1.0" encoding="iso-8859-1"?>
<!-- Generator: Adobe Illustrator 18.0.0, SVG Export Plug-In . SVG Version: 6.00 Build 0)  -->
<!DOCTYPE svg PUBLIC "-//W3C//DTD SVG 1.1//EN" "http://www.w3.org/Graphics/SVG/1.1/DTD/svg11.dtd">
<svg version="1.1" id="Capa_1" xmlns="http://www.w3.org/2000/svg" xmlns:xlink="http://www.w3.org/1999/xlink" x="0px" y="0px"
	 viewBox="0 0 433.398 433.398" style="enable-background:new 0 0 433.398 433.398;" xml:space="preserve">
<g>
	<path d="M231.683,344.158c-15.107,6.435-32.631-0.623-39.064-15.729c-1.73-4.064-6.429-5.957-10.495-4.226
		c-4.065,1.731-5.957,6.43-4.226,10.495c7.407,17.391,24.373,27.841,42.18,27.841c5.973,0,12.042-1.176,17.874-3.66
		c4.065-1.731,5.957-6.43,4.226-10.495C240.446,344.318,235.748,342.427,231.683,344.158z"/>
	<path d="M406.343,256.221c0-11.043-3.964-21.393-11.219-29.545c2.932-59.998,4.509-100.099-14.466-137.038
		c-12.926-25.167-33.85-46.2-62.188-62.513C285.422,8.1,247.724-1.229,209.443,0.13c-33.635,1.2-64.945,16.909-86.49,43.256
		c-27.858,1.572-53.221,16.695-66.845,40.109c-1.169,2.01-2.3,4.077-3.361,6.142c-18.989,36.964-17.409,77.064-14.475,137.073
		c-6.972,7.865-11.217,18.198-11.217,29.509c0,23.325,18.025,42.508,40.875,44.381c9.515,30.66,34.723,65.4,75.326,103.678
		c20.592,19.413,47.019,29.119,73.445,29.119c26.427,0,52.853-9.707,73.445-29.12c40.603-38.277,65.811-73.017,75.326-103.676
		C388.32,298.727,406.343,279.545,406.343,256.221z M210.014,16.12c35.28-1.256,70.024,7.342,100.474,24.871
		c25.623,14.75,44.444,33.577,55.938,55.957c15.979,31.107,15.764,64.967,12.898,125.181l-17.87,0.985
		c-120.43,3.943-186.974-52.021-206.743-71.986L135.46,53.379C154.086,30.684,181.061,17.152,210.014,16.12z M66.979,96.948
		c0.934-1.818,1.929-3.637,2.958-5.406c10.375-17.832,29.34-29.669,50.447-31.904l18.612,94.498
		c-12.726,29.203-34.476,44.558-68.264,48.241c-4.059,0.442-7.133,3.87-7.133,7.953v2.079c-3.432,0.625-6.728,1.641-9.84,3.007
		C51.214,159.383,51.597,126.892,66.979,96.948z M43.055,256.22c0-12.962,8.688-23.926,20.544-27.395v45.143
		c0,3.219,0.219,6.497,0.632,9.827C52.052,280.538,43.055,269.412,43.055,256.22z M279.17,392.637
		c-35.028,33.023-89.908,33.024-124.938,0c-48.825-46.03-74.632-87.064-74.632-118.668l0.001-56.644
		c32.578-5.238,55.677-21.259,70.194-48.724c12.308,11.313,32.47,27.045,61.074,40.811c42.526,20.465,90.577,30.5,142.935,29.876
		v34.68C353.803,305.572,327.996,346.607,279.17,392.637z M369.171,283.795c0.413-3.33,0.632-6.608,0.632-9.827v-35.291
		l13.893-0.765c4.304,5.126,6.648,11.514,6.648,18.309C390.343,269.411,381.348,280.536,369.171,283.795z"/>
	<path d="M118.1,258.002c-3.125,3.124-3.125,8.189,0,11.313c3.124,3.124,8.189,3.124,11.313,0c5.746-5.744,15.092-5.743,20.836,0
		c1.562,1.562,3.609,2.343,5.657,2.343s4.095-0.781,5.657-2.343c3.125-3.124,3.125-8.189,0-11.313
		C149.582,246.019,130.083,246.019,118.1,258.002z"/>
	<circle cx="294.599" cy="260.329" r="15.048"/>
</g>
<g>
</g>
<g>
</g>
<g>
</g>
<g>
</g>
<g>
</g>
<g>
</g>
<g>
</g>
<g>
</g>
<g>
</g>
<g>
</g>
<g>
</g>
<g>
</g>
<g>
</g>
<g>
</g>
<g>
</g>
</svg>
