<?xml version="1.0" encoding="iso-8859-1"?>
<!-- Generator: Adobe Illustrator 18.0.0, SVG Export Plug-In . SVG Version: 6.00 Build 0)  -->
<!DOCTYPE svg PUBLIC "-//W3C//DTD SVG 1.1//EN" "http://www.w3.org/Graphics/SVG/1.1/DTD/svg11.dtd">
<svg version="1.1" id="Capa_1" xmlns="http://www.w3.org/2000/svg" xmlns:xlink="http://www.w3.org/1999/xlink" x="0px" y="0px"
	 viewBox="0 0 464.732 464.732" style="enable-background:new 0 0 464.732 464.732;" xml:space="preserve">
<g>
	<path d="M185.139,203.746c-3.124-3.124-8.188-3.124-11.314,0l-11.956,11.956l-11.956-11.956c-3.125-3.124-8.189-3.124-11.314,0
		c-3.124,3.124-3.124,8.189,0,11.313l11.957,11.956l-11.957,11.957c-3.124,3.124-3.124,8.189,0,11.313
		c1.563,1.563,3.609,2.343,5.657,2.343c2.047,0,4.095-0.781,5.657-2.343l11.956-11.956l11.956,11.956
		c1.563,1.562,3.609,2.343,5.657,2.343s4.095-0.781,5.657-2.343c3.124-3.124,3.124-8.189,0-11.313l-11.957-11.957l11.957-11.956
		C188.263,211.936,188.263,206.87,185.139,203.746z"/>
	<path d="M326.131,203.746c-3.125-3.124-8.189-3.124-11.314,0l-11.956,11.956l-11.956-11.956c-3.123-3.124-8.188-3.124-11.314,0
		c-3.124,3.124-3.124,8.189,0,11.313l11.956,11.956l-11.956,11.957c-3.124,3.124-3.124,8.189,0,11.313
		c1.563,1.562,3.609,2.343,5.657,2.343s4.095-0.781,5.657-2.343l11.956-11.956l11.956,11.956c1.563,1.563,3.609,2.343,5.657,2.343
		c2.047,0,4.095-0.781,5.657-2.343c3.124-3.124,3.124-8.189,0-11.313l-11.956-11.957l11.956-11.956
		C329.255,211.936,329.255,206.87,326.131,203.746z"/>
	<path d="M232.364,292.127c-21.002,0-38.089,20.747-38.089,46.248s17.087,46.248,38.089,46.248s38.089-20.747,38.089-46.248
		S253.366,292.127,232.364,292.127z M232.364,308.127c7.505,0,14.144,5.156,18.137,13.013c-5.448-1.717-11.618-2.67-18.139-2.67
		c-6.52,0-12.687,0.953-18.135,2.668C218.222,313.283,224.86,308.127,232.364,308.127z M232.364,368.623
		c-11.522,0-21.007-12.146-21.998-27.578c3.111-3.067,10.944-6.575,21.996-6.575c11.057,0,18.893,3.512,22,6.579
		C253.37,356.479,243.885,368.623,232.364,368.623z"/>
	<path d="M418.548,231.04c0-21.516-15.583-39.449-36.053-43.139c-0.799-25.161-4.193-56.219-14.449-81.053
		c-4.364-10.566-1.951-22.746,6.146-31.029l27.848-28.488c2.129-2.178,2.837-5.377,1.825-8.25c-1.012-2.873-3.568-4.922-6.592-5.285
		c-2.258-0.271-46.536-5.331-85.554,8.533c4.797-7.272,10.846-15.395,17.931-22.796c2.216-2.314,2.837-5.728,1.578-8.674
		c-1.258-2.946-4.153-4.858-7.357-4.858c-37.9,0-74.039,16.88-96.126,29.783c4.297-6.938,10.528-14.579,19.496-21.423
		c2.963-2.261,3.972-6.269,2.433-9.663c-1.54-3.395-5.22-5.277-8.871-4.538c-33.039,6.679-65.651,20.116-73.792,24.254
		c-25.394,12.91-46.753,32.574-61.77,56.866c-15.184,24.563-23.209,52.824-23.209,81.728v24.93
		c-20.369,3.772-35.848,21.658-35.848,43.103s15.479,39.331,35.848,43.103l0,32.542c-0.205,14.839,4.608,29.521,13.557,41.346
		l59.054,78.045c18.315,24.205,47.371,38.655,77.723,38.655s59.407-14.45,77.722-38.655l59.055-78.045
		c8.773-11.594,13.461-25.418,13.557-40.05c0.003-0.431,0-33.839,0-33.839C403.069,270.371,418.548,252.485,418.548,231.04z
		 M62.183,231.04c0-12.575,8.38-23.225,19.848-26.67l0,53.341C70.564,254.265,62.183,243.616,62.183,231.04z M366.7,307.947
		c-0.073,11.085-3.64,21.607-10.315,30.43l-59.055,78.045c-15.309,20.231-39.594,32.309-64.964,32.309
		c-25.37,0-49.655-12.078-64.964-32.309l-59.054-78.045c-6.819-9.013-10.483-20.206-10.316-31.517c0-0.04,0.001-0.079,0.001-0.118
		l-0.001-143.734c0-25.929,7.199-51.281,20.819-73.314c13.473-21.796,32.634-39.438,55.411-51.017
		c5.171-2.629,22.354-9.814,42.942-16.017c-11.827,16.746-14.226,31.773-14.358,32.657c-0.483,3.229,1.044,6.427,3.859,8.081
		c2.815,1.654,6.353,1.431,8.938-0.562c0.47-0.362,42.244-32.189,89.797-39.396c-13.022,17.305-20.449,33.37-20.843,34.232
		c-1.492,3.259-0.633,7.113,2.102,9.431c2.735,2.318,6.678,2.533,9.648,0.528c24.917-16.819,60.883-19.158,81.922-18.871
		l-15.518,15.874c-12.577,12.866-16.304,31.833-9.493,48.322c6.132,14.849,13.442,42.16,13.442,87.951h0
		C366.701,200.907,366.703,307.534,366.7,307.947z M382.7,257.711l0.001-53.341c11.467,3.446,19.847,14.096,19.847,26.67
		S394.168,254.265,382.7,257.711z"/>
	<path d="M337.507,119.961c-0.697-0.459-1.375-0.881-2.028-1.262c-14.547-8.477-31.124-12.958-47.938-12.958h-110.35
		c-15.979,0-31.824,4.066-45.823,11.758c-17.726,9.741-28.737,28.391-28.737,48.673l0.001,75.725
		c0,14.668,5.336,29.364,15.082,41.452l0.997,1.261c13.531,17.115,37.946,21.74,56.79,10.756
		c17.247-10.052,36.91-15.365,56.865-15.365s39.618,5.313,56.865,15.366c6.881,4.011,14.505,5.94,22.071,5.94
		c13.153,0,26.129-5.832,34.718-16.697l1.053-1.332c9.69-12.016,15.026-26.712,15.026-41.381l0.001-75.798
		C362.101,147.342,352.907,130.094,337.507,119.961z M346.099,241.897c0,11.027-4.078,22.156-11.526,31.393l-1.105,1.397
		c-8.621,10.906-24.175,13.854-36.181,6.856c-19.689-11.477-42.139-17.542-64.922-17.542c-22.782,0-45.231,6.066-64.921,17.542
		c-12.005,6.998-27.561,4.05-36.182-6.856l-1.149-1.452c-7.404-9.182-11.481-20.311-11.481-31.338l-0.001-75.725
		c0-14.445,7.833-27.722,20.442-34.651c11.645-6.398,24.825-9.781,38.118-9.781h110.35c13.987,0,27.778,3.729,39.878,10.78
		c0.415,0.242,0.847,0.513,1.292,0.806c10.889,7.165,17.389,19.416,17.389,32.771L346.099,241.897z"/>
</g>
<g>
</g>
<g>
</g>
<g>
</g>
<g>
</g>
<g>
</g>
<g>
</g>
<g>
</g>
<g>
</g>
<g>
</g>
<g>
</g>
<g>
</g>
<g>
</g>
<g>
</g>
<g>
</g>
<g>
</g>
</svg>
