<?xml version="1.0" encoding="iso-8859-1"?>
<!-- Generator: Adobe Illustrator 19.0.0, SVG Export Plug-In . SVG Version: 6.00 Build 0)  -->
<svg version="1.1" id="Layer_1" xmlns="http://www.w3.org/2000/svg" xmlns:xlink="http://www.w3.org/1999/xlink" x="0px" y="0px"
	 viewBox="0 0 512 512" style="enable-background:new 0 0 512 512;" xml:space="preserve">
<g>
	<g>
		<path  fill="#FFFFFF" d="M255.999,152.46c-72.513,0-131.508,58.995-131.508,131.509s58.995,131.508,131.508,131.508
			s131.508-58.994,131.508-131.508S328.514,152.46,255.999,152.46z M255.999,394.538c-60.968,0-110.57-49.601-110.57-110.57
			c0-60.969,49.601-110.571,110.57-110.571c60.969,0,110.57,49.602,110.57,110.571C366.569,344.937,316.968,394.538,255.999,394.538
			z"/>
	</g>
</g>
<g>
	<g>
		<path  fill="#FFFFFF" d="M255.999,201.914c-45.245,0-82.055,36.809-82.055,82.055c0,45.245,36.81,82.053,82.055,82.053
			s82.055-36.809,82.055-82.053S301.244,201.914,255.999,201.914z M255.999,346.186c-34.307,0-62.218-27.91-62.218-62.217
			c0-34.307,27.911-62.218,62.218-62.218s62.218,27.911,62.218,62.218C318.218,318.276,290.307,346.186,255.999,346.186z"/>
	</g>
</g>
<g>
	<g>
		<path  fill="#FFFFFF" d="M478.939,114.334H344.133l-13.768-37.5c-4.049-11.029-14.662-18.438-26.411-18.438h-95.908
			c-11.749,0-22.362,7.41-26.411,18.438l-13.769,37.499H122.06V99.637c0-11.849-9.639-21.49-21.49-21.49h-31.72
			c-11.849,0-21.49,9.641-21.49,21.49v14.697H33.061C14.831,114.334,0,129.165,0,147.395v273.148
			c0,18.23,14.831,33.061,33.061,33.061h445.878c18.23,0,33.061-14.831,33.061-33.061V147.395
			C512,129.165,497.169,114.334,478.939,114.334z M202.324,84.431c0.877-2.389,3.176-3.994,5.721-3.994h95.908
			c2.545,0,4.844,1.605,5.721,3.994l10.979,29.903H191.345L202.324,84.431z M68.3,99.637c0-0.303,0.247-0.551,0.551-0.551h31.72
			c0.304,0,0.551,0.248,0.551,0.551v14.697H68.3V99.637z M22.041,197.733h32.643v172.47H22.041V197.733z M489.958,420.543
			c0.001,6.077-4.943,11.02-11.019,11.02H33.061c-6.077,0-11.02-4.944-11.02-11.02v-28.299h43.663c6.086,0,11.02-4.935,11.02-11.02
			V186.713c0-6.085-4.934-11.02-11.02-11.02H22.041v-28.299c0-6.077,4.944-11.02,11.02-11.02h303.296
			c0.029,0,0.056,0.003,0.084,0.003c0.024,0,0.05-0.003,0.074-0.003h142.424c6.077,0,11.02,4.944,11.02,11.02v28.299h-43.663
			c-6.087,0-11.02,4.935-11.02,11.02v194.511c0,6.085,4.934,11.02,11.02,11.02h43.663V420.543z M489.959,370.203h-32.643v-172.47
			h32.643V370.203z"/>
	</g>
</g>
<g>
	<g>
		<path  fill="#FFFFFF" d="M255.999,243.425c-22.356,0-40.544,18.188-40.544,40.544c0,5.478,4.44,9.918,9.918,9.918s9.918-4.44,9.918-9.918
			c0-11.418,9.289-20.707,20.707-20.707c5.478,0,9.918-4.44,9.918-9.918S261.478,243.425,255.999,243.425z"/>
	</g>
</g>
</svg>
