<?xml version="1.0" encoding="utf-8"?>
<!-- Generator: Adobe Illustrator 15.0.0, SVG Export Plug-In . SVG Version: 6.00 Build 0)  -->
<!DOCTYPE svg PUBLIC "-//W3C//DTD SVG 1.1//EN" "http://www.w3.org/Graphics/SVG/1.1/DTD/svg11.dtd">
<svg version="1.1" id="Layer_1" xmlns="http://www.w3.org/2000/svg" xmlns:xlink="http://www.w3.org/1999/xlink" x="0px" y="0px"
   width="719.996px" height="719.997px" viewBox="0 0 719.996 719.997" enable-background="new 0 0 719.996 719.997"
   xml:space="preserve">
<path fill="#FFFFFF" d="M221.271,221.273c-6.76,6.759-6.76,17.718,0,24.477l252.195,252.196c6.76,6.76,17.719,6.76,24.479,0s6.76-17.719,0-24.479
  L245.748,221.273C238.989,214.514,228.03,214.514,221.271,221.273z"/>
<path fill="#FFFFFF" d="M496.604,219.934c-6.761-6.76-17.72-6.76-24.479,0L219.932,472.129c-6.76,6.76-6.76,17.719,0,24.479
  c6.759,6.76,17.718,6.76,24.478,0l252.196-252.196C503.362,237.652,503.362,226.693,496.604,219.934z"/>
</svg>
