<?xml version="1.0" encoding="utf-8"?>
<!-- Generator: Adobe Illustrator 15.0.0, SVG Export Plug-In . SVG Version: 6.00 Build 0)  -->
<!DOCTYPE svg PUBLIC "-//W3C//DTD SVG 1.1//EN" "http://www.w3.org/Graphics/SVG/1.1/DTD/svg11.dtd">
<svg version="1.1" id="Layer_1" xmlns="http://www.w3.org/2000/svg" xmlns:xlink="http://www.w3.org/1999/xlink" x="0px" y="0px"
	 width="720px" height="719.997px" viewBox="0 0 720 719.997" enable-background="new 0 0 720 719.997" xml:space="preserve">
<g>
	<g>
		<g>
			<path d="M618.26,246.987c25.946-26.001,25.946-68.165,0-94.166l-47.055-47.111c-26.003-26.002-68.165-26.002-94.167,0
				l-28.477,29.41L589.84,276.342L618.26,246.987z"/>
			<path d="M234.448,564.174c-20.34,0-50.08,2.639-64.482-11.765c-14.402-14.459-11.709-44.142-11.709-64.481
				c0-3.738-24.407-37.216-25.177-38.151L98.999,623.434l173.161-34.027C271.335,588.636,238.461,564.174,234.448,564.174z"/>
			<path d="M418.768,161.397l-0.495,0.495l-0.274-0.275L162.49,417.346l148.699,148.257L567.411,311.14l-0.714-0.715l0.714-0.714
				L418.768,161.397z M206.028,420.313L421.792,204.88l27.54,27.431L233.514,447.69L206.028,420.313z M308.496,522.451
				L280.68,494.69l215.873-215.379l27.816,27.761L308.496,522.451z"/>
		</g>
	</g>
</g>
</svg>
