<?xml version="1.0" encoding="utf-8"?>
<!-- Generator: Adobe Illustrator 15.0.0, SVG Export Plug-In . SVG Version: 6.00 Build 0)  -->
<!DOCTYPE svg PUBLIC "-//W3C//DTD SVG 1.1//EN" "http://www.w3.org/Graphics/SVG/1.1/DTD/svg11.dtd">
<svg version="1.1" id="Calque_1" xmlns="http://www.w3.org/2000/svg" xmlns:xlink="http://www.w3.org/1999/xlink" x="0px" y="0px"
	 width="1280px" height="720px" viewBox="0 0 1280 720" enable-background="new 0 0 1280 720" xml:space="preserve">
<g id="Layer_1">
</g>
<g id="Mode_Isolation">
</g>
<g id="Calque_1_1_">
	<polygon points="695.597,449.731 695.597,585.132 785.864,585.132 650.463,720.533 515.062,585.132 605.329,585.132 
		605.329,449.731 	"/>
	<polygon points="560.195,404.597 424.794,404.597 424.794,494.864 289.393,359.463 424.794,224.062 424.794,314.329 
		560.195,314.329 	"/>
	<polygon points="605.329,269.195 605.329,133.794 515.062,133.794 650.463,-1.607 785.864,133.794 695.597,133.794 
		695.597,269.195 	"/>
	<polygon points="740.73,314.329 876.132,314.329 876.132,224.062 1011.533,359.463 876.132,494.864 876.132,404.597 
		740.73,404.597 	"/>
</g>
</svg>
