<?xml version="1.0" encoding="utf-8"?>
<!-- Generator: Adobe Illustrator 15.0.0, SVG Export Plug-In . SVG Version: 6.00 Build 0)  -->
<!DOCTYPE svg PUBLIC "-//W3C//DTD SVG 1.1//EN" "http://www.w3.org/Graphics/SVG/1.1/DTD/svg11.dtd">
<svg version="1.1" id="Calque_1" xmlns="http://www.w3.org/2000/svg" xmlns:xlink="http://www.w3.org/1999/xlink" x="0px" y="0px"
	 width="1280px" height="800px" viewBox="0 -40 1280 800" enable-background="new 0 -40 1280 800" xml:space="preserve">
<g id="Layer_1">
</g>
<g id="Mode_Isolation">
</g>
<g id="Calque_1_1_">
	<polygon fill="#FFFFFF" points="699.909,458.356 699.909,606.694 798.802,606.694 650.463,755.033 502.125,606.694 
		601.017,606.694 601.017,458.356 	"/>
	<polygon fill="#FFFFFF" points="551.57,408.909 403.231,408.909 403.231,507.802 254.893,359.463 403.231,211.125 403.231,310.017 
		551.57,310.017 	"/>
	<polygon fill="#FFFFFF" points="601.017,260.57 601.017,112.231 502.125,112.231 650.463,-36.107 798.802,112.231 699.909,112.231 
		699.909,260.57 	"/>
	<polygon fill="#FFFFFF" points="749.355,310.017 897.694,310.017 897.694,211.125 1046.033,359.463 897.694,507.802 
		897.694,408.909 749.355,408.909 	"/>
</g>
</svg>
