<?xml version="1.0" encoding="utf-8"?>
<!-- Generator: Adobe Illustrator 15.0.0, SVG Export Plug-In . SVG Version: 6.00 Build 0)  -->
<!DOCTYPE svg PUBLIC "-//W3C//DTD SVG 1.1//EN" "http://www.w3.org/Graphics/SVG/1.1/DTD/svg11.dtd">
<svg version="1.1" id="Calque_1" xmlns="http://www.w3.org/2000/svg" xmlns:xlink="http://www.w3.org/1999/xlink" x="0px" y="0px"
	 width="1280px" height="800px" viewBox="0 -40 1280 800" enable-background="new 0 -40 1280 800" xml:space="preserve">
<g id="Layer_1">
</g>
<g id="Mode_Isolation">
</g>
<g id="Calque_1_1_">
	<polygon points="700.659,459.856 700.659,610.444 801.052,610.444 650.463,761.033 499.875,610.444 600.267,610.444 
		600.267,459.856 	"/>
	<polygon points="550.07,409.659 399.481,409.659 399.481,510.052 248.893,359.463 399.481,208.875 399.481,309.267 550.07,309.267 
			"/>
	<polygon points="600.267,259.07 600.267,108.481 499.875,108.481 650.463,-42.107 801.052,108.481 700.659,108.481 700.659,259.07 
			"/>
	<polygon points="750.855,309.267 901.444,309.267 901.444,208.875 1052.033,359.463 901.444,510.052 901.444,409.659 
		750.855,409.659 	"/>
</g>
</svg>
