<?xml version="1.0" encoding="utf-8"?>
<!-- Generator: Adobe Illustrator 15.0.0, SVG Export Plug-In . SVG Version: 6.00 Build 0)  -->
<!DOCTYPE svg PUBLIC "-//W3C//DTD SVG 1.1//EN" "http://www.w3.org/Graphics/SVG/1.1/DTD/svg11.dtd">
<svg version="1.1" id="Layer_1" xmlns="http://www.w3.org/2000/svg" xmlns:xlink="http://www.w3.org/1999/xlink" x="0px" y="0px"
   width="720.001px" height="719.997px" viewBox="280 0.002 720.001 719.997" enable-background="new 280 0.002 720.001 719.997"
   xml:space="preserve">
<g>
  <path fill="#000333" d="M639,166.911c90.196,0,166.534,41.115,214.694,75.611c57.06,40.869,86.422,80.4,94.035,95.478
    c-7.621,15.076-36.975,54.609-94.035,95.478c-48.16,34.496-124.498,75.61-214.694,75.61c-90.196,0-166.534-41.114-214.695-75.61
    c-57.069-40.869-86.421-80.402-94.046-95.478c7.625-15.078,36.977-54.609,94.035-95.478
    C472.466,208.026,548.803,166.911,639,166.911 M639,124.139c-194.881,0-352.871,171.089-352.871,213.862
    S444.119,551.861,639,551.861c194.881,0,352.872-171.089,352.872-213.861S833.881,124.139,639,124.139L639,124.139z M639,209.684
    c-70.863,0-128.316,57.454-128.316,128.316c0,70.862,57.454,128.316,128.316,128.316S767.315,408.862,767.315,338
    C767.315,267.138,709.862,209.684,639,209.684z M604.45,338c-29.983,0-54.289-24.306-54.289-54.29
    c0-29.983,24.306-54.288,54.289-54.288s54.288,24.306,54.288,54.288C658.738,313.695,634.434,338,604.45,338z"/>
</g>
</svg>
