<?xml version="1.0" encoding="utf-8"?>
<!-- Generator: Adobe Illustrator 15.0.0, SVG Export Plug-In . SVG Version: 6.00 Build 0)  -->
<!DOCTYPE svg PUBLIC "-//W3C//DTD SVG 1.1//EN" "http://www.w3.org/Graphics/SVG/1.1/DTD/svg11.dtd">
<svg version="1.1" id="Calque_1" xmlns="http://www.w3.org/2000/svg" xmlns:xlink="http://www.w3.org/1999/xlink" x="0px" y="0px"
	 width="1280px" height="800px" viewBox="0 -40 1280 800" enable-background="new 0 -40 1280 800" xml:space="preserve">
<g id="Layer_1">
</g>
<g id="Mode_Isolation">
</g>
<g>
	<g>
		<path fill="#FFFFFF" d="M637,631.99c12.436,0,22.524-10.136,22.524-22.524V339.155c0-12.435-10.089-22.528-22.524-22.528
			s-22.525,10.091-22.525,22.528v270.311C614.475,621.854,624.564,631.99,637,631.99z M772.154,631.99
			c12.391,0,22.525-10.136,22.525-22.524V339.155c0-12.435-10.133-22.528-22.525-22.528c-12.392,0-22.525,10.091-22.525,22.528
			v270.311C749.629,621.854,759.765,631.99,772.154,631.99z M929.836,46.32H749.629V1.268c0-24.87-20.138-45.052-45.053-45.052
			H569.422c-24.914,0-45.052,20.182-45.052,45.052V46.32H344.164c-24.913,0-45.05,20.183-45.05,45.051v135.155h45.05v450.516
			c0,49.781,40.368,90.104,90.104,90.104h405.464c49.736,0,90.104-40.322,90.104-90.104V226.526h45.051V91.371
			C974.887,66.503,954.75,46.32,929.836,46.32z M569.422,23.794c0-12.435,10.09-22.526,22.524-22.526h90.105
			c12.389,0,22.526,10.091,22.526,22.526V46.32H569.422V23.794z M884.783,677.042c0,24.913-20.139,45.05-45.051,45.05H434.268
			c-24.914,0-45.053-20.137-45.053-45.05V226.526h495.571L884.783,677.042L884.783,677.042z M929.836,181.475H344.164v-67.578
			c0-12.435,10.093-22.526,22.527-22.526h540.62c12.389,0,22.526,10.091,22.526,22.526L929.836,181.475L929.836,181.475z
			 M501.844,631.99c12.435,0,22.527-10.136,22.527-22.524V339.155c0-12.435-10.091-22.528-22.527-22.528
			s-22.525,10.091-22.525,22.528v270.311C479.319,621.854,489.409,631.99,501.844,631.99z"/>
	</g>
</g>
</svg>
