<?xml version="1.0" encoding="utf-8"?>
<!-- Generator: Adobe Illustrator 15.0.0, SVG Export Plug-In . SVG Version: 6.00 Build 0)  -->
<!DOCTYPE svg PUBLIC "-//W3C//DTD SVG 1.1//EN" "http://www.w3.org/Graphics/SVG/1.1/DTD/svg11.dtd">
<svg version="1.1" id="Calque_1" xmlns="http://www.w3.org/2000/svg" xmlns:xlink="http://www.w3.org/1999/xlink" x="0px" y="0px"
	 width="1280px" height="800px" viewBox="0 -40 1280 800" enable-background="new 0 -40 1280 800" xml:space="preserve">
<g id="Layer_1">
</g>
<g id="Mode_Isolation">
</g>
<g>
	<g>
		<path d="M666.484,621.988c12.251,0,22.19-9.985,22.19-22.19v-266.31c0-12.251-9.939-22.193-22.19-22.193
			c-12.252,0-22.193,9.942-22.193,22.193v266.31C644.291,612.003,654.232,621.988,666.484,621.988z M799.638,621.988
			c12.207,0,22.192-9.985,22.192-22.19v-266.31c0-12.251-9.984-22.193-22.192-22.193c-12.207,0-22.192,9.942-22.192,22.193v266.31
			C777.445,612.003,787.432,621.988,799.638,621.988z M954.986,44.986H777.445V0.601c0-24.501-19.839-44.385-44.385-44.385H599.906
			c-24.545,0-44.386,19.884-44.386,44.385v44.385h-177.54c-24.544,0-44.384,19.884-44.384,44.384v133.156h44.384v443.849
			c0,49.044,39.771,88.77,88.771,88.77h399.464c49.001,0,88.771-39.726,88.771-88.77V222.526h44.384V89.37
			C999.37,64.87,979.53,44.986,954.986,44.986z M599.906,22.794c0-12.251,9.941-22.193,22.191-22.193h88.771
			c12.205,0,22.192,9.942,22.192,22.193v22.192H599.906V22.794z M910.601,666.375c0,24.544-19.841,44.383-44.385,44.383H466.751
			c-24.544,0-44.385-19.839-44.385-44.383V222.526h488.235L910.601,666.375L910.601,666.375z M954.986,178.141H377.981v-66.578
			c0-12.25,9.943-22.193,22.194-22.193h532.619c12.206,0,22.193,9.942,22.193,22.193L954.986,178.141L954.986,178.141z
			 M533.328,621.988c12.251,0,22.193-9.985,22.193-22.19v-266.31c0-12.251-9.942-22.193-22.193-22.193
			c-12.251,0-22.192,9.942-22.192,22.193v266.31C511.136,612.003,521.077,621.988,533.328,621.988z"/>
	</g>
</g>
</svg>
