<?xml version="1.0" encoding="utf-8"?>
<!-- Generator: Adobe Illustrator 15.0.0, SVG Export Plug-In . SVG Version: 6.00 Build 0)  -->
<!DOCTYPE svg PUBLIC "-//W3C//DTD SVG 1.1//EN" "http://www.w3.org/Graphics/SVG/1.1/DTD/svg11.dtd">
<svg version="1.1" id="Calque_1" xmlns="http://www.w3.org/2000/svg" xmlns:xlink="http://www.w3.org/1999/xlink" x="0px" y="0px"
	 width="1280px" height="720px" viewBox="0 0 1280 720" enable-background="new 0 0 1280 720" xml:space="preserve">
<g id="Layer_1">
</g>
<g id="Mode_Isolation">
</g>
<g>
	<g>
		<path d="M669.667,598.166c10.979,0,19.888-8.949,19.888-19.888V339.611c0-10.979-8.909-19.889-19.888-19.889
			c-10.979,0-19.889,8.91-19.889,19.889v238.667C649.778,589.217,658.688,598.166,669.667,598.166z M789,598.166
			c10.939,0,19.889-8.949,19.889-19.888V339.611c0-10.979-8.949-19.889-19.889-19.889s-19.889,8.91-19.889,19.889v238.667
			C769.111,589.217,778.061,598.166,789,598.166z M928.223,81.056H769.111V41.278c0-21.958-17.78-39.778-39.778-39.778H610
			c-21.997,0-39.778,17.82-39.778,39.778v39.778H411.111c-21.997,0-39.777,17.82-39.777,39.777v119.334h39.777v397.777
			c0,43.954,35.642,79.556,79.556,79.556h358c43.914,0,79.556-35.602,79.556-79.556V240.167H968V120.833
			C968,98.876,950.22,81.056,928.223,81.056z M610,61.167c0-10.979,8.909-19.889,19.888-19.889h79.556
			c10.939,0,19.889,8.91,19.889,19.889v19.889H610V61.167z M888.444,637.944c0,21.997-17.781,39.777-39.777,39.777h-358
			c-21.997,0-39.778-17.78-39.778-39.777V240.167h437.556V637.944z M928.223,200.389H411.111v-59.667
			c0-10.979,8.911-19.889,19.89-19.889h477.333c10.939,0,19.89,8.91,19.89,19.889V200.389z M550.333,598.166
			c10.979,0,19.89-8.949,19.89-19.888V339.611c0-10.979-8.911-19.889-19.89-19.889s-19.889,8.91-19.889,19.889v238.667
			C530.444,589.217,539.354,598.166,550.333,598.166z"/>
	</g>
</g>
</svg>
