<?xml version="1.0" encoding="utf-8"?>
<!-- Generator: Adobe Illustrator 15.0.0, SVG Export Plug-In . SVG Version: 6.00 Build 0)  -->
<!DOCTYPE svg PUBLIC "-//W3C//DTD SVG 1.1//EN" "http://www.w3.org/Graphics/SVG/1.1/DTD/svg11.dtd">
<svg version="1.1" id="Layer_1" xmlns="http://www.w3.org/2000/svg" xmlns:xlink="http://www.w3.org/1999/xlink" x="0px" y="0px"
	 width="1280px" height="800px" viewBox="0 0 1280 800" enable-background="new 0 0 1280 800" xml:space="preserve">
<g>
	<g>
		<path fill="#FFFFFF" d="M1004.338,322.744c-15.046-2.253-30.491-4.414-45.905-6.423c-1.867-0.242-3.383-1.51-3.854-3.226
			c-7.114-25.817-17.438-50.729-30.682-74.045c-0.891-1.565-0.724-3.541,0.427-5.036c9.479-12.32,18.877-24.775,27.932-37.016
			c12.225-16.528,10.45-39.981-4.125-54.558l-50.572-50.572c-14.577-14.575-38.028-16.35-54.56-4.122
			c-12.214,9.034-24.667,18.431-37.014,27.93c-1.491,1.15-3.471,1.317-5.036,0.428c-23.314-13.244-48.227-23.567-74.046-30.683
			c-1.717-0.47-2.984-1.986-3.228-3.857c-2.015-15.438-4.174-30.881-6.421-45.9C714.212,15.331,696.374,0,675.76,0h-71.52
			c-20.616,0-38.454,15.331-41.491,35.663c-2.248,15.022-4.408,30.464-6.422,45.905c-0.245,1.87-1.511,3.383-3.229,3.854
			c-25.819,7.119-50.733,17.441-74.043,30.683c-1.566,0.889-3.545,0.717-5.039-0.428c-12.345-9.499-24.8-18.896-37.016-27.931
			c-16.532-12.227-39.984-10.449-54.558,4.125l-50.572,50.572c-14.577,14.578-16.35,38.033-4.122,54.56
			c9.069,12.259,18.466,24.711,27.93,37.013c1.148,1.492,1.317,3.469,0.428,5.036c-13.247,23.321-23.569,48.233-30.683,74.045
			c-0.471,1.714-1.986,2.981-3.855,3.227c-15.406,2.011-30.85,4.171-45.903,6.424C255.331,325.785,240,343.626,240,364.238v71.521
			c0,20.614,15.331,38.454,35.663,41.494c15.053,2.253,30.499,4.413,45.905,6.422c1.87,0.245,3.383,1.511,3.854,3.229
			c7.114,25.813,17.438,50.727,30.683,74.045c0.889,1.567,0.72,3.544-0.428,5.036c-9.487,12.331-18.884,24.784-27.93,37.015
			c-12.227,16.527-10.455,39.982,4.122,54.559l50.572,50.572c14.578,14.577,38.033,16.352,54.559,4.122
			c12.215-9.034,24.668-18.432,37.015-27.93c1.492-1.15,3.47-1.315,5.036-0.428c23.312,13.243,48.224,23.563,74.045,30.683
			c1.718,0.472,2.984,1.985,3.229,3.854c2.014,15.438,4.175,30.883,6.422,45.9c3.041,20.333,20.878,35.664,41.494,35.664h71.52
			c20.614,0,38.454-15.331,41.493-35.667c2.248-15.036,4.407-30.48,6.42-45.9c0.245-1.87,1.511-3.385,3.229-3.857
			c25.818-7.119,50.732-17.441,74.044-30.684c1.566-0.886,3.543-0.717,5.037,0.429c12.346,9.498,24.8,18.895,37.014,27.93
			c16.528,12.227,39.981,10.454,54.56-4.122l50.572-50.572c14.575-14.576,16.351-38.029,4.124-54.56
			c-9.055-12.235-18.453-24.69-27.932-37.014c-1.148-1.492-1.317-3.469-0.427-5.036c13.245-23.318,23.567-48.231,30.682-74.044
			c0.475-1.719,1.987-2.984,3.857-3.229c15.411-2.01,30.856-4.171,45.903-6.422c20.333-3.039,35.664-20.878,35.664-41.492v-71.522
			C1040,343.624,1024.669,325.783,1004.338,322.744z M1002.644,435.764c0,2.266-1.646,4.219-3.833,4.548
			c-14.815,2.218-30.024,4.343-45.206,6.325c-16.81,2.19-30.562,14.101-35.041,30.344c-6.295,22.841-15.43,44.887-27.148,65.52
			c-8.333,14.67-7.037,32.831,3.3,46.269c9.338,12.138,18.593,24.401,27.507,36.451c1.315,1.777,1.097,4.327-0.505,5.929
			l-50.573,50.571c-1.604,1.604-4.151,1.817-5.927,0.507c-12.026-8.898-24.294-18.153-36.453-27.508
			c-13.436-10.339-31.596-11.635-46.264-3.304c-20.633,11.719-42.679,20.855-65.522,27.152c-16.241,4.477-28.15,18.229-30.346,35.04
			c-1.979,15.191-4.107,30.4-6.323,45.207c-0.326,2.186-2.283,3.832-4.549,3.832h-71.52c-2.266,0-4.223-1.646-4.549-3.834
			c-2.211-14.789-4.341-29.998-6.323-45.203c-2.192-16.811-14.104-30.564-30.346-35.041c-22.846-6.297-44.891-15.433-65.521-27.153
			c-6.434-3.651-13.538-5.454-20.619-5.454c-9.069,0-18.102,2.953-25.644,8.761c-12.161,9.354-24.427,18.609-36.454,27.508
			c-1.778,1.312-4.323,1.097-5.925-0.506l-50.574-50.572c-1.603-1.604-1.822-4.15-0.506-5.927
			c8.908-12.042,18.161-24.307,27.506-36.453c10.336-13.438,11.633-31.596,3.303-46.264c-11.724-20.64-20.856-42.684-27.152-65.522
			c-4.477-16.24-18.229-28.151-35.039-30.344c-15.175-1.979-30.386-4.109-45.209-6.325c-2.186-0.328-3.833-2.282-3.833-4.548
			v-71.522c0-2.266,1.647-4.221,3.833-4.549c14.824-2.217,30.033-4.345,45.207-6.324c16.811-2.191,30.564-14.102,35.041-30.344
			c6.292-22.838,15.428-44.883,27.152-65.522c8.331-14.67,7.034-32.83-3.302-46.264c-9.32-12.119-18.575-24.381-27.506-36.453
			c-1.312-1.777-1.095-4.327,0.506-5.927l50.57-50.573c1.6-1.604,4.148-1.817,5.925-0.506c12.027,8.897,24.292,18.151,36.453,27.508
			c13.438,10.334,31.596,11.633,46.268,3.3c20.63-11.719,42.675-20.854,65.52-27.151c16.242-4.477,28.154-18.23,30.347-35.041
			c1.984-15.205,4.11-30.414,6.325-45.208c0.326-2.183,2.282-3.832,4.548-3.832h71.521c2.266,0,4.222,1.647,4.549,3.833
			c2.214,14.789,4.34,29.997,6.324,45.206c2.192,16.811,14.105,30.564,30.346,35.041c22.844,6.297,44.888,15.433,65.522,27.151
			c14.669,8.328,32.828,7.035,46.263-3.303c12.16-9.355,24.426-18.609,36.451-27.506c1.776-1.316,4.326-1.099,5.928,0.506
			l50.572,50.572c1.604,1.603,1.819,4.151,0.507,5.926c-8.914,12.053-18.169,24.316-27.507,36.454
			c-10.336,13.439-11.633,31.598-3.3,46.269c11.72,20.633,20.854,42.677,27.151,65.521c4.477,16.24,18.233,28.149,35.038,30.34
			c15.181,1.981,30.392,4.109,45.209,6.325c2.187,0.328,3.833,2.283,3.833,4.549v71.521H1002.644z"/>
	</g>
</g>
<g>
	<g>
		<path fill="#FFFFFF" d="M640.001,226.354c-95.75,0-173.647,77.897-173.647,173.647s77.897,173.647,173.647,173.647
			s173.647-77.897,173.647-173.647S735.751,226.354,640.001,226.354z M640.001,536.29c-75.151,0-136.29-61.139-136.29-136.289
			c0-75.152,61.142-136.29,136.29-136.29c75.15,0,136.289,61.139,136.289,136.29S715.152,536.29,640.001,536.29z"/>
	</g>
</g>
</svg>
