<?xml version="1.0" encoding="utf-8"?>
<!-- Generator: Adobe Illustrator 15.0.0, SVG Export Plug-In . SVG Version: 6.00 Build 0)  -->
<!DOCTYPE svg PUBLIC "-//W3C//DTD SVG 1.1//EN" "http://www.w3.org/Graphics/SVG/1.1/DTD/svg11.dtd">
<svg version="1.1" id="Layer_1" xmlns="http://www.w3.org/2000/svg" xmlns:xlink="http://www.w3.org/1999/xlink" x="0px" y="0px"
	 width="1280px" height="800px" viewBox="0 -40 1280 800" enable-background="new 0 -40 1280 800" xml:space="preserve">
<g>
	<g>
		<path fill="#FFFFFF" d="M1006.614,282.262c-15.139-2.268-30.681-4.442-46.19-6.463c-1.879-0.244-3.404-1.519-3.88-3.246
			c-7.158-25.979-17.547-51.047-30.873-74.509c-0.896-1.575-0.728-3.563,0.43-5.067c9.539-12.397,18.994-24.93,28.107-37.247
			c12.301-16.631,10.513-40.231-4.151-54.898l-50.89-50.888c-14.667-14.667-38.266-16.453-54.9-4.148
			c-12.291,9.091-24.82,18.546-37.245,28.104c-1.5,1.158-3.492,1.326-5.067,0.431c-23.459-13.326-48.527-23.714-74.509-30.874
			c-1.728-0.473-3.003-1.999-3.248-3.882c-2.025-15.534-4.199-31.074-6.46-46.187c-3.062-20.461-21.01-35.888-41.753-35.888h-71.967
			c-20.745,0-38.693,15.427-41.75,35.885c-2.262,15.116-4.436,30.655-6.461,46.191c-0.248,1.881-1.52,3.403-3.25,3.878
			c-25.98,7.164-51.05,17.549-74.505,30.875c-1.577,0.895-3.567,0.721-5.071-0.431c-12.422-9.558-24.954-19.013-37.246-28.107
			C419.097,33.49,395.5,35.28,380.834,49.944l-50.889,50.889c-14.668,14.668-16.453,38.269-4.148,54.9
			c9.125,12.335,18.581,24.866,28.104,37.245c1.156,1.501,1.326,3.49,0.432,5.067c-13.33,23.465-23.716,48.535-30.875,74.508
			c-0.473,1.725-1.999,3.001-3.878,3.247c-15.503,2.024-31.043,4.196-46.19,6.464c-20.463,3.058-35.89,21.009-35.89,41.751v71.968
			c0,20.744,15.427,38.692,35.885,41.753c15.147,2.268,30.689,4.441,46.191,6.462c1.881,0.248,3.403,1.52,3.878,3.248
			c7.159,25.976,17.547,51.043,30.875,74.508c0.895,1.577,0.725,3.566-0.431,5.067c-9.547,12.41-19.002,24.941-28.104,37.245
			c-12.304,16.633-10.52,40.233,4.148,54.901l50.888,50.89c14.669,14.666,38.27,16.453,54.901,4.146
			c12.29-9.091,24.821-18.546,37.246-28.104c1.501-1.156,3.492-1.324,5.066-0.431c23.458,13.326,48.525,23.711,74.509,30.874
			c1.729,0.476,3.003,1.998,3.248,3.88c2.025,15.533,4.202,31.075,6.462,46.187c3.059,20.461,21.008,35.888,41.753,35.888h71.967
			c20.744,0,38.692-15.427,41.752-35.892c2.262-15.129,4.436-30.67,6.46-46.187c0.247-1.882,1.52-3.405,3.248-3.882
			c25.979-7.163,51.05-17.55,74.508-30.875c1.575-0.891,3.564-0.723,5.067,0.431c12.423,9.558,24.955,19.014,37.246,28.105
			c16.631,12.304,40.229,10.52,54.9-4.148l50.89-50.888c14.664-14.668,16.451-38.27,4.148-54.9
			c-9.111-12.314-18.569-24.847-28.105-37.246c-1.156-1.502-1.326-3.49-0.431-5.067c13.328-23.463,23.715-48.533,30.873-74.507
			c0.479-1.729,2-3.004,3.883-3.25c15.506-2.021,31.05-4.195,46.189-6.461c20.46-3.058,35.887-21.01,35.887-41.753v-71.968
			C1042.5,303.272,1027.073,285.32,1006.614,282.262z M1004.91,395.987c0,2.28-1.655,4.246-3.856,4.577
			c-14.908,2.232-30.212,4.37-45.489,6.363c-16.914,2.206-30.753,14.188-35.26,30.535c-6.334,22.983-15.526,45.165-27.318,65.929
			c-8.384,14.762-7.08,33.036,3.321,46.558c9.396,12.215,18.708,24.555,27.679,36.681c1.323,1.788,1.103,4.354-0.509,5.965
			l-50.889,50.889c-1.614,1.613-4.178,1.828-5.964,0.51c-12.103-8.954-24.445-18.267-36.682-27.68
			c-13.521-10.404-31.794-11.708-46.554-3.325c-20.763,11.792-42.945,20.986-65.933,27.322
			c-16.342,4.505-28.326,18.344-30.536,35.26c-1.99,15.286-4.132,30.591-6.362,45.489c-0.327,2.201-2.297,3.856-4.575,3.856h-71.969
			c-2.28,0-4.249-1.655-4.577-3.858c-2.224-14.882-4.368-30.186-6.362-45.486c-2.207-16.916-14.193-30.755-30.536-35.259
			c-22.989-6.336-45.171-15.529-65.932-27.324c-6.473-3.673-13.622-5.487-20.748-5.487c-9.125,0-18.214,2.972-25.804,8.816
			c-12.237,9.413-24.58,18.726-36.682,27.68c-1.789,1.319-4.351,1.104-5.962-0.51L356.522,592.6
			c-1.613-1.612-1.833-4.177-0.51-5.964c8.964-12.117,18.275-24.459,27.679-36.682c10.4-13.521,11.706-31.793,3.324-46.554
			c-11.796-20.768-20.987-42.95-27.322-65.932c-4.504-16.343-18.344-28.327-35.258-30.534c-15.271-1.991-30.577-4.134-45.491-6.363
			c-2.199-0.331-3.857-2.298-3.857-4.577v-71.969c0-2.28,1.657-4.247,3.857-4.578c14.916-2.23,30.22-4.371,45.489-6.363
			c16.917-2.205,30.756-14.19,35.26-30.533c6.332-22.981,15.524-45.164,27.321-65.932c8.385-14.763,7.079-33.035-3.322-46.553
			c-9.379-12.195-18.691-24.534-27.679-36.681c-1.32-1.788-1.102-4.354,0.51-5.964l50.886-50.89c1.61-1.613,4.174-1.828,5.962-0.51
			c12.101,8.952,24.443,18.265,36.682,27.68c13.521,10.399,31.793,11.706,46.557,3.321c20.758-11.792,42.941-20.985,65.928-27.322
			c16.344-4.504,28.332-18.343,30.537-35.26c1.997-15.299,4.135-30.604,6.363-45.49c0.329-2.196,2.298-3.854,4.578-3.854h71.966
			c2.279,0,4.249,1.657,4.578,3.857c2.226,14.881,4.366,30.184,6.363,45.489c2.206,16.917,14.192,30.755,30.535,35.26
			c22.987,6.336,45.168,15.53,65.932,27.322c14.761,8.38,33.034,7.079,46.553-3.324c12.237-9.413,24.579-18.726,36.681-27.678
			c1.787-1.324,4.354-1.105,5.965,0.51l50.888,50.889c1.613,1.613,1.83,4.177,0.51,5.963c-8.97,12.129-18.283,24.467-27.679,36.681
			c-10.399,13.523-11.705,31.795-3.32,46.558c11.793,20.761,20.985,42.943,27.322,65.93c4.504,16.342,18.346,28.324,35.257,30.53
			c15.274,1.994,30.582,4.136,45.49,6.363c2.201,0.331,3.857,2.298,3.857,4.578v71.969h-0.005V395.987z"/>
	</g>
</g>
<g>
	<g>
		<path fill="#FFFFFF" d="M640.001,185.268c-96.349,0-174.733,78.384-174.733,174.733c0,96.348,78.384,174.732,174.733,174.732
			c96.349,0,174.732-78.384,174.732-174.732C814.733,263.653,736.35,185.268,640.001,185.268z M640.001,497.143
			c-75.622,0-137.142-61.521-137.142-137.141c0-75.622,61.523-137.142,137.142-137.142c75.62,0,137.142,61.521,137.142,137.142
			C777.143,435.621,715.622,497.143,640.001,497.143z"/>
	</g>
</g>
</svg>
