<?xml version="1.0" encoding="utf-8"?>
<!-- Generator: Adobe Illustrator 15.0.0, SVG Export Plug-In . SVG Version: 6.00 Build 0)  -->
<!DOCTYPE svg PUBLIC "-//W3C//DTD SVG 1.1//EN" "http://www.w3.org/Graphics/SVG/1.1/DTD/svg11.dtd">
<svg version="1.1" id="Layer_1" xmlns="http://www.w3.org/2000/svg" xmlns:xlink="http://www.w3.org/1999/xlink" x="0px" y="0px"
	 width="1280px" height="720px" viewBox="0 0 1280 720" enable-background="new 0 0 1280 720" xml:space="preserve">
<g>
	<g>
		<path fill="#FFFFFF" d="M967.903,290.47c-13.54-2.028-27.441-3.973-41.313-5.781c-1.681-0.218-3.045-1.358-3.47-2.903
			c-6.402-23.235-15.694-45.657-27.613-66.641c-0.802-1.409-0.651-3.187,0.384-4.532c8.532-11.088,16.989-22.298,25.139-33.314
			c11.002-14.875,9.404-35.983-3.713-49.102l-45.515-45.515c-13.119-13.118-34.226-14.715-49.104-3.71
			c-10.993,8.131-22.2,16.588-33.312,25.137c-1.342,1.035-3.124,1.186-4.532,0.385c-20.983-11.919-43.404-21.21-66.642-27.614
			c-1.545-0.423-2.686-1.788-2.905-3.472c-1.812-13.894-3.756-27.793-5.778-41.31C706.791,13.798,690.737,0,672.185,0h-64.369
			c-18.554,0-34.607,13.798-37.341,32.096c-2.024,13.52-3.968,27.418-5.78,41.314c-0.221,1.683-1.359,3.044-2.906,3.469
			c-23.237,6.407-45.66,15.696-66.639,27.615c-1.41,0.8-3.19,0.645-4.535-0.385c-11.11-8.549-22.319-17.006-33.313-25.139
			c-14.88-11.004-35.986-9.403-49.103,3.713l-45.515,45.515c-13.119,13.12-14.715,34.229-3.71,49.104
			c8.162,11.033,16.619,22.24,25.137,33.312c1.034,1.343,1.186,3.122,0.386,4.532c-11.922,20.988-21.212,43.41-27.615,66.641
			c-0.423,1.543-1.788,2.684-3.469,2.904c-13.866,1.81-27.765,3.753-41.313,5.781C293.798,293.207,280,309.263,280,327.814v64.37
			c0,18.553,13.798,34.607,32.096,37.344c13.548,2.028,27.449,3.972,41.314,5.78c1.683,0.221,3.044,1.359,3.469,2.905
			c6.403,23.232,15.694,45.653,27.615,66.641c0.8,1.41,0.648,3.189-0.385,4.532c-8.539,11.099-16.996,22.307-25.137,33.312
			c-11.004,14.876-9.409,35.985,3.71,49.104l45.515,45.516c13.12,13.118,34.229,14.716,49.104,3.709
			c10.992-8.131,22.2-16.588,33.312-25.137c1.343-1.035,3.123-1.184,4.532-0.385c20.981,11.919,43.401,21.207,66.641,27.614
			c1.546,0.425,2.687,1.787,2.905,3.47c1.812,13.894,3.758,27.794,5.78,41.31c2.736,18.3,18.79,32.098,37.344,32.098h64.369
			c18.553,0,34.607-13.798,37.343-32.101c2.023-13.532,3.967-27.432,5.778-41.31c0.221-1.684,1.359-3.046,2.905-3.473
			c23.236-6.406,45.659-15.696,66.64-27.614c1.41-0.797,3.189-0.646,4.533,0.385c11.111,8.549,22.32,17.006,33.313,25.138
			c14.875,11.004,35.982,9.409,49.104-3.71l45.515-45.515c13.117-13.119,14.715-34.228,3.711-49.104
			c-8.149-11.013-16.608-22.222-25.138-33.313c-1.034-1.343-1.186-3.121-0.385-4.532c11.921-20.986,21.211-43.408,27.613-66.64
			c0.428-1.547,1.789-2.686,3.473-2.906c13.869-1.809,27.771-3.753,41.312-5.779c18.3-2.735,32.098-18.791,32.098-37.344v-64.369
			C1000,309.262,986.202,293.205,967.903,290.47z M966.379,392.188c0,2.039-1.481,3.797-3.449,4.093
			c-13.334,1.996-27.022,3.908-40.686,5.692c-15.129,1.972-27.506,12.69-31.537,27.31c-5.665,20.557-13.887,40.397-24.434,58.968
			c-7.499,13.203-6.333,29.548,2.971,41.642c8.403,10.924,16.732,21.962,24.756,32.807c1.184,1.599,0.986,3.894-0.455,5.335
			l-45.516,45.515c-1.443,1.443-3.736,1.636-5.334,0.456c-10.824-8.009-21.864-16.338-32.808-24.757
			c-12.093-9.306-28.437-10.472-41.638-2.974c-18.57,10.547-38.411,18.77-58.971,24.437c-14.616,4.029-25.335,16.407-27.311,31.537
			c-1.781,13.672-3.697,27.36-5.691,40.686c-0.293,1.968-2.054,3.449-4.093,3.449h-64.369c-2.039,0-3.8-1.481-4.093-3.45
			c-1.99-13.311-3.907-26.999-5.691-40.684c-1.973-15.13-12.694-27.508-27.311-31.536c-20.562-5.667-40.402-13.89-58.971-24.438
			c-5.789-3.286-12.184-4.909-18.557-4.909c-8.162,0-16.291,2.658-23.079,7.886c-10.945,8.419-21.984,16.748-32.808,24.757
			c-1.601,1.18-3.892,0.987-5.333-0.456l-45.516-45.515c-1.443-1.442-1.64-3.735-0.456-5.334
			c8.017-10.838,16.345-21.876,24.756-32.808c9.302-12.094,10.47-28.436,2.973-41.638c-10.551-18.575-18.771-38.415-24.437-58.97
			c-4.029-14.617-16.407-25.337-31.535-27.31c-13.658-1.782-27.348-3.698-40.688-5.692c-1.967-0.296-3.45-2.055-3.45-4.094v-64.37
			c0-2.039,1.482-3.798,3.45-4.094c13.341-1.995,27.029-3.91,40.686-5.692c15.13-1.972,27.508-12.691,31.537-27.309
			c5.663-20.554,13.885-40.395,24.436-58.97c7.499-13.204,6.331-29.547-2.971-41.638c-8.389-10.907-16.718-21.943-24.756-32.808
			c-1.181-1.599-0.986-3.894,0.456-5.334l45.513-45.516c1.44-1.443,3.733-1.635,5.333-0.456
			c10.823,8.007,21.862,16.336,32.808,24.757c12.094,9.301,28.436,10.47,41.641,2.97c18.566-10.547,38.407-18.769,58.967-24.437
			c14.618-4.029,25.34-16.407,27.312-31.537c1.786-13.684,3.699-27.373,5.692-40.687c0.294-1.964,2.055-3.448,4.094-3.448h64.368
			c2.039,0,3.8,1.482,4.094,3.45c1.992,13.31,3.906,26.997,5.692,40.686c1.973,15.13,12.694,27.508,27.311,31.537
			c20.56,5.667,40.399,13.89,58.97,24.437c13.202,7.495,29.546,6.331,41.637-2.973c10.945-8.419,21.984-16.749,32.807-24.756
			c1.599-1.184,3.894-0.989,5.335,0.456l45.515,45.515c1.443,1.443,1.637,3.736,0.456,5.334
			c-8.022,10.848-16.353,21.884-24.756,32.808c-9.302,12.095-10.47,28.438-2.97,41.642c10.548,18.569,18.77,38.409,24.437,58.968
			c4.028,14.617,16.409,25.334,31.534,27.306c13.662,1.783,27.353,3.699,40.688,5.692c1.968,0.296,3.45,2.055,3.45,4.094v64.369
			H966.379z"/>
	</g>
</g>
<g>
	<g>
		<path fill="#FFFFFF" d="M640.001,203.718c-86.176,0-156.283,70.107-156.283,156.283c0,86.175,70.107,156.282,156.283,156.282
			c86.175,0,156.282-70.107,156.282-156.282C796.283,273.826,726.176,203.718,640.001,203.718z M640.001,482.661
			c-67.637,0-122.661-55.025-122.661-122.66c0-67.637,55.027-122.661,122.661-122.661c67.635,0,122.66,55.025,122.66,122.661
			C762.661,427.636,707.637,482.661,640.001,482.661z"/>
	</g>
</g>
</svg>
