<?xml version="1.0" encoding="utf-8"?>
<!-- Generator: Adobe Illustrator 15.0.0, SVG Export Plug-In . SVG Version: 6.00 Build 0)  -->
<!DOCTYPE svg PUBLIC "-//W3C//DTD SVG 1.1//EN" "http://www.w3.org/Graphics/SVG/1.1/DTD/svg11.dtd">
<svg version="1.1" id="Calque_1" xmlns="http://www.w3.org/2000/svg" xmlns:xlink="http://www.w3.org/1999/xlink" x="0px" y="0px"
	 width="50px" height="50px" viewBox="0 0 50 50" enable-background="new 0 0 50 50" xml:space="preserve">
<path fill="none" stroke="#000000" stroke-linejoin="round" stroke-miterlimit="10" d="M19.375,27.5c0-3.3,1.779-6,3.953-6
	c2.174,0,3.953,0,3.953,0"/>
<path fill="none" stroke="#000000" stroke-linejoin="round" stroke-miterlimit="10" d="M31.75,21.5c0,0,2.419,0,5.375,0
	s5.375,2.7,5.375,6v1.25c0,3.3-2.7,6-6,6H25.375c-2.333,0-4.367-1.35-5.358-3.307"/>
<path fill="none" stroke="#000000" stroke-linejoin="round" stroke-miterlimit="10" d="M29.625,23.75c0,3.3-2.7,6-6,6H12.5
	c-3.3,0-6-2.7-6-6V22.5c0-3.3,2.7-6,6-6h11.125c3.3,0,6,2.7,6,6V23.75z"/>
</svg>
