<?xml version="1.0" encoding="utf-8"?>
<!-- Generator: Adobe Illustrator 15.0.0, SVG Export Plug-In . SVG Version: 6.00 Build 0)  -->
<!DOCTYPE svg PUBLIC "-//W3C//DTD SVG 1.1//EN" "http://www.w3.org/Graphics/SVG/1.1/DTD/svg11.dtd">
<svg version="1.1" id="Calque_1" xmlns="http://www.w3.org/2000/svg" xmlns:xlink="http://www.w3.org/1999/xlink" x="0px" y="0px"
	 width="50px" height="50px" viewBox="0 0 50 50" enable-background="new 0 0 50 50" xml:space="preserve">
<g>
	<circle fill="#92BEFF" cx="25" cy="25" r="15"/>
	<path fill="none" stroke="#000000" stroke-linejoin="round" stroke-miterlimit="10" d="M21.087,26.192
		c0-2.15,1.159-3.91,2.577-3.91c1.417,0,2.577,0,2.577,0"/>
	<path fill="none" stroke="#000000" stroke-linejoin="round" stroke-miterlimit="10" d="M27.941,22.971c0,0,1.174,0,2.606,0
		s2.605,1.309,2.605,2.909v0.606c0,1.6-1.309,2.908-2.909,2.908h-5.393c-1.13,0-2.117-0.654-2.597-1.604"/>
	<path fill="none" stroke="#000000" stroke-linejoin="round" stroke-miterlimit="10" d="M26.912,24.062
		c0,1.6-1.31,2.909-2.909,2.909h-5.394c-1.599,0-2.908-1.309-2.908-2.909v-0.606c0-1.6,1.309-2.909,2.908-2.909h5.394
		c1.6,0,2.909,1.309,2.909,2.909V24.062z"/>
</g>
</svg>
