<?xml version="1.0" encoding="utf-8"?>
<!-- Generator: Adobe Illustrator 15.0.0, SVG Export Plug-In . SVG Version: 6.00 Build 0)  -->
<!DOCTYPE svg PUBLIC "-//W3C//DTD SVG 1.1//EN" "http://www.w3.org/Graphics/SVG/1.1/DTD/svg11.dtd">
<svg version="1.1" id="Layer_1" xmlns="http://www.w3.org/2000/svg" xmlns:xlink="http://www.w3.org/1999/xlink" x="0px" y="0px"
	 width="720.001px" height="719.997px" viewBox="280 0.002 720.001 719.997" enable-background="new 280 0.002 720.001 719.997"
	 xml:space="preserve">
<g>
	<g>
		<g>
			<path fill="#FFFFFF" d="M965.312,213.584c33.983-34.056,33.983-89.28,0-123.336L903.68,28.544
				c-34.056-34.056-89.279-34.056-123.336,0l-37.296,38.52l185.04,184.968L965.312,213.584z"/>
			<path fill="#FFFFFF" d="M462.608,629.023c-26.641,0-65.593,3.457-84.457-15.408c-18.864-18.936-15.336-57.814-15.336-84.455
				c0-4.896-31.968-48.744-32.976-49.969L285.2,706.641L512,662.072C510.92,661.064,467.864,629.023,462.608,629.023z"/>
			<path fill="#FFFFFF" d="M704.024,101.48l-0.648,0.648l-0.36-0.36L368.36,436.713l194.76,194.184l335.592-333.288l-0.936-0.936
				l0.936-0.936L704.024,101.48z M425.384,440.6l282.601-282.167l36.071,35.928L461.384,476.457L425.384,440.6z M559.592,574.377
				l-36.432-36.361L805.904,255.92l36.432,36.36L559.592,574.377z"/>
		</g>
	</g>
</g>
</svg>
