<?xml version="1.0" encoding="utf-8"?>
<!-- Generator: Adobe Illustrator 15.0.0, SVG Export Plug-In . SVG Version: 6.00 Build 0)  -->
<!DOCTYPE svg PUBLIC "-//W3C//DTD SVG 1.1//EN" "http://www.w3.org/Graphics/SVG/1.1/DTD/svg11.dtd">
<svg version="1.1" id="Layer_1" xmlns="http://www.w3.org/2000/svg" xmlns:xlink="http://www.w3.org/1999/xlink" x="0px" y="0px"
	 width="1280px" height="720px" viewBox="0 0 1280 720" enable-background="new 0 0 1280 720" xml:space="preserve">
<g>
	<g>
		<path fill="#FFFFFF" d="M988.527,11.718c-0.042-0.042-0.075-0.087-0.117-0.129c-0.043-0.042-0.088-0.076-0.13-0.115
			c-11.205-11.112-27.278-14.451-41.99-8.698L305.016,253.52c-16.954,6.628-26.886,23.226-24.722,41.297
			c2.17,18.073,15.744,31.851,33.782,34.281l313.421,42.27c0.586,0.08,1.056,0.547,1.136,1.138l42.27,313.418
			c2.432,18.038,16.208,31.615,34.281,33.782c1.651,0.198,3.287,0.293,4.906,0.293c16.113,0,30.367-9.61,36.392-25.014
			L997.229,53.705C1002.979,38.995,999.642,22.925,988.527,11.718z M319.16,291.45c-0.703-0.096-1.02-0.137-1.142-1.155
			c-0.121-1.018,0.177-1.136,0.834-1.391L918.834,54.304L638.21,334.931C636.38,334.4,319.16,291.45,319.16,291.45z
			 M711.098,681.149c-0.257,0.657-0.359,0.959-1.392,0.833c-1.017-0.121-1.06-0.44-1.152-1.14c0,0-42.951-317.221-43.481-319.05
			L945.696,81.167L711.098,681.149z"/>
	</g>
</g>
</svg>
