<?xml version="1.0" encoding="utf-8"?>
<!-- Generator: Adobe Illustrator 15.0.0, SVG Export Plug-In . SVG Version: 6.00 Build 0)  -->
<!DOCTYPE svg PUBLIC "-//W3C//DTD SVG 1.1//EN" "http://www.w3.org/Graphics/SVG/1.1/DTD/svg11.dtd">
<svg version="1.1" id="Layer_1" xmlns="http://www.w3.org/2000/svg" xmlns:xlink="http://www.w3.org/1999/xlink" x="0px" y="0px"
	 width="643.019px" height="99.119px" viewBox="0.159 0 643.019 99.119" enable-background="new 0.159 0 643.019 99.119"
	 xml:space="preserve">
<g>
	<path d="M0.159,88.109V1.518h53.726V13.78H14.19V42.98h32.994v12.262H14.19v32.867H0.159L0.159,88.109z"/>
	<path d="M127.9,78.881C122.717,85.96,113.592,89.5,100.53,89.5c-13.064,0-22.208-3.559-27.432-10.682
		c-5.227-7.121-7.838-18.308-7.838-33.562c0-15.252,2.633-26.587,7.901-34.004c5.265-7.416,14.39-11.125,27.369-11.125
		c12.978,0,22.079,3.688,27.305,11.061c5.225,7.375,7.838,18.731,7.838,34.068C135.673,60.595,133.082,71.802,127.9,78.881z
		 M84.096,69.78c2.864,4.973,8.344,7.458,16.434,7.458s13.546-2.443,16.371-7.331c2.822-4.887,4.235-13.084,4.235-24.587
		c0-11.504-1.454-19.867-4.361-25.094c-2.907-5.225-8.324-7.837-16.244-7.837c-7.922,0-13.358,2.613-16.308,7.837
		c-2.952,5.227-4.424,13.548-4.424,24.967C79.798,56.613,81.23,64.808,84.096,69.78z"/>
	<path d="M168.539,57.264v30.844h-14.032V1.517h32.868c19.551,0,29.328,9.187,29.328,27.558c0,12.306-4.722,20.649-14.159,25.031
		l14.285,34.004h-15.423l-12.515-30.844L168.539,57.264L168.539,57.264z M202.292,29.201c0-10.366-4.974-15.549-14.917-15.549
		h-18.835v31.477h19.089c5.057,0,8.764-1.454,11.123-4.361C201.111,37.86,202.292,34.004,202.292,29.201z"/>
	<path d="M264.235,89.5c-12.642,0-21.218-3.496-25.725-10.492c-4.509-6.994-6.762-18.498-6.762-34.51
		c0-16.011,2.275-27.41,6.826-34.195c4.551-6.783,13.104-10.176,25.662-10.176c7.5,0,15.758,1.055,24.777,3.16l-0.507,11.377
		c-7.583-1.346-15.169-2.022-22.753-2.022c-7.585,0-12.728,2.256-15.423,6.763c-2.698,4.509-4.045,12.979-4.045,25.41
		c0,12.432,1.306,20.901,3.918,25.409c2.612,4.509,7.711,6.762,15.296,6.762c7.583,0,15.252-0.631,23.006-1.896l0.38,11.631
		C280.205,88.571,271.987,89.5,264.235,89.5z"/>
	<path d="M335.152,89.5c-12.641,0-21.218-3.496-25.725-10.492c-4.508-6.994-6.762-18.498-6.762-34.51
		c0-16.011,2.275-27.41,6.826-34.195c4.551-6.783,13.104-10.176,25.662-10.176c7.5,0,15.758,1.055,24.777,3.16l-0.507,11.377
		c-7.583-1.346-15.169-2.022-22.754-2.022s-12.727,2.256-15.421,6.763c-2.698,4.509-4.046,12.979-4.046,25.41
		c0,12.432,1.306,20.901,3.919,25.409c2.612,4.509,7.711,6.762,15.296,6.762c7.583,0,15.252-0.631,23.006-1.896l0.379,11.631
		C351.123,88.571,342.905,89.5,335.152,89.5z"/>
	<path d="M369.914,88.109l21.364-86.592h27.937l21.491,86.592h-14.159l-4.678-18.583h-33.247l-4.677,18.583H369.914L369.914,88.109z
		 M402.15,13.272l-10.745,43.866h27.685l-10.618-43.866H402.15L402.15,13.272z"/>
	<path d="M480.148,12.388c-10.703,0-16.054,3.75-16.054,11.251c0,3.877,1.265,6.636,3.792,8.28c2.529,1.644,8.11,3.666,16.75,6.068
		c8.639,2.402,14.728,5.268,18.268,8.596c3.539,3.33,5.309,8.577,5.309,15.738c0,9.101-2.591,15.909-7.774,20.416
		c-5.183,4.508-12.242,6.762-21.175,6.762c-7.164,0-15.086-0.844-23.765-2.528l-4.55-0.885l1.39-11.25
		c11.377,1.518,20.058,2.276,26.041,2.276c10.449,0,15.675-4.634,15.675-13.906c0-3.623-1.182-6.299-3.54-8.027
		c-2.359-1.727-7.669-3.621-15.929-5.688c-8.259-2.064-14.41-4.91-18.455-8.533c-4.044-3.622-6.068-9.354-6.068-17.192
		s2.548-13.758,7.648-17.761C462.81,2.003,469.867,0,478.884,0c6.49,0,14.16,0.759,23.008,2.276l4.424,0.758l-1.138,11.377
		C493.379,13.063,485.035,12.388,480.148,12.388z"/>
	<path d="M517.568,14.031V1.517h63.207v12.515h-24.399v74.078h-14.158V14.031H517.568z"/>
</g>
</svg>
