<svg xmlns="http://www.w3.org/2000/svg" viewBox="0 0 424.239 424.239"><path d="M305.292 229.279a14.527 14.527 0 0 1-10.34 4.283 14.53 14.53 0 0 1-10.339-4.282 7.999 7.999 0 0 0-11.313 0 8 8 0 0 0-.001 11.314c5.783 5.784 13.474 8.969 21.653 8.969s15.87-3.185 21.654-8.969a8 8 0 0 0-11.314-11.315zm-165.665 0a14.527 14.527 0 0 1-10.34 4.283 14.53 14.53 0 0 1-10.339-4.282 7.999 7.999 0 0 0-11.313 0 8 8 0 0 0-.001 11.314c5.783 5.784 13.474 8.969 21.653 8.969s15.87-3.185 21.654-8.969a8 8 0 0 0-11.314-11.315z"/><path d="M400.882 254.178c0-21.731-15.709-39.851-36.366-43.63V76.715a51.557 51.557 0 0 0-23.104-43.057c-13.588-9.015-30.458-11.062-45.711-5.686l-50.225-17.048C206.88-2.177 166.254-3.521 127.992 7.036 77.899 20.857 49.181 50.084 44.749 91.628a60.736 60.736 0 0 0-9.157 17.254l-3.896 11.531c-2.092 6.191.215 12.697 5.738 16.189 5.524 3.492 12.39 2.784 17.085-1.759a27.915 27.915 0 0 1 5.204-3.955v79.66c-20.657 3.779-36.366 21.898-36.366 43.63 0 22.601 16.991 41.296 38.868 44.014 5.494 30.336 19.931 58.319 42.007 80.712 28.82 29.236 67.135 45.336 107.888 45.336h.016c40.701-.004 78.966-15.856 107.745-44.635 22.48-22.481 37.073-50.749 42.385-81.445 21.755-2.831 38.616-21.468 38.616-43.982zM332.565 46.991c10.137 6.725 15.95 17.559 15.95 29.724v104.689c-24.831-3.859-43.897-25.383-43.897-51.279V86.121c0-.041-.009-.08-.01-.12h.009l-.661-43.835c9.77-2.576 19.955-.916 28.609 4.825zm-283.37 71.614l1.555-4.601a44.865 44.865 0 0 1 24.814-26.85 44.868 44.868 0 0 1 36.557.572c24.227 11.284 53.513 5.184 71.22-14.833l1.982-2.241a8 8 0 0 0-11.984-10.601l-1.982 2.241c-13.048 14.751-34.63 19.244-52.48 10.93a60.877 60.877 0 0 0-49.608-.777 60.343 60.343 0 0 0-4.234 2.034C74.334 49.688 96.84 32.23 132.25 22.46c35.159-9.701 72.536-8.451 108.085 3.615l47.622 16.165.624 41.337c-21.205 28.831-52.131 48.348-87.373 55.059-36.085 6.872-72.899-.4-103.663-20.474-15.033-9.808-33.983-9.39-48.35.443zm-9.838 135.573c0-12.863 8.609-23.747 20.366-27.21v43.362c0 3.746.135 7.471.398 11.172-11.96-3.333-20.764-14.316-20.764-27.324zM308.566 368.29c-25.757 25.758-60.005 39.945-96.433 39.949h-.014c-36.433 0-70.705-14.409-96.494-40.568-25.731-26.102-39.902-60.672-39.902-97.342V127.116a27.643 27.643 0 0 1 13.075 4.445c34.246 22.347 75.227 30.442 115.4 22.792 32.608-6.21 61.902-22.263 84.419-45.938v21.709c0 34.731 26.218 63.437 59.897 67.41v74.308c.001 36.434-14.186 70.686-39.948 96.448zm55.64-86.814c.198-3.194.309-6.405.309-9.633v-44.876c11.757 3.463 20.366 14.347 20.366 27.21.001 12.976-8.76 23.937-20.675 27.299z"/><path d="M212.12 293.554c-20.116 0-36.482 16.366-36.482 36.482 0 8.761 3.555 29.14 36.482 29.14 22.844 0 36.481-10.894 36.481-29.14 0-20.116-16.365-36.482-36.481-36.482zm0 49.622c-20.482 0-20.482-9.546-20.482-13.14 0-11.294 9.188-20.482 20.482-20.482s20.481 9.188 20.481 20.482c0 3.593 0 13.14-20.481 13.14z"/></svg>