<svg xmlns="http://www.w3.org/2000/svg" viewBox="0 0 433.398 433.398"><path d="M157.809 269.044a7.998 7.998 0 0 0 0-11.313c-11.982-11.982-31.48-11.983-43.463 0a7.998 7.998 0 0 0 0 11.313 8 8 0 0 0 11.313 0c5.746-5.744 15.092-5.743 20.836 0 1.562 1.562 3.609 2.343 5.657 2.343s4.095-.781 5.657-2.343zm117.779-11.313a8 8 0 1 0 11.314 11.313c5.745-5.745 15.092-5.744 20.835 0 1.563 1.562 3.609 2.343 5.657 2.343s4.095-.781 5.657-2.343a8 8 0 0 0 0-11.313c-11.984-11.984-31.479-11.985-43.463 0zm5 39.137a7.997 7.997 0 0 0-6.822-1.495 242.493 242.493 0 0 1-27.22 4.921 244.396 244.396 0 0 1-59.704-.001 242.369 242.369 0 0 1-27.211-4.919 8.002 8.002 0 0 0-9.869 7.778v9.22a49.91 49.91 0 0 0 28.113 44.91v15.707c0 21.408 17.417 38.825 38.825 38.825s38.825-17.417 38.825-38.825v-15.706a49.912 49.912 0 0 0 28.112-44.91v-9.22a8.011 8.011 0 0 0-3.049-6.285zm-25.065 41.475v-1.889a8 8 0 0 0-16 0v36.534c0 12.585-10.239 22.825-22.825 22.825s-22.825-10.239-22.825-22.825v-36.534a8 8 0 0 0-16 0v1.889c-7.338-6.165-11.893-15.289-12.105-25.242a257.105 257.105 0 0 0 19.127 3.073 260.326 260.326 0 0 0 63.595.001 257.311 257.311 0 0 0 19.137-3.075c-.211 9.954-4.766 19.078-12.104 25.243z"/><path d="M406.343 256.221c0-11.042-3.964-21.393-11.219-29.545 2.932-59.998 4.51-100.097-14.466-137.038-12.926-25.167-33.849-46.2-62.188-62.513C285.422 8.1 247.724-1.229 209.443.13c-33.635 1.2-64.945 16.909-86.49 43.256-27.858 1.572-53.221 16.695-66.846 40.111a134.54 134.54 0 0 0-3.361 6.141c-18.989 36.965-17.409 77.065-14.475 137.073-6.972 7.865-11.217 18.198-11.217 29.509 0 23.326 18.025 42.508 40.875 44.381 9.515 30.659 34.724 65.399 75.326 103.677 20.592 19.413 47.019 29.12 73.445 29.12 26.427 0 52.853-9.707 73.445-29.12 40.601-38.277 65.81-73.017 75.325-103.676 22.85-1.875 40.873-21.057 40.873-44.381zM210.013 16.12c35.281-1.259 70.025 7.343 100.474 24.871 25.624 14.75 44.444 33.577 55.938 55.957 15.979 31.108 15.765 64.968 12.898 125.181l-17.87.985c-120.433 3.928-186.975-52.022-206.743-71.986l-19.25-97.749c18.626-22.695 45.601-36.227 74.553-37.259zM66.979 96.948a119.12 119.12 0 0 1 2.958-5.406c10.375-17.832 29.34-29.669 50.447-31.904l18.611 94.498c-12.726 29.203-34.476 44.558-68.264 48.241a8 8 0 0 0-7.133 7.953v2.079a44.14 44.14 0 0 0-9.84 3.007c-2.544-56.032-2.161-88.523 13.221-118.468zM43.054 256.22c0-12.962 8.688-23.927 20.544-27.395v45.143c0 3.219.219 6.497.632 9.827-12.178-3.258-21.176-14.384-21.176-27.575zm236.117 136.417c-35.03 33.023-89.909 33.024-124.939 0-48.825-46.03-74.633-87.065-74.633-118.668l.001-56.644c32.578-5.238 55.677-21.259 70.194-48.724 12.308 11.313 32.47 27.045 61.074 40.811 42.526 20.465 90.561 30.515 142.934 29.876v34.68c0 31.604-25.807 72.639-74.631 118.669zm89.999-108.842c.413-3.33.632-6.608.632-9.827v-35.291l13.893-.765c4.305 5.126 6.648 11.514 6.648 18.309 0 13.19-8.996 24.315-21.173 27.574z"/><path d="M216.698 329.493a8 8 0 0 0-8 8v39.605a8 8 0 0 0 16 0v-39.605a8 8 0 0 0-8-8z"/></svg>