<svg xmlns="http://www.w3.org/2000/svg" viewBox="0 0 421.561 421.561"><path d="M391.822 397.883c-18.74-20.752-19.533-73.631-17.314-128.344 8.162-7.667 13.275-18.544 13.275-30.6 0-10.586-3.945-20.263-10.432-27.658 2.727-55.803 4.172-93.122-13.53-127.581-12.076-23.513-31.615-43.158-58.076-58.39C274.908 7.56 239.737-1.155 204.011.123c-31.374 1.118-60.583 15.735-80.725 40.26C97.28 41.93 73.62 56.084 60.891 77.96a125.23 125.23 0 0 0-3.141 5.74c-17.711 34.476-16.266 71.791-13.54 127.589-6.483 7.394-10.426 17.067-10.426 27.65 0 12.052 5.111 22.928 13.27 30.594 2.218 54.716 1.424 107.598-17.315 128.349a8 8 0 0 0 3.109 12.846c21.092 7.972 41.52 10.822 59.957 10.822 19.153 0 36.157-3.078 49.506-6.688 23.195-6.272 39.555-15.076 45.137-18.325a143.409 143.409 0 0 0 23.336 1.915c7.944 0 15.735-.662 23.33-1.913 5.584 3.25 21.943 12.052 45.135 18.324 17.807 4.815 34.314 6.698 49.249 6.698 24.877 0 45.383-5.227 60.215-10.832a7.999 7.999 0 0 0 3.109-12.846zm-38.039-142.43v-39.69a7.484 7.484 0 0 0 0-.367v-1.192c10.433 3.383 18 13.19 18 24.735 0 11.637-7.685 21.513-18.247 24.819.158-2.748.247-5.516.247-8.305zM71.982 91.011a108.808 108.808 0 0 1 2.738-5.004c10.538-18.11 30.69-29.514 52.594-29.762l.111-.002a8.004 8.004 0 0 0 6.183-3.131c17.265-22.521 43.134-36.007 70.974-37 32.717-1.167 64.942 6.81 93.181 23.066 23.745 13.668 41.182 31.108 51.826 51.833 14.168 27.58 14.589 57.582 12.266 109.131a41.667 41.667 0 0 0-8.071-2.429v-8.135a8 8 0 0 0-16 0v18.169a322.21 322.21 0 0 1-3.536.019c-107.912 0-166.49-52.099-182.237-68.527a7.999 7.999 0 0 0-13.175 2.494c-11.625 28.278-31.935 43.073-63.918 46.559a8 8 0 0 0-7.133 7.953v1.468a41.65 41.65 0 0 0-8.078 2.432c-2.324-51.54-1.901-81.54 12.275-109.134zm-3.951 172.748c-10.562-3.306-18.247-13.182-18.247-24.819 0-11.546 7.567-21.353 18-24.735v41.248c0 2.789.089 5.557.247 8.306zm69.578 135.8c-30.944 8.272-60.874 8.127-89.126-.407 14.272-24.349 16.745-64.829 14.931-120.073a41.63 41.63 0 0 0 6.574 1.452c9.101 51.237 45.581 93.12 93.721 109.952a189.509 189.509 0 0 1-26.1 9.076zm73.174-17.106c-70.028 0-127-56.972-127-127l.001-52.227c30.003-4.937 51.365-19.707 64.905-44.909 11.526 10.515 30.162 24.936 56.426 37.575 39.49 19.004 84.066 28.377 132.667 27.858v31.703c.001 70.028-56.97 127-126.999 127zm73.168 17.106a189.314 189.314 0 0 1-26.096-9.075c48.142-16.83 84.624-58.715 93.724-109.953a41.652 41.652 0 0 0 6.567-1.45c-1.815 55.243.658 95.722 14.931 120.071-28.252 8.533-58.18 8.679-89.126.407z"/><path d="M162.037 232.034H109.54a8 8 0 0 0 0 16h52.497a8 8 0 0 0 0-16zm157.993 8a8 8 0 0 0-8-8h-52.497a8 8 0 0 0 0 16h52.497c4.417 0 8-3.582 8-8zm-81.703 46.218c-17.9-4.298-36.824-4.298-54.726 0a7.999 7.999 0 0 0-5.911 9.646 7.997 7.997 0 0 0 9.646 5.911c15.458-3.71 31.797-3.71 47.256 0a8.001 8.001 0 0 0 1.874.223 8.003 8.003 0 0 0 7.772-6.134 7.997 7.997 0 0 0-5.911-9.646z"/></svg>