<svg xmlns="http://www.w3.org/2000/svg" viewBox="0 0 421.561 421.561"><path d="M391.823 397.883c-18.742-20.753-19.533-73.633-17.314-128.344 8.163-7.667 13.275-18.544 13.275-30.6 0-10.586-3.945-20.263-10.432-27.658 2.727-55.803 4.172-93.122-13.53-127.581-12.076-23.513-31.615-43.158-58.076-58.39C274.908 7.56 239.727-1.155 204.012.123c-31.375 1.118-60.584 15.735-80.725 40.26C97.28 41.93 73.62 56.084 60.889 77.963a126.264 126.264 0 0 0-3.14 5.738c-17.71 34.475-16.265 71.791-13.54 127.589-6.483 7.394-10.426 17.068-10.426 27.651 0 12.052 5.111 22.928 13.27 30.594 2.218 54.716 1.425 107.598-17.315 128.349a8 8 0 0 0 3.109 12.846c21.093 7.97 41.521 10.82 59.958 10.82 19.152 0 36.156-3.078 49.506-6.688 23.195-6.272 39.555-15.076 45.138-18.324a143.387 143.387 0 0 0 23.335 1.914c7.944 0 15.735-.662 23.33-1.914 5.584 3.25 21.943 12.052 45.135 18.324 17.807 4.815 34.314 6.698 49.249 6.698 24.877 0 45.383-5.227 60.215-10.832a7.998 7.998 0 0 0 4.947-5.602 7.997 7.997 0 0 0-1.837-7.243zm-38.039-142.43v-39.69a7.484 7.484 0 0 0 0-.367v-1.192c10.433 3.383 18 13.19 18 24.735 0 11.637-7.685 21.513-18.247 24.819.158-2.748.247-5.516.247-8.305zM71.983 91.01a108.716 108.716 0 0 1 2.737-5.003c10.537-18.11 30.69-29.514 52.693-29.764a7.998 7.998 0 0 0 6.195-3.132c17.264-22.521 43.133-36.007 70.974-37 32.712-1.167 64.941 6.81 93.181 23.066 23.745 13.668 41.182 31.108 51.826 51.833 14.168 27.58 14.589 57.582 12.266 109.131a41.667 41.667 0 0 0-8.071-2.429v-8.135a8 8 0 0 0-16 0v18.169c-1.184.013-2.365.019-3.537.019-107.912 0-166.488-52.099-182.235-68.527a7.998 7.998 0 0 0-13.175 2.494c-11.625 28.278-31.936 43.073-63.92 46.559a8 8 0 0 0-7.133 7.953v1.468a41.58 41.58 0 0 0-8.078 2.432c-2.322-51.539-1.899-81.539 12.277-109.134zm-3.952 172.749c-10.562-3.306-18.247-13.182-18.247-24.819 0-11.546 7.567-21.353 18-24.735v41.249c0 2.788.089 5.556.247 8.305zM48.488 399.144c14.266-24.35 16.74-64.828 14.927-120.065a41.73 41.73 0 0 0 6.573 1.452c9.099 51.228 45.568 93.105 93.696 109.943-23.147 9.96-66.958 23.158-115.196 8.67zm35.296-143.69l.002-52.227c30.003-4.937 51.365-19.707 64.905-44.909 11.525 10.515 30.161 24.936 56.426 37.575 39.49 19.004 84.082 28.377 132.667 27.858v31.703c0 70.028-56.972 127-127 127s-127-56.973-127-127zm200.168 144.105a189.379 189.379 0 0 1-26.097-9.075c48.142-16.83 84.624-58.715 93.725-109.953a41.652 41.652 0 0 0 6.567-1.45c-1.815 55.242.657 95.721 14.931 120.071-28.252 8.534-58.182 8.679-89.126.407z"/><path d="M235.603 266.052c-7.956.4-16.183.813-24.818.813s-16.862-.414-24.818-.813c-22.939-1.152-41.061-2.063-51.744 8.097-5.281 5.023-7.96 12.207-7.96 21.352 0 17.343 9.142 33.468 25.742 45.405 15.803 11.364 36.678 17.622 58.78 17.622s42.978-6.258 58.78-17.622c16.601-11.938 25.742-28.063 25.742-45.405 0-9.145-2.679-16.329-7.96-21.352-10.684-10.161-28.804-9.25-51.744-8.097zm43.704 29.449c0 2.365-.262 4.688-.755 6.96-5.479-2.151-12.007-3.014-19.408-3.223v-17.786c7.856.26 14.101 1.365 17.177 4.291.738.702 2.986 2.84 2.986 9.758zm-100.88 20.013c2.211.099 4.46.212 6.725.326 5.458.275 11.433.572 17.634.727v25.63c-8.72-.699-16.947-2.519-24.358-5.256v-21.427zm40.359 1.053c6.197-.155 12.169-.452 17.625-.726 2.268-.114 4.519-.227 6.733-.326v21.427c-7.411 2.737-15.638 4.557-24.358 5.256v-25.631zm17.62-34.535c2.27-.114 4.522-.227 6.738-.326v17.792c-2.452.108-4.963.234-7.537.363-5.461.275-11.062.546-16.821.696v-17.8c6.195-.154 12.165-.451 17.62-.725zm-33.62.725v17.8c-5.763-.149-11.367-.421-16.83-.696-2.571-.129-5.079-.255-7.528-.363v-17.792c2.216.099 4.467.211 6.736.325 5.454.275 11.425.572 17.622.726zm-57.537 2.986c3.077-2.926 9.323-4.029 17.179-4.29v17.784c-7.402.209-13.93 1.072-19.41 3.223a32.758 32.758 0 0 1-.755-6.96c-.001-6.917 2.247-9.055 2.986-9.757zm4.63 31.264c3.283-1.082 7.597-1.582 12.549-1.747v13.526c-5.025-3.439-9.263-7.414-12.549-11.779zm109.265 11.778v-13.524c4.951.164 9.265.664 12.547 1.746-3.285 4.364-7.523 8.339-12.547 11.778zM147.506 248.32c1.562 1.563 3.608 2.343 5.656 2.343s4.095-.781 5.657-2.343a8 8 0 0 0-.001-11.314c-13.691-13.691-35.973-13.691-49.664 0a8 8 0 1 0 11.312 11.314c7.456-7.453 19.585-7.453 27.04 0zm126.557 0a18.996 18.996 0 0 1 13.52-5.6c5.107 0 9.908 1.989 13.519 5.6a7.972 7.972 0 0 0 5.657 2.343 7.972 7.972 0 0 0 5.656-2.343 7.999 7.999 0 0 0 .001-11.313c-6.633-6.633-15.452-10.286-24.833-10.286-9.38 0-18.199 3.653-24.832 10.286a8 8 0 1 0 11.312 11.313z"/></svg>