<svg xmlns="http://www.w3.org/2000/svg" viewBox="0 0 420.707 420.707"><path d="M109.77 226.062a8 8 0 0 0 5.657 13.657 7.976 7.976 0 0 0 5.657-2.343c7.505-7.506 19.718-7.505 27.222 0a8 8 0 0 0 11.313 0 7.998 7.998 0 0 0 0-11.313c-13.744-13.744-36.106-13.744-49.849-.001zm36.77 64.596c-7.505 7.505-19.718 7.505-27.222 0a8 8 0 0 0-11.313 0 7.998 7.998 0 0 0 0 11.313c6.873 6.873 15.897 10.308 24.924 10.308 9.025 0 18.054-3.437 24.925-10.308a7.999 7.999 0 0 0 0-11.313 8 8 0 0 0-11.314 0zm154.886 0c-7.505 7.505-19.717 7.505-27.222 0a8 8 0 1 0-11.314 11.313c6.872 6.872 15.898 10.308 24.925 10.308s18.053-3.436 24.924-10.308a7.998 7.998 0 0 0 0-11.313 8 8 0 0 0-11.313 0zm-29.742-53.282c7.505-7.505 19.717-7.505 27.222 0 1.562 1.562 3.609 2.343 5.657 2.343s4.095-.781 5.657-2.343a7.998 7.998 0 0 0 0-11.313c-13.743-13.743-36.105-13.743-49.849 0a7.998 7.998 0 0 0 0 11.313 8 8 0 0 0 11.313 0z"/><circle cx="132.929" cy="268.492" r="14"/><circle cx="287.815" cy="268.492" r="14"/><path d="M409.799 214.164c0-11.093-4.861-21.401-12.861-28.48 7.495-7.024 11.931-16.928 11.931-27.689 0-11.319-4.95-21.781-13.326-28.904a37.957 37.957 0 0 0 4.326-17.596c0-16.228-10.148-30.137-24.574-35.565a37.875 37.875 0 0 0 2.074-12.425c0-20.953-17.047-38-38-38-1.873 0-3.729.135-5.559.404-6.523-12.151-19.176-19.904-33.441-19.904-7.359 0-14.355 2.058-20.377 5.91A38.042 38.042 0 0 0 252.369.005a37.834 37.834 0 0 0-20.261 5.865A37.883 37.883 0 0 0 210.349.035c-7.739-.329-15.317 1.762-21.756 5.833A37.826 37.826 0 0 0 168.329.005c-10.579 0-20.544 4.421-27.636 11.934-6.044-3.831-13.123-5.934-20.364-5.934-14.26 0-26.91 7.752-33.432 19.905a38.242 38.242 0 0 0-5.558-.405c-20.953 0-38 17.047-38 38 0 4.294.703 8.475 2.071 12.426-14.425 5.428-24.571 19.336-24.571 35.564 0 6.17 1.504 12.2 4.325 17.594-8.376 7.121-13.325 17.582-13.325 28.906 0 10.763 4.435 20.666 11.928 27.689-7.998 7.079-12.858 17.386-12.858 28.48 0 11.372 5.104 22.016 13.653 29.161a41.843 41.843 0 0 0-1.826 12.244c0 20.423 14.656 37.479 34 41.227v33.75c0 17.505 7.192 34.695 19.733 47.162 12.424 12.35 28.744 19.088 45.874 18.994 11.26-.066 22.04-2.948 31.653-8.407 11.547 19.96 32.764 32.412 56.377 32.412 23.612 0 44.829-12.452 56.377-32.412 9.613 5.458 20.393 8.34 31.653 8.407l.381.001c17.018 0 33.161-6.737 45.492-18.996 12.54-12.466 19.732-29.656 19.732-47.161v-33.75c19.344-3.747 34-20.804 34-41.227 0-4.271-.645-8.393-1.835-12.279 8.531-7.142 13.626-17.774 13.626-29.126zM38.736 255.569c0-12.241 8.506-22.527 19.916-25.274a755.341 755.341 0 0 0-1.893 50.017c-10.446-3.376-18.023-13.189-18.023-24.743zm309.272 74.977c0 13.276-5.472 26.33-15.013 35.814-9.379 9.325-21.591 14.401-34.499 14.342-10.978-.064-21.351-3.677-30-10.447a7.998 7.998 0 0 0-12.368 3.352c-7.487 18.892-25.448 31.1-45.757 31.1-20.31 0-38.271-12.208-45.757-31.1a8 8 0 0 0-12.369-3.353c-8.648 6.77-19.022 10.383-29.999 10.447-12.897.059-25.119-5.017-34.499-14.341-9.541-9.484-15.013-22.539-15.013-35.814v-46.758c0-49.579 5.021-99.333 14.928-147.923 6.838 11.522 19.157 18.589 32.669 18.589 7.236 0 14.312-2.103 20.357-5.934 7.093 7.513 17.06 11.933 27.64 11.933 7.233 0 14.232-2.05 20.261-5.863a37.888 37.888 0 0 0 21.76 5.832 37.886 37.886 0 0 0 21.76-5.833 37.845 37.845 0 0 0 20.261 5.864c10.581 0 20.546-4.419 27.64-11.933 6.045 3.831 13.122 5.934 20.358 5.934 13.515 0 25.834-7.069 32.672-18.594a741.953 741.953 0 0 1 14.967 148.115v46.571zm15.976-50.233a755.45 755.45 0 0 0-1.906-50.02c11.417 2.742 19.929 13.031 19.929 25.277.001 11.554-7.577 21.367-18.023 24.743zm-3.255-66.471a757.035 757.035 0 0 0-12.502-83.563c-1.246-6.002-6.15-10.654-12.192-11.574-.17-.026-.341-.054-.513-.084-6.309-1.112-12.578 2.07-15.599 7.915-3.798 7.352-11.292 11.918-19.555 11.918-6.102 0-11.778-2.448-15.981-6.894a8 8 0 0 0-12.797 1.596c-3.892 6.968-11.256 11.297-19.219 11.297a21.923 21.923 0 0 1-14.853-5.794 8 8 0 0 0-10.819.002 21.936 21.936 0 0 1-15.967 5.763 8.133 8.133 0 0 0-.765 0 21.933 21.933 0 0 1-15.965-5.763 8 8 0 0 0-10.82-.002 21.923 21.923 0 0 1-14.853 5.794c-7.963 0-15.328-4.329-19.219-11.297a7.997 7.997 0 0 0-12.797-1.596c-4.204 4.445-9.879 6.894-15.981 6.894-8.263 0-15.756-4.567-19.555-11.919-3.02-5.844-9.288-9.023-15.607-7.913-.163.029-.327.056-.49.081-6.057.922-10.961 5.577-12.207 11.593l-.034.163a756.823 756.823 0 0 0-12.443 83.385c-11.04 1.246-20.797 6.783-27.555 14.906a22.02 22.02 0 0 1-5.533-14.586c0-9.281 5.874-17.61 14.615-20.724a8 8 0 0 0 .25-14.978c-8.465-3.338-13.935-11.372-13.935-20.467 0-8.318 4.62-15.836 12.057-19.62a7.999 7.999 0 0 0 2.394-12.398 21.994 21.994 0 0 1-5.451-14.482c0-11.751 9.188-21.401 20.917-21.969a8.002 8.002 0 0 0 5.998-12.811c-2.888-3.825-4.415-8.393-4.415-13.21 0-12.131 9.869-22 22-22 2.588 0 5.125.446 7.541 1.326a7.997 7.997 0 0 0 10.397-5.199c2.783-9.201 11.44-15.626 21.053-15.626 6.108 0 11.785 2.448 15.985 6.894a8 8 0 0 0 12.8-1.595c3.891-6.97 11.253-11.299 19.214-11.299a21.878 21.878 0 0 1 14.846 5.79 8.001 8.001 0 0 0 10.823.005 21.954 21.954 0 0 1 15.865-5.769c.325.02.649.02.971 0a21.95 21.95 0 0 1 15.867 5.769 7.998 7.998 0 0 0 10.817 0 21.915 21.915 0 0 1 14.851-5.794c7.968 0 15.334 4.33 19.225 11.299a8 8 0 0 0 12.8 1.595c4.201-4.446 9.874-6.894 15.975-6.894 9.771 0 18.235 6.28 21.063 15.626a7.998 7.998 0 0 0 10.405 5.197 21.875 21.875 0 0 1 7.533-1.324c12.131 0 22 9.869 22 22 0 4.807-1.529 9.377-4.421 13.218a8 8 0 0 0 6.003 12.802c11.729.569 20.917 10.219 20.917 21.969a21.992 21.992 0 0 1-5.451 14.482 7.999 7.999 0 0 0 2.391 12.396c7.439 3.788 12.06 11.307 12.06 19.621 0 9.092-5.471 17.126-13.938 20.468a8 8 0 0 0 .25 14.976c8.743 3.118 14.617 11.447 14.617 20.725a22.001 22.001 0 0 1-5.519 14.559c-6.759-8.111-16.513-13.639-27.549-14.88z"/><path d="M242.245 320.489h-63.747a8 8 0 0 0-8 8c0 21.986 17.887 39.873 39.874 39.873s39.874-17.887 39.874-39.873a8.001 8.001 0 0 0-8.001-8zm-31.873 31.873c-10.359 0-19.198-6.632-22.495-15.873h44.989c-3.296 9.241-12.135 15.873-22.494 15.873z"/></svg>