<svg xmlns="http://www.w3.org/2000/svg" viewBox="0 0 421.561 421.561"><path d="M228.649 306.562c-8.198 3.275-16.51 3.275-24.706 0a8 8 0 0 0-10.396 4.461 7.998 7.998 0 0 0 4.461 10.397c5.982 2.39 12.134 3.585 18.288 3.585 6.152 0 12.308-1.195 18.289-3.585a8.001 8.001 0 0 0-5.936-14.858z"/><path d="M391.823 397.883c-18.74-20.752-19.533-73.631-17.314-128.344 8.162-7.667 13.275-18.544 13.275-30.6 0-10.586-3.945-20.263-10.432-27.658 2.727-55.803 4.172-93.122-13.53-127.581-12.076-23.513-31.615-43.158-58.076-58.39C274.908 7.56 239.734-1.155 204.012.123c-31.375 1.118-60.584 15.735-80.725 40.26C97.28 41.93 73.62 56.084 60.889 77.963a126.264 126.264 0 0 0-3.14 5.738c-17.71 34.475-16.265 71.791-13.54 127.589-6.483 7.394-10.426 17.068-10.426 27.651 0 12.052 5.111 22.928 13.27 30.594 2.218 54.716 1.425 107.598-17.315 128.349a8 8 0 0 0 3.109 12.846c21.093 7.97 41.521 10.82 59.958 10.82 19.152 0 36.156-3.078 49.506-6.688 23.195-6.272 39.555-15.076 45.138-18.324a143.387 143.387 0 0 0 23.335 1.914c7.944 0 15.735-.662 23.33-1.914 5.584 3.25 21.943 12.052 45.135 18.324 17.807 4.815 34.314 6.698 49.249 6.698 24.877 0 45.383-5.227 60.215-10.832a7.998 7.998 0 0 0 4.947-5.602 7.997 7.997 0 0 0-1.837-7.243zm-38.039-142.43v-39.69a7.484 7.484 0 0 0 0-.367v-1.192c10.433 3.383 18 13.19 18 24.735 0 11.637-7.685 21.513-18.247 24.819.158-2.748.247-5.516.247-8.305zM71.983 91.01a108.716 108.716 0 0 1 2.737-5.003c10.537-18.11 30.69-29.514 52.693-29.764a7.998 7.998 0 0 0 6.195-3.132c17.264-22.521 43.133-36.007 70.974-37 32.714-1.167 64.941 6.81 93.181 23.066 23.745 13.668 41.182 31.108 51.826 51.833 14.168 27.58 14.589 57.582 12.266 109.131a41.667 41.667 0 0 0-8.071-2.429v-8.135a8 8 0 0 0-16 0v18.169c-110.176 1.201-169.854-51.901-185.772-68.509a7.997 7.997 0 0 0-13.175 2.494c-11.625 28.278-31.936 43.073-63.92 46.559a8 8 0 0 0-7.133 7.953v1.468a41.58 41.58 0 0 0-8.078 2.432c-2.322-51.538-1.899-81.538 12.277-109.133zm231.11 152.774c0 13.371-10.878 24.249-24.248 24.249-13.371 0-24.249-10.878-24.249-24.249 0-13.371 10.878-24.249 24.249-24.249 13.37 0 24.248 10.878 24.248 24.249zM68.031 263.759c-10.562-3.306-18.247-13.182-18.247-24.819 0-11.546 7.567-21.353 18-24.735v41.249c0 2.788.089 5.556.247 8.305zM48.488 399.144c14.266-24.35 16.74-64.828 14.927-120.065a41.73 41.73 0 0 0 6.573 1.452c9.099 51.228 45.568 93.105 93.696 109.943-23.148 9.96-66.959 23.158-115.196 8.67zm35.296-143.69l.002-52.227c30.003-4.937 51.365-19.707 64.905-44.909 11.525 10.515 30.161 24.936 56.426 37.575 15.063 7.249 30.871 13.092 47.358 17.524-8.493 7.385-13.878 18.256-13.878 30.367 0 22.193 18.056 40.249 40.249 40.249 22.192 0 40.248-18.056 40.248-40.249a39.999 39.999 0 0 0-5.706-20.63c8.015.481 16.147.685 24.397.597v31.703c0 70.028-56.972 127-127 127s-127.001-56.973-127.001-127zm200.168 144.105a189.379 189.379 0 0 1-26.097-9.075c48.142-16.83 84.624-58.715 93.725-109.953a41.652 41.652 0 0 0 6.567-1.45c-1.815 55.243.658 95.722 14.931 120.071-28.251 8.533-58.182 8.679-89.126.407z"/><path d="M142.724 203.535c-22.192 0-40.248 18.056-40.248 40.249s18.056 40.249 40.248 40.249c22.193 0 40.249-18.056 40.249-40.249s-18.055-40.249-40.249-40.249zm0 64.497c-13.37 0-24.248-10.878-24.248-24.249 0-13.371 10.878-24.249 24.248-24.249 13.371 0 24.249 10.878 24.249 24.249 0 13.371-10.878 24.249-24.249 24.249z"/><circle cx="142.724" cy="243.784" r="13.486"/><circle cx="278.845" cy="243.784" r="13.486"/><path d="M122.489 286.031H108.99a8 8 0 0 0 0 16h13.499a8 8 0 0 0 0-16zm198.091 8a8 8 0 0 0-8-8h-13.499a8 8 0 0 0 0 16h13.499a8 8 0 0 0 8-8z"/></svg>