<svg xmlns="http://www.w3.org/2000/svg" viewBox="0 0 387.039 387.039"><path d="M209.69 262.514c-5.194.261-10.565.531-16.171.531s-10.977-.27-16.172-.531c-15.733-.791-28.158-1.415-36.031 6.073-4.037 3.839-6.084 9.229-6.084 16.019 0 12.303 6.413 23.691 18.059 32.065 10.848 7.8 25.134 12.096 40.229 12.096s29.381-4.296 40.229-12.096c11.645-8.374 18.058-19.761 18.058-32.064 0-6.79-2.047-12.18-6.084-16.019-7.874-7.489-20.302-6.864-36.033-6.074zm-16.17 50.253c-22.922 0-42.287-12.896-42.287-28.161 0-1.537.192-3.552 1.109-4.425 1.727-1.641 6.435-2.104 12.068-2.104 3.832 0 8.093.214 12.135.417 5.141.258 10.967.551 16.975.551s11.834-.293 16.975-.551c9.984-.501 21.304-1.07 24.202 1.687.917.873 1.109 2.888 1.109 4.425 0 15.265-19.365 28.161-42.286 28.161z"/><path d="M387.039 226.647c0-22.261-16.136-40.811-37.324-44.602v-6.717c0-86.127-70.069-156.196-156.195-156.196-86.127 0-156.196 70.069-156.196 156.196v6.717C16.136 185.837 0 204.387 0 226.647c0 22.453 16.414 41.134 37.871 44.7 3.02 34.414 18.765 59.834 46.942 75.653 25.058 14.068 60.615 20.906 108.707 20.906 48.091 0 83.649-6.839 108.707-20.906 28.176-15.819 43.921-41.238 46.941-75.653 21.457-3.565 37.871-22.247 37.871-44.7zm-371.039 0c0-13.395 9.032-24.713 21.323-28.205v56.41C25.032 251.361 16 240.043 16 226.647zm317.715 32.11c0 35.135-12.862 59.436-39.321 74.291-22.603 12.69-55.599 18.858-100.874 18.858s-78.272-6.168-100.874-18.858c-26.46-14.855-39.322-39.156-39.322-74.291v-83.429c0-63.309 42.185-116.941 99.918-134.29 43.983.556 67.407 32.306 67.407 55.296 0 17.608-14.325 31.934-31.934 31.934-13.204 0-23.947-10.743-23.947-23.947 0-9.681 7.876-17.558 17.558-17.558a8 8 0 0 0 0-16c-18.504 0-33.558 15.054-33.558 33.558 0 22.027 17.92 39.947 39.947 39.947 26.431 0 47.934-21.503 47.934-47.934 0-16.605-8.343-34.47-22.317-47.79-5.592-5.33-11.955-9.806-18.897-13.388 76.424 1.03 138.281 63.507 138.281 140.171v83.43zm16-3.904v-56.41c12.292 3.492 21.324 14.81 21.324 28.205s-9.033 24.713-21.324 28.205z"/><path d="M166.234 200.565c0-8.35-3.252-16.2-9.156-22.104-5.904-5.904-13.754-9.156-22.104-9.156-5.902 0-11.555 1.625-16.447 4.663-4.892-3.038-10.544-4.663-16.447-4.663-8.35 0-16.199 3.251-22.104 9.156-5.905 5.904-9.157 13.754-9.157 22.104s3.252 16.2 9.156 22.104l32.895 32.895a8.002 8.002 0 0 0 11.314 0l32.894-32.895c5.904-5.904 9.156-13.754 9.156-22.104zm-20.47 10.79l-27.237 27.238-27.238-27.238c-2.882-2.882-4.47-6.714-4.47-10.79s1.588-7.908 4.471-10.79c2.882-2.882 6.714-4.47 10.79-4.47s7.908 1.587 10.79 4.469a8 8 0 0 0 11.314 0c2.882-2.882 6.714-4.47 10.79-4.47s7.908 1.587 10.791 4.47a15.16 15.16 0 0 1 4.47 10.79 15.166 15.166 0 0 1-4.471 10.791zm122.748-37.387c-4.893-3.038-10.545-4.663-16.447-4.663-8.351 0-16.2 3.252-22.104 9.156-5.905 5.904-9.157 13.754-9.157 22.104s3.252 16.2 9.156 22.104l32.895 32.895a8.002 8.002 0 0 0 11.314 0l32.894-32.895c5.905-5.904 9.157-13.754 9.157-22.104s-3.252-16.2-9.156-22.104c-5.904-5.904-13.754-9.156-22.104-9.156-5.903 0-11.556 1.625-16.448 4.663zm31.708 26.597c0 4.076-1.588 7.908-4.471 10.791l-27.237 27.238-27.238-27.238c-2.882-2.882-4.47-6.714-4.47-10.79s1.588-7.908 4.471-10.791c2.882-2.882 6.714-4.469 10.79-4.469s7.908 1.587 10.79 4.47a8 8 0 0 0 11.314 0c2.882-2.882 6.714-4.47 10.79-4.47s7.908 1.587 10.791 4.47a15.156 15.156 0 0 1 4.47 10.789z"/></svg>