<svg xmlns="http://www.w3.org/2000/svg" width="719.996" height="719.997" viewBox="0 0 719.996 719.997"><path fill="#FFF" d="M221.271 221.273c-6.76 6.759-6.76 17.718 0 24.477l252.195 252.196c6.76 6.76 17.719 6.76 24.479 0s6.76-17.719 0-24.479L245.748 221.273c-6.759-6.759-17.718-6.759-24.477 0z"/><path fill="#FFF" d="M496.604 219.934c-6.761-6.76-17.72-6.76-24.479 0L219.932 472.129c-6.76 6.76-6.76 17.719 0 24.479 6.759 6.76 17.718 6.76 24.478 0l252.196-252.196c6.756-6.76 6.756-17.719-.002-24.478z"/></svg>