<svg xmlns="http://www.w3.org/2000/svg" viewBox="0 0 420.807 420.807"><path d="M122.427 191.063a15.617 15.617 0 0 1 11.058-4.548h.083a15.62 15.62 0 0 1 11.095 4.662l18.944 19.141a7.972 7.972 0 0 0 5.686 2.373 8 8 0 0 0 5.686-13.627l-18.944-19.142c-5.961-6.022-13.91-9.363-22.383-9.407-8.513-.016-16.456 3.215-22.479 9.176a8 8 0 0 0-.058 11.313 7.997 7.997 0 0 0 11.312.059zm142.357-11.14l-18.944 19.141a8 8 0 1 0 11.372 11.254l18.944-19.141c6.098-6.162 16.074-6.215 22.236-.115a7.999 7.999 0 0 0 11.313-.059 8 8 0 0 0-.058-11.313c-12.432-12.302-32.558-12.198-44.863.233zm-80.057 99.212l6.253 3.443a8 8 0 0 0 7.717-14.015l-6.253-3.443a23.697 23.697 0 0 0-18.151-2.016c-6.122 1.775-11.187 5.827-14.26 11.41l-1.913 3.475c-1.013 1.839-2.682 3.174-4.698 3.759s-4.141.35-5.98-.664a8 8 0 0 0-7.717 14.015 23.728 23.728 0 0 0 11.475 2.97c2.23 0 4.475-.316 6.677-.955a23.702 23.702 0 0 0 14.26-11.41l1.913-3.475a7.816 7.816 0 0 1 4.698-3.759 7.824 7.824 0 0 1 5.979.665zm88.65 1.949c-3.797 2.089-8.59.702-10.679-3.095l-1.913-3.476c-6.347-11.525-20.888-15.741-32.412-9.394l-6.253 3.443a8 8 0 0 0 7.717 14.015l6.253-3.442c3.797-2.092 8.589-.702 10.679 3.094l1.913 3.476c4.342 7.886 12.52 12.349 20.943 12.349 3.889 0 7.829-.951 11.469-2.955a8 8 0 0 0-7.717-14.015zm-103.39-36.177a8 8 0 0 0-1.733-8.718l-29.44-29.441a8 8 0 0 0-11.314 11.313l15.784 15.784h-23.586a8 8 0 0 0 0 16h42.899a7.998 7.998 0 0 0 7.39-4.938zm131.133-11.061h-23.586l15.785-15.784a8 8 0 1 0-11.314-11.313l-29.441 29.441a8 8 0 0 0 5.658 13.656h42.899a8 8 0 1 0-.001-16zm-87.884 57.199h-5.655c-17.23 0-31.248 14.018-31.248 31.249v25.955c0 17.231 14.018 31.249 31.248 31.249h5.655c17.23 0 31.249-14.018 31.249-31.249v-25.955c0-17.231-14.018-31.249-31.249-31.249zm-5.655 16h5.655c6.59 0 12.201 4.21 14.327 10.077h-34.308c2.125-5.867 7.735-10.077 14.326-10.077zm5.655 56.453h-5.655c-8.408 0-15.248-6.841-15.248-15.249v-15.127h36.152v15.127c0 8.408-6.841 15.249-15.249 15.249z"/><path d="M395.329 199.336v-14.411C395.329 82.957 312.371 0 210.403 0S25.478 82.957 25.478 184.925v14.411c-6.718 8.016-10.772 18.335-10.772 29.587 0 22.878 16.743 41.911 38.617 45.512 7.73 33.852 34.766 72.788 80.693 116.084 21.421 20.193 48.902 30.287 76.392 30.287 27.483 0 54.976-10.098 76.392-30.286 45.929-43.298 72.964-82.235 80.694-116.087 21.869-3.606 38.606-22.636 38.606-45.51.001-11.252-4.054-21.571-10.771-29.587zM50.99 254.781c0 .873.031 1.755.06 2.636-11.823-4.074-20.344-15.304-20.344-28.493 0-15.065 11.112-27.583 25.569-29.79a296.626 296.626 0 0 0-5.285 55.647zm224.835 124.097c-36.682 34.58-94.151 34.58-130.833 0-51.029-48.105-78.002-91.017-78.002-124.125 0-48.332 12.574-96.116 36.362-138.187l1.232-2.18c4.262-7.538 11.978-12.383 20.639-12.96.601-.04 1.198-.06 1.791-.06 7.948 0 15.16 3.567 20.004 9.969l.247.329c14.796 19.87 38.399 31.733 63.137 31.733 24.744 0 48.344-11.859 63.131-31.723l.258-.345c5.193-6.866 13.138-10.478 21.783-9.898 8.662.576 16.378 5.42 20.643 12.958l1.222 2.16c23.805 42.083 36.387 89.882 36.387 138.231.001 33.08-26.972 75.992-78.001 124.098zm55.541-270.206s0-.001 0 0l-1.223-2.161c-6.925-12.242-19.451-20.109-33.506-21.044-13.916-.915-27.227 5.135-35.614 16.222l-.323.432c-11.958 16.063-30.291 25.277-50.297 25.277-20.001 0-38.336-9.217-50.312-25.299l-.325-.432c-8.38-11.075-21.695-17.131-35.607-16.205-14.055.937-26.579 8.806-33.502 21.05l-1.232 2.18C76.246 132 66.329 156.969 59.87 182.813a45.815 45.815 0 0 0-18.393 4.251v-2.138C41.478 91.78 117.258 16 210.404 16c93.146 0 168.925 75.78 168.925 168.925v2.138a45.828 45.828 0 0 0-18.387-4.251c-6.464-25.848-16.387-50.825-29.576-74.14zm38.401 148.741c.029-.88.06-1.76.06-2.632 0-18.717-1.792-37.354-5.289-55.646 14.454 2.21 25.562 14.726 25.562 29.789.001 13.184-8.515 24.411-20.333 28.489z"/></svg>