<svg xmlns="http://www.w3.org/2000/svg" width="1280" height="800" viewBox="0 0 1280 800"><path fill="#FFF" d="M1004.338 322.744a2447.277 2447.277 0 0 0-45.905-6.423c-1.867-.242-3.383-1.51-3.854-3.226a324.685 324.685 0 0 0-30.682-74.045c-.891-1.565-.724-3.541.427-5.036a2464.321 2464.321 0 0 0 27.932-37.016c12.225-16.528 10.45-39.981-4.125-54.558l-50.572-50.572c-14.577-14.575-38.028-16.35-54.56-4.122a2462.262 2462.262 0 0 0-37.014 27.93c-1.491 1.15-3.471 1.317-5.036.428a324.711 324.711 0 0 0-74.046-30.683c-1.717-.47-2.984-1.986-3.228-3.857a2487.74 2487.74 0 0 0-6.421-45.9C714.212 15.331 696.374 0 675.76 0h-71.52c-20.616 0-38.454 15.331-41.491 35.663a2471.26 2471.26 0 0 0-6.422 45.905c-.245 1.87-1.511 3.383-3.229 3.854a324.839 324.839 0 0 0-74.043 30.683c-1.566.889-3.545.717-5.039-.428A2448.915 2448.915 0 0 0 437 87.746c-16.532-12.227-39.984-10.449-54.558 4.125l-50.572 50.572c-14.577 14.578-16.35 38.033-4.122 54.56a2476.435 2476.435 0 0 0 27.93 37.013c1.148 1.492 1.317 3.469.428 5.036a324.74 324.74 0 0 0-30.683 74.045c-.471 1.714-1.986 2.981-3.855 3.227a2481.434 2481.434 0 0 0-45.903 6.424C255.331 325.785 240 343.626 240 364.238v71.521c0 20.614 15.331 38.454 35.663 41.494a2464.831 2464.831 0 0 0 45.905 6.422c1.87.245 3.383 1.511 3.854 3.229a324.755 324.755 0 0 0 30.683 74.045c.889 1.567.72 3.544-.428 5.036A2456.259 2456.259 0 0 0 327.747 603c-12.227 16.527-10.455 39.982 4.122 54.559l50.572 50.572c14.578 14.577 38.033 16.352 54.559 4.122a2463.964 2463.964 0 0 0 37.015-27.93c1.492-1.15 3.47-1.315 5.036-.428a324.854 324.854 0 0 0 74.045 30.683c1.718.472 2.984 1.985 3.229 3.854a2476.777 2476.777 0 0 0 6.422 45.9c3.041 20.333 20.878 35.664 41.494 35.664h71.52c20.614 0 38.454-15.331 41.493-35.667a2504.145 2504.145 0 0 0 6.42-45.9c.245-1.87 1.511-3.385 3.229-3.857a324.86 324.86 0 0 0 74.044-30.684c1.566-.886 3.543-.717 5.037.429a2470.702 2470.702 0 0 0 37.014 27.93c16.528 12.227 39.981 10.454 54.56-4.122l50.572-50.572c14.575-14.576 16.351-38.029 4.124-54.56a2516.329 2516.329 0 0 0-27.932-37.014c-1.148-1.492-1.317-3.469-.427-5.036a324.79 324.79 0 0 0 30.682-74.044c.475-1.719 1.987-2.984 3.857-3.229a2476.935 2476.935 0 0 0 45.903-6.422c20.333-3.039 35.664-20.878 35.664-41.492v-71.522c-.001-20.61-15.332-38.451-35.663-41.49zm-1.694 113.02c0 2.266-1.646 4.219-3.833 4.548a2440.55 2440.55 0 0 1-45.206 6.325c-16.81 2.19-30.562 14.101-35.041 30.344a287.448 287.448 0 0 1-27.148 65.52c-8.333 14.67-7.037 32.831 3.3 46.269a2435.196 2435.196 0 0 1 27.507 36.451c1.315 1.777 1.097 4.327-.505 5.929l-50.573 50.571c-1.604 1.604-4.151 1.817-5.927.507a2441.92 2441.92 0 0 1-36.453-27.508c-13.436-10.339-31.596-11.635-46.264-3.304a287.483 287.483 0 0 1-65.522 27.152c-16.241 4.477-28.15 18.229-30.346 35.04a2412.393 2412.393 0 0 1-6.323 45.207c-.326 2.186-2.283 3.832-4.549 3.832h-71.52c-2.266 0-4.223-1.646-4.549-3.834a2441.516 2441.516 0 0 1-6.323-45.203c-2.192-16.811-14.104-30.564-30.346-35.041a287.322 287.322 0 0 1-65.521-27.153 41.724 41.724 0 0 0-20.619-5.454c-9.069 0-18.102 2.953-25.644 8.761a2460.97 2460.97 0 0 1-36.454 27.508c-1.778 1.312-4.323 1.097-5.925-.506l-50.574-50.572c-1.603-1.604-1.822-4.15-.506-5.927a2428.875 2428.875 0 0 1 27.506-36.453c10.336-13.438 11.633-31.596 3.303-46.264a287.437 287.437 0 0 1-27.152-65.522c-4.477-16.24-18.229-28.151-35.039-30.344a2450.267 2450.267 0 0 1-45.209-6.325c-2.186-.328-3.833-2.282-3.833-4.548v-71.522c0-2.266 1.647-4.221 3.833-4.549a2443.934 2443.934 0 0 1 45.207-6.324c16.811-2.191 30.564-14.102 35.041-30.344a287.239 287.239 0 0 1 27.152-65.522c8.331-14.67 7.034-32.83-3.302-46.264a2463.187 2463.187 0 0 1-27.506-36.453c-1.312-1.777-1.095-4.327.506-5.927l50.57-50.573c1.6-1.604 4.148-1.817 5.925-.506a2426.641 2426.641 0 0 1 36.453 27.508c13.438 10.334 31.596 11.633 46.268 3.3a287.372 287.372 0 0 1 65.52-27.151c16.242-4.477 28.154-18.23 30.347-35.041a2430.979 2430.979 0 0 1 6.325-45.208c.326-2.183 2.282-3.832 4.548-3.832h71.521c2.266 0 4.222 1.647 4.549 3.833a2428.618 2428.618 0 0 1 6.324 45.206c2.192 16.811 14.105 30.564 30.346 35.041a287.525 287.525 0 0 1 65.522 27.151c14.669 8.328 32.828 7.035 46.263-3.303a2445.082 2445.082 0 0 1 36.451-27.506c1.776-1.316 4.326-1.099 5.928.506l50.572 50.572c1.604 1.603 1.819 4.151.507 5.926a2420.024 2420.024 0 0 1-27.507 36.454c-10.336 13.439-11.633 31.598-3.3 46.269a287.41 287.41 0 0 1 27.151 65.521c4.477 16.24 18.233 28.149 35.038 30.34a2453.014 2453.014 0 0 1 45.209 6.325c2.187.328 3.833 2.283 3.833 4.549v71.521h-.006z"/><path fill="#FFF" d="M640.001 226.354c-95.75 0-173.647 77.897-173.647 173.647s77.897 173.647 173.647 173.647 173.647-77.897 173.647-173.647-77.897-173.647-173.647-173.647zm0 309.936c-75.151 0-136.29-61.139-136.29-136.289 0-75.152 61.142-136.29 136.29-136.29 75.15 0 136.289 61.139 136.289 136.29S715.152 536.29 640.001 536.29z"/></svg>