<svg xmlns="http://www.w3.org/2000/svg" viewBox="0 0 425.275 425.275"><path d="M313.762 225.738h-38.248a8 8 0 0 0-5.657 13.656l26.249 26.249c1.562 1.562 3.609 2.343 5.657 2.343s4.095-.781 5.657-2.343a7.998 7.998 0 0 0 0-11.313l-12.592-12.592h18.935a8 8 0 1 0-.001-16zm-158.344 13.657a7.998 7.998 0 0 0-5.657-13.656h-38.248a8 8 0 0 0 0 16h18.935l-12.592 12.592a7.998 7.998 0 0 0 0 11.313c1.562 1.562 3.609 2.343 5.657 2.343s4.095-.781 5.657-2.343l26.248-26.249zm131.543 55.702a36.323 36.323 0 0 0-27.586-9.279 530.005 530.005 0 0 1-93.475 0c-10.061-.892-20.117 2.489-27.586 9.279-7.343 6.675-11.591 16.16-11.657 26.015v.709c.065 9.861 4.314 19.345 11.656 26.021a36.342 36.342 0 0 0 27.586 9.279 530.39 530.39 0 0 1 93.475 0c1.063.094 2.124.141 3.184.141 8.973 0 17.723-3.347 24.403-9.42 7.342-6.675 11.591-16.16 11.656-26.034v-.69c-.065-9.861-4.313-19.346-11.656-26.021zm-32.84 7.205a110.566 110.566 0 0 1-40.983 7.851c-14.116 0-27.91-2.657-40.791-7.765a546.553 546.553 0 0 0 81.774-.086zm28.497 19.414c-.036 5.482-2.316 10.557-6.419 14.287a20.288 20.288 0 0 1-15.409 5.181 546.288 546.288 0 0 0-96.303 0 20.29 20.29 0 0 1-15.409-5.181c-4.104-3.73-6.383-8.805-6.419-14.293v-.487c.033-4.943 1.903-9.544 5.276-13.138 19.648 11.828 42.053 18.067 65.205 18.067 22.869 0 45.067-6.106 64.573-17.683 3.145 3.534 4.875 7.987 4.906 12.74v.507z"/><path d="M358.625 72.814c-16.678-22.118-38.504-40.439-63.12-52.985C269.69 6.671 241.809 0 212.637 0c-29.362 0-57.406 6.755-83.353 20.079C104.54 32.784 82.658 51.32 66.002 73.681c-23.62 31.7-36.105 69.413-36.105 109.06v187.495a8 8 0 0 0 8 8h66.261c27.935 29.939 67.147 47.04 108.169 47.04 41.023 0 80.235-17.102 108.169-47.04h66.88a8 8 0 0 0 8-8V182.74c.002-40.034-12.707-78.046-36.751-109.926zM212.328 409.275c-37.667 0-73.626-16.166-98.659-44.353-21.442-24.14-33.251-55.238-33.251-87.567v-81.466c86.681-21.893 177.12-21.94 263.82-.151v81.617c0 32.329-11.809 63.427-33.252 87.568-25.032 28.186-60.992 44.352-98.658 44.352zm167.05-47.04h-45.906c17.356-24.75 26.766-54.326 26.766-84.88v-77.321c1.052.299 2.106.582 3.157.887a8.026 8.026 0 0 0 2.235.319 8.004 8.004 0 0 0 7.679-5.77 8 8 0 0 0-5.45-9.914 558.064 558.064 0 0 0-33.455-8.586c1.647-14.775 1.889-47.102-20.841-76.327a8 8 0 0 0-12.63 9.824c18.373 23.622 18.814 50.318 17.677 63.184a555.02 555.02 0 0 0-147.629-8.637c.461-13.934 4.331-35.346 6.099-43.824a8 8 0 0 0-6.198-9.465c-4.322-.904-8.562 1.872-9.465 6.196-.724 3.468-6.218 30.37-6.458 48.524a555.274 555.274 0 0 0-38.917 5.465c.59-16.349 4.17-50.663 23.054-70.896a8 8 0 1 0-11.697-10.917c-24.227 25.958-27.259 68.354-27.469 84.918a558.757 558.757 0 0 0-42.513 10.542 8 8 0 0 0 4.464 15.365c.844-.245 1.692-.472 2.537-.713v77.147c0 30.554 9.409 60.13 26.766 84.88H45.898V182.74c0-36.176 11.389-70.583 32.936-99.501 15.205-20.414 35.178-37.333 57.759-48.927C160.257 22.161 185.842 16 212.637 16c26.622 0 52.059 6.084 75.603 18.084 22.464 11.45 42.385 28.173 57.61 48.363 21.934 29.083 33.527 63.763 33.527 100.293v179.495z"/></svg>