<svg xmlns="http://www.w3.org/2000/svg" viewBox="0 0 425.275 425.275"><path d="M137.337 228.256c-9.416 0-18.267 3.667-24.924 10.324a7.999 7.999 0 0 0 0 11.313 7.999 7.999 0 0 0 11.313 0c3.636-3.636 8.469-5.638 13.611-5.638s9.976 2.002 13.611 5.638c1.562 1.562 3.609 2.343 5.657 2.343s4.095-.781 5.657-2.343a7.998 7.998 0 0 0 0-11.313c-6.658-6.657-15.509-10.324-24.925-10.324zm169.869 23.981a7.999 7.999 0 0 0 5.657-13.656c-6.658-6.658-15.509-10.324-24.925-10.324s-18.267 3.667-24.925 10.324a7.998 7.998 0 0 0 0 11.313 8 8 0 0 0 11.313 0c3.636-3.636 8.47-5.638 13.611-5.638s9.975 2.002 13.61 5.638a7.978 7.978 0 0 0 5.659 2.343zm-55.595 45.51a8 8 0 0 0-8 8c0 6.333-5.153 11.486-11.487 11.486s-11.487-5.153-11.487-11.486a8 8 0 0 0-16 0c0 6.333-5.153 11.486-11.486 11.486-6.334 0-11.487-5.153-11.487-11.486a8 8 0 0 0-16 0c0 15.156 12.331 27.486 27.487 27.486 7.608 0 14.504-3.107 19.486-8.12 4.982 5.013 11.878 8.12 19.487 8.12 15.156 0 27.487-12.33 27.487-27.486a8 8 0 0 0-8-8zm-132.719-28.512h-17.999a8 8 0 0 0 0 16h17.999a8 8 0 0 0 0-16zm213.49 8a8 8 0 0 0-8-8h-17.999a8 8 0 0 0 0 16h17.999a8 8 0 0 0 8-8z"/><path d="M358.625 72.814c-16.678-22.118-38.504-40.439-63.12-52.985C269.69 6.671 241.809 0 212.637 0c-29.362 0-57.406 6.755-83.353 20.079C104.54 32.784 82.658 51.32 66.002 73.681c-23.62 31.7-36.105 69.413-36.105 109.06v187.495a8 8 0 0 0 8 8h66.261c27.935 29.939 67.147 47.04 108.169 47.04 41.023 0 80.235-17.102 108.169-47.04h66.88a8 8 0 0 0 8-8V182.74c.002-40.034-12.707-78.046-36.751-109.926zM212.328 409.275c-37.667 0-73.626-16.166-98.659-44.353-21.442-24.14-33.251-55.238-33.251-87.567v-81.466c86.681-21.893 177.12-21.94 263.82-.151v81.617c0 32.329-11.809 63.427-33.252 87.568-25.032 28.186-60.992 44.352-98.658 44.352zm167.05-47.04h-45.906c17.356-24.75 26.766-54.326 26.766-84.88v-77.321c1.052.299 2.106.582 3.157.887a8.026 8.026 0 0 0 2.235.319 8.004 8.004 0 0 0 7.679-5.77 8 8 0 0 0-5.45-9.914 558.064 558.064 0 0 0-33.455-8.586c1.647-14.775 1.889-47.102-20.841-76.327a8 8 0 0 0-12.63 9.824c18.373 23.622 18.814 50.318 17.677 63.184a555.02 555.02 0 0 0-147.629-8.637c.461-13.934 4.331-35.346 6.099-43.824a8 8 0 0 0-6.198-9.465c-4.322-.904-8.562 1.872-9.465 6.196-.724 3.468-6.218 30.37-6.458 48.524a555.274 555.274 0 0 0-38.917 5.465c.59-16.349 4.17-50.663 23.054-70.896a8 8 0 1 0-11.697-10.917c-24.227 25.958-27.259 68.354-27.469 84.918a558.757 558.757 0 0 0-42.513 10.542 8 8 0 0 0 4.464 15.365c.844-.245 1.692-.472 2.537-.713v77.147c0 30.554 9.409 60.13 26.766 84.88H45.898V182.74c0-36.176 11.389-70.583 32.936-99.501 15.205-20.414 35.178-37.333 57.759-48.927C160.257 22.161 185.842 16 212.637 16c26.622 0 52.059 6.084 75.603 18.084 22.464 11.45 42.385 28.173 57.61 48.363 21.934 29.083 33.527 63.763 33.527 100.293v179.495z"/></svg>