<svg xmlns="http://www.w3.org/2000/svg" width="1280" height="800" viewBox="0 -40 1280 800"><path fill="#FFF" d="M1006.614 282.262a2450.554 2450.554 0 0 0-46.19-6.463c-1.879-.244-3.404-1.519-3.88-3.246a326.728 326.728 0 0 0-30.873-74.509c-.896-1.575-.728-3.563.43-5.067a2486.752 2486.752 0 0 0 28.107-37.247c12.301-16.631 10.513-40.231-4.151-54.898l-50.89-50.888c-14.667-14.667-38.266-16.453-54.9-4.148A2484.568 2484.568 0 0 0 807.022 73.9c-1.5 1.158-3.492 1.326-5.067.431a326.71 326.71 0 0 0-74.509-30.874c-1.728-.473-3.003-1.999-3.248-3.882a2482.455 2482.455 0 0 0-6.46-46.187c-3.062-20.461-21.01-35.888-41.753-35.888h-71.967c-20.745 0-38.693 15.427-41.75 35.885a2475.64 2475.64 0 0 0-6.461 46.191c-.248 1.881-1.52 3.403-3.25 3.878a326.825 326.825 0 0 0-74.505 30.875c-1.577.895-3.567.721-5.071-.431a2484.85 2484.85 0 0 0-37.246-28.107C419.097 33.49 395.5 35.28 380.834 49.944l-50.889 50.889c-14.668 14.668-16.453 38.269-4.148 54.9a2492.03 2492.03 0 0 0 28.104 37.245c1.156 1.501 1.326 3.49.432 5.067a326.76 326.76 0 0 0-30.875 74.508c-.473 1.725-1.999 3.001-3.878 3.247a2491.874 2491.874 0 0 0-46.19 6.464c-20.463 3.058-35.89 21.009-35.89 41.751v71.968c0 20.744 15.427 38.692 35.885 41.753a2468.05 2468.05 0 0 0 46.191 6.462c1.881.248 3.403 1.52 3.878 3.248a326.794 326.794 0 0 0 30.875 74.508c.895 1.577.725 3.566-.431 5.067a2490.52 2490.52 0 0 0-28.104 37.245c-12.304 16.633-10.52 40.233 4.148 54.901l50.888 50.89c14.669 14.666 38.27 16.453 54.901 4.146a2489.745 2489.745 0 0 0 37.246-28.104c1.501-1.156 3.492-1.324 5.066-.431a326.788 326.788 0 0 0 74.509 30.874c1.729.476 3.003 1.998 3.248 3.88a2490.791 2490.791 0 0 0 6.462 46.187c3.059 20.461 21.008 35.888 41.753 35.888h71.967c20.744 0 38.692-15.427 41.752-35.892a2504.686 2504.686 0 0 0 6.46-46.187c.247-1.882 1.52-3.405 3.248-3.882a326.922 326.922 0 0 0 74.508-30.875c1.575-.891 3.564-.723 5.067.431a2474.526 2474.526 0 0 0 37.246 28.105c16.631 12.304 40.229 10.52 54.9-4.148l50.89-50.888c14.664-14.668 16.451-38.27 4.148-54.9a2519.365 2519.365 0 0 0-28.105-37.246c-1.156-1.502-1.326-3.49-.431-5.067a326.735 326.735 0 0 0 30.873-74.507c.479-1.729 2-3.004 3.883-3.25a2470.539 2470.539 0 0 0 46.189-6.461c20.46-3.058 35.887-21.01 35.887-41.753v-71.968c.003-20.737-15.424-38.689-35.883-41.747zm-1.704 113.725c0 2.28-1.655 4.246-3.856 4.577a2443.388 2443.388 0 0 1-45.489 6.363c-16.914 2.206-30.753 14.188-35.26 30.535a289.245 289.245 0 0 1-27.318 65.929c-8.384 14.762-7.08 33.036 3.321 46.558a2464.156 2464.156 0 0 1 27.679 36.681c1.323 1.788 1.103 4.354-.509 5.965l-50.889 50.889c-1.614 1.613-4.178 1.828-5.964.51a2463.993 2463.993 0 0 1-36.682-27.68c-13.521-10.404-31.794-11.708-46.554-3.325a289.265 289.265 0 0 1-65.933 27.322c-16.342 4.505-28.326 18.344-30.536 35.26a2413.06 2413.06 0 0 1-6.362 45.489c-.327 2.201-2.297 3.856-4.575 3.856h-71.969c-2.28 0-4.249-1.655-4.577-3.858a2461.248 2461.248 0 0 1-6.362-45.486c-2.207-16.916-14.193-30.755-30.536-35.259a289.073 289.073 0 0 1-65.932-27.324 41.987 41.987 0 0 0-20.748-5.487c-9.125 0-18.214 2.972-25.804 8.816a2469.2 2469.2 0 0 1-36.682 27.68c-1.789 1.319-4.351 1.104-5.962-.51L356.522 592.6c-1.613-1.612-1.833-4.177-.51-5.964a2449.326 2449.326 0 0 1 27.679-36.682c10.4-13.521 11.706-31.793 3.324-46.554a289.238 289.238 0 0 1-27.322-65.932c-4.504-16.343-18.344-28.327-35.258-30.534a2466.352 2466.352 0 0 1-45.491-6.363c-2.199-.331-3.857-2.298-3.857-4.577v-71.969c0-2.28 1.657-4.247 3.857-4.578 14.916-2.23 30.22-4.371 45.489-6.363 16.917-2.205 30.756-14.19 35.26-30.533a289.073 289.073 0 0 1 27.321-65.932c8.385-14.763 7.079-33.035-3.322-46.553a2485.443 2485.443 0 0 1-27.679-36.681c-1.32-1.788-1.102-4.354.51-5.964l50.886-50.89c1.61-1.613 4.174-1.828 5.962-.51a2457.251 2457.251 0 0 1 36.682 27.68c13.521 10.399 31.793 11.706 46.557 3.321A289.198 289.198 0 0 1 562.538 79.7c16.344-4.504 28.332-18.343 30.537-35.26a2459.096 2459.096 0 0 1 6.363-45.49c.329-2.196 2.298-3.854 4.578-3.854h71.966c2.279 0 4.249 1.657 4.578 3.857a2462.91 2462.91 0 0 1 6.363 45.489c2.206 16.917 14.192 30.755 30.535 35.26a289.295 289.295 0 0 1 65.932 27.322c14.761 8.38 33.034 7.079 46.553-3.324a2455.163 2455.163 0 0 1 36.681-27.678c1.787-1.324 4.354-1.105 5.965.51l50.888 50.889c1.613 1.613 1.83 4.177.51 5.963a2436.794 2436.794 0 0 1-27.679 36.681c-10.399 13.523-11.705 31.795-3.32 46.558a289.224 289.224 0 0 1 27.322 65.93c4.504 16.342 18.346 28.324 35.257 30.53a2498.697 2498.697 0 0 1 45.49 6.363c2.201.331 3.857 2.298 3.857 4.578v71.969h-.005v-.006z"/><path fill="#FFF" d="M640.001 185.268c-96.349 0-174.733 78.384-174.733 174.733 0 96.348 78.384 174.732 174.733 174.732s174.732-78.384 174.732-174.732-78.383-174.733-174.732-174.733zm0 311.875c-75.622 0-137.142-61.521-137.142-137.141 0-75.622 61.523-137.142 137.142-137.142 75.62 0 137.142 61.521 137.142 137.142 0 75.619-61.521 137.141-137.142 137.141z"/></svg>