<svg xmlns="http://www.w3.org/2000/svg" viewBox="0 0 423.236 423.236"><path d="M211.618 309.26c-20.953 0-38 17.047-38 38 0 6.674 1.792 11.455 5.478 14.617 5.698 4.888 13.33 3.713 20.711 2.577 3.813-.587 7.755-1.194 11.812-1.194s7.999.607 11.812 1.194c3.232.498 6.513 1.002 9.658 1.002 4.036 0 7.851-.832 11.053-3.579 3.686-3.162 5.478-7.943 5.478-14.617-.002-20.953-17.049-38-38.002-38zm21.851 40.224c-1.749.062-5.067-.454-7.604-.845-4.202-.646-8.965-1.38-14.246-1.38s-10.044.733-14.246 1.38c-2.536.391-5.851.906-7.604.845-.078-.475-.149-1.192-.149-2.225 0-12.131 9.869-22 22-22s22 9.869 22 22c-.002 1.033-.073 1.751-.151 2.225z"/><path d="M412.845 337.907c-12.236-30.709-39.929-49.281-50.776-55.609 18.073-4.689 31.458-21.14 31.458-40.659a42.042 42.042 0 0 0-7.356-23.742 180.815 180.815 0 0 0 4.116-38.328C390.288 80.555 309.737 0 210.727 0 111.713 0 31.158 80.555 31.158 179.57c0 13.64 1.555 27.209 4.587 40.399a41.747 41.747 0 0 0-6.038 21.674c0 19.518 13.384 35.968 31.456 40.658-10.849 6.329-38.538 24.901-50.772 55.607-15.067 37.812-.466 78.383.162 80.092a8.001 8.001 0 0 0 11.058 4.405c1.632-.808 40.132-20.221 55.198-58.033 2.691-6.752 4.431-13.592 5.478-20.284a147.774 147.774 0 0 0 18.708 26.404c28.065 31.603 68.386 49.728 110.622 49.728 42.235 0 82.556-18.125 110.621-49.727a147.779 147.779 0 0 0 18.709-26.406c1.047 6.692 2.788 13.532 5.478 20.285 15.065 37.813 53.566 57.226 55.198 58.034a8.004 8.004 0 0 0 6.511.263 8.001 8.001 0 0 0 4.547-4.668c.63-1.71 15.231-42.281.164-80.094zm-35.318-96.302l.001.035c0 11.546-7.567 21.353-18 24.735v-16.816c2.332.453 4.687.883 7.093 1.261a8.002 8.002 0 0 0 8.361-4.253l2.545-4.962zm-331.82.037c0-11.546 7.567-21.353 18.001-24.736v49.471c-10.434-3.382-18.001-13.189-18.001-24.735zm16.239 116.807c-8.816 22.126-27.943 37.288-39.028 44.599-3.021-12.936-6.479-37.095 2.336-59.219 8.815-22.125 27.942-37.287 39.028-44.598 3.021 12.936 6.478 37.095-2.336 59.218zm69.192-18.481l-.063-.227a32.459 32.459 0 0 1 .481-19.88 48.19 48.19 0 0 0 2.72-15.975c0-4.645-.673-9.271-1.998-13.748-1.941-6.568-1.776-13.446.48-19.893l3.299-9.443c.087-.001.173-.013.26-.013 1.928 0 3.812.282 5.607.825l-2.385 9.273a48.466 48.466 0 0 0 .54 26.119l2.041 6.731a32.45 32.45 0 0 1 .37 17.477l-1.764 6.823a48.514 48.514 0 0 0 .552 26.096l2.038 6.733a32.541 32.541 0 0 1 .372 17.492l-1.56 6.053a131.864 131.864 0 0 1-13.605-9.675l1.846-5.277c3.34-9.573 3.604-19.766.769-29.491zm148.412 38.4a32.522 32.522 0 0 1 .368-17.493l2.041-6.743a48.53 48.53 0 0 0 .547-26.107l-1.757-6.796a32.46 32.46 0 0 1 .367-17.491l2.042-6.738a48.434 48.434 0 0 0 .54-26.105l-2.387-9.278a19.333 19.333 0 0 1 5.606-.825c.088 0 .174.012.261.013l3.3 9.447c2.255 6.443 2.421 13.321.48 19.886a48.419 48.419 0 0 0-2 13.751c0 5.447.915 10.822 2.715 15.959a32.474 32.474 0 0 1 .486 19.894c-.022.075-.044.15-.063.226-2.835 9.724-2.57 19.918.771 29.503l1.844 5.271a131.95 131.95 0 0 1-13.604 9.674l-1.557-6.048zM343.528 272.3c0 32.329-11.809 63.428-33.252 87.568a131.903 131.903 0 0 1-2.72 2.961c-1.823-6.061-1.863-12.434-.057-18.528.021-.073.043-.147.063-.221a48.462 48.462 0 0 0-.782-29.508 32.249 32.249 0 0 1-1.82-10.686c0-3.104.451-6.202 1.343-9.213 2.522-8.535 2.658-17.422.431-25.929a7.96 7.96 0 0 0 5.108-2.317 7.999 7.999 0 0 0 .001-11.313c-6.657-6.658-15.509-10.324-24.925-10.324-9.415 0-18.267 3.667-24.924 10.324a7.999 7.999 0 0 0-.001 11.313 7.963 7.963 0 0 0 4.618 2.268l1.593 6.191a32.443 32.443 0 0 1-.36 17.479l-2.04 6.73a48.48 48.48 0 0 0-.549 26.124l1.757 6.796a32.498 32.498 0 0 1-.368 17.484l-2.041 6.745a48.552 48.552 0 0 0-.549 26.109l2.535 9.84c-17.072 7.83-35.798 12.027-54.971 12.027s-37.899-4.197-54.971-12.027l2.538-9.848a48.563 48.563 0 0 0-.552-26.106l-2.039-6.736a32.494 32.494 0 0 1-.373-17.474l1.764-6.823a48.447 48.447 0 0 0-.553-26.109l-2.037-6.721a32.453 32.453 0 0 1-.361-17.495l1.591-6.185a7.95 7.95 0 0 0 4.617-2.267 7.999 7.999 0 0 0 .001-11.313c-6.657-6.658-15.509-10.324-24.925-10.324-9.415 0-18.267 3.667-24.924 10.324a7.999 7.999 0 0 0-.001 11.313 7.968 7.968 0 0 0 5.11 2.318c-2.227 8.509-2.091 17.396.432 25.933a32.27 32.27 0 0 1-.484 19.909 48.445 48.445 0 0 0-.778 29.488l.063.225c1.807 6.098 1.768 12.473-.057 18.528a131.954 131.954 0 0 1-2.72-2.962c-21.442-24.14-33.251-55.238-33.251-87.567v-60.234c5.388-2.743 14.143-8.057 22.827-17.015 9.475-9.772 20.33-25.518 25.003-48.979 4.579 6.503 10.377 13.911 17.396 21.342 26.571 28.134 58.017 43.005 90.937 43.005 2.92 0 5.607-1.591 7.013-4.15s1.305-5.681-.264-8.145c-8.875-13.947-10.557-28.148-9.866-39.237a197.353 197.353 0 0 0 20.667 29.051c17.457 20.366 46.525 45.442 90.108 57.811v26.55zm-77.55-94.297c-20.353-23.577-28.507-45.588-28.583-45.795a8.001 8.001 0 0 0-14.863-.476c-.598 1.376-12.801 30.23-.22 61.721-23.529-3.389-45.487-15.691-65.438-36.698-18.162-19.124-27.701-38.616-27.792-38.803a8.004 8.004 0 0 0-10.204-3.95c-3.068 1.221-5 4.312-5.005 7.614-.076 50.587-30.102 70.473-41.04 76.039-2.151 1.095-17.722 4.813-23.514 8.477a164.956 164.956 0 0 1-2.164-26.561C47.158 89.377 120.535 16 210.727 16c90.188 0 163.561 73.377 163.561 163.57 0 12.946-1.518 25.84-4.507 38.312l-.019.077c-1.172 4.842-6.335 16.076-6.335 16.076-38.89-7.318-71.653-26.15-97.449-56.032zM400.313 403.07c-11.072-7.276-30.165-22.39-39.023-44.621-8.815-22.125-5.357-46.287-2.337-59.218 11.09 7.313 30.214 22.475 39.029 44.598 8.821 22.14 5.353 46.316 2.331 59.241z"/></svg>