<svg xmlns="http://www.w3.org/2000/svg" viewBox="0 0 466.024 466.024"><path d="M447.106 266.299a42.205 42.205 0 0 0-6.829-23.053 211.806 211.806 0 0 0 2.645-33.333C442.922 94.167 348.755 0 233.009 0S23.095 94.167 23.095 209.913c0 11.194.896 22.392 2.646 33.342a42.208 42.208 0 0 0-6.824 23.043c0 21.148 15.54 38.731 35.799 41.941 10.811 88.782 86.642 157.785 178.295 157.785s167.484-69.002 178.295-157.785c20.261-3.209 35.8-20.792 35.8-41.94zm-412.188 0c0-11.807 7.772-21.83 18.467-25.229l.001 45.33c0 1.725.03 3.443.079 5.156-10.737-3.375-18.547-13.421-18.547-25.257zm198.094 183.725c-90.224 0-163.625-73.402-163.625-163.625l-.001-82.724c0-12.358 6.481-23.291 17.338-29.246 10.75-5.897 23.315-5.499 33.614 1.065 33.637 21.44 72.599 32.773 112.671 32.773 40.074 0 79.037-11.333 112.676-32.774 10.297-6.563 22.862-6.963 33.613-1.066 10.856 5.954 17.338 16.888 17.338 29.245l.002 82.727c0 90.223-73.402 163.625-163.626 163.625zm153.979-289.625c-15.951-8.75-34.608-8.149-49.906 1.603-31.066 19.801-67.055 30.267-104.077 30.267-37.021 0-73.008-10.466-104.072-30.266-15.299-9.752-33.958-10.35-49.909-1.602-16.057 8.807-25.644 24.984-25.643 43.274v20.921a42.154 42.154 0 0 0-13.293 4.981 196.486 196.486 0 0 1-.997-19.665C39.095 102.989 126.085 16 233.009 16s193.913 86.989 193.913 193.913c0 6.573-.341 13.146-.997 19.661a42.154 42.154 0 0 0-13.288-4.978v-20.923c-.002-18.29-9.588-34.467-25.646-43.274zm25.568 131.157c.049-1.713.079-3.431.079-5.156l-.001-45.331c10.697 3.399 18.469 13.423 18.469 25.23 0 11.836-7.81 21.882-18.547 25.257z"/><circle cx="159.805" cy="286.835" r="13.462"/><circle cx="308.733" cy="286.835" r="13.462"/><path d="M284.549 252.357a7.999 7.999 0 0 0 0 11.314 8.001 8.001 0 0 0 11.313 0c7.097-7.098 18.644-7.098 25.74 0 1.562 1.562 3.609 2.343 5.657 2.343s4.095-.781 5.657-2.343a7.999 7.999 0 0 0 0-11.314c-13.335-13.334-35.032-13.334-48.367 0zm-124.745-10.016c-9.135 0-17.724 3.558-24.184 10.018a8 8 0 1 0 11.314 11.312 18.079 18.079 0 0 1 12.869-5.33c4.862 0 9.432 1.893 12.87 5.33a7.973 7.973 0 0 0 5.657 2.344 7.999 7.999 0 0 0 5.657-13.656c-6.458-6.461-15.047-10.018-24.183-10.018zm105.658 97.495a8 8 0 0 0-8 8c0 13.481-10.968 24.45-24.45 24.45s-24.451-10.969-24.451-24.45a8 8 0 0 0-16 0c0 22.305 18.146 40.45 40.451 40.45 22.304 0 40.45-18.146 40.45-40.45a8 8 0 0 0-8-8z"/></svg>