<svg xmlns="http://www.w3.org/2000/svg" width="720" height="719.997" viewBox="0 0 720 719.997"><path d="M618.26 246.987c25.946-26.001 25.946-68.165 0-94.166l-47.055-47.111c-26.003-26.002-68.165-26.002-94.167 0l-28.477 29.41L589.84 276.342l28.42-29.355zM234.448 564.174c-20.34 0-50.08 2.639-64.482-11.765-14.402-14.459-11.709-44.142-11.709-64.481 0-3.738-24.407-37.216-25.177-38.151L98.999 623.434l173.161-34.027c-.825-.771-33.699-25.233-37.712-25.233zm184.32-402.777l-.495.495-.274-.275L162.49 417.346l148.699 148.257L567.411 311.14l-.714-.715.714-.714-148.643-148.314zm-212.74 258.916L421.792 204.88l27.54 27.431L233.514 447.69l-27.486-27.377zm102.468 102.138L280.68 494.69l215.873-215.379 27.816 27.761-215.873 215.379z"/></svg>