<svg xmlns="http://www.w3.org/2000/svg" viewBox="0 0 424.239 424.239"><path d="M139.627 249.841a8 8 0 0 0 11.314-11.314c-5.784-5.784-13.475-8.969-21.654-8.969s-15.87 3.185-21.653 8.969a8 8 0 0 0 .001 11.314c1.562 1.562 3.608 2.343 5.656 2.343s4.095-.781 5.657-2.343a14.526 14.526 0 0 1 10.339-4.283c3.906 0 7.578 1.521 10.34 4.283zm155.325-20.283c-8.18 0-15.87 3.185-21.653 8.969a8 8 0 0 0 .001 11.314c1.562 1.562 3.608 2.343 5.656 2.343s4.095-.781 5.657-2.343a14.526 14.526 0 0 1 10.339-4.283c3.906 0 7.578 1.521 10.34 4.283a8 8 0 0 0 11.314-11.314c-5.784-5.784-13.474-8.969-21.654-8.969z"/><path d="M400.882 254.178c0-21.731-15.71-39.851-36.366-43.63V76.715a51.557 51.557 0 0 0-23.104-43.057c-13.588-9.015-30.458-11.062-45.711-5.686l-50.225-17.048C206.879-2.177 166.253-3.521 127.992 7.036 77.899 20.857 49.181 50.084 44.749 91.628a60.736 60.736 0 0 0-9.157 17.254l-3.896 11.531c-2.092 6.191.215 12.697 5.738 16.189s12.391 2.784 17.085-1.759a27.915 27.915 0 0 1 5.204-3.955v79.66c-20.657 3.779-36.366 21.898-36.366 43.63 0 22.601 16.991 41.296 38.868 44.014 5.494 30.336 19.931 58.319 42.007 80.712 28.82 29.236 67.135 45.336 107.888 45.336h.016c40.701-.004 78.966-15.856 107.745-44.635 22.481-22.481 37.073-50.749 42.385-81.445 21.755-2.831 38.616-21.468 38.616-43.982zM332.565 46.991c10.137 6.725 15.95 17.559 15.95 29.724v104.689c-24.831-3.859-43.897-25.383-43.897-51.279l-.662-87.96c9.769-2.575 19.955-.915 28.609 4.826zm-283.37 71.614l1.555-4.601a44.865 44.865 0 0 1 24.814-26.85 44.868 44.868 0 0 1 36.557.572c24.228 11.284 53.513 5.184 71.22-14.833l1.982-2.241a8 8 0 0 0-11.984-10.601l-1.982 2.241c-13.049 14.751-34.629 19.244-52.48 10.93a60.877 60.877 0 0 0-49.608-.777 60.343 60.343 0 0 0-4.234 2.034C74.333 49.688 96.84 32.23 132.25 22.46c35.159-9.701 72.536-8.451 108.085 3.615l47.622 16.165.624 41.337c-21.205 28.831-52.131 48.348-87.373 55.059-36.085 6.872-72.899-.4-103.663-20.474-15.033-9.808-33.983-9.39-48.35.443zm-9.838 135.573c0-12.863 8.609-23.747 20.366-27.21v43.362c0 3.746.135 7.471.398 11.172-11.96-3.333-20.764-14.316-20.764-27.324zM308.566 368.29c-25.757 25.758-60.005 39.945-96.433 39.949h-.014c-36.433 0-70.705-14.409-96.494-40.568-25.731-26.102-39.902-60.672-39.902-97.342V127.116a27.643 27.643 0 0 1 13.075 4.445c34.246 22.347 75.227 30.442 115.4 22.792 32.608-6.21 61.902-22.263 84.419-45.938v21.709c0 34.731 26.218 63.437 59.897 67.41v74.308c.001 36.434-14.186 70.686-39.948 96.448zm55.64-86.814c.198-3.194.309-6.405.309-9.633v-44.876c11.757 3.463 20.366 14.347 20.366 27.21.001 12.976-8.76 23.937-20.675 27.299z"/><path d="M238.692 289.043c-8.516.428-17.322.87-26.572.87s-18.057-.443-26.573-.87c-24.404-1.226-43.68-2.195-54.935 8.508-5.534 5.264-8.341 12.812-8.341 22.434 0 18.366 9.696 35.453 27.302 48.114 16.81 12.087 39.021 18.744 62.547 18.744 23.524 0 45.737-6.657 62.546-18.744 17.606-12.661 27.303-29.748 27.303-48.114 0-9.623-2.807-17.171-8.341-22.434-11.254-10.703-30.527-9.735-54.936-8.508zm-97.054 20.101c3.982-3.787 12.631-4.811 23.255-4.811 6.132 0 12.921.341 19.851.689 8.308.417 17.724.891 27.376.891s19.068-.473 27.376-.891c18.938-.952 36.824-1.851 43.105 4.122.833.792 3.367 3.202 3.367 10.84 0 1.165-.078 2.317-.19 3.462-11.47-5.076-27.834-4.258-47.096-3.292-8.512.427-17.313.869-26.559.869-9.248 0-18.052-.442-26.566-.869-19.263-.966-35.627-1.783-47.096 3.291a35.502 35.502 0 0 1-.19-3.461c0-7.637 2.534-10.048 3.367-10.84zm70.482 61.698c-31.043 0-57.654-13.265-68.559-31.992 7.455-4.406 23.284-3.615 41.194-2.716 8.306.417 17.719.889 27.368.889 9.646 0 19.058-.472 27.36-.889 17.913-.899 33.742-1.69 41.193 2.718-10.904 18.726-37.514 31.99-68.556 31.99z"/></svg>