<svg xmlns="http://www.w3.org/2000/svg" width="1280" height="720" viewBox="0 0 1280 720"><path fill="#FFF" d="M967.903 290.47a2198.135 2198.135 0 0 0-41.313-5.781c-1.681-.218-3.045-1.358-3.47-2.903a292.216 292.216 0 0 0-27.613-66.641c-.802-1.409-.651-3.187.384-4.532a2219.78 2219.78 0 0 0 25.139-33.314c11.002-14.875 9.404-35.983-3.713-49.102l-45.515-45.515c-13.119-13.118-34.226-14.715-49.104-3.71a2215.82 2215.82 0 0 0-33.312 25.137c-1.342 1.035-3.124 1.186-4.532.385a292.242 292.242 0 0 0-66.642-27.614c-1.545-.423-2.686-1.788-2.905-3.472a2228.91 2228.91 0 0 0-5.778-41.31C706.791 13.798 690.737 0 672.185 0h-64.369c-18.554 0-34.607 13.798-37.341 32.096a2213.592 2213.592 0 0 0-5.78 41.314c-.221 1.683-1.359 3.044-2.906 3.469a292.302 292.302 0 0 0-66.639 27.615c-1.41.8-3.19.645-4.535-.385a2214.325 2214.325 0 0 0-33.313-25.139c-14.88-11.004-35.986-9.403-49.103 3.713l-45.515 45.515c-13.119 13.12-14.715 34.229-3.71 49.104a2226.94 2226.94 0 0 0 25.137 33.312c1.034 1.343 1.186 3.122.386 4.532a292.281 292.281 0 0 0-27.615 66.641c-.423 1.543-1.788 2.684-3.469 2.904a2231.292 2231.292 0 0 0-41.313 5.781c-18.302 2.735-32.1 18.791-32.1 37.342v64.37c0 18.553 13.798 34.607 32.096 37.344a2215.749 2215.749 0 0 0 41.314 5.78c1.683.221 3.044 1.359 3.469 2.905a292.308 292.308 0 0 0 27.615 66.641c.8 1.41.648 3.189-.385 4.532a2223.526 2223.526 0 0 0-25.137 33.312c-11.004 14.876-9.409 35.985 3.71 49.104l45.515 45.516c13.12 13.118 34.229 14.716 49.104 3.709a2220.926 2220.926 0 0 0 33.312-25.137c1.343-1.035 3.123-1.184 4.532-.385a292.295 292.295 0 0 0 66.641 27.614c1.546.425 2.687 1.787 2.905 3.47a2227.613 2227.613 0 0 0 5.78 41.31c2.736 18.3 18.79 32.098 37.344 32.098h64.369c18.553 0 34.607-13.798 37.343-32.101a2248.919 2248.919 0 0 0 5.778-41.31c.221-1.684 1.359-3.046 2.905-3.473a292.362 292.362 0 0 0 66.64-27.614c1.41-.797 3.189-.646 4.533.385a2217.642 2217.642 0 0 0 33.313 25.138c14.875 11.004 35.982 9.409 49.104-3.71l45.515-45.515c13.117-13.119 14.715-34.228 3.711-49.104a2257.703 2257.703 0 0 0-25.138-33.313c-1.034-1.343-1.186-3.121-.385-4.532a292.212 292.212 0 0 0 27.613-66.64c.428-1.547 1.789-2.686 3.473-2.906a2227.875 2227.875 0 0 0 41.312-5.779c18.3-2.735 32.098-18.791 32.098-37.344V327.81c.001-18.548-13.797-34.605-32.096-37.34zm-1.524 101.718c0 2.039-1.481 3.797-3.449 4.093a2200.347 2200.347 0 0 1-40.686 5.692c-15.129 1.972-27.506 12.69-31.537 27.31a258.67 258.67 0 0 1-24.434 58.968c-7.499 13.203-6.333 29.548 2.971 41.642A2208.502 2208.502 0 0 1 894 562.7c1.184 1.599.986 3.894-.455 5.335l-45.516 45.515c-1.443 1.443-3.736 1.636-5.334.456a2208.217 2208.217 0 0 1-32.808-24.757c-12.093-9.306-28.437-10.472-41.638-2.974a258.717 258.717 0 0 1-58.971 24.437c-14.616 4.029-25.335 16.407-27.311 31.537a2173.131 2173.131 0 0 1-5.691 40.686c-.293 1.968-2.054 3.449-4.093 3.449h-64.369c-2.039 0-3.8-1.481-4.093-3.45a2198.825 2198.825 0 0 1-5.691-40.684c-1.973-15.13-12.694-27.508-27.311-31.536a258.62 258.62 0 0 1-58.971-24.438 37.546 37.546 0 0 0-18.557-4.909c-8.162 0-16.291 2.658-23.079 7.886a2213.445 2213.445 0 0 1-32.808 24.757c-1.601 1.18-3.892.987-5.333-.456l-45.516-45.515c-1.443-1.442-1.64-3.735-.456-5.334a2183.376 2183.376 0 0 1 24.756-32.808c9.302-12.094 10.47-28.436 2.973-41.638a258.671 258.671 0 0 1-24.437-58.97c-4.029-14.617-16.407-25.337-31.535-27.31a2214.984 2214.984 0 0 1-40.688-5.692c-1.967-.296-3.45-2.055-3.45-4.094v-64.37c0-2.039 1.482-3.798 3.45-4.094a2208.554 2208.554 0 0 1 40.686-5.692c15.13-1.972 27.508-12.691 31.537-27.309a258.552 258.552 0 0 1 24.436-58.97c7.499-13.204 6.331-29.547-2.971-41.638A2209.128 2209.128 0 0 1 386 157.312c-1.181-1.599-.986-3.894.456-5.334l45.513-45.516c1.44-1.443 3.733-1.635 5.333-.456a2196.278 2196.278 0 0 1 32.808 24.757c12.094 9.301 28.436 10.47 41.641 2.97a258.658 258.658 0 0 1 58.967-24.437c14.618-4.029 25.34-16.407 27.312-31.537a2195.376 2195.376 0 0 1 5.692-40.687c.294-1.964 2.055-3.448 4.094-3.448h64.368c2.039 0 3.8 1.482 4.094 3.45a2193.06 2193.06 0 0 1 5.692 40.686c1.973 15.13 12.694 27.508 27.311 31.537a258.728 258.728 0 0 1 58.97 24.437c13.202 7.495 29.546 6.331 41.637-2.973a2204.664 2204.664 0 0 1 32.807-24.756c1.599-1.184 3.894-.989 5.335.456l45.515 45.515c1.443 1.443 1.637 3.736.456 5.334a2179.458 2179.458 0 0 1-24.756 32.808c-9.302 12.095-10.47 28.438-2.97 41.642a258.65 258.65 0 0 1 24.437 58.968c4.028 14.617 16.409 25.334 31.534 27.306a2221.397 2221.397 0 0 1 40.688 5.692c1.968.296 3.45 2.055 3.45 4.094v64.369h-.005z"/><path fill="#FFF" d="M640.001 203.718c-86.176 0-156.283 70.107-156.283 156.283 0 86.175 70.107 156.282 156.283 156.282 86.175 0 156.282-70.107 156.282-156.282 0-86.175-70.107-156.283-156.282-156.283zm0 278.943c-67.637 0-122.661-55.025-122.661-122.66 0-67.637 55.027-122.661 122.661-122.661 67.635 0 122.66 55.025 122.66 122.661 0 67.635-55.024 122.66-122.66 122.66z"/></svg>