<svg xmlns="http://www.w3.org/2000/svg" viewBox="0 0 424.239 424.239"><circle cx="129.287" cy="261.896" r="14.974"/><circle cx="294.952" cy="261.896" r="14.974"/><path d="M139.627 210.836c1.562 1.562 3.609 2.343 5.657 2.343s4.095-.781 5.657-2.343a7.999 7.999 0 0 0 0-11.314c-11.938-11.939-31.367-11.94-43.307 0a7.999 7.999 0 0 0 0 11.314 7.999 7.999 0 0 0 11.313 0c5.701-5.702 14.979-5.701 20.68 0zm133.671-11.314a8 8 0 0 0 11.314 11.314c5.701-5.7 14.978-5.702 20.679 0 1.563 1.562 3.609 2.343 5.657 2.343s4.095-.781 5.657-2.343a8 8 0 0 0 0-11.314c-11.941-11.94-31.366-11.938-43.307 0z"/><path d="M400.881 254.178c0-21.731-15.71-39.851-36.366-43.63V76.715a51.555 51.555 0 0 0-23.104-43.057c-13.589-9.015-30.459-11.062-45.711-5.686l-50.225-17.048C206.881-2.177 166.256-3.521 127.992 7.036 77.9 20.857 49.182 50.084 44.749 91.627a60.731 60.731 0 0 0-9.158 17.255l-3.895 11.53c-2.092 6.191.213 12.697 5.737 16.189 5.522 3.492 12.39 2.786 17.086-1.759a27.915 27.915 0 0 1 5.204-3.955v79.66c-20.656 3.779-36.366 21.898-36.366 43.63 0 22.601 16.991 41.296 38.868 44.014 5.494 30.336 19.931 58.319 42.006 80.712 28.821 29.236 67.135 45.336 107.888 45.336h.015c40.701-.004 78.966-15.856 107.745-44.635 22.481-22.481 37.073-50.748 42.385-81.445 21.757-2.83 38.617-21.468 38.617-43.981zM332.565 46.991c10.137 6.725 15.95 17.559 15.95 29.724v104.689c-24.831-3.859-43.897-25.383-43.897-51.279l-.662-87.96c9.769-2.575 19.954-.915 28.609 4.826zm-283.37 71.613l1.554-4.601a44.864 44.864 0 0 1 24.815-26.85 44.862 44.862 0 0 1 36.556.573c24.226 11.283 53.513 5.184 71.22-14.833l1.983-2.241a8 8 0 0 0-11.983-10.601l-1.982 2.241c-13.049 14.75-34.629 19.244-52.481 10.93a60.88 60.88 0 0 0-49.609-.777 60.758 60.758 0 0 0-4.233 2.033c9.299-24.791 31.805-42.249 67.215-52.019 35.161-9.702 72.535-8.451 108.084 3.615l47.622 16.165.624 41.337c-21.205 28.831-52.131 48.348-87.373 55.059-36.086 6.871-72.9-.4-103.663-20.474-15.032-9.807-33.981-9.389-48.349.443zm-9.838 135.574c0-12.863 8.609-23.747 20.366-27.21v43.362c0 3.746.135 7.471.398 11.172-11.959-3.333-20.764-14.316-20.764-27.324zM308.566 368.29c-25.757 25.758-60.005 39.945-96.433 39.949h-.014c-36.433 0-70.705-14.409-96.494-40.568-25.731-26.102-39.902-60.672-39.902-97.342V127.116a27.643 27.643 0 0 1 13.075 4.445c34.246 22.347 75.228 30.442 115.4 22.792 32.609-6.21 61.902-22.263 84.419-45.938v21.709c0 34.731 26.218 63.437 59.897 67.41v74.308c.001 36.435-14.186 70.687-39.948 96.448zm55.64-86.814c.198-3.194.309-6.405.309-9.633v-44.876c11.757 3.463 20.366 14.347 20.366 27.21 0 12.976-8.76 23.937-20.675 27.299z"/><path d="M259.218 314.395c-12.683-9.12-29.409-14.143-47.099-14.143-17.69 0-34.417 5.023-47.1 14.143-13.48 9.694-20.904 22.836-20.904 37.006 0 7.662 2.281 13.716 6.779 17.994 8.913 8.478 23.449 7.747 41.851 6.822 6.217-.313 12.646-.635 19.374-.635 6.728 0 13.156.323 19.373.635 5.512.277 10.675.536 15.445.536 11.157 0 20.161-1.42 26.406-7.359 4.498-4.278 6.778-10.332 6.778-17.994.002-14.169-7.422-27.311-20.903-37.005zm3.1 43.406c-3.94 3.748-17.199 3.081-30.022 2.437-6.115-.307-13.046-.656-20.176-.656-7.129 0-14.061.348-20.176.656-12.822.645-26.082 1.311-30.022-2.437-.446-.425-1.805-1.716-1.805-6.4 0-8.881 5.059-17.41 14.245-24.015 9.983-7.179 23.393-11.133 37.758-11.133s27.774 3.954 37.758 11.133c9.187 6.606 14.245 15.135 14.245 24.015 0 4.683-1.359 5.975-1.805 6.4z"/></svg>