<svg xmlns="http://www.w3.org/2000/svg" viewBox="0 0 455.68 455.68"><path d="M280.359 265.286a7.999 7.999 0 0 0-.001 11.313 7.998 7.998 0 0 0 11.313 0c3.637-3.635 8.47-5.638 13.611-5.638s9.976 2.002 13.61 5.638a7.972 7.972 0 0 0 5.657 2.343 7.972 7.972 0 0 0 5.656-2.343 7.999 7.999 0 0 0 .001-11.313c-6.657-6.658-15.509-10.324-24.925-10.324-9.414 0-18.265 3.666-24.922 10.324zm-110.694 13.657a7.999 7.999 0 0 0 5.656-13.656c-13.742-13.743-36.106-13.742-49.849 0a7.999 7.999 0 0 0-.001 11.313 7.998 7.998 0 0 0 11.313 0c7.506-7.504 19.718-7.505 27.224 0a7.978 7.978 0 0 0 5.657 2.343zM285.22 330.96H170.46a8 8 0 0 0-8 8c0 36.051 29.329 65.38 65.38 65.38s65.38-29.329 65.38-65.38a8 8 0 0 0-8-8zm-57.38 57.38c-24.504 0-44.897-17.943-48.732-41.38h97.465c-3.835 23.436-24.229 41.38-48.733 41.38z"/><path d="M392.582 214.81c.542-14.097.748-46.325.748-49.31 0-13.753-1.697-27.116-4.874-39.9 22.995-9.416 38.464-31.977 38.464-57.372 0-34.187-27.813-62-62-62a61.956 61.956 0 0 0-46.409 20.895C292.451 9.987 261.292 0 227.84 0c-33.452 0-64.611 9.987-90.671 27.123A61.955 61.955 0 0 0 90.76 6.229c-34.187 0-62 27.813-62 62 0 25.394 15.469 47.956 38.463 57.372a165.297 165.297 0 0 0-4.874 39.9c0 .381.378 34.01 1.256 48.993-13.508 7.74-21.956 22.084-21.956 38.007 0 11.72 4.563 22.729 12.844 30.997 6.364 6.364 14.34 10.531 23.007 12.119v3.204c0 36.164 26.566 79.455 78.963 128.672 20.013 18.792 45.694 28.188 71.376 28.188 25.683 0 51.365-9.396 71.378-28.189 52.396-49.217 78.963-92.508 78.963-128.671v-3.224c20.37-3.772 35.85-21.655 35.85-43.096 0-15.631-8.26-29.87-21.448-37.691zM382.264 25.634c16.791 6.862 28.656 23.364 28.656 42.595a45.96 45.96 0 0 1-8.795 27.042c-17.968-21.956-20.059-53.869-19.861-69.637zM44.76 68.229c0-19.121 11.73-35.55 28.369-42.481.186 15.762-1.927 47.438-19.713 69.336a45.969 45.969 0 0 1-8.656-26.855zm20.155 38.067c23.377-27.689 24.783-67.204 24.179-84.025.554-.02 1.107-.042 1.666-.042 12.748 0 24.768 5.283 33.389 14.389-23.624 19.046-41.921 44.438-52.281 73.567a45.766 45.766 0 0 1-6.953-3.889zM77.5 279.177a27.715 27.715 0 0 1-11.698-6.999c-5.257-5.249-8.152-12.238-8.152-19.679 0-7.976 3.336-15.329 8.953-20.49 3.787 15.15 9.048 28.386 10.897 32.84v14.328zm1.916-68.274c-.515-11.427-.933-33.418-1.066-45.403C78.35 83.065 145.41 16 227.84 16c20.583 0 40.208 4.183 58.069 11.741 11.39 24.643 4.043 73.622-1.154 96.981-13.908.748-48.805 3.899-86.682 17.15-21.856 7.646-41.179 17.458-57.674 29.259l-7.553-7.553a8 8 0 0 0-11.314 0l-19.571 19.571c-10.317 10.318-12.974 25.432-7.987 38.229a151.852 151.852 0 0 0-8.782 17.628c-2.007-6.452-5.621-24.66-5.776-28.103zm33.86-16.439l13.914-13.915 13.914 13.915c7.673 7.672 7.673 20.156.001 27.828-7.674 7.674-20.159 7.671-27.829 0-7.673-7.672-7.673-20.156 0-27.828zM362.18 298.82c0 31.125-25.561 71.586-73.917 117.008-33.883 31.816-86.965 31.817-120.846 0C119.06 370.406 93.5 329.945 93.5 298.82v-10.48c0-18.108 3.924-35.903 11.425-52.089 6.486 5.188 14.372 7.788 22.264 7.788 9.135 0 18.273-3.478 25.229-10.433 13.91-13.911 13.91-36.544 0-50.455l-.527-.526c14.677-10.169 31.769-18.724 51.065-25.509 36.12-12.701 70.218-15.711 82.974-16.415 6.921 15.28 29.933 58.712 76.25 81.078v77.041zm14.557-88.994c-2.896-.593-5.718-1.527-8.369-2.834-43.443-21.419-64.416-64.967-68.838-75.151 2.762-11.738 12.902-59.01 6.108-93.953 42.961 26.292 71.691 73.659 71.691 127.613 0 5.838-.226 30.569-.592 44.325zM331.531 36.618c8.622-9.106 20.642-14.39 33.39-14.39.462 0 .919.021 1.378.035-.606 16.842.804 56.459 24.287 84.158a45.624 45.624 0 0 1-6.775 3.763c-10.36-29.127-28.657-54.519-52.28-73.566zm46.649 242.546v-52.711c3.313.678 6.473 2.031 9.14 4.109a27.783 27.783 0 0 1 10.71 21.938c0 12.572-8.382 23.219-19.85 26.664z"/></svg>