<svg xmlns="http://www.w3.org/2000/svg" width="1280" height="800" viewBox="0 -40 1280 800"><path fill="#FFF" d="M637 631.99c12.436 0 22.524-10.136 22.524-22.524V339.155c0-12.435-10.089-22.528-22.524-22.528s-22.525 10.091-22.525 22.528v270.311c0 12.388 10.089 22.524 22.525 22.524zm135.154 0c12.391 0 22.525-10.136 22.525-22.524V339.155c0-12.435-10.133-22.528-22.525-22.528s-22.525 10.091-22.525 22.528v270.311c0 12.388 10.136 22.524 22.525 22.524zM929.836 46.32H749.629V1.268c0-24.87-20.138-45.052-45.053-45.052H569.422c-24.914 0-45.052 20.182-45.052 45.052V46.32H344.164c-24.913 0-45.05 20.183-45.05 45.051v135.155h45.05v450.516c0 49.781 40.368 90.104 90.104 90.104h405.464c49.736 0 90.104-40.322 90.104-90.104V226.526h45.051V91.371c0-24.868-20.137-45.051-45.051-45.051zM569.422 23.794c0-12.435 10.09-22.526 22.524-22.526h90.105c12.389 0 22.526 10.091 22.526 22.526V46.32H569.422V23.794zm315.361 653.248c0 24.913-20.139 45.05-45.051 45.05H434.268c-24.914 0-45.053-20.137-45.053-45.05V226.526h495.571l-.003 450.516zm45.053-495.567H344.164v-67.578c0-12.435 10.093-22.526 22.527-22.526h540.62c12.389 0 22.526 10.091 22.526 22.526l-.001 67.578zM501.844 631.99c12.435 0 22.527-10.136 22.527-22.524V339.155c0-12.435-10.091-22.528-22.527-22.528s-22.525 10.091-22.525 22.528v270.311c0 12.388 10.09 22.524 22.525 22.524z"/></svg>