<svg xmlns="http://www.w3.org/2000/svg" viewBox="0 0 455.68 455.68"><circle cx="150.397" cy="290.594" r="14"/><circle cx="305.283" cy="290.594" r="14"/><path d="M280.359 256.571a8 8 0 1 0 11.312 11.314c3.637-3.636 8.47-5.638 13.611-5.638s9.976 2.002 13.61 5.638a7.972 7.972 0 0 0 5.657 2.343 7.972 7.972 0 0 0 5.656-2.343 8 8 0 0 0 .001-11.314c-6.657-6.658-15.509-10.324-24.925-10.324-9.414.001-18.265 3.667-24.922 10.324zm-116.351 11.314c1.562 1.562 3.609 2.343 5.657 2.343s4.095-.781 5.657-2.343a7.998 7.998 0 0 0 0-11.313c-13.743-13.743-36.105-13.743-49.849 0a7.998 7.998 0 0 0 0 11.313 8 8 0 0 0 11.313 0c7.505-7.505 19.717-7.505 27.222 0zm131.832 86.344h-136a8 8 0 0 0 0 16h136a8 8 0 0 0 0-16zm-44 24h-48a8 8 0 0 0 0 16h48a8 8 0 0 0 0-16z"/><path d="M392.582 214.81c.542-14.097.748-46.325.748-49.31 0-13.753-1.697-27.116-4.874-39.9 22.995-9.416 38.464-31.977 38.464-57.372 0-34.187-27.813-62-62-62a61.956 61.956 0 0 0-46.409 20.895C292.451 9.987 261.292 0 227.84 0c-33.452 0-64.611 9.987-90.672 27.123A61.951 61.951 0 0 0 90.76 6.229c-34.187 0-62 27.813-62 62 0 25.394 15.469 47.956 38.464 57.372a165.297 165.297 0 0 0-4.874 39.9c0 .381.378 34.01 1.256 48.993-13.508 7.74-21.956 22.084-21.956 38.007 0 11.72 4.563 22.729 12.844 30.997 6.364 6.364 14.34 10.531 23.007 12.119v3.204c0 36.164 26.566 79.455 78.963 128.672 20.013 18.792 45.694 28.188 71.376 28.188 25.683 0 51.365-9.396 71.378-28.189 52.396-49.217 78.963-92.508 78.963-128.671v-3.224c20.37-3.772 35.85-21.655 35.85-43.096a43.782 43.782 0 0 0-21.449-37.691zM305.638 37.887c42.961 26.292 71.691 73.659 71.691 127.613 0 5.839-.227 30.57-.593 44.326-2.896-.593-5.718-1.527-8.369-2.835-43.443-21.419-64.416-64.966-68.838-75.151 2.763-11.738 12.903-59.01 6.109-93.953zM410.92 68.229a45.96 45.96 0 0 1-8.795 27.042c-17.968-21.956-20.059-53.869-19.861-69.637 16.79 6.862 28.656 23.364 28.656 42.595zm-46-46c.462 0 .919.021 1.378.035-.606 16.842.804 56.459 24.287 84.158a45.624 45.624 0 0 1-6.775 3.763c-10.36-29.128-28.657-54.52-52.281-73.566 8.623-9.107 20.643-14.39 33.391-14.39zm-79.011 5.512c11.39 24.643 4.043 73.622-1.154 96.981-13.908.748-48.805 3.899-86.682 17.15-28.426 9.944-52.576 23.547-71.78 40.43-18.254 16.048-32.019 35.055-41.101 56.705-2.008-6.453-5.621-24.662-5.776-28.104-.515-11.427-.933-33.418-1.066-45.403C78.35 83.065 145.41 16 227.84 16c20.583 0 40.208 4.183 58.069 11.741zM44.76 68.229c0-19.121 11.73-35.55 28.369-42.481.186 15.762-1.927 47.438-19.713 69.336a45.969 45.969 0 0 1-8.656-26.855zm20.155 38.067c23.377-27.689 24.784-67.204 24.179-84.025.554-.02 1.107-.042 1.666-.042 12.748 0 24.768 5.283 33.389 14.389-23.624 19.046-41.921 44.438-52.281 73.567a45.766 45.766 0 0 1-6.953-3.889zm.887 165.883c-5.257-5.249-8.152-12.238-8.152-19.679 0-7.976 3.336-15.329 8.953-20.49 3.787 15.15 9.048 28.386 10.897 32.84v14.328a27.725 27.725 0 0 1-11.698-6.999zM362.18 298.82c0 31.125-25.561 71.586-73.917 117.008-33.883 31.816-86.965 31.817-120.846 0C119.06 370.406 93.5 329.945 93.5 298.82v-10.48c0-29.719 10.519-58.616 30.185-80.897a146.966 146.966 0 0 1 12.999-12.972c17.588-15.508 39.885-28.077 66.271-37.355 36.12-12.701 70.218-15.711 82.974-16.415 6.921 15.28 29.933 58.712 76.25 81.078v77.041zm16-19.656v-52.711c3.312.678 6.473 2.031 9.14 4.109a27.783 27.783 0 0 1 10.71 21.938c0 12.572-8.382 23.219-19.85 26.664z"/></svg>