<svg xmlns="http://www.w3.org/2000/svg" viewBox="0 0 387.039 387.039"><path d="M130.581 228.125a7.998 7.998 0 0 0 0-11.313c-12.172-12.172-31.977-12.172-44.149 0a7.998 7.998 0 0 0 0 11.313 7.998 7.998 0 0 0 11.313 0c5.934-5.933 15.588-5.934 21.522 0 1.562 1.562 3.609 2.343 5.657 2.343s4.095-.781 5.657-2.343zm125.876-11.314a8 8 0 0 0 0 11.313 7.999 7.999 0 0 0 11.314 0 15.118 15.118 0 0 1 10.761-4.457c4.064 0 7.886 1.583 10.76 4.457a7.973 7.973 0 0 0 5.657 2.344 7.972 7.972 0 0 0 5.656-2.343 8 8 0 0 0 .001-11.314c-5.896-5.897-13.735-9.144-22.074-9.144s-16.178 3.248-22.075 9.144zm-14.722 39.26c-12.981-9.335-30.104-14.476-48.216-14.476-18.112 0-35.235 5.141-48.216 14.475-13.778 9.908-21.367 23.336-21.367 37.809 0 7.804 2.319 13.966 6.892 18.315 6.358 6.046 15.554 7.494 26.96 7.494 4.89 0 10.186-.266 15.837-.55 6.383-.321 12.984-.653 19.894-.653s13.511.332 19.894.653c18.838.946 33.714 1.694 42.797-6.944 4.573-4.349 6.892-10.511 6.892-18.315 0-14.473-7.588-27.9-21.367-37.808zm3.449 44.529c-4.11 3.908-17.766 3.222-30.967 2.558-6.274-.315-13.386-.673-20.697-.673-7.312 0-14.423.357-20.697.673-13.204.664-26.858 1.35-30.968-2.558-.475-.451-1.918-1.824-1.918-6.721 0-9.184 5.223-17.998 14.708-24.819 5.499-3.954 12.012-6.948 19.138-8.887v9.555a8 8 0 0 0 16 0v-12.035a79.812 79.812 0 0 1 3.737-.098c14.787 0 28.593 4.072 38.874 11.466 9.484 6.82 14.708 15.634 14.708 24.819 0 4.897-1.444 6.269-1.918 6.72z"/><path d="M387.039 226.647c0-22.261-16.136-40.811-37.323-44.602v-6.717c0-86.127-70.069-156.196-156.197-156.196-86.126 0-156.196 70.069-156.196 156.196v6.717C16.136 185.837 0 204.387 0 226.647c0 22.453 16.414 41.134 37.871 44.7 3.02 34.414 18.765 59.834 46.942 75.653 25.057 14.068 60.616 20.906 108.707 20.906 48.092 0 83.649-6.839 108.707-20.906 28.177-15.819 43.922-41.238 46.942-75.653 21.456-3.566 37.87-22.247 37.87-44.7zm-371.039 0c0-13.395 9.032-24.713 21.323-28.205v56.41C25.032 251.361 16 240.043 16 226.647zm317.716 32.11c0 35.135-12.862 59.436-39.322 74.291-22.602 12.69-55.599 18.858-100.874 18.858s-78.271-6.168-100.874-18.858c-26.459-14.855-39.322-39.156-39.322-74.291v-83.429c0-63.309 42.185-116.941 99.918-134.29 43.983.556 67.407 32.306 67.407 55.296 0 17.608-14.325 31.934-31.934 31.934-13.205 0-23.947-10.743-23.947-23.947 0-9.681 7.876-17.558 17.558-17.558a8 8 0 0 0 0-16c-18.504 0-33.558 15.054-33.558 33.558 0 22.027 17.92 39.947 39.947 39.947 26.431 0 47.934-21.503 47.934-47.934 0-16.605-8.343-34.47-22.317-47.79-5.59-5.328-11.95-9.807-18.889-13.387 76.421 1.034 138.274 63.51 138.274 140.171v83.429zm16-3.904v-56.41c12.291 3.492 21.323 14.81 21.323 28.205s-9.032 24.713-21.323 28.205z"/></svg>