<svg xmlns="http://www.w3.org/2000/svg" viewBox="0 0 423.236 423.236"><path d="M136.317 254.633c5.142 0 9.976 2.002 13.61 5.638a7.972 7.972 0 0 0 5.657 2.343 7.972 7.972 0 0 0 5.656-2.343 7.999 7.999 0 0 0 .001-11.313c-6.657-6.658-15.509-10.324-24.925-10.324-9.415 0-18.267 3.667-24.924 10.324a7.999 7.999 0 0 0-.001 11.313 7.998 7.998 0 0 0 11.313 0 19.133 19.133 0 0 1 13.613-5.638zm150.601-16c-9.415 0-18.267 3.667-24.924 10.324a7.999 7.999 0 0 0-.001 11.313 7.998 7.998 0 0 0 11.313 0c3.637-3.635 8.47-5.638 13.611-5.638s9.976 2.002 13.61 5.638a7.972 7.972 0 0 0 5.657 2.343 7.972 7.972 0 0 0 5.656-2.343 7.999 7.999 0 0 0 .001-11.313c-6.656-6.658-15.507-10.324-24.923-10.324z"/><path d="M412.845 337.907c-12.236-30.709-39.929-49.281-50.776-55.609 18.073-4.689 31.458-21.14 31.458-40.659a42.042 42.042 0 0 0-7.356-23.742 180.815 180.815 0 0 0 4.116-38.328C390.288 80.555 309.737 0 210.727 0 111.713 0 31.158 80.555 31.158 179.57c0 13.64 1.555 27.209 4.587 40.399a41.747 41.747 0 0 0-6.038 21.674c0 19.518 13.384 35.968 31.456 40.658-10.849 6.329-38.538 24.901-50.772 55.607-15.067 37.812-.466 78.383.162 80.092a8.001 8.001 0 0 0 11.058 4.405c1.632-.808 40.132-20.221 55.198-58.033 2.691-6.752 4.431-13.592 5.478-20.284a147.774 147.774 0 0 0 18.708 26.404c28.065 31.603 68.386 49.728 110.622 49.728 42.235 0 82.556-18.125 110.621-49.727a147.779 147.779 0 0 0 18.709-26.406c1.047 6.692 2.788 13.532 5.478 20.285 15.065 37.813 53.566 57.226 55.198 58.034a8.004 8.004 0 0 0 6.511.263 8.001 8.001 0 0 0 4.547-4.668c.63-1.71 15.231-42.281.164-80.094zm-53.317-71.532v-16.816c2.332.453 4.687.883 7.093 1.261a8.002 8.002 0 0 0 8.361-4.253l2.544-4.962.001.035c.001 11.545-7.566 21.352-17.999 24.735zM210.727 16c90.188 0 163.561 73.377 163.561 163.57 0 12.946-1.518 25.84-4.507 38.312l-.019.077c-1.172 4.842-6.335 16.076-6.335 16.076-38.891-7.317-71.653-26.149-97.449-56.031-20.353-23.577-28.507-45.588-28.583-45.795a8.001 8.001 0 0 0-14.863-.476c-.598 1.376-12.801 30.23-.22 61.721-23.529-3.389-45.487-15.691-65.438-36.698-18.162-19.124-27.701-38.616-27.792-38.803a8.004 8.004 0 0 0-10.204-3.95c-3.068 1.221-5 4.312-5.005 7.614-.076 50.587-30.102 70.473-41.04 76.039-2.151 1.095-17.722 4.812-23.514 8.476a164.956 164.956 0 0 1-2.164-26.561C47.158 89.377 120.535 16 210.727 16zM45.707 241.642c0-11.546 7.567-21.353 18.001-24.736v49.471c-10.434-3.382-18.001-13.189-18.001-24.735zm16.239 116.807c-8.816 22.126-27.943 37.288-39.028 44.599-3.021-12.936-6.479-37.095 2.336-59.219 8.815-22.125 27.942-37.287 39.028-44.598 3.021 12.936 6.478 37.095-2.336 59.218zm248.33 1.419c-25.032 28.186-60.991 44.352-98.658 44.352s-73.627-16.166-98.659-44.353c-21.442-24.14-33.251-55.238-33.251-87.567v-60.234c5.388-2.743 14.143-8.057 22.827-17.015 9.475-9.772 20.33-25.518 25.003-48.979 4.579 6.503 10.377 13.911 17.396 21.342 26.571 28.134 58.017 43.005 90.937 43.005 2.92 0 5.607-1.591 7.013-4.15s1.305-5.681-.264-8.145c-8.875-13.947-10.557-28.148-9.866-39.237a197.353 197.353 0 0 0 20.667 29.051c17.457 20.366 46.525 45.442 90.108 57.811V272.3c-.001 32.329-11.81 63.428-33.253 87.568zm90.037 43.202c-11.072-7.276-30.165-22.39-39.023-44.621-8.815-22.125-5.357-46.287-2.337-59.218 11.09 7.313 30.214 22.475 39.029 44.598 8.821 22.14 5.353 46.316 2.331 59.241z"/><path d="M298.145 307.039c-8.238-15.558-26.447-22.757-43.298-17.118-27.875 9.329-58.581 9.33-86.46 0-16.854-5.641-35.06 1.561-43.298 17.119l-.638 1.205a35.704 35.704 0 0 0-1.615 29.98c3.915 9.821 11.922 17.395 21.966 20.78 21.543 7.26 44.179 10.89 66.815 10.89 22.636 0 45.271-3.63 66.814-10.89 10.045-3.385 18.052-10.959 21.967-20.78a35.704 35.704 0 0 0-1.614-29.979l-.639-1.207zm-15.064 5.921a21.873 21.873 0 0 1-7.963 5.458v-12.422a19.596 19.596 0 0 1 7.963 6.964zm-19.963 33.997a191.967 191.967 0 0 1-16.75 3.821v-12.677a206.837 206.837 0 0 0 16.75-3.543v12.399zm-103-12.398a206.41 206.41 0 0 0 16.75 3.543v12.677a191.608 191.608 0 0 1-16.75-3.822v-12.398zm28.75 5.207c5.566.608 11.155.992 16.75 1.152v12.881a195.088 195.088 0 0 1-16.75-1.233v-12.8zm28.75-26.971c5.606-.219 11.199-.75 16.75-1.58v16.481a197.134 197.134 0 0 1-16.75 1.221v-16.122zm-12 16.122a197.134 197.134 0 0 1-16.75-1.221v-16.481a153.445 153.445 0 0 0 16.75 1.58v16.122zm12 12.001c5.595-.16 11.184-.544 16.75-1.153v12.8a194.686 194.686 0 0 1-16.75 1.233v-12.88zm42.308-35.824a20.715 20.715 0 0 1 3.192-.782v17.842a194.185 194.185 0 0 1-16.75 3.773v-17.003a150.407 150.407 0 0 0 13.558-3.83zm-83.058 3.83v17.003a194.185 194.185 0 0 1-16.75-3.773v-17.842c1.067.177 2.134.428 3.191.782a150.192 150.192 0 0 0 13.559 3.83zm-28.75-2.93v12.427a21.785 21.785 0 0 1-7.968-5.456 19.593 19.593 0 0 1 7.968-6.971zM137.699 332.3a19.753 19.753 0 0 1-1.393-6.77 34.096 34.096 0 0 0 9.135 4.7c.89.3 1.784.583 2.677.871v12.026a19.949 19.949 0 0 1-10.419-10.827zm137.419 10.828v-12.027c.895-.288 1.79-.572 2.681-.872a34.23 34.23 0 0 0 9.132-4.708 19.734 19.734 0 0 1-1.394 6.779c-1.935 4.853-5.68 8.708-10.419 10.828z"/></svg>