<svg xmlns="http://www.w3.org/2000/svg" viewBox="0 0 420.807 420.807"><path d="M292.524 178.883l-25.22 9.445a8 8 0 0 0-4.687 10.297c1.551 4.138 6.165 6.235 10.298 4.686l25.22-9.445a15.614 15.614 0 0 1 12.027.414 15.618 15.618 0 0 1 8.211 8.796 8.004 8.004 0 0 0 7.493 5.196 8 8 0 0 0 7.492-10.807c-2.972-7.935-8.856-14.238-16.568-17.748-7.714-3.51-16.331-3.805-24.266-.834zm-168.406 14.984l25.221 9.445a8 8 0 1 0 5.611-14.983l-25.221-9.445c-16.381-6.134-34.697 2.201-40.834 18.581a8.001 8.001 0 0 0 14.985 5.612c3.04-8.119 12.117-12.25 20.238-9.21zm24.798 68.126c8.672 0 15.703-7.03 15.703-15.703 0-1.087-.111-2.149-.321-3.174h1.53a8 8 0 0 0 0-16h-50.471a8 8 0 0 0 0 16h18.178a15.798 15.798 0 0 0-.321 3.174c-.001 8.672 7.03 15.703 15.702 15.703zm23.219 43.561l1.913-3.475a7.809 7.809 0 0 1 4.698-3.759 7.806 7.806 0 0 1 5.98.664l6.253 3.443a8 8 0 0 0 7.717-14.015l-6.253-3.443a23.697 23.697 0 0 0-18.151-2.016c-6.122 1.775-11.187 5.827-14.26 11.41l-1.913 3.475a7.816 7.816 0 0 1-4.698 3.759 7.806 7.806 0 0 1-5.98-.664 8 8 0 0 0-7.717 14.015 23.725 23.725 0 0 0 11.475 2.97c2.23 0 4.475-.316 6.677-.954 6.122-1.776 11.186-5.828 14.259-11.41zm101.242-4.622c-3.799 2.091-8.591.701-10.679-3.095l-1.913-3.476c-6.347-11.525-20.887-15.74-32.412-9.394l-6.253 3.443a8 8 0 0 0-3.149 10.866 7.997 7.997 0 0 0 10.866 3.149l6.253-3.442c3.797-2.092 8.589-.702 10.679 3.094l1.913 3.476c4.343 7.886 12.521 12.349 20.944 12.349 3.888 0 7.828-.951 11.468-2.955a8 8 0 0 0-7.717-14.015zm-22.324 20.088c-13.828-8.509-31.009-8.509-44.837 0-8.656 5.327-19.41 5.327-28.066-.001a8 8 0 0 0-11.006 2.62 8 8 0 0 0 2.619 11.006c6.915 4.256 14.667 6.384 22.421 6.384 7.751 0 15.505-2.127 22.418-6.382 8.656-5.327 19.41-5.326 28.066 0a8 8 0 0 0 8.385-13.627zm54.408-93.904h-50.47a8 8 0 0 0 0 16h23.087a15.798 15.798 0 0 0-.321 3.174c0 8.672 7.03 15.703 15.703 15.703s15.703-7.03 15.703-15.703c0-1.33-.183-2.614-.495-3.847a7.999 7.999 0 0 0-3.207-15.327z"/><path d="M395.329 199.336v-14.411C395.329 82.957 312.371 0 210.403 0S25.478 82.957 25.478 184.925v14.411c-6.718 8.016-10.772 18.335-10.772 29.587 0 22.878 16.743 41.911 38.618 45.512 7.73 33.852 34.765 72.788 80.693 116.084 21.421 20.193 48.902 30.287 76.392 30.287 27.483 0 54.976-10.098 76.392-30.286 45.929-43.298 72.964-82.235 80.694-116.087 21.869-3.606 38.606-22.636 38.606-45.51 0-11.252-4.055-21.571-10.772-29.587zM50.99 254.781c0 .873.031 1.755.06 2.636-11.823-4.074-20.344-15.304-20.344-28.493 0-15.065 11.112-27.583 25.569-29.79a296.626 296.626 0 0 0-5.285 55.647zm224.835 124.097c-36.682 34.58-94.151 34.58-130.833 0-51.029-48.105-78.002-91.017-78.002-124.125 0-48.332 12.574-96.116 36.362-138.187l1.232-2.18c4.262-7.538 11.978-12.383 20.639-12.96.601-.04 1.198-.06 1.791-.06 7.948 0 15.16 3.567 20.004 9.969l.247.329c14.796 19.87 38.399 31.733 63.137 31.733 24.744 0 48.344-11.859 63.131-31.723l.258-.345c5.193-6.866 13.138-10.478 21.783-9.898 8.662.576 16.378 5.42 20.643 12.958l1.222 2.16c23.805 42.083 36.387 89.882 36.387 138.231.001 33.08-26.972 75.992-78.001 124.098zm55.541-270.206s0-.001 0 0l-1.223-2.161c-6.925-12.242-19.451-20.109-33.506-21.044-13.916-.915-27.227 5.135-35.614 16.222l-.323.432c-11.958 16.063-30.291 25.277-50.297 25.277-20.001 0-38.336-9.217-50.312-25.299l-.325-.432c-8.38-11.075-21.695-17.131-35.607-16.205-14.055.937-26.579 8.806-33.502 21.05l-1.232 2.18C76.246 132 66.329 156.969 59.87 182.813a45.81 45.81 0 0 0-18.392 4.251v-2.138C41.478 91.78 117.258 16 210.404 16c93.146 0 168.925 75.78 168.925 168.925v2.138a45.828 45.828 0 0 0-18.387-4.251c-6.464-25.848-16.387-50.825-29.576-74.14zm38.401 148.741c.029-.88.06-1.76.06-2.632 0-18.717-1.792-37.354-5.289-55.646 14.454 2.21 25.562 14.726 25.562 29.789.001 13.184-8.515 24.411-20.333 28.489z"/></svg>