<svg xmlns="http://www.w3.org/2000/svg" width="1280" height="800" viewBox="0 -40 1280 800"><path d="M666.484 621.988c12.251 0 22.19-9.985 22.19-22.19v-266.31c0-12.251-9.939-22.193-22.19-22.193-12.252 0-22.193 9.942-22.193 22.193v266.31c0 12.205 9.941 22.19 22.193 22.19zm133.154 0c12.207 0 22.192-9.985 22.192-22.19v-266.31c0-12.251-9.984-22.193-22.192-22.193-12.207 0-22.192 9.942-22.192 22.193v266.31c-.001 12.205 9.986 22.19 22.192 22.19zM954.986 44.986H777.445V.601c0-24.501-19.839-44.385-44.385-44.385H599.906c-24.545 0-44.386 19.884-44.386 44.385v44.385H377.98c-24.544 0-44.384 19.884-44.384 44.384v133.156h44.384v443.849c0 49.044 39.771 88.77 88.771 88.77h399.464c49.001 0 88.771-39.726 88.771-88.77V222.526h44.384V89.37c0-24.5-19.84-44.384-44.384-44.384zm-355.08-22.192c0-12.251 9.941-22.193 22.191-22.193h88.771c12.205 0 22.192 9.942 22.192 22.193v22.192H599.906V22.794zm310.695 643.581c0 24.544-19.841 44.383-44.385 44.383H466.751c-24.544 0-44.385-19.839-44.385-44.383V222.526h488.235v443.849zm44.385-488.234H377.981v-66.578c0-12.25 9.943-22.193 22.194-22.193h532.619c12.206 0 22.193 9.942 22.193 22.193l-.001 66.578zM533.328 621.988c12.251 0 22.193-9.985 22.193-22.19v-266.31c0-12.251-9.942-22.193-22.193-22.193-12.251 0-22.192 9.942-22.192 22.193v266.31c0 12.205 9.941 22.19 22.192 22.19z"/></svg>