<svg xmlns="http://www.w3.org/2000/svg" viewBox="0 0 425.275 425.275"><path d="M276.469 216.916c3.637-3.635 8.47-5.638 13.611-5.638s9.976 2.002 13.61 5.638a7.972 7.972 0 0 0 5.657 2.343 7.972 7.972 0 0 0 5.656-2.343 7.999 7.999 0 0 0 .001-11.313c-6.657-6.658-15.509-10.324-24.925-10.324-9.415 0-18.267 3.667-24.924 10.324a8 8 0 0 0 11.314 11.313zm-141.274-21.638c-9.415 0-18.267 3.667-24.924 10.324a7.999 7.999 0 0 0-.001 11.313 7.998 7.998 0 0 0 11.313 0c3.637-3.635 8.47-5.638 13.611-5.638s9.976 2.002 13.61 5.638a7.972 7.972 0 0 0 5.657 2.343 7.972 7.972 0 0 0 5.656-2.343 7.999 7.999 0 0 0 .001-11.313c-6.656-6.658-15.507-10.324-24.923-10.324zm136.48 115.276a7.995 7.995 0 0 0-7.509-1.394c-33.712 10.953-69.347 10.952-103.057 0a8.001 8.001 0 0 0-10.427 8.451c1.999 18.886 6.238 37.857 12.598 56.387a8 8 0 0 0 6.079 5.264c14.358 2.717 28.818 4.076 43.278 4.076s28.92-1.359 43.278-4.076a8 8 0 0 0 6.079-5.264c6.358-18.525 10.597-37.497 12.598-56.387a7.993 7.993 0 0 0-2.917-7.057zm-14.569 17.283a237.579 237.579 0 0 1-1.463 8.228 166.388 166.388 0 0 1-86.009 0 235.633 235.633 0 0 1-1.463-8.228c29.304 7.39 59.63 7.391 88.935 0zm-80.171 36.524a249.98 249.98 0 0 1-3.212-10.827 182.444 182.444 0 0 0 38.915 4.212 182.38 182.38 0 0 0 38.915-4.212 248.166 248.166 0 0 1-3.212 10.827 215.652 215.652 0 0 1-71.406 0z"/><path d="M358.625 72.814c-16.678-22.118-38.504-40.439-63.12-52.985C269.69 6.671 241.809 0 212.637 0c-29.362 0-57.406 6.755-83.353 20.079C104.54 32.784 82.658 51.32 66.002 73.681c-23.62 31.7-36.105 69.413-36.105 109.06v187.495a8 8 0 0 0 8 8h66.261c27.935 29.939 67.147 47.04 108.169 47.04 41.022 0 80.235-17.102 108.169-47.04h66.88a8 8 0 0 0 8-8V182.74c.002-40.034-12.707-78.046-36.751-109.926zm-47.639 292.109c-25.032 28.186-60.991 44.352-98.658 44.352s-73.626-16.166-98.659-44.353c-21.442-24.14-33.251-55.238-33.251-87.567v-21.092h6.877l7.663 35.003a8 8 0 0 0 7.814 6.289h81.73a8 8 0 0 0 7.815-6.29l3.017-13.786c1.767-8.068 9.044-13.924 17.303-13.924s15.535 5.856 17.302 13.924l3.019 13.787a8 8 0 0 0 7.814 6.289h81.73a7.998 7.998 0 0 0 7.814-6.289l7.663-35.003h6.257v21.092c.002 32.329-11.807 63.428-33.25 87.568zm31.09-127.368h2.161v2.708h-2.754l.593-2.708zm2.162-16H80.418v-25.666c86.681-21.893 177.12-21.94 263.82-.151v25.817zm-235.027 60l-9.633-44h33.573l-17.6 44h-6.34zm41.173-44h9.939l-17.6 44h-9.939l17.6-44zm27.172 0h92.24l-17.6 44h-4.986l-1.642-7.498c-3.361-15.356-17.211-26.502-32.931-26.502s-29.57 11.146-32.933 26.503l-1.641 7.497h-18.109l17.602-44zm109.473 0h8.143l-17.6 44h-8.143l17.6-44zm25.375 0h13.294l-9.633 44h-21.261l17.6-44zm-231.986 0H83.2l.593 2.708h-3.375v-2.708zm298.96 124.68h-45.906c17.356-24.75 26.766-54.326 26.766-84.88v-77.321c1.052.299 2.106.582 3.157.887a8.026 8.026 0 0 0 2.235.319 8.004 8.004 0 0 0 7.679-5.77 8 8 0 0 0-5.45-9.914 558.064 558.064 0 0 0-33.455-8.586c1.647-14.775 1.889-47.102-20.841-76.327a8 8 0 0 0-12.63 9.824c18.373 23.622 18.814 50.318 17.677 63.184a555.02 555.02 0 0 0-147.629-8.637c.461-13.934 4.331-35.346 6.099-43.824a8 8 0 0 0-6.198-9.465c-4.322-.904-8.562 1.872-9.465 6.196-.724 3.468-6.218 30.37-6.458 48.524a555.191 555.191 0 0 0-38.917 5.465c.59-16.349 4.17-50.663 23.054-70.896a8 8 0 1 0-11.697-10.917c-24.227 25.958-27.259 68.354-27.469 84.918a558.757 558.757 0 0 0-42.513 10.542 8 8 0 0 0 4.464 15.365c.844-.245 1.692-.472 2.537-.713v77.147c0 30.554 9.409 60.13 26.766 84.88H45.898V182.74c0-36.176 11.389-70.583 32.936-99.501 15.205-20.414 35.178-37.333 57.759-48.927C160.257 22.161 185.842 16 212.637 16c26.622 0 52.059 6.084 75.603 18.084 22.464 11.45 42.385 28.173 57.61 48.363 21.934 29.083 33.527 63.763 33.527 100.293v179.495z"/></svg>