<svg xmlns="http://www.w3.org/2000/svg" viewBox="0 0 455.68 455.68"><path d="M127.615 262.563a7.999 7.999 0 0 0 0 11.313 7.999 7.999 0 0 0 11.314 0c7.505-7.505 19.717-7.505 27.222 0 1.562 1.562 3.609 2.343 5.657 2.343s4.095-.781 5.657-2.343a7.998 7.998 0 0 0 0-11.313c-13.745-13.743-36.107-13.743-49.85 0zm189.136 11.314c1.562 1.562 3.609 2.343 5.657 2.343s4.095-.781 5.657-2.343a7.998 7.998 0 0 0 0-11.313c-13.744-13.744-36.105-13.744-49.849 0a7.999 7.999 0 0 0 0 11.313 7.999 7.999 0 0 0 11.314 0c7.504-7.505 19.716-7.505 27.221 0zm-71.362 49.094a8 8 0 0 0 0 16c4.143 0 7.514 3.371 7.514 7.514s-3.371 7.514-7.514 7.514a8 8 0 0 0 0 16c4.143 0 7.514 3.371 7.514 7.514s-3.371 7.514-7.514 7.514a8 8 0 0 0 0 16c12.965 0 23.514-10.548 23.514-23.514a23.417 23.417 0 0 0-5.858-15.514 23.417 23.417 0 0 0 5.858-15.514c0-12.965-10.548-23.514-23.514-23.514z"/><path d="M378.18 295.596c20.37-3.772 35.85-21.655 35.85-43.096 0-15.63-8.26-29.869-21.448-37.69.542-14.097.748-46.325.748-49.31 0-13.753-1.697-27.116-4.874-39.9 22.995-9.416 38.464-31.977 38.464-57.372 0-34.187-27.813-62-62-62a61.956 61.956 0 0 0-46.409 20.895C292.451 9.987 261.292 0 227.84 0c-33.452 0-64.611 9.987-90.672 27.123A61.951 61.951 0 0 0 90.76 6.229c-34.187 0-62 27.813-62 62 0 25.394 15.469 47.956 38.464 57.372a165.297 165.297 0 0 0-4.874 39.9c0 .381.378 34.01 1.256 48.993-13.508 7.74-21.956 22.084-21.956 38.007 0 11.72 4.563 22.729 12.844 30.997 6.364 6.364 14.34 10.531 23.007 12.119v3.204c0 36.164 26.566 79.455 78.963 128.672 20.013 18.792 45.694 28.188 71.376 28.188 25.683 0 51.365-9.396 71.378-28.189a509.302 509.302 0 0 0 19.189-18.974l20.834 20.834c1.562 1.562 3.609 2.343 5.657 2.343s4.095-.781 5.657-2.343l43.465-43.465c15.102-15.103 15.102-39.676 0-54.779a38.507 38.507 0 0 0-18.877-10.384c2.009-7.563 3.039-14.872 3.039-21.904v-3.224zm19.85-43.096c0 12.572-8.381 23.219-19.85 26.664v-52.711c3.312.678 6.473 2.031 9.14 4.109a27.781 27.781 0 0 1 10.71 21.938zM382.264 25.634c16.791 6.862 28.656 23.364 28.656 42.595a45.96 45.96 0 0 1-8.795 27.042c-17.968-21.956-20.059-53.869-19.861-69.637zm-17.344-3.405c.462 0 .919.021 1.378.035-.606 16.842.804 56.459 24.287 84.158a45.624 45.624 0 0 1-6.775 3.763c-10.36-29.128-28.657-54.52-52.281-73.566 8.623-9.107 20.643-14.39 33.391-14.39zm-320.16 46c0-19.121 11.73-35.55 28.369-42.481.186 15.762-1.927 47.438-19.713 69.336a45.969 45.969 0 0 1-8.656-26.855zm20.155 38.067c23.377-27.689 24.784-67.204 24.179-84.025.554-.02 1.107-.042 1.666-.042 12.748 0 24.768 5.283 33.389 14.389-23.624 19.046-41.921 44.438-52.281 73.567a45.766 45.766 0 0 1-6.953-3.889zM77.5 279.177a27.715 27.715 0 0 1-11.698-6.999c-5.257-5.249-8.152-12.238-8.152-19.679 0-7.976 3.336-15.329 8.953-20.49 3.787 15.15 9.048 28.386 10.897 32.84v14.328zm1.916-68.274c-.515-11.427-.933-33.418-1.066-45.403C78.35 83.065 145.41 16 227.84 16c20.583 0 40.208 4.183 58.069 11.741 11.39 24.643 4.043 73.622-1.154 96.981-13.908.748-48.805 3.899-86.682 17.15-28.426 9.944-52.576 23.547-71.78 40.43-18.254 16.048-32.019 35.055-41.101 56.705-2.007-6.453-5.621-24.661-5.776-28.104zm208.847 204.925c-33.883 31.816-86.965 31.817-120.846 0C119.06 370.406 93.5 329.945 93.5 298.82v-10.48c0-29.719 10.519-58.616 30.185-80.897a146.966 146.966 0 0 1 12.999-12.972c17.588-15.508 39.885-28.077 66.271-37.355 36.12-12.701 70.218-15.711 82.974-16.415 6.921 15.28 29.933 58.712 76.25 81.078v77.042c0 6.837-1.247 14.129-3.69 21.822a38.5 38.5 0 0 0-13.593 5.787c-15.062-10.216-35.785-8.657-49.122 4.679-15.102 15.103-15.102 39.676 0 54.779l11.301 11.301a486.075 486.075 0 0 1-18.812 18.639zm94.442-41.255l-37.808 37.808-37.808-37.808c-8.864-8.864-8.864-23.288 0-32.152 4.294-4.294 10.003-6.659 16.076-6.659s11.782 2.365 16.076 6.659a8 8 0 0 0 11.313 0c4.294-4.294 10.003-6.659 16.076-6.659s11.782 2.365 16.076 6.659c8.863 8.865 8.863 23.288-.001 32.152zm-5.968-164.747c-2.896-.593-5.718-1.527-8.369-2.834-43.443-21.419-64.416-64.967-68.838-75.151 2.762-11.738 12.902-59.01 6.108-93.953 42.961 26.292 71.691 73.659 71.691 127.613 0 5.838-.226 30.569-.592 44.325z"/></svg>