<svg xmlns="http://www.w3.org/2000/svg" viewBox="0 0 420.707 420.707"><path d="M210.372 307.251c-14.667 0-28.455 5.711-38.826 16.083a8 8 0 1 0 11.314 11.313c7.349-7.349 17.119-11.396 27.512-11.396s20.163 4.047 27.512 11.396c1.563 1.563 3.609 2.343 5.657 2.343s4.095-.781 5.657-2.343a8 8 0 0 0 0-11.313c-10.371-10.372-24.16-16.083-38.826-16.083zm-63.833-23.592c-3.635 3.636-8.469 5.638-13.61 5.638s-9.975-2.002-13.61-5.638a8 8 0 0 0-11.314 11.313c6.658 6.658 15.51 10.324 24.925 10.324 9.416 0 18.268-3.667 24.925-10.324a8 8 0 1 0-11.316-11.313zm154.886 0c-3.636 3.636-8.469 5.638-13.61 5.638s-9.976-2.002-13.61-5.638a8 8 0 0 0-11.314 11.314c6.657 6.658 15.509 10.324 24.925 10.324 9.415 0 18.267-3.667 24.925-10.324a8 8 0 0 0 0-11.313 8.002 8.002 0 0 0-11.316-.001zm-27.019-24.524a14.001 14.001 0 0 0-.214 2.359c0 7.732 6.268 14 14 14s14-6.268 14-14c0-1.491-.238-2.926-.67-4.274a35.31 35.31 0 0 0 9.075-6.568 7.999 7.999 0 0 0-.001-11.313c-3.123-3.126-8.188-3.123-11.313 0-3.635 3.635-8.469 5.638-13.61 5.638s-9.975-2.002-13.611-5.638a7.999 7.999 0 0 0-11.313 0 7.999 7.999 0 0 0 .001 11.313 35.092 35.092 0 0 0 13.656 8.483zm-125.723-19.797c-3.637 3.635-8.47 5.638-13.611 5.638s-9.976-2.002-13.61-5.638a7.999 7.999 0 0 0-11.313 0 7.999 7.999 0 0 0-.001 11.313 35.28 35.28 0 0 0 9.732 6.899 13.99 13.99 0 0 0-.573 3.943c0 7.732 6.268 14 14 14s14-6.268 14-14c0-.89-.092-1.757-.251-2.6a35.127 35.127 0 0 0 12.94-8.242 8 8 0 0 0-11.313-11.313z"/><path d="M409.798 214.164c0-11.093-4.861-21.401-12.86-28.48 7.495-7.024 11.931-16.928 11.931-27.689 0-11.319-4.95-21.781-13.326-28.904a37.957 37.957 0 0 0 4.326-17.596c0-16.228-10.147-30.137-24.574-35.565a37.87 37.87 0 0 0 2.074-12.425c0-20.953-17.047-38-38-38-1.872 0-3.729.135-5.56.404-6.522-12.151-19.176-19.904-33.44-19.904-7.359 0-14.355 2.058-20.377 5.91C272.9 4.416 262.942.005 252.369.005a37.844 37.844 0 0 0-20.261 5.864A37.88 37.88 0 0 0 210.35.035c-7.73-.327-15.315 1.762-21.757 5.833A37.826 37.826 0 0 0 168.329.005c-10.579 0-20.544 4.42-27.637 11.934-6.044-3.831-13.122-5.934-20.363-5.934-14.26 0-26.909 7.752-33.432 19.905a38.106 38.106 0 0 0-5.559-.405c-20.953 0-38 17.047-38 38 0 4.293.703 8.475 2.071 12.426-14.425 5.428-24.571 19.336-24.571 35.564 0 6.17 1.504 12.2 4.326 17.594-8.377 7.121-13.326 17.583-13.326 28.906 0 10.763 4.435 20.666 11.928 27.689-7.997 7.079-12.857 17.386-12.857 28.48 0 11.372 5.104 22.016 13.653 29.161a41.843 41.843 0 0 0-1.825 12.244c0 20.423 14.655 37.479 34 41.227v33.75c0 17.505 7.192 34.695 19.733 47.162 12.331 12.258 28.472 18.995 45.49 18.995l.382-.001c11.261-.066 22.041-2.948 31.653-8.406 11.548 19.959 32.765 32.411 56.377 32.411s44.83-12.452 56.378-32.411c9.612 5.458 20.393 8.34 31.653 8.406l.381.001c17.018 0 33.161-6.737 45.492-18.996 12.54-12.466 19.732-29.656 19.732-47.161v-33.75c19.345-3.747 34-20.804 34-41.227 0-4.271-.645-8.393-1.835-12.279 8.531-7.143 13.625-17.775 13.625-29.126zM38.736 255.569c0-12.241 8.505-22.527 19.916-25.274a755.367 755.367 0 0 0-1.893 50.017c-10.446-3.376-18.023-13.189-18.023-24.743zm309.272 74.977c0 13.276-5.472 26.33-15.013 35.814-9.312 9.256-21.451 14.343-34.215 14.343l-.284-.001c-10.977-.064-21.351-3.677-29.998-10.447a8.001 8.001 0 0 0-12.369 3.352c-7.487 18.892-25.448 31.1-45.758 31.1s-38.27-12.208-45.757-31.1a8.001 8.001 0 0 0-12.37-3.351c-8.647 6.77-19.021 10.382-29.999 10.447-12.887.063-25.118-5.017-34.498-14.341-9.541-9.485-15.013-22.539-15.013-35.815v-46.758c0-49.588 5.021-99.344 14.928-147.923 6.839 11.522 19.157 18.589 32.669 18.589 7.236 0 14.313-2.103 20.358-5.934 7.093 7.513 17.06 11.933 27.64 11.933 7.233 0 14.232-2.05 20.262-5.863a37.885 37.885 0 0 0 21.759 5.832 37.882 37.882 0 0 0 21.76-5.833 37.843 37.843 0 0 0 20.261 5.864c10.581 0 20.547-4.419 27.641-11.933 6.045 3.83 13.121 5.934 20.357 5.934 13.515 0 25.835-7.069 32.672-18.594a741.923 741.923 0 0 1 14.967 148.115v46.57zm15.977-50.234a755.425 755.425 0 0 0-1.906-50.02c11.417 2.742 19.929 13.031 19.929 25.277 0 11.554-7.578 21.368-18.023 24.743zm-3.255-66.471a757.017 757.017 0 0 0-12.502-83.564c-1.247-6.002-6.151-10.653-12.191-11.572a42.348 42.348 0 0 1-.514-.084c-6.311-1.112-12.579 2.069-15.599 7.915-3.798 7.352-11.291 11.918-19.555 11.918-6.102 0-11.777-2.448-15.981-6.894a7.998 7.998 0 0 0-12.797 1.597c-3.892 6.968-11.257 11.297-19.22 11.297a21.924 21.924 0 0 1-14.852-5.793 7.998 7.998 0 0 0-10.819.001 21.938 21.938 0 0 1-15.967 5.763 7.527 7.527 0 0 0-.766 0 21.932 21.932 0 0 1-15.965-5.763 8 8 0 0 0-10.82-.001 21.918 21.918 0 0 1-14.853 5.793c-7.963 0-15.327-4.329-19.219-11.297a7.998 7.998 0 0 0-12.797-1.597c-4.204 4.446-9.88 6.894-15.982 6.894-8.263 0-15.756-4.567-19.554-11.917-3.02-5.846-9.288-9.029-15.611-7.914a19.68 19.68 0 0 1-.486.08c-6.058.922-10.963 5.578-12.203 11.572l-.038.184a757.064 757.064 0 0 0-12.444 83.385c-11.04 1.246-20.797 6.783-27.555 14.906a22.025 22.025 0 0 1-5.533-14.586c0-9.281 5.873-17.61 14.614-20.724a8 8 0 1 0 .251-14.978c-8.466-3.339-13.936-11.373-13.936-20.468 0-8.318 4.62-15.836 12.058-19.62a8 8 0 0 0 2.394-12.398 21.989 21.989 0 0 1-5.451-14.482c0-11.751 9.188-21.401 20.918-21.969a8 8 0 0 0 5.997-12.811c-2.889-3.826-4.415-8.394-4.415-13.21 0-12.131 9.869-22 22-22 2.589 0 5.126.446 7.541 1.326a8.003 8.003 0 0 0 10.396-5.199c2.783-9.201 11.44-15.627 21.053-15.627 6.107 0 11.784 2.448 15.984 6.894a8 8 0 0 0 12.801-1.595c3.891-6.97 11.253-11.299 19.215-11.299a21.88 21.88 0 0 1 14.846 5.79 8 8 0 0 0 10.822.005 21.96 21.96 0 0 1 15.867-5.77c.324.02.647.02.972 0a21.944 21.944 0 0 1 15.864 5.769 8 8 0 0 0 10.818 0 21.913 21.913 0 0 1 14.851-5.794c7.968 0 15.334 4.33 19.225 11.299a8 8 0 0 0 12.801 1.595c4.2-4.446 9.873-6.894 15.975-6.894 9.771 0 18.235 6.28 21.063 15.626a8.001 8.001 0 0 0 10.404 5.198 21.875 21.875 0 0 1 7.533-1.324c12.131 0 22 9.869 22 22 0 4.807-1.528 9.377-4.421 13.218a7.998 7.998 0 1 0 6.002 12.803c11.729.569 20.918 10.219 20.918 21.969a21.994 21.994 0 0 1-5.45 14.482 8 8 0 0 0 2.391 12.397c7.438 3.788 12.06 11.307 12.06 19.621 0 9.092-5.471 17.126-13.938 20.468a8 8 0 0 0 .25 14.976c8.743 3.118 14.617 11.446 14.617 20.725 0 5.44-2.021 10.598-5.519 14.559-6.759-8.112-16.514-13.64-27.548-14.881z"/></svg>