<svg xmlns="http://www.w3.org/2000/svg" viewBox="0 0 424.239 424.239"><path d="M129.287 245.558c3.906 0 7.578 1.521 10.34 4.283a7.97 7.97 0 0 0 5.657 2.343 7.999 7.999 0 0 0 5.657-13.657c-5.784-5.784-13.474-8.969-21.653-8.969-8.179 0-15.869 3.185-21.653 8.969-3.125 3.124-3.125 8.189 0 11.314s8.19 3.124 11.313 0a14.523 14.523 0 0 1 10.339-4.283zm144.011-7.031a7.999 7.999 0 0 0 0 11.314 8 8 0 0 0 11.313 0c5.701-5.702 14.979-5.701 20.68 0 1.562 1.562 3.609 2.343 5.657 2.343s4.095-.781 5.657-2.343a7.999 7.999 0 0 0 0-11.314c-11.938-11.939-31.366-11.94-43.307 0zm21.61 78.92c-45.65 45.65-119.927 45.65-165.578 0a8 8 0 0 0-11.313 0 7.999 7.999 0 0 0 0 11.314c25.944 25.944 60.023 38.916 94.102 38.916 34.08 0 68.159-12.972 94.103-38.916a8 8 0 0 0-11.314-11.314z"/><path d="M400.881 254.178c0-21.731-15.71-39.851-36.366-43.63V76.715a51.555 51.555 0 0 0-23.104-43.057c-13.589-9.015-30.457-11.061-45.711-5.686l-50.226-17.048C206.88-2.177 166.255-3.521 127.992 7.036 77.9 20.857 49.182 50.083 44.749 91.627a60.731 60.731 0 0 0-9.158 17.255l-3.896 11.531c-2.091 6.191.214 12.697 5.738 16.189 5.523 3.492 12.39 2.786 17.086-1.759a27.915 27.915 0 0 1 5.204-3.955v79.66c-20.656 3.779-36.366 21.898-36.366 43.63 0 22.601 16.991 41.296 38.868 44.014 5.494 30.336 19.931 58.319 42.006 80.712 28.821 29.236 67.135 45.336 107.888 45.336h.015c40.701-.004 78.965-15.856 107.745-44.635 22.481-22.481 37.073-50.749 42.386-81.445 21.755-2.831 38.616-21.469 38.616-43.982zM332.565 46.991c10.137 6.725 15.95 17.559 15.95 29.724v104.689c-24.831-3.859-43.897-25.383-43.897-51.279l-.662-87.96c9.769-2.575 19.956-.915 28.609 4.826zm-283.37 71.613l1.555-4.601a44.864 44.864 0 0 1 24.815-26.85 44.862 44.862 0 0 1 36.556.573c24.226 11.283 53.513 5.183 71.219-14.833l1.982-2.241a8.001 8.001 0 0 0-11.984-10.601l-1.982 2.241c-13.048 14.75-34.629 19.244-52.48 10.93a60.88 60.88 0 0 0-49.609-.777 60.976 60.976 0 0 0-4.233 2.033c9.299-24.791 31.805-42.249 67.215-52.019 35.161-9.702 72.535-8.451 108.084 3.615l47.623 16.165.624 41.337c-21.205 28.831-52.131 48.348-87.373 55.059-36.087 6.871-72.901-.4-103.663-20.474-15.031-9.807-33.982-9.388-48.349.443zm-9.838 135.574c0-12.863 8.609-23.747 20.366-27.21v43.362c0 3.746.135 7.471.398 11.172-11.959-3.333-20.764-14.316-20.764-27.324zM308.566 368.29c-25.758 25.758-60.005 39.945-96.433 39.949h-.014c-36.433 0-70.705-14.409-96.494-40.568-25.731-26.102-39.902-60.672-39.902-97.342V127.116a27.647 27.647 0 0 1 13.075 4.445c34.246 22.347 75.228 30.442 115.4 22.792 32.609-6.21 61.903-22.263 84.419-45.938v21.709c0 34.731 26.217 63.437 59.897 67.41v74.308c.001 36.434-14.186 70.687-39.948 96.448zm55.64-86.814c.198-3.194.309-6.405.309-9.633v-44.875c11.757 3.463 20.366 14.347 20.366 27.21 0 12.975-8.76 23.936-20.675 27.298z"/></svg>