<svg xmlns="http://www.w3.org/2000/svg" width="50" height="50" viewBox="0 0 50 50"><path fill-rule="evenodd" clip-rule="evenodd" fill="#000333" d="M24.421 7.113c-10.255 0-18.571 8.314-18.571 18.572 0 8.204 5.321 15.165 12.701 17.622.929.17 1.267-.404 1.267-.896 0-.44-.015-1.607-.024-3.158-5.166 1.123-6.256-2.489-6.256-2.489-.845-2.145-2.062-2.717-2.062-2.717-1.686-1.151.127-1.128.127-1.128 1.864.131 2.845 1.913 2.845 1.913 1.657 2.838 4.347 2.019 5.405 1.544.168-1.201.649-2.02 1.179-2.483-4.124-.469-8.459-2.062-8.459-9.178 0-2.028.724-3.685 1.912-4.984-.19-.469-.828-2.358.182-4.915 0 0 1.56-.5 5.108 1.904a17.763 17.763 0 0 1 4.649-.625c1.577.007 3.166.213 4.649.625 3.545-2.403 5.102-1.904 5.102-1.904 1.013 2.557.376 4.445.185 4.915 1.19 1.299 1.908 2.956 1.908 4.984 0 7.134-4.341 8.704-8.479 9.164.668.573 1.261 1.707 1.261 3.438 0 2.483-.023 4.486-.023 5.095 0 .498.335 1.075 1.278.895 7.374-2.461 12.688-9.418 12.688-17.62-.001-10.26-8.315-18.574-18.572-18.574z"/></svg>