<svg xmlns="http://www.w3.org/2000/svg" viewBox="0 0 420.807 420.807"><circle cx="123.548" cy="246.565" r="15.703"/><circle cx="297.27" cy="246.565" r="15.703"/><path d="M95.669 209.892a7.999 7.999 0 0 1-7.491-10.807c6.135-16.381 24.452-24.717 40.833-18.582l5.698 2.134c8.93 3.344 19.058 1.148 25.801-5.595a8 8 0 0 1 11.314 11.314c-11.167 11.166-27.938 14.803-42.726 9.264l-5.698-2.134c-8.117-3.04-17.197 1.091-20.239 9.209a8.002 8.002 0 0 1-7.492 5.197zm229.48 0a8.002 8.002 0 0 1-7.493-5.196c-3.04-8.118-12.119-12.252-20.238-9.21l-5.698 2.134c-14.787 5.538-31.559 1.902-42.726-9.265a8 8 0 1 1 11.314-11.313c6.744 6.744 16.872 8.938 25.8 5.594l5.698-2.134c16.379-6.134 34.698 2.201 40.834 18.582a8.001 8.001 0 0 1-7.491 10.808zM151.192 317.903c-3.888 0-7.828-.951-11.468-2.955a8 8 0 1 1 7.717-14.017c3.796 2.091 8.588.703 10.679-3.095l1.912-3.474c6.346-11.526 20.886-15.74 32.412-9.395l6.253 3.443a7.998 7.998 0 0 1 3.149 10.866 7.997 7.997 0 0 1-10.866 3.149l-6.253-3.443a7.814 7.814 0 0 0-5.98-.664 7.812 7.812 0 0 0-4.699 3.759l-1.912 3.474c-4.342 7.888-12.52 12.352-20.944 12.352zm118.434 0c-8.424 0-16.602-4.463-20.944-12.349l-1.913-3.476c-2.091-3.797-6.883-5.187-10.679-3.094l-6.253 3.442a8 8 0 0 1-7.717-14.015l6.253-3.443c11.527-6.346 26.067-2.131 32.412 9.395l1.913 3.475c2.089 3.796 6.879 5.186 10.679 3.095a8 8 0 0 1 7.717 14.015 23.718 23.718 0 0 1-11.468 2.955zm-59.217 45.522c-8.756 0-15.782-.509-21.609-2.991-5.709-2.433-12.516-7.839-12.516-19.777 0-17.811 15.308-32.302 34.125-32.302s34.124 14.491 34.124 32.302c0 11.938-6.806 17.344-12.516 19.777-5.826 2.482-12.852 2.991-21.608 2.991zm0-39.07c-9.994 0-18.125 7.313-18.125 16.302 0 3.781 0 6.768 18.125 6.768 18.124 0 18.124-2.987 18.124-6.768 0-8.989-8.131-16.302-18.124-16.302z"/><path d="M406.101 228.923c0-11.252-4.054-21.572-10.772-29.587v-14.411C395.329 82.957 312.371 0 210.403 0S25.478 82.957 25.478 184.925v14.411c-6.718 8.016-10.772 18.335-10.772 29.587 0 22.878 16.743 41.911 38.617 45.512 7.73 33.852 34.765 72.788 80.693 116.084 21.421 20.193 48.902 30.287 76.392 30.287 27.483 0 54.976-10.098 76.392-30.286 45.929-43.298 72.964-82.235 80.694-116.087 21.869-3.605 38.607-22.635 38.607-45.51zM210.404 16c93.146 0 168.925 75.78 168.925 168.925v2.138a45.829 45.829 0 0 0-18.388-4.251c-6.464-25.849-16.386-50.826-29.575-74.141l-.001-.001-1.222-2.16c-6.925-12.242-19.451-20.109-33.506-21.044-13.916-.915-27.227 5.135-35.614 16.222l-.323.432c-11.958 16.063-30.291 25.277-50.297 25.277-20.001 0-38.336-9.217-50.312-25.299l-.325-.432c-8.38-11.075-21.695-17.131-35.607-16.205-14.055.937-26.579 8.806-33.502 21.05l-1.232 2.18C76.246 132 66.329 156.969 59.87 182.813a45.81 45.81 0 0 0-18.392 4.251v-2.138C41.478 91.78 117.258 16 210.404 16zM30.706 228.923c0-15.065 11.112-27.583 25.569-29.79a296.542 296.542 0 0 0-5.285 55.647c0 .873.031 1.755.06 2.636-11.823-4.074-20.344-15.303-20.344-28.493zm245.119 149.955c-36.682 34.58-94.151 34.58-130.833 0-51.029-48.105-78.002-91.017-78.002-124.125 0-48.332 12.574-96.116 36.362-138.187l1.232-2.18c4.262-7.538 11.978-12.383 20.639-12.96.601-.04 1.198-.06 1.791-.06 7.948 0 15.16 3.567 20.004 9.969l.247.329c14.796 19.87 38.399 31.733 63.137 31.733 24.744 0 48.344-11.859 63.131-31.723l.258-.345c5.193-6.866 13.138-10.478 21.783-9.898 8.662.576 16.378 5.42 20.643 12.958l1.222 2.16c23.805 42.083 36.387 89.882 36.387 138.231.001 33.08-26.972 75.992-78.001 124.098zm93.942-121.465c.029-.88.06-1.76.06-2.632 0-18.717-1.791-37.354-5.289-55.646 14.454 2.21 25.562 14.726 25.562 29.789.001 13.184-8.515 24.411-20.333 28.489z"/></svg>