<svg xmlns="http://www.w3.org/2000/svg" viewBox="0 0 433.398 433.398"><path d="M406.343 256.221c0-11.042-3.964-21.393-11.219-29.545 2.932-60 4.509-100.1-14.466-137.038-12.926-25.167-33.849-46.2-62.188-62.513C285.422 8.1 247.728-1.229 209.444.13c-33.635 1.2-64.944 16.909-86.49 43.256-27.857 1.572-53.221 16.695-66.845 40.109a134.17 134.17 0 0 0-3.361 6.142C33.76 126.601 35.34 166.702 38.271 226.711c-6.971 7.865-11.217 18.198-11.217 29.509 0 23.325 18.025 42.508 40.875 44.381 9.515 30.659 34.724 65.399 75.327 103.677 20.594 19.416 47.015 29.122 73.444 29.12 26.423-.002 52.855-9.709 73.445-29.12 40.601-38.277 65.81-73.017 75.325-103.676 22.85-1.876 40.873-21.057 40.873-44.381zM210.014 16.12c35.292-1.258 70.025 7.343 100.474 24.871 25.624 14.75 44.444 33.577 55.938 55.957 15.979 31.105 15.764 64.966 12.898 125.181l-17.87.985c-120.415 3.944-186.972-52.02-206.742-71.985l-19.252-97.75c18.627-22.695 45.602-36.227 74.554-37.259zM66.979 96.95a117.939 117.939 0 0 1 2.96-5.408c10.375-17.831 29.339-29.669 50.446-31.904l18.612 94.499c-12.727 29.203-34.477 44.558-68.265 48.24a8 8 0 0 0-7.133 7.953v2.079a44.14 44.14 0 0 0-9.84 3.007c-2.544-56.034-2.161-88.525 13.22-118.466zM43.055 256.22c0-12.962 8.688-23.927 20.544-27.395v45.143c0 3.219.219 6.497.632 9.827-12.179-3.258-21.176-14.384-21.176-27.575zm236.116 136.416c-35.031 33.025-89.911 33.023-124.938 0-48.826-46.03-74.634-87.065-74.634-118.668l.002-56.644c32.577-5.238 55.676-21.259 70.194-48.724 12.308 11.313 32.47 27.045 61.074 40.811 42.525 20.465 90.579 30.515 142.934 29.876v34.68c0 31.605-25.808 72.64-74.632 118.669zm90-108.841c.413-3.33.632-6.608.632-9.827v-35.291l13.893-.765c4.304 5.126 6.647 11.514 6.647 18.309 0 13.19-8.995 24.315-21.172 27.574z"/><circle cx="294.02" cy="260.329" r="15.048"/><circle cx="139.377" cy="260.329" r="15.048"/><path d="M216.698 328.081c-18.215 0-33.034 14.036-33.034 31.288a8 8 0 0 0 16 0c0-8.43 7.642-15.288 17.034-15.288 9.394 0 17.035 6.858 17.035 15.288a8 8 0 0 0 16 0c.001-17.252-14.819-31.288-33.035-31.288zm82.853-39.836a8.004 8.004 0 0 0-11.314 0l-13.088 13.088c-5.007 5.007-7.764 11.664-7.764 18.745 0 7.081 2.757 13.738 7.764 18.745 5.168 5.168 11.957 7.752 18.745 7.752 6.789 0 13.578-2.584 18.746-7.752 10.334-10.335 10.334-27.153 0-37.489l-13.089-13.089zm1.774 39.265c-4.099 4.099-10.766 4.097-14.862 0-4.098-4.098-4.098-10.765 0-14.863l7.431-7.432 7.432 7.431c4.097 4.099 4.097 10.766-.001 14.864z"/></svg>