<svg xmlns="http://www.w3.org/2000/svg" width="24" height="24" viewBox="0 0 24 24"><path d="M12.312 21.625C6.626 21.625 2 16.999 2 11.312S6.626 1 12.312 1s10.312 4.626 10.312 10.312-4.625 10.313-10.312 10.313zm0-19.625C7.178 2 3 6.178 3 11.312s4.178 9.312 9.312 9.312 9.312-4.178 9.312-9.312S17.447 2 12.312 2z"/><path d="M15.813 7.173l-2.981 3.924v.062l4.741-.628v2.135l-4.741-.596v.093l3.014 3.77-1.979 1.129-1.915-4.396h-.062l-2.009 4.428-1.79-1.131 2.981-3.831v-.095l-4.646.628V10.53l4.616.598v-.063L8.091 7.203l1.915-1.098 1.946 4.394h.062l1.915-4.426 1.884 1.1z"/></svg>