<svg xmlns="http://www.w3.org/2000/svg" viewBox="0 0 464.732 464.732"><path d="M185.139 203.746a8 8 0 0 0-11.314 0l-11.956 11.956-11.956-11.956a8 8 0 0 0-11.314 11.313l11.957 11.956-11.957 11.957a8 8 0 1 0 11.314 11.313l11.956-11.956 11.956 11.956c1.563 1.562 3.609 2.343 5.657 2.343s4.095-.781 5.657-2.343a8 8 0 0 0 0-11.313l-11.957-11.957 11.957-11.956a8 8 0 0 0 0-11.313zm140.992 0a8 8 0 0 0-11.314 0l-11.956 11.956-11.956-11.956a8 8 0 0 0-11.314 11.313l11.956 11.956-11.956 11.957a8 8 0 1 0 11.314 11.313l11.956-11.956 11.956 11.956a7.972 7.972 0 0 0 5.657 2.343 8 8 0 0 0 5.657-13.656l-11.956-11.957 11.956-11.956a8 8 0 0 0 0-11.313zm-93.767 88.381c-21.002 0-38.089 20.747-38.089 46.248s17.087 46.248 38.089 46.248 38.089-20.747 38.089-46.248-17.087-46.248-38.089-46.248zm0 16c7.505 0 14.144 5.156 18.137 13.013-5.448-1.717-11.618-2.67-18.139-2.67-6.52 0-12.687.953-18.135 2.668 3.995-7.855 10.633-13.011 18.137-13.011zm0 60.496c-11.522 0-21.007-12.146-21.998-27.578 3.111-3.067 10.944-6.575 21.996-6.575 11.057 0 18.893 3.512 22 6.579-.992 15.43-10.477 27.574-21.998 27.574z"/><path d="M418.548 231.04c0-21.516-15.583-39.449-36.053-43.139-.799-25.161-4.193-56.219-14.449-81.053-4.364-10.566-1.951-22.746 6.146-31.029l27.848-28.488a8 8 0 0 0-4.767-13.535c-2.258-.271-46.536-5.331-85.554 8.533 4.797-7.272 10.846-15.395 17.931-22.796a8 8 0 1 0-5.779-13.532c-37.9 0-74.039 16.88-96.126 29.783 4.297-6.938 10.528-14.579 19.496-21.423A8 8 0 0 0 240.803.16c-33.039 6.679-65.651 20.116-73.792 24.254-25.394 12.91-46.753 32.574-61.77 56.866a155.316 155.316 0 0 0-23.209 81.728v24.93c-20.369 3.772-35.848 21.658-35.848 43.103s15.479 39.331 35.848 43.103v32.542c-.205 14.839 4.608 29.521 13.557 41.346l59.054 78.045c18.315 24.205 47.371 38.655 77.723 38.655s59.407-14.45 77.722-38.655l59.055-78.045c8.773-11.594 13.461-25.418 13.557-40.05.003-.431 0-33.839 0-33.839 20.369-3.772 35.848-21.658 35.848-43.103zm-356.365 0c0-12.575 8.38-23.225 19.848-26.67v53.341c-11.467-3.446-19.848-14.095-19.848-26.671zM366.7 307.947c-.073 11.085-3.64 21.607-10.315 30.43l-59.055 78.045c-15.309 20.231-39.594 32.309-64.964 32.309-25.37 0-49.655-12.078-64.964-32.309l-59.054-78.045c-6.819-9.013-10.483-20.206-10.316-31.517l.001-.118-.001-143.734c0-25.929 7.199-51.281 20.819-73.314 13.473-21.796 32.634-39.438 55.411-51.017 5.171-2.629 22.354-9.814 42.942-16.017-11.827 16.746-14.226 31.773-14.358 32.657a8 8 0 0 0 12.797 7.519c.47-.362 42.244-32.189 89.797-39.396-13.022 17.305-20.449 33.37-20.843 34.232a7.998 7.998 0 0 0 11.75 9.959c24.917-16.819 60.883-19.158 81.922-18.871l-15.518 15.874c-12.577 12.866-16.304 31.833-9.493 48.322 6.132 14.849 13.442 42.16 13.442 87.951.001 0 .003 106.627 0 107.04zm16-50.236l.001-53.341c11.467 3.446 19.847 14.096 19.847 26.67s-8.38 23.225-19.848 26.671z"/><path d="M337.507 119.961a44.233 44.233 0 0 0-2.028-1.262 95.32 95.32 0 0 0-47.938-12.958h-110.35a95.411 95.411 0 0 0-45.823 11.758c-17.726 9.741-28.737 28.391-28.737 48.673l.001 75.725c0 14.668 5.336 29.364 15.082 41.452l.997 1.261c13.531 17.115 37.946 21.74 56.79 10.756 17.247-10.052 36.91-15.365 56.865-15.365s39.618 5.313 56.865 15.366c6.881 4.011 14.505 5.94 22.071 5.94 13.153 0 26.129-5.832 34.718-16.697l1.053-1.332c9.69-12.016 15.026-26.712 15.026-41.381l.001-75.798c.001-18.757-9.193-36.005-24.593-46.138zm8.592 121.936c0 11.027-4.078 22.156-11.526 31.393l-1.105 1.397c-8.621 10.906-24.175 13.854-36.181 6.856a129.053 129.053 0 0 0-64.922-17.542 129.065 129.065 0 0 0-64.921 17.542c-12.005 6.998-27.561 4.05-36.182-6.856l-1.149-1.452c-7.404-9.182-11.481-20.311-11.481-31.338l-.001-75.725c0-14.445 7.833-27.722 20.442-34.651a79.373 79.373 0 0 1 38.118-9.781h110.35a79.299 79.299 0 0 1 39.878 10.78c.415.242.847.513 1.292.806 10.889 7.165 17.389 19.416 17.389 32.771l-.001 75.8z"/></svg>