<svg xmlns="http://www.w3.org/2000/svg" width="720.001" height="719.997" viewBox="280 0.002 720.001 719.997"><path fill="#FFF" d="M639 166.911c90.196 0 166.534 41.115 214.694 75.611 57.06 40.869 86.422 80.4 94.035 95.478-7.621 15.076-36.975 54.609-94.035 95.478-48.16 34.496-124.498 75.61-214.694 75.61-90.196 0-166.534-41.114-214.695-75.61-57.069-40.869-86.421-80.402-94.046-95.478 7.625-15.078 36.977-54.609 94.035-95.478 48.172-34.496 124.509-75.611 214.706-75.611m0-42.772c-194.881 0-352.871 171.089-352.871 213.862S444.119 551.861 639 551.861c194.881 0 352.872-171.089 352.872-213.861S833.881 124.139 639 124.139zm0 85.545c-70.863 0-128.316 57.454-128.316 128.316S568.138 466.316 639 466.316 767.315 408.862 767.315 338 709.862 209.684 639 209.684zM604.45 338c-29.983 0-54.289-24.306-54.289-54.29 0-29.983 24.306-54.288 54.289-54.288s54.288 24.306 54.288 54.288c0 29.985-24.304 54.29-54.288 54.29z"/></svg>