<svg xmlns="http://www.w3.org/2000/svg" viewBox="0 0 466.024 466.024"><path d="M447.106 266.299a42.205 42.205 0 0 0-6.829-23.053 211.806 211.806 0 0 0 2.645-33.333C442.922 94.167 348.755 0 233.009 0S23.095 94.167 23.095 209.913c0 11.194.896 22.392 2.646 33.342a42.208 42.208 0 0 0-6.824 23.043c0 21.148 15.54 38.731 35.799 41.941 10.811 88.782 86.642 157.785 178.295 157.785s167.484-69.002 178.295-157.785c20.261-3.209 35.8-20.792 35.8-41.94zm-412.188 0c0-11.807 7.772-21.83 18.467-25.229l.001 45.33c0 1.725.03 3.443.079 5.156-10.737-3.375-18.547-13.421-18.547-25.257zm198.094 183.725c-90.224 0-163.625-73.402-163.625-163.625l-.001-82.724c0-12.358 6.481-23.291 17.338-29.246 10.75-5.897 23.315-5.499 33.614 1.065 33.637 21.44 72.599 32.773 112.671 32.773 40.074 0 79.037-11.333 112.676-32.774 10.297-6.563 22.862-6.963 33.613-1.066 10.856 5.954 17.338 16.888 17.338 29.245l.002 82.727c0 90.223-73.402 163.625-163.626 163.625zm153.979-289.625c-15.951-8.75-34.608-8.149-49.906 1.603-31.066 19.801-67.055 30.267-104.077 30.267-37.021 0-73.008-10.466-104.072-30.266-15.299-9.752-33.958-10.35-49.909-1.602-16.057 8.807-25.644 24.984-25.643 43.274v20.921a42.154 42.154 0 0 0-13.293 4.981 196.486 196.486 0 0 1-.997-19.665C39.095 102.989 126.085 16 233.009 16s193.913 86.989 193.913 193.913c0 6.573-.341 13.146-.997 19.661a42.154 42.154 0 0 0-13.288-4.978v-20.923c-.002-18.29-9.588-34.467-25.646-43.274zm25.568 131.157c.049-1.713.079-3.431.079-5.156l-.001-45.331c10.697 3.399 18.469 13.423 18.469 25.23 0 11.836-7.81 21.882-18.547 25.257z"/><circle cx="159.805" cy="286.835" r="13.462"/><circle cx="308.733" cy="286.835" r="13.462"/><path d="M284.549 224.869a7.999 7.999 0 0 0 0 11.313 8 8 0 0 0 11.314.001c7.097-7.096 18.644-7.096 25.74 0 1.563 1.562 3.609 2.343 5.657 2.343s4.095-.781 5.657-2.344a8 8 0 0 0 0-11.313c-13.336-13.334-35.033-13.334-48.368 0zm-111.874 11.315c1.562 1.562 3.609 2.343 5.657 2.343s4.095-.781 5.657-2.344a7.999 7.999 0 0 0 0-11.313c-13.334-13.334-35.031-13.334-48.367 0a7.999 7.999 0 0 0 0 11.313 8 8 0 0 0 11.314.001c7.096-7.095 18.642-7.095 25.739 0zm113.723 119.524c-6.72-23.147-28.102-40.121-53.386-40.121-25.211 0-46.542 16.874-53.328 39.917a8.011 8.011 0 0 0-.29 1.02 55.437 55.437 0 0 0-1.975 14.658c0 9.597 2.459 16.624 7.517 21.485 8.446 8.116 21.106 7.613 35.766 7.028 3.981-.158 8.098-.322 12.312-.322s8.33.164 12.312.322c3.699.147 7.268.29 10.677.29 10.101 0 18.773-1.25 25.089-7.318 5.058-4.861 7.517-11.889 7.517-21.485a55.42 55.42 0 0 0-2.007-14.769 9.98 9.98 0 0 0-.204-.705zm-31.967-17.799a85.522 85.522 0 0 0-21.416-2.717c-7.321 0-14.499.929-21.422 2.716a39.345 39.345 0 0 1 21.418-6.319 39.333 39.333 0 0 1 21.42 6.32zm15.571 43.221c-3.533 3.396-13.494 2.999-24.043 2.578-4.137-.165-8.416-.335-12.948-.335s-8.811.17-12.948.335c-10.547.421-20.51.817-24.043-2.578-1.727-1.659-2.603-5.007-2.603-9.948 0-2.79.294-5.512.845-8.14 11.451-7.762 24.788-11.85 38.753-11.85 13.958 0 27.293 4.091 38.746 11.857.55 2.626.844 5.346.844 8.133 0 4.941-.876 8.289-2.603 9.948z"/></svg>