<svg xmlns="http://www.w3.org/2000/svg" viewBox="0 0 421.56 421.56"><path d="M301.97 243.515a7.972 7.972 0 0 0 5.151 1.886 8 8 0 0 0 5.657-13.657c-11.366-11.365-29.86-11.366-41.225 0a7.998 7.998 0 0 0 2.74 13.103c-.04.431-.066.866-.066 1.308 0 7.732 6.268 14 14 14s14-6.268 14-14c0-.903-.094-1.784-.257-2.64zm-130.181 75.001a7.998 7.998 0 0 0 0 11.313 8 8 0 0 0 11.313 0c15.263-15.263 40.098-15.264 55.363 0 1.562 1.562 3.609 2.343 5.657 2.343s4.095-.781 5.657-2.343a7.998 7.998 0 0 0 0-11.313c-21.503-21.502-56.489-21.502-77.99 0z"/><path d="M391.823 397.883c-18.74-20.752-19.533-73.63-17.315-128.342 8.163-7.667 13.277-18.545 13.277-30.601 0-10.587-3.946-20.264-10.433-27.659 2.727-55.803 4.172-93.122-13.529-127.58-12.076-23.512-31.615-43.157-58.076-58.39C274.908 7.56 239.729-1.154 204.012.123c-31.374 1.118-60.583 15.735-80.725 40.26C97.279 41.93 73.62 56.084 60.891 77.96a125.963 125.963 0 0 0-3.141 5.74c-17.711 34.477-16.267 71.792-13.54 127.589-6.483 7.394-10.426 17.067-10.426 27.65 0 12.052 5.11 22.927 13.269 30.594 2.218 54.716 1.425 107.598-17.315 128.35a8 8 0 0 0 3.109 12.846C53.94 418.7 74.368 421.55 92.805 421.55c19.153 0 36.157-3.078 49.506-6.688 23.195-6.272 39.555-15.076 45.137-18.325a143.409 143.409 0 0 0 23.336 1.915c7.944 0 15.735-.662 23.33-1.914 5.583 3.25 21.942 12.052 45.135 18.324 17.807 4.815 34.315 6.698 49.249 6.698 24.877 0 45.382-5.227 60.215-10.832a7.998 7.998 0 0 0 4.947-5.602 7.997 7.997 0 0 0-1.837-7.243zm-38.039-142.43v-39.715a8.375 8.375 0 0 0 0-.317v-1.217c10.433 3.383 18 13.19 18 24.735 0 11.637-7.685 21.513-18.247 24.819.158-2.749.247-5.516.247-8.305zM71.982 91.01c.863-1.68 1.784-3.364 2.738-5.003 10.537-18.109 30.69-29.513 52.594-29.762l.111-.002a8.004 8.004 0 0 0 6.183-3.131c17.265-22.521 43.134-36.007 70.974-37 32.714-1.167 64.942 6.81 93.181 23.066 23.745 13.669 41.182 31.108 51.826 51.833 14.168 27.58 14.589 57.581 12.265 109.13a41.657 41.657 0 0 0-8.07-2.429v-8.135a8 8 0 0 0-16 0v18.169c-110.163 1.177-169.855-51.902-185.773-68.509a8 8 0 0 0-13.175 2.494c-11.625 28.278-31.935 43.073-63.918 46.559a8 8 0 0 0-7.133 7.953v1.468a41.65 41.65 0 0 0-8.078 2.432c-2.324-51.537-1.901-81.536 12.275-109.133zm-3.951 172.749c-10.562-3.306-18.247-13.182-18.247-24.819 0-11.546 7.567-21.353 18-24.735v41.248c0 2.789.089 5.556.247 8.306zM48.488 399.143c14.266-24.35 16.74-64.829 14.926-120.065a41.63 41.63 0 0 0 6.574 1.452c9.099 51.227 45.568 93.105 93.695 109.943-23.147 9.96-66.958 23.158-115.195 8.67zm162.296-16.691c-70.028 0-127-56.972-127-127l.001-52.227c30.003-4.937 51.365-19.707 64.905-44.909 11.526 10.515 30.162 24.936 56.426 37.575 39.49 19.004 84.088 28.377 132.668 27.858v31.703c0 70.029-56.972 127-127 127zm73.168 17.106a189.314 189.314 0 0 1-26.096-9.075c48.142-16.83 84.624-58.715 93.725-109.953a41.652 41.652 0 0 0 6.567-1.45c-1.815 55.243.658 95.722 14.931 120.071-28.253 8.535-58.183 8.679-89.127.407z"/><path d="M108.79 231.744a7.998 7.998 0 0 0 10.808 11.77 14.01 14.01 0 0 0-.257 2.641c0 7.732 6.268 14 14 14s14-6.268 14-14c0-.441-.026-.877-.066-1.308a7.964 7.964 0 0 0 2.741-1.79 8 8 0 0 0 0-11.314c-11.367-11.365-29.86-11.365-41.226.001z"/></svg>