<svg xmlns="http://www.w3.org/2000/svg" viewBox="0 0 466.024 466.024"><path d="M447.106 266.299a42.206 42.206 0 0 0-6.83-23.053 211.75 211.75 0 0 0 2.645-33.333C442.922 94.167 348.755 0 233.009 0 117.262 0 23.095 94.167 23.095 209.913c0 11.194.896 22.392 2.646 33.342a42.208 42.208 0 0 0-6.823 23.043c0 21.148 15.54 38.731 35.799 41.941 10.811 88.782 86.642 157.785 178.295 157.785s167.485-69.002 178.295-157.785c20.26-3.209 35.799-20.792 35.799-41.94zm-412.188 0c0-11.807 7.772-21.83 18.468-25.23V286.4c0 1.725.03 3.443.079 5.156-10.737-3.375-18.547-13.421-18.547-25.257zm198.094 183.725c-90.224 0-163.625-73.402-163.625-163.625l-.001-82.724c0-12.358 6.481-23.292 17.337-29.246 5.06-2.775 10.521-4.156 15.959-4.156 6.116 0 12.204 1.747 17.655 5.222 33.637 21.44 72.599 32.773 112.671 32.773 40.074 0 79.037-11.333 112.677-32.774 10.297-6.563 22.861-6.962 33.611-1.066 10.856 5.954 17.339 16.887 17.339 29.245l.003 82.727c0 90.222-73.402 163.624-163.626 163.624zm153.979-289.625c-15.952-8.748-34.607-8.149-49.905 1.603-31.066 19.801-67.056 30.267-104.077 30.267s-73.008-10.466-104.072-30.266c-15.299-9.75-33.957-10.352-49.908-1.602-16.057 8.807-25.644 24.984-25.643 43.274v20.921a42.154 42.154 0 0 0-13.293 4.981 196.486 196.486 0 0 1-.997-19.665C39.095 102.989 126.085 16 233.009 16s193.913 86.989 193.913 193.913c0 6.574-.341 13.146-.996 19.661a42.186 42.186 0 0 0-13.289-4.979l-.001-20.923c-.001-18.289-9.588-34.466-25.645-43.273zm25.569 131.157c.049-1.713.079-3.431.079-5.156l-.002-45.331c10.697 3.399 18.469 13.423 18.469 25.23 0 11.836-7.809 21.882-18.546 25.257z"/><path d="M171.021 272.024a18.086 18.086 0 0 1-13.654-2.758 18.086 18.086 0 0 1-7.705-11.605c-.85-4.337-5.056-7.165-9.389-6.313a7.999 7.999 0 0 0-6.313 9.388c1.669 8.522 6.403 15.938 13.379 21.029a13.406 13.406 0 0 0-.996 5.071c0 7.435 6.027 13.462 13.461 13.462 7.083 0 12.876-5.474 13.409-12.42.294-.05.589-.093.883-.151a8 8 0 0 0 6.313-9.389c-.849-4.336-5.055-7.164-9.388-6.314zm154.729-20.676a8.001 8.001 0 0 0-9.389 6.313c-1.93 9.849-11.51 16.295-21.358 14.364a8 8 0 0 0-3.076 15.702c1.142.224 2.281.385 3.415.491.692 6.786 6.423 12.08 13.391 12.08 7.435 0 13.462-6.027 13.462-13.462 0-2.367-.615-4.588-1.688-6.521 5.774-4.85 9.997-11.619 11.556-19.578a8 8 0 0 0-6.313-9.389zm-116.922 76.987a7.999 7.999 0 0 0 0 11.313 7.999 7.999 0 0 0 11.313.001c7.097-7.096 18.643-7.096 25.741 0 1.562 1.562 3.608 2.343 5.656 2.343s4.095-.781 5.657-2.344a7.999 7.999 0 0 0-.001-11.313c-13.333-13.334-35.031-13.334-48.366 0z"/></svg>