<svg xmlns="http://www.w3.org/2000/svg" width="1280" height="720" viewBox="0 0 1280 720"><path fill="#FFF" d="M988.527 11.718c-.042-.042-.075-.087-.117-.129-.043-.042-.088-.076-.13-.115C977.075.362 961.002-2.977 946.29 2.776L305.016 253.52c-16.954 6.628-26.886 23.226-24.722 41.297 2.17 18.073 15.744 31.851 33.782 34.281l313.421 42.27c.586.08 1.056.547 1.136 1.138l42.27 313.418c2.432 18.038 16.208 31.615 34.281 33.782 1.651.198 3.287.293 4.906.293 16.113 0 30.367-9.61 36.392-25.014l250.747-641.28c5.75-14.71 2.413-30.78-8.702-41.987zM319.16 291.45c-.703-.096-1.02-.137-1.142-1.155-.121-1.018.177-1.136.834-1.391l599.982-234.6L638.21 334.931c-1.83-.531-319.05-43.481-319.05-43.481zm391.938 389.699c-.257.657-.359.959-1.392.833-1.017-.121-1.06-.44-1.152-1.14 0 0-42.951-317.221-43.481-319.05L945.696 81.167 711.098 681.149z"/></svg>