<svg xmlns="http://www.w3.org/2000/svg" viewBox="0 0 466.024 466.024"><path d="M447.106 266.299a42.206 42.206 0 0 0-6.83-23.053 211.75 211.75 0 0 0 2.645-33.333C442.922 94.167 348.755 0 233.009 0S23.096 94.167 23.096 209.913c0 11.194.896 22.391 2.646 33.341a42.201 42.201 0 0 0-6.824 23.044c0 21.148 15.54 38.731 35.799 41.941 10.811 88.782 86.642 157.785 178.295 157.785s167.485-69.002 178.295-157.785c20.26-3.209 35.799-20.792 35.799-41.94zm-412.188 0c0-11.807 7.772-21.83 18.468-25.23V286.4c0 1.725.03 3.443.079 5.156-10.736-3.375-18.547-13.421-18.547-25.257zm198.095 183.725c-90.224 0-163.626-73.402-163.626-163.625l-.001-82.724c0-12.358 6.48-23.291 17.337-29.246 5.061-2.775 10.521-4.156 15.96-4.156 6.116 0 12.204 1.748 17.655 5.222 33.637 21.44 72.598 32.773 112.671 32.773 40.074 0 79.037-11.333 112.677-32.774 10.296-6.563 22.861-6.962 33.611-1.066 10.856 5.954 17.339 16.887 17.339 29.245l.003 82.727c0 90.222-73.403 163.624-163.626 163.624zm153.978-289.625c-15.952-8.748-34.607-8.149-49.905 1.603-31.066 19.801-67.056 30.267-104.077 30.267s-73.008-10.466-104.071-30.266c-15.3-9.753-33.96-10.351-49.909-1.602-16.058 8.808-25.644 24.984-25.643 43.274v20.921a42.154 42.154 0 0 0-13.293 4.981 196.486 196.486 0 0 1-.997-19.665C39.096 102.989 126.085 16 233.009 16s193.913 86.989 193.913 193.913c0 6.574-.341 13.146-.996 19.661a42.186 42.186 0 0 0-13.289-4.979l-.001-20.923c-.001-18.289-9.588-34.466-25.645-43.273zm25.569 131.157c.049-1.713.079-3.431.079-5.156l-.002-45.331c10.697 3.399 18.469 13.423 18.469 25.23 0 11.836-7.809 21.882-18.546 25.257z"/><circle cx="159.805" cy="286.835" r="13.462"/><circle cx="308.733" cy="286.835" r="13.461"/><path d="M138.606 268.44a7.97 7.97 0 0 0 3.434-.779l30.287-14.422a7.999 7.999 0 0 0 3.783-10.662c-1.899-3.988-6.672-5.688-10.662-3.783l-30.287 14.422a7.999 7.999 0 0 0-3.783 10.662 8 8 0 0 0 7.228 4.562zm155.09-15.201l30.287 14.422a7.963 7.963 0 0 0 3.434.779 8.002 8.002 0 0 0 7.229-4.563 8 8 0 0 0-3.783-10.662l-30.287-14.422a7.995 7.995 0 0 0-10.662 3.783 8 8 0 0 0 3.782 10.663zm31.775 71.042a129.646 129.646 0 0 1-67.61 19.019h-49.696a129.65 129.65 0 0 1-67.612-19.019 8 8 0 0 0-8.34 13.654 145.647 145.647 0 0 0 75.952 21.364h49.696c26.809 0 53.072-7.388 75.952-21.364a8 8 0 0 0-8.342-13.654zm-67.611 43.536h-49.696a8 8 0 0 0 0 16h49.696a8 8 0 0 0 0-16z"/></svg>