<svg xmlns="http://www.w3.org/2000/svg" viewBox="0 0 423.236 423.236"><path d="M298.384 241.432l-35.811 9.779a7.999 7.999 0 0 0-1.859 14.665l33.215 18.965a7.997 7.997 0 0 0 10.914-2.981 8 8 0 0 0-2.98-10.914l-16.442-9.389 17.179-4.691a8 8 0 1 0-4.216-15.434zm-131.893 16.49a8 8 0 0 0-5.829-6.711l-35.81-9.779a8 8 0 0 0-4.215 15.435l17.179 4.691-16.442 9.389a8 8 0 0 0-2.98 10.914 7.999 7.999 0 0 0 10.914 2.981l33.214-18.965a8.004 8.004 0 0 0 3.969-7.955zm94.31 56.491h-95.995a8 8 0 0 0 0 16h12.998v17.497c0 19.299 15.701 35 35 35s35-15.701 35-35v-17.497h12.998a8 8 0 1 0-.001-16zm-28.998 33.497c0 10.477-8.523 19-19 19s-19-8.523-19-19v-17.497h11v15.999a8 8 0 0 0 16 0v-15.999h11v17.497z"/><path d="M412.845 337.907c-12.236-30.709-39.929-49.281-50.776-55.609 18.073-4.689 31.458-21.14 31.458-40.659a42.042 42.042 0 0 0-7.356-23.742 180.815 180.815 0 0 0 4.116-38.328C390.288 80.555 309.737 0 210.727 0 111.713 0 31.158 80.555 31.158 179.57c0 13.64 1.555 27.209 4.587 40.399a41.747 41.747 0 0 0-6.038 21.674c0 19.518 13.384 35.968 31.456 40.658-10.849 6.329-38.538 24.901-50.772 55.607-15.067 37.812-.466 78.383.162 80.092a8.001 8.001 0 0 0 11.058 4.405c1.632-.808 40.132-20.221 55.198-58.033 2.691-6.752 4.431-13.592 5.478-20.284a147.774 147.774 0 0 0 18.708 26.404c28.065 31.603 68.386 49.728 110.622 49.728 42.235 0 82.556-18.125 110.621-49.727a147.779 147.779 0 0 0 18.709-26.406c1.047 6.692 2.788 13.532 5.478 20.285 15.065 37.813 53.566 57.226 55.198 58.034a8.004 8.004 0 0 0 6.511.263 8.001 8.001 0 0 0 4.547-4.668c.63-1.71 15.231-42.281.164-80.094zm-53.317-71.532v-16.816c2.332.453 4.687.883 7.093 1.261a8.002 8.002 0 0 0 8.361-4.253l2.544-4.962.001.035c.001 11.545-7.566 21.352-17.999 24.735zM210.727 16c90.188 0 163.561 73.377 163.561 163.57 0 12.946-1.518 25.84-4.507 38.312l-.019.077c-1.172 4.842-6.335 16.076-6.335 16.076-38.891-7.317-71.653-26.149-97.449-56.031-20.353-23.577-28.507-45.588-28.583-45.795a8.001 8.001 0 0 0-14.863-.476c-.598 1.376-12.801 30.23-.22 61.721-23.529-3.389-45.487-15.691-65.438-36.698-18.162-19.124-27.701-38.616-27.792-38.803a8.004 8.004 0 0 0-10.204-3.95c-3.068 1.221-5 4.312-5.005 7.614-.076 50.587-30.102 70.473-41.04 76.039-2.151 1.095-17.722 4.812-23.514 8.476a164.956 164.956 0 0 1-2.164-26.561C47.158 89.377 120.535 16 210.727 16zM45.707 241.642c0-11.546 7.567-21.353 18.001-24.736v49.471c-10.434-3.382-18.001-13.189-18.001-24.735zm16.239 116.807c-8.816 22.126-27.943 37.288-39.028 44.599-3.021-12.936-6.479-37.095 2.336-59.219 8.815-22.125 27.942-37.287 39.028-44.598 3.021 12.936 6.478 37.095-2.336 59.218zm248.33 1.419c-25.032 28.186-60.991 44.352-98.658 44.352s-73.627-16.166-98.659-44.353c-21.442-24.14-33.251-55.238-33.251-87.567v-60.234c5.388-2.743 14.143-8.057 22.827-17.015 9.475-9.772 20.33-25.518 25.003-48.979 4.579 6.503 10.377 13.911 17.395 21.342 26.571 28.134 58.017 43.005 90.937 43.005 2.92 0 5.607-1.591 7.013-4.15s1.305-5.681-.264-8.145c-8.875-13.947-10.557-28.148-9.866-39.237a197.353 197.353 0 0 0 20.667 29.051c17.457 20.366 46.525 45.442 90.108 57.811V272.3c0 32.329-11.809 63.428-33.252 87.568zm90.037 43.202c-11.072-7.276-30.165-22.39-39.023-44.621-8.815-22.125-5.357-46.287-2.337-59.218 11.09 7.313 30.214 22.475 39.029 44.598 8.821 22.14 5.353 46.316 2.331 59.241z"/></svg>