<svg xmlns="http://www.w3.org/2000/svg" viewBox="0 0 420.707 420.707"><path d="M287.815 187.311c-9.416 0-18.268 3.667-24.925 10.324a8 8 0 0 0 .001 11.314 7.999 7.999 0 0 0 11.313 0c3.635-3.635 8.469-5.638 13.61-5.638s9.975 2.002 13.611 5.638c1.562 1.562 3.608 2.343 5.656 2.343s4.095-.781 5.657-2.343a8 8 0 0 0-.001-11.314c-6.656-6.657-15.507-10.324-24.922-10.324zm-154.886 16c5.142 0 9.976 2.002 13.61 5.638a7.972 7.972 0 0 0 5.657 2.343 7.972 7.972 0 0 0 5.656-2.343 8 8 0 0 0 .001-11.314c-6.657-6.658-15.509-10.324-24.925-10.324-9.415 0-18.267 3.667-24.924 10.324a8 8 0 1 0 11.312 11.314 19.134 19.134 0 0 1 13.613-5.638zm143.099 79.549a8 8 0 0 0-11.313 0c-5.951 5.952-9.32 13.52-10.117 21.305a193.648 193.648 0 0 1-88.408.212c-.775-8.128-4.313-15.669-10.16-21.517a8 8 0 0 0-11.314 11.313c3.636 3.636 5.639 8.47 5.639 13.611s-2.003 9.975-5.638 13.61a8 8 0 1 0 11.312 11.314 35.147 35.147 0 0 0 8.042-12.419 209.428 209.428 0 0 0 45.868 5.097c15.67 0 31.339-1.772 46.69-5.28a35.022 35.022 0 0 0 8.087 12.602 7.972 7.972 0 0 0 5.657 2.343 7.972 7.972 0 0 0 5.656-2.343 8 8 0 0 0 .001-11.314c-7.505-7.505-7.505-19.717 0-27.222a7.998 7.998 0 0 0-.002-11.312z"/><circle cx="132.929" cy="246.494" r="14"/><circle cx="287.814" cy="246.494" r="14"/><path d="M409.798 214.164c0-11.093-4.861-21.401-12.86-28.48 7.495-7.024 11.931-16.928 11.931-27.689 0-11.319-4.95-21.781-13.326-28.904a37.957 37.957 0 0 0 4.326-17.596c0-16.228-10.147-30.137-24.574-35.565a37.87 37.87 0 0 0 2.074-12.425c0-20.953-17.047-38-38-38-1.872 0-3.729.135-5.56.404-6.522-12.151-19.176-19.904-33.44-19.904-7.359 0-14.355 2.058-20.377 5.91C272.9 4.416 262.942.005 252.369.005a37.844 37.844 0 0 0-20.261 5.864A37.88 37.88 0 0 0 210.35.035c-7.734-.327-15.315 1.762-21.757 5.833A37.826 37.826 0 0 0 168.329.005c-10.579 0-20.544 4.42-27.637 11.934-6.044-3.831-13.122-5.934-20.363-5.934-14.26 0-26.909 7.752-33.432 19.905a38.106 38.106 0 0 0-5.559-.405c-20.953 0-38 17.047-38 38 0 4.293.703 8.475 2.071 12.426-14.425 5.428-24.571 19.336-24.571 35.564 0 6.17 1.504 12.2 4.326 17.594-8.377 7.121-13.326 17.583-13.326 28.906 0 10.763 4.435 20.667 11.929 27.689-7.998 7.079-12.858 17.386-12.858 28.48 0 11.372 5.104 22.016 13.653 29.161a41.843 41.843 0 0 0-1.825 12.244c0 20.423 14.655 37.479 34 41.227v33.75c0 17.505 7.192 34.695 19.733 47.162 12.331 12.258 28.472 18.995 45.49 18.995l.382-.001c11.261-.066 22.041-2.948 31.653-8.406 11.548 19.959 32.766 32.411 56.378 32.411s44.829-12.452 56.377-32.411c9.612 5.458 20.393 8.34 31.653 8.406l.381.001c17.018 0 33.161-6.737 45.492-18.996 12.54-12.466 19.732-29.656 19.732-47.161v-33.75c19.345-3.747 34-20.804 34-41.227 0-4.271-.645-8.393-1.835-12.279 8.531-7.143 13.625-17.775 13.625-29.126zM38.736 255.569c0-12.241 8.505-22.527 19.916-25.274a755.367 755.367 0 0 0-1.893 50.017c-10.446-3.376-18.023-13.189-18.023-24.743zm309.272 74.977c0 13.276-5.472 26.33-15.013 35.814-9.312 9.256-21.451 14.343-34.215 14.343l-.284-.001c-10.977-.064-21.351-3.677-29.998-10.447a8.001 8.001 0 0 0-12.369 3.352c-7.487 18.892-25.447 31.1-45.757 31.1s-38.271-12.208-45.758-31.1a8.001 8.001 0 0 0-12.37-3.351c-8.647 6.77-19.021 10.382-29.999 10.447-12.825.063-25.119-5.017-34.498-14.341-9.541-9.485-15.013-22.539-15.013-35.815v-46.758c0-49.588 5.021-99.344 14.928-147.923 6.839 11.522 19.157 18.589 32.669 18.589 7.236 0 14.313-2.103 20.358-5.934 7.093 7.513 17.06 11.933 27.64 11.933 7.233 0 14.232-2.05 20.262-5.863a37.885 37.885 0 0 0 21.76 5.832 37.882 37.882 0 0 0 21.759-5.833 37.843 37.843 0 0 0 20.261 5.864c10.581 0 20.547-4.419 27.641-11.933 6.045 3.83 13.121 5.934 20.357 5.934 13.515 0 25.835-7.069 32.672-18.594a741.923 741.923 0 0 1 14.967 148.115v46.57zm15.977-50.234a756.107 756.107 0 0 0-1.906-50.02c11.417 2.742 19.929 13.031 19.929 25.277 0 11.554-7.578 21.368-18.023 24.743zm-3.255-66.471a757.017 757.017 0 0 0-12.502-83.564c-1.247-6.002-6.151-10.653-12.191-11.572a42.348 42.348 0 0 1-.514-.084c-6.31-1.112-12.578 2.069-15.599 7.915-3.798 7.352-11.291 11.918-19.555 11.918-6.102 0-11.777-2.448-15.981-6.894a7.998 7.998 0 0 0-12.797 1.597c-3.892 6.968-11.257 11.297-19.22 11.297a21.924 21.924 0 0 1-14.852-5.793 7.998 7.998 0 0 0-10.819.001 21.938 21.938 0 0 1-15.968 5.763 8.133 8.133 0 0 0-.765 0 21.932 21.932 0 0 1-15.965-5.763 8 8 0 0 0-10.82-.001 21.918 21.918 0 0 1-14.853 5.793c-7.963 0-15.327-4.329-19.219-11.297a7.998 7.998 0 0 0-12.797-1.597c-4.204 4.446-9.88 6.894-15.982 6.894-8.263 0-15.756-4.567-19.554-11.917-3.021-5.846-9.288-9.029-15.611-7.914a19.68 19.68 0 0 1-.486.08c-6.058.922-10.963 5.578-12.203 11.572l-.038.184a757.064 757.064 0 0 0-12.444 83.385c-11.04 1.246-20.797 6.783-27.554 14.906a22.02 22.02 0 0 1-5.533-14.586c0-9.281 5.873-17.609 14.615-20.724a8 8 0 1 0 .25-14.978c-8.466-3.339-13.936-11.373-13.936-20.468 0-8.318 4.62-15.836 12.058-19.62a8 8 0 0 0 2.394-12.398 21.989 21.989 0 0 1-5.451-14.482c0-11.751 9.188-21.401 20.918-21.969a8 8 0 0 0 5.997-12.811c-2.889-3.826-4.415-8.394-4.415-13.21 0-12.131 9.869-22 22-22 2.589 0 5.126.446 7.541 1.326a8.003 8.003 0 0 0 10.396-5.199c2.783-9.201 11.44-15.627 21.053-15.627 6.107 0 11.784 2.448 15.984 6.894a8 8 0 0 0 12.801-1.595c3.891-6.97 11.253-11.299 19.215-11.299a21.88 21.88 0 0 1 14.846 5.79 8 8 0 0 0 10.822.005 21.96 21.96 0 0 1 15.867-5.77c.324.02.647.02.972 0a21.944 21.944 0 0 1 15.864 5.769 8 8 0 0 0 10.818 0 21.913 21.913 0 0 1 14.851-5.794c7.968 0 15.334 4.33 19.225 11.299a8 8 0 0 0 12.801 1.595c4.2-4.446 9.873-6.894 15.975-6.894 9.771 0 18.235 6.28 21.063 15.626a8.001 8.001 0 0 0 10.404 5.198 21.875 21.875 0 0 1 7.533-1.324c12.131 0 22 9.869 22 22 0 4.807-1.528 9.377-4.421 13.218a7.998 7.998 0 1 0 6.002 12.803c11.729.569 20.918 10.219 20.918 21.969a21.994 21.994 0 0 1-5.45 14.482 8 8 0 0 0 2.391 12.397c7.438 3.788 12.06 11.307 12.06 19.621 0 9.092-5.471 17.126-13.938 20.468a8 8 0 0 0 .25 14.976c8.743 3.118 14.617 11.446 14.617 20.725 0 5.44-2.021 10.598-5.519 14.559-6.76-8.112-16.515-13.64-27.549-14.881z"/></svg>