<svg xmlns="http://www.w3.org/2000/svg" viewBox="0 0 433.398 433.398"><path d="M231.683 344.158c-15.107 6.435-32.631-.623-39.064-15.729a8 8 0 0 0-14.721 6.269c7.407 17.391 24.373 27.841 42.18 27.841a45.524 45.524 0 0 0 17.874-3.66 8 8 0 0 0-6.269-14.721z"/><path d="M406.343 256.221c0-11.043-3.964-21.393-11.219-29.545 2.932-59.998 4.509-100.099-14.466-137.038-12.926-25.167-33.85-46.2-62.188-62.513C285.422 8.1 247.724-1.229 209.443.13c-33.635 1.2-64.945 16.909-86.49 43.256-27.858 1.572-53.221 16.695-66.845 40.109-1.169 2.01-2.3 4.077-3.361 6.142-18.989 36.964-17.409 77.064-14.475 137.073-6.972 7.865-11.217 18.198-11.217 29.509 0 23.325 18.025 42.508 40.875 44.381 9.515 30.66 34.723 65.4 75.326 103.678 20.592 19.413 47.019 29.119 73.445 29.119 26.427 0 52.853-9.707 73.445-29.12 40.603-38.277 65.811-73.017 75.326-103.676 22.848-1.874 40.871-21.056 40.871-44.38zM210.014 16.12c35.28-1.256 70.024 7.342 100.474 24.871 25.623 14.75 44.444 33.577 55.938 55.957 15.979 31.107 15.764 64.967 12.898 125.181l-17.87.985c-120.43 3.943-186.974-52.021-206.743-71.986L135.46 53.379c18.626-22.695 45.601-36.227 74.554-37.259zM66.979 96.948a118.475 118.475 0 0 1 2.958-5.406c10.375-17.832 29.34-29.669 50.447-31.904l18.612 94.498c-12.726 29.203-34.476 44.558-68.264 48.241a8 8 0 0 0-7.133 7.953v2.079a44.14 44.14 0 0 0-9.84 3.007c-2.545-56.033-2.162-88.524 13.22-118.468zM43.055 256.22c0-12.962 8.688-23.926 20.544-27.395v45.143c0 3.219.219 6.497.632 9.827-12.179-3.257-21.176-14.383-21.176-27.575zM279.17 392.637c-35.028 33.023-89.908 33.024-124.938 0-48.825-46.03-74.632-87.064-74.632-118.668l.001-56.644c32.578-5.238 55.677-21.259 70.194-48.724 12.308 11.313 32.47 27.045 61.074 40.811 42.526 20.465 90.577 30.5 142.935 29.876v34.68c-.001 31.604-25.808 72.639-74.634 118.669zm90.001-108.842c.413-3.33.632-6.608.632-9.827v-35.291l13.893-.765c4.304 5.126 6.648 11.514 6.648 18.309-.001 13.19-8.996 24.315-21.173 27.574z"/><path d="M118.1 258.002a7.998 7.998 0 0 0 0 11.313 8 8 0 0 0 11.313 0c5.746-5.744 15.092-5.743 20.836 0 1.562 1.562 3.609 2.343 5.657 2.343s4.095-.781 5.657-2.343a7.998 7.998 0 0 0 0-11.313c-11.981-11.983-31.48-11.983-43.463 0z"/><circle cx="294.599" cy="260.329" r="15.048"/></svg>