<svg xmlns="http://www.w3.org/2000/svg" viewBox="0 0 433.396 433.396"><path d="M406.342 256.218c0-11.044-3.966-21.396-11.222-29.549 2.932-60.004 4.51-100.099-14.467-137.039-12.921-25.158-33.844-46.19-62.188-62.513C285.408 8.094 247.697-1.231 209.439.13c-17.127.61-34.281 5.167-49.61 13.181-14.065 7.359-26.744 17.709-36.869 30.067-27.859 1.572-53.224 16.696-66.851 40.104a132.445 132.445 0 0 0-3.365 6.146c-18.99 36.966-17.409 77.069-14.476 137.082-6.97 7.864-11.214 18.196-11.214 29.506 0 23.324 18.024 42.506 40.873 44.38 9.515 30.664 34.725 65.403 75.331 103.673 20.592 19.42 47.013 29.126 73.441 29.126 26.424 0 52.856-9.71 73.448-29.125 40.6-38.275 65.807-73.014 75.322-103.673 22.85-1.874 40.873-21.055 40.873-44.379zM167.243 27.49c13.223-6.913 28.01-10.844 42.766-11.369 35.272-1.258 70.019 7.337 100.475 24.862 25.627 14.758 44.447 33.584 55.938 55.957 15.98 31.106 15.765 64.967 12.898 125.181l-17.87.985c-11.814.384-23.506.199-34.807-.536-8.758-7.578-20.16-12.177-32.622-12.177-7.215 0-14.07 1.55-20.269 4.315-65.438-15.617-104.037-48.403-119.04-63.584L135.46 53.378c8.747-10.638 19.67-19.55 31.783-25.888zm160.71 232.836c0 18.711-15.223 33.934-33.934 33.934-18.712 0-33.935-15.223-33.935-33.934 0-3.185.451-6.265 1.275-9.19h17.636c.257 8.085 6.876 14.565 15.023 14.565s14.766-6.48 15.023-14.565h17.636a33.76 33.76 0 0 1 1.276 9.19zm-111.255-23.523c-10.799 0-21.009 3.41-29.397 9.533-6.066-20.743-25.248-35.943-47.926-35.943-21.752 0-40.289 13.986-47.119 33.434l-12.66-12.66v-13.849c32.58-5.239 55.678-21.258 70.195-48.726 17.973 16.507 53.166 42.835 107.199 58.271a49.895 49.895 0 0 0-10.897 19.473c-8.386-6.124-18.596-9.533-29.395-9.533zm-43.387 23.523c0 18.711-15.223 33.934-33.935 33.934-18.711 0-33.934-15.223-33.934-33.934 0-3.185.451-6.265 1.275-9.19h17.636c.257 8.085 6.876 14.565 15.023 14.565 8.148 0 14.766-6.48 15.023-14.565h17.636a33.798 33.798 0 0 1 1.276 9.19zm-56.644-25.19c6.019-5.431 13.984-8.744 22.709-8.744 8.726 0 16.692 3.313 22.71 8.744h-45.419zm154.643 0c6.019-5.431 13.984-8.744 22.71-8.744s16.691 3.313 22.709 8.744H271.31zm69.829 8.69a49.702 49.702 0 0 0-1.912-4.674c2.147.058 4.303.097 6.467.118l-4.555 4.556zM66.977 96.938a114.402 114.402 0 0 1 2.957-5.401c10.374-17.821 29.325-29.656 50.45-31.904l18.611 94.492c-12.727 29.205-34.476 44.562-68.264 48.244a8 8 0 0 0-7.133 7.953v2.083a44.143 44.143 0 0 0-9.842 3.008c-2.546-56.037-2.164-88.529 13.221-118.475zM43.054 256.216c0-12.962 8.687-23.926 20.543-27.395v45.142c0 3.22.219 6.498.632 9.828-12.179-3.258-21.175-14.383-21.175-27.575zm236.118 136.413c-35.031 33.03-89.91 33.032-124.938-.001-48.828-46.02-74.638-87.053-74.638-118.665v-20.169l9.978 9.978c1.778 25.931 23.428 46.488 49.801 46.488 25.113 0 45.946-18.637 49.417-42.804 6.345-9.2 16.652-14.653 27.905-14.653s21.559 5.452 27.904 14.651c3.471 24.168 24.304 42.806 49.417 42.806 26.374 0 48.023-20.557 49.801-46.488l9.98-9.98v20.171c.002 31.605-25.804 72.638-74.627 118.666zm89.997-108.837c.413-3.33.632-6.609.632-9.829V238.67l13.89-.765c4.306 5.127 6.651 11.516 6.651 18.313 0 13.191-8.996 24.315-21.173 27.574z"/><path d="M241.279 325.379c-7.537-3.683-16.037-5.63-24.582-5.63-8.544 0-17.044 1.947-24.581 5.63-11.73 5.732-17.626 18.17-14.67 30.951 2.991 12.934 13.879 21.623 27.094 21.623h24.315c13.215 0 24.103-8.69 27.094-21.624 2.955-12.78-2.94-25.218-14.67-30.95zm-.918 27.345c-1.031 4.461-4.596 9.229-11.505 9.229H204.54c-6.909 0-10.474-4.767-11.505-9.228-1.004-4.338.074-10.023 6.106-12.971 5.361-2.62 11.433-4.005 17.556-4.005 6.124 0 12.195 1.385 17.557 4.005 6.032 2.948 7.109 8.633 6.107 12.97z"/></svg>