<svg xmlns="http://www.w3.org/2000/svg" viewBox="0 0 387.039 387.039"><circle cx="112.809" cy="233.169" r="15.368"/><circle cx="274.229" cy="233.169" r="15.368"/><path d="M387.039 226.647c0-22.261-16.136-40.811-37.323-44.602v-6.717c0-86.127-70.069-156.196-156.196-156.196-86.126 0-156.196 70.069-156.196 156.196v6.717C16.136 185.836 0 204.387 0 226.647c0 22.453 16.414 41.134 37.871 44.7 3.02 34.414 18.765 59.834 46.942 75.653 25.057 14.068 60.616 20.906 108.707 20.906s83.649-6.839 108.707-20.906c28.177-15.819 43.922-41.238 46.942-75.653 21.455-3.566 37.87-22.247 37.87-44.7zm-371.039 0c0-13.395 9.032-24.713 21.323-28.205v56.41C25.032 251.361 16 240.043 16 226.647zm317.715 32.11c0 35.135-12.862 59.436-39.322 74.291-22.603 12.69-55.599 18.858-100.874 18.858s-78.271-6.168-100.874-18.858c-26.459-14.855-39.322-39.156-39.322-74.291v-83.429c0-63.309 42.185-116.941 99.918-134.29 43.983.556 67.407 32.306 67.407 55.296 0 17.608-14.325 31.934-31.934 31.934-13.205 0-23.947-10.743-23.947-23.947 0-9.681 7.876-17.558 17.558-17.558a8 8 0 0 0 0-16c-18.504 0-33.558 15.054-33.558 33.558 0 22.027 17.92 39.947 39.947 39.947 26.431 0 47.934-21.503 47.934-47.934 0-16.605-8.343-34.47-22.317-47.79-5.592-5.33-11.955-9.806-18.897-13.388 76.424 1.03 138.281 63.507 138.281 140.171v83.43zm16-3.905v-56.41c12.291 3.492 21.323 14.81 21.323 28.205s-9.031 24.714-21.323 28.205z"/><path d="M245.275 265.915H141.764a8 8 0 0 0-8 8c0 32.949 26.806 59.756 59.755 59.756 32.95 0 59.756-26.806 59.756-59.756a8 8 0 0 0-8-8zm-51.756 51.756c-21.395 0-39.253-15.436-43.022-35.756h28.155v7.573a8 8 0 0 0 16 0v-7.573h41.891c-3.771 20.32-21.628 35.756-43.024 35.756z"/></svg>