<svg xmlns="http://www.w3.org/2000/svg" viewBox="0 0 455.68 455.68"><path d="M166.151 267.877c1.562 1.563 3.609 2.343 5.657 2.343s4.095-.781 5.657-2.343a8 8 0 0 0 0-11.313c-13.744-13.743-36.106-13.743-49.849 0a7.998 7.998 0 0 0 0 11.313 8 8 0 0 0 11.313 0c7.504-7.505 19.717-7.505 27.222 0zm161.914 0a7.998 7.998 0 0 0 0-11.313c-13.744-13.744-36.105-13.744-49.849 0a7.999 7.999 0 0 0 0 11.313 7.998 7.998 0 0 0 11.313 0c7.505-7.505 19.718-7.505 27.222 0 1.562 1.562 3.609 2.343 5.657 2.343s4.095-.781 5.657-2.343zm-53.4 46.353h-93.65c-11.938 0-22.73 6.134-28.867 16.409-6.054 10.135-6.345 22.355-.78 32.691 15.18 28.189 44.482 45.701 76.472 45.701 31.99 0 61.292-17.512 76.472-45.701 5.565-10.335 5.273-22.556-.78-32.691-6.137-10.275-16.929-16.409-28.867-16.409zm-.997 16c-12.761 6.919-29.089 10.86-46.088 10.86-16.99 0-33.32-3.94-46.094-10.86h92.182zm16.556 25.514c-12.384 23-36.289 37.287-62.384 37.287s-50-14.288-62.384-37.287c-2.839-5.271-2.754-11.255.201-16.493 16.204 11.411 38.277 17.839 61.922 17.839 23.845 0 46.065-6.539 62.286-18.121 3.114 5.304 3.249 11.409.359 16.775z"/><path d="M414.03 252.5c0-15.63-8.26-29.869-21.448-37.69.542-14.097.748-46.325.748-49.31 0-13.753-1.697-27.116-4.874-39.9 22.995-9.416 38.464-31.977 38.464-57.372 0-34.187-27.813-62-62-62a61.956 61.956 0 0 0-46.409 20.895C292.451 9.987 261.292 0 227.84 0c-33.452 0-64.611 9.987-90.672 27.123A61.951 61.951 0 0 0 90.76 6.229c-34.187 0-62 27.813-62 62 0 25.394 15.469 47.956 38.464 57.372a165.297 165.297 0 0 0-4.874 39.9c0 .381.378 34.01 1.256 48.993-13.508 7.74-21.956 22.084-21.956 38.007 0 11.72 4.563 22.729 12.844 30.997 5.904 5.904 13.196 9.913 21.139 11.73-7.002 3.654-12.76 9.301-16.601 16.402-5.082 9.398-6.2 20.213-3.148 30.453 5.168 17.34 21.119 28.579 38.353 28.579 3.424 0 6.898-.469 10.348-1.397 12.798 18.329 30.091 37.762 51.878 58.228 20.013 18.792 45.694 28.188 71.376 28.188 25.683 0 51.365-9.396 71.378-28.189 21.784-20.462 39.087-39.896 51.888-58.224 3.448.926 6.916 1.395 10.338 1.395 17.232 0 33.185-11.24 38.353-28.579 3.052-10.239 1.934-21.054-3.148-30.453-3.846-7.111-9.615-12.764-16.63-16.417 19.456-4.479 34.012-21.923 34.012-42.714zM382.264 25.634c16.791 6.862 28.656 23.364 28.656 42.595a45.96 45.96 0 0 1-8.795 27.042c-17.968-21.956-20.059-53.869-19.861-69.637zm-17.344-3.405c.462 0 .919.021 1.378.035-.606 16.842.804 56.459 24.287 84.158a45.624 45.624 0 0 1-6.775 3.763c-10.36-29.128-28.657-54.52-52.281-73.566 8.623-9.107 20.643-14.39 33.391-14.39zm-59.282 15.658c42.961 26.292 71.691 73.659 71.691 127.613 0 5.839-.227 30.57-.593 44.326-2.896-.593-5.718-1.527-8.369-2.834-43.443-21.419-64.416-64.967-68.838-75.151 2.763-11.739 12.903-59.011 6.109-93.954zM227.84 16c20.583 0 40.208 4.183 58.069 11.741 11.39 24.643 4.043 73.622-1.154 96.981-13.908.748-48.805 3.899-86.682 17.15-28.426 9.944-52.576 23.547-71.78 40.43-18.254 16.048-32.019 35.055-41.101 56.705-2.008-6.453-5.621-24.662-5.776-28.104-.515-11.427-.933-33.418-1.066-45.403C78.35 83.065 145.41 16 227.84 16zM44.76 68.229c0-19.121 11.73-35.55 28.369-42.481.186 15.762-1.927 47.438-19.713 69.336a45.969 45.969 0 0 1-8.656-26.855zm20.155 38.067c23.377-27.689 24.784-67.204 24.179-84.025.554-.02 1.107-.042 1.666-.042 12.748 0 24.768 5.283 33.389 14.389-23.624 19.046-41.921 44.438-52.281 73.567a45.766 45.766 0 0 1-6.953-3.889zM57.65 252.5c0-7.976 3.336-15.329 8.953-20.49 3.787 15.15 9.048 28.386 10.897 32.84v14.328a27.715 27.715 0 0 1-11.698-6.999c-5.257-5.249-8.152-12.238-8.152-19.679zm13.567 85.012a23.843 23.843 0 0 1 1.889-18.271 23.842 23.842 0 0 1 14.255-11.584l23-6.855 6.855 23c3.78 12.682-3.463 26.076-16.145 29.856s-26.074-3.464-29.854-16.146zm217.046 78.316c-33.883 31.816-86.965 31.817-120.846 0-20.14-18.917-36.308-36.97-48.339-53.85 12.404-9.872 18.27-26.649 13.472-42.748l-9.141-30.667c-1.262-4.235-5.719-6.647-9.952-5.381l-19.957 5.95v-.792c0-29.719 10.519-58.616 30.185-80.897a146.966 146.966 0 0 1 12.999-12.972c17.588-15.508 39.885-28.077 66.271-37.355 36.12-12.701 70.218-15.711 82.974-16.415 6.921 15.28 29.933 58.712 76.25 81.078v67.354l-19.958-5.949c-4.235-1.266-8.69 1.147-9.952 5.381l-9.141 30.667c-4.798 16.097 1.067 32.873 13.468 42.745-12.029 16.88-28.192 34.932-48.333 53.851zm96.2-78.316c-3.78 12.683-17.173 19.925-29.855 16.145-12.682-3.78-19.925-17.174-16.145-29.856l6.855-23 23 6.855a23.84 23.84 0 0 1 14.256 11.584 23.847 23.847 0 0 1 1.889 18.272zm-6.283-58.348v-52.711c3.312.678 6.473 2.031 9.14 4.109a27.783 27.783 0 0 1 10.71 21.938c0 12.572-8.382 23.219-19.85 26.664z"/></svg>