<svg xmlns="http://www.w3.org/2000/svg" viewBox="0 0 387.039 387.039"><circle cx="112.809" cy="233.169" r="15.368"/><circle cx="274.23" cy="233.169" r="15.368"/><path d="M387.039 226.647c0-22.261-16.136-40.811-37.323-44.602v-6.717c0-86.127-70.069-156.196-156.196-156.196-86.126 0-156.196 70.069-156.196 156.196v6.717C16.136 185.837 0 204.387 0 226.647c0 22.453 16.414 41.134 37.871 44.7 3.02 34.414 18.765 59.834 46.942 75.653 25.057 14.068 60.616 20.906 108.707 20.906s83.649-6.839 108.707-20.906c28.177-15.819 43.922-41.238 46.942-75.653 21.456-3.566 37.87-22.247 37.87-44.7zm-371.039 0c0-13.395 9.032-24.713 21.324-28.205v56.41C25.032 251.361 16 240.043 16 226.647zm317.716 32.11c0 35.135-12.862 59.436-39.322 74.291-22.603 12.69-55.599 18.858-100.874 18.858s-78.271-6.168-100.874-18.858c-26.459-14.855-39.322-39.156-39.322-74.291v-83.429c0-63.309 42.185-116.941 99.918-134.29 43.983.556 67.407 32.306 67.407 55.296 0 17.608-14.325 31.934-31.934 31.934-13.205 0-23.947-10.743-23.947-23.947 0-9.681 7.876-17.558 17.558-17.558a8 8 0 0 0 0-16c-18.504 0-33.558 15.054-33.558 33.558 0 22.027 17.92 39.947 39.947 39.947 26.431 0 47.934-21.503 47.934-47.934 0-16.605-8.343-34.47-22.317-47.79-5.589-5.327-11.945-9.807-18.883-13.387 76.418 1.037 138.267 63.512 138.267 140.171v83.429zm16-3.904v-56.41c12.291 3.492 21.323 14.81 21.323 28.205s-9.032 24.713-21.323 28.205z"/><path d="M151.266 294.136a7.999 7.999 0 0 0 0 11.314 8 8 0 0 0 11.313 0c17.06-17.06 44.819-17.061 61.88 0 1.562 1.562 3.609 2.343 5.657 2.343s4.095-.781 5.657-2.343a7.999 7.999 0 0 0 0-11.314c-23.298-23.298-61.208-23.299-84.507 0zm-32.752-117.25a8 8 0 0 0-16 0c0 8.391-6.827 15.218-15.218 15.218a8 8 0 0 0 0 16c17.213 0 31.218-14.004 31.218-31.218zm166.012 0a8 8 0 0 0-16 0c0 17.214 14.004 31.218 31.218 31.218a8 8 0 0 0 0-16c-8.391 0-15.218-6.826-15.218-15.218z"/></svg>