<svg xmlns="http://www.w3.org/2000/svg" viewBox="0 0 420.807 420.807"><path d="M208.721 313.821c-16.19 0-31.412 6.305-42.859 17.753a7.998 7.998 0 0 0 0 11.313 7.999 7.999 0 0 0 11.313 0c8.426-8.426 19.629-13.067 31.546-13.067s23.12 4.641 31.546 13.067c1.562 1.562 3.609 2.343 5.657 2.343s4.095-.781 5.657-2.343a7.998 7.998 0 0 0 0-11.313c-11.448-11.448-26.669-17.753-42.86-17.753z"/><circle cx="123.548" cy="246.564" r="15.703"/><circle cx="297.27" cy="246.564" r="15.703"/><path d="M291.806 176.148l-25.22 9.445a8 8 0 0 0 5.611 14.983l25.22-9.445c8.12-3.04 17.199 1.091 20.239 9.209a8.002 8.002 0 0 0 10.298 4.686 7.999 7.999 0 0 0 4.686-10.297c-2.972-7.936-8.856-14.238-16.569-17.748s-16.331-3.805-24.265-.833zM123.4 223.497l25.22 9.445a8 8 0 0 0 10.297-4.686 7.998 7.998 0 0 0-4.686-10.297l-25.22-9.445c-7.936-2.973-16.553-2.676-24.265.833-7.713 3.51-13.597 9.813-16.569 17.748a7.999 7.999 0 0 0 7.491 10.807c3.24 0 6.29-1.983 7.493-5.196 3.041-8.119 12.12-12.251 20.239-9.209z"/><path d="M395.329 199.336v-14.411C395.329 82.957 312.371 0 210.403 0S25.478 82.957 25.478 184.925v14.411c-6.718 8.016-10.772 18.335-10.772 29.587 0 22.878 16.743 41.911 38.617 45.512 7.73 33.852 34.765 72.788 80.693 116.084 21.421 20.193 48.902 30.287 76.392 30.287 27.483 0 54.976-10.098 76.392-30.286 45.929-43.298 72.964-82.235 80.694-116.087 21.869-3.606 38.606-22.636 38.606-45.51.001-11.252-4.054-21.571-10.771-29.587zM50.99 254.781c0 .873.031 1.755.06 2.636-11.823-4.074-20.344-15.304-20.344-28.493 0-15.065 11.112-27.583 25.569-29.79a296.626 296.626 0 0 0-5.285 55.647zm224.835 124.097c-36.682 34.58-94.151 34.58-130.833 0-51.029-48.105-78.002-91.017-78.002-124.125 0-48.332 12.574-96.116 36.362-138.187l1.232-2.18c4.262-7.538 11.978-12.383 20.639-12.96.601-.04 1.198-.06 1.791-.06 7.948 0 15.16 3.567 20.004 9.969l.247.329c14.796 19.87 38.399 31.733 63.137 31.733 24.744 0 48.344-11.859 63.131-31.723l.258-.345c5.193-6.866 13.138-10.478 21.783-9.898 8.662.576 16.378 5.42 20.643 12.958l1.222 2.16c23.805 42.083 36.387 89.882 36.387 138.231.001 33.08-26.972 75.992-78.001 124.098zm55.541-270.206s0-.001 0 0l-1.223-2.161c-6.925-12.242-19.451-20.109-33.506-21.044-13.916-.915-27.227 5.135-35.614 16.222l-.323.432c-11.958 16.063-30.291 25.277-50.297 25.277-20.001 0-38.336-9.217-50.312-25.299l-.325-.432c-8.38-11.075-21.695-17.131-35.607-16.205-14.055.937-26.579 8.806-33.502 21.05l-1.232 2.18C76.246 132 66.329 156.969 59.87 182.813a45.81 45.81 0 0 0-18.392 4.251v-2.138C41.478 91.78 117.258 16 210.404 16c93.146 0 168.925 75.78 168.925 168.925v2.138a45.829 45.829 0 0 0-18.388-4.251c-6.463-25.848-16.386-50.825-29.575-74.14zm38.401 148.741c.029-.88.06-1.76.06-2.632 0-18.717-1.791-37.354-5.289-55.646 14.454 2.21 25.562 14.726 25.562 29.789.001 13.184-8.515 24.411-20.333 28.489z"/><path d="M172.136 305.553l1.912-3.474a7.812 7.812 0 0 1 4.699-3.759 7.814 7.814 0 0 1 5.98.664l6.253 3.443a8 8 0 0 0 7.717-14.015l-6.253-3.443c-11.527-6.346-26.066-2.132-32.412 9.395l-1.912 3.474c-2.091 3.798-6.883 5.187-10.679 3.095a8 8 0 1 0-7.717 14.017 23.715 23.715 0 0 0 11.468 2.955c8.424-.002 16.602-4.466 20.944-12.352zm101.241-4.621c-3.798 2.092-8.588.702-10.679-3.095l-1.913-3.474a23.708 23.708 0 0 0-14.26-11.41c-6.124-1.774-12.569-1.058-18.152 2.016l-6.253 3.443a7.998 7.998 0 0 0-3.149 10.866 7.999 7.999 0 0 0 10.866 3.149l6.253-3.443c3.798-2.091 8.589-.702 10.679 3.096l1.913 3.474c4.342 7.887 12.519 12.35 20.943 12.35 3.887 0 7.829-.951 11.468-2.955a8 8 0 0 0 3.15-10.867 7.999 7.999 0 0 0-10.866-3.15z"/></svg>