<svg xmlns="http://www.w3.org/2000/svg" width="720.001" height="719.997" viewBox="280 0.002 720.001 719.997"><path d="M965.312 213.584c33.983-34.056 33.983-89.28 0-123.336L903.68 28.544c-34.056-34.056-89.279-34.056-123.336 0l-37.296 38.52 185.04 184.968 37.224-38.448zM462.608 629.023c-26.641 0-65.593 3.457-84.457-15.408-18.864-18.936-15.336-57.814-15.336-84.455 0-4.896-31.968-48.744-32.976-49.969L285.2 706.641 512 662.072c-1.08-1.008-44.136-33.049-49.392-33.049zM704.024 101.48l-.648.648-.36-.36L368.36 436.713l194.76 194.184 335.592-333.288-.936-.936.936-.936L704.024 101.48zM425.384 440.6l282.601-282.167 36.071 35.928-282.672 282.096-36-35.857zm134.208 133.777l-36.432-36.361L805.904 255.92l36.432 36.36-282.744 282.097z" fill="#FFF"/></svg>