<svg xmlns="http://www.w3.org/2000/svg" viewBox="0 0 466.024 466.024"><path d="M447.106 266.299a42.206 42.206 0 0 0-6.83-23.053 211.75 211.75 0 0 0 2.645-33.333C442.922 94.167 348.755 0 233.009 0S23.096 94.167 23.096 209.913c0 11.194.896 22.391 2.646 33.341a42.201 42.201 0 0 0-6.824 23.044c0 21.148 15.54 38.731 35.799 41.941 10.811 88.782 86.642 157.785 178.295 157.785s167.485-69.002 178.295-157.785c20.26-3.209 35.799-20.792 35.799-41.94zm-412.188 0c0-11.807 7.772-21.83 18.468-25.23V286.4c0 1.725.03 3.443.079 5.156-10.736-3.375-18.547-13.421-18.547-25.257zm198.095 183.725c-90.224 0-163.626-73.402-163.626-163.625l-.001-82.724c0-12.358 6.48-23.291 17.337-29.246 5.061-2.775 10.521-4.156 15.96-4.156 6.116 0 12.204 1.748 17.655 5.222 33.637 21.44 72.598 32.773 112.671 32.773 40.074 0 79.037-11.333 112.677-32.774 10.296-6.563 22.861-6.962 33.611-1.066 10.856 5.954 17.339 16.887 17.339 29.245l.003 82.727c0 90.222-73.403 163.624-163.626 163.624zm153.978-289.625c-15.952-8.748-34.607-8.149-49.905 1.603-31.066 19.801-67.056 30.267-104.077 30.267s-73.008-10.466-104.071-30.266c-15.301-9.753-33.96-10.351-49.909-1.602-16.058 8.808-25.644 24.984-25.643 43.274v20.921a42.145 42.145 0 0 0-13.293 4.981 196.486 196.486 0 0 1-.997-19.665C39.096 102.989 126.085 16 233.009 16s193.913 86.989 193.913 193.913c0 6.574-.341 13.146-.997 19.661a42.186 42.186 0 0 0-13.289-4.979l-.001-20.923c0-18.289-9.587-34.466-25.644-43.273zm25.569 131.157c.049-1.713.079-3.431.079-5.156l-.001-45.331c10.697 3.399 18.469 13.423 18.469 25.23-.001 11.836-7.81 21.882-18.547 25.257z"/><path d="M266.927 325.281a8.003 8.003 0 0 0-11.314 0c-4.029 4.029-6.9 8.903-8.46 14.219-10.282-3.112-20.917-3.112-31.2 0-1.56-5.315-4.431-10.189-8.46-14.219a8 8 0 0 0-11.314 11.314c6.823 6.822 6.823 17.924 0 24.746a8 8 0 0 0 11.314 11.314c4.565-4.566 7.643-10.218 9.009-16.368 9.912-4.18 20.19-4.18 30.102 0 1.366 6.15 4.443 11.802 9.009 16.368 1.563 1.562 3.609 2.343 5.657 2.343s4.095-.781 5.657-2.343a8 8 0 0 0 0-11.314c-6.823-6.822-6.823-17.924 0-24.746a8 8 0 0 0 0-11.314zm-83.011-51.913l-33.215-18.966a8 8 0 1 0-7.934 13.894l16.443 9.389-17.18 4.691a8 8 0 0 0 4.215 15.436l35.811-9.779a8.002 8.002 0 0 0 1.86-14.665zm140.076 9.009l-17.179-4.691 16.443-9.389a8 8 0 0 0 2.98-10.914 7.997 7.997 0 0 0-10.914-2.98l-33.215 18.966a7.999 7.999 0 0 0 1.859 14.665l35.81 9.779a8.004 8.004 0 0 0 9.825-5.611 7.997 7.997 0 0 0-5.609-9.825z"/></svg>