<?xml version="1.0" encoding="utf-8"?>
<!-- Generator: Adobe Illustrator 15.0.0, SVG Export Plug-In . SVG Version: 6.00 Build 0)  -->
<!DOCTYPE svg PUBLIC "-//W3C//DTD SVG 1.1//EN" "http://www.w3.org/Graphics/SVG/1.1/DTD/svg11.dtd">
<svg version="1.1" id="Calque_1" xmlns="http://www.w3.org/2000/svg" xmlns:xlink="http://www.w3.org/1999/xlink" x="0px" y="0px"
	 width="50px" height="50px" viewBox="0 0 50 50" enable-background="new 0 0 50 50" xml:space="preserve">
<path fill-rule="evenodd" clip-rule="evenodd" fill="#000333" d="M24.421,7.113c-10.255,0-18.571,8.314-18.571,18.572
	c0,8.204,5.321,15.165,12.701,17.622c0.929,0.17,1.267-0.404,1.267-0.896c0-0.44-0.015-1.607-0.024-3.158
	c-5.166,1.123-6.256-2.489-6.256-2.489c-0.845-2.145-2.062-2.717-2.062-2.717c-1.686-1.151,0.127-1.128,0.127-1.128
	c1.864,0.131,2.845,1.913,2.845,1.913c1.657,2.838,4.347,2.019,5.405,1.544c0.168-1.201,0.649-2.02,1.179-2.483
	c-4.124-0.469-8.459-2.062-8.459-9.178c0-2.028,0.724-3.685,1.912-4.984c-0.19-0.469-0.828-2.358,0.182-4.915
	c0,0,1.56-0.5,5.108,1.904c1.48-0.412,3.069-0.618,4.649-0.625c1.577,0.007,3.166,0.213,4.649,0.625
	c3.545-2.403,5.102-1.904,5.102-1.904c1.013,2.557,0.376,4.445,0.185,4.915c1.19,1.299,1.908,2.956,1.908,4.984
	c0,7.134-4.341,8.704-8.479,9.164c0.668,0.573,1.261,1.707,1.261,3.438c0,2.483-0.023,4.486-0.023,5.095
	c0,0.498,0.335,1.075,1.278,0.895c7.374-2.461,12.688-9.418,12.688-17.62C42.992,15.427,34.678,7.113,24.421,7.113z"/>
</svg>
